  0
SECTION
  2
HEADER
  9
$ACADVER
  1
AC1021
  9
$ACADMAINTVER
 70
    25
  9
$DWGCODEPAGE
  3
ANSI_1252
  9
$LASTSAVEDBY
  1
tsueidan
  9
$INSBASE
 10
0.0
 20
0.0
 30
0.0
  9
$EXTMIN
 10
188.4384496662341
 20
92.33727461796448
 30
0.0
  9
$EXTMAX
 10
1083.417901831118
 20
253.3052979333684
 30
0.0
  9
$LIMMIN
 10
0.0
 20
0.0
  9
$LIMMAX
 10
12.0
 20
9.0
  9
$ORTHOMODE
 70
     1
  9
$REGENMODE
 70
     1
  9
$FILLMODE
 70
     1
  9
$QTEXTMODE
 70
     0
  9
$MIRRTEXT
 70
     1
  9
$LTSCALE
 40
1.0
  9
$ATTMODE
 70
     1
  9
$TEXTSIZE
 40
72.58179137865795
  9
$TRACEWID
 40
0.05
  9
$TEXTSTYLE
  7
STANDARD
  9
$CLAYER
  8
Layer_1
  9
$CELTYPE
  6
BYBLOCK
  9
$CECOLOR
 62
   256
  9
$CELTSCALE
 40
1.0
  9
$DISPSILH
 70
     0
  9
$DIMSCALE
 40
1.0
  9
$DIMASZ
 40
0.18
  9
$DIMEXO
 40
0.0625
  9
$DIMDLI
 40
0.38
  9
$DIMRND
 40
0.0
  9
$DIMDLE
 40
0.0
  9
$DIMEXE
 40
0.18
  9
$DIMTP
 40
0.0
  9
$DIMTM
 40
0.0
  9
$DIMTXT
 40
0.18
  9
$DIMCEN
 40
0.09
  9
$DIMTSZ
 40
0.0
  9
$DIMTOL
 70
     0
  9
$DIMLIM
 70
     0
  9
$DIMTIH
 70
     1
  9
$DIMTOH
 70
     1
  9
$DIMSE1
 70
     0
  9
$DIMSE2
 70
     0
  9
$DIMTAD
 70
     0
  9
$DIMZIN
 70
     0
  9
$DIMBLK
  1

  9
$DIMASO
 70
     1
  9
$DIMSHO
 70
     1
  9
$DIMPOST
  1

  9
$DIMAPOST
  1

  9
$DIMALT
 70
     0
  9
$DIMALTD
 70
     2
  9
$DIMALTF
 40
25.4
  9
$DIMLFAC
 40
1.0
  9
$DIMTOFL
 70
     0
  9
$DIMTVP
 40
0.0
  9
$DIMTIX
 70
     0
  9
$DIMSOXD
 70
     0
  9
$DIMSAH
 70
     0
  9
$DIMBLK1
  1

  9
$DIMBLK2
  1

  9
$DIMSTYLE
  2
ISO-25
  9
$DIMCLRD
 70
     0
  9
$DIMCLRE
 70
     0
  9
$DIMCLRT
 70
     0
  9
$DIMTFAC
 40
1.0
  9
$DIMGAP
 40
0.09
  9
$DIMJUST
 70
     0
  9
$DIMSD1
 70
     0
  9
$DIMSD2
 70
     0
  9
$DIMTOLJ
 70
     1
  9
$DIMTZIN
 70
     0
  9
$DIMALTZ
 70
     0
  9
$DIMALTTZ
 70
     0
  9
$DIMUPT
 70
     0
  9
$DIMDEC
 70
     4
  9
$DIMTDEC
 70
     4
  9
$DIMALTU
 70
     2
  9
$DIMALTTD
 70
     2
  9
$DIMTXSTY
  7
STANDARD
  9
$DIMAUNIT
 70
     0
  9
$DIMADEC
 70
     0
  9
$DIMALTRND
 40
0.0
  9
$DIMAZIN
 70
     0
  9
$DIMDSEP
 70
    46
  9
$DIMATFIT
 70
     3
  9
$DIMFRAC
 70
     0
  9
$DIMLDRBLK
  1

  9
$DIMLUNIT
 70
     2
  9
$DIMLWD
 70
    -2
  9
$DIMLWE
 70
    -2
  9
$DIMTMOVE
 70
     2
  9
$DIMFXL
 40
1.0
  9
$DIMFXLON
 70
     0
  9
$DIMJOGANG
 40
0.7853981633974483
  9
$DIMTFILL
 70
     0
  9
$DIMTFILLCLR
 70
     0
  9
$DIMARCSYM
 70
     0
  9
$DIMLTYPE
  6

  9
$DIMLTEX1
  6

  9
$DIMLTEX2
  6

  9
$LUNITS
 70
     2
  9
$LUPREC
 70
     4
  9
$SKETCHINC
 40
0.1
  9
$FILLETRAD
 40
1.0
  9
$AUNITS
 70
     0
  9
$AUPREC
 70
     0
  9
$MENU
  1
.
  9
$ELEVATION
 40
0.0
  9
$PELEVATION
 40
0.0
  9
$THICKNESS
 40
0.0
  9
$LIMCHECK
 70
     0
  9
$CHAMFERA
 40
0.5
  9
$CHAMFERB
 40
0.5
  9
$CHAMFERC
 40
1.0
  9
$CHAMFERD
 40
0.0
  9
$SKPOLY
 70
     0
  9
$TDCREATE
 40
2447892.666666667
  9
$TDUCREATE
 40
0.0
  9
$TDUPDATE
 40
2457070.711630405
  9
$TDUUPDATE
 40
2457071.044963738
  9
$TDINDWG
 40
2.6901848843
  9
$TDUSRTIMER
 40
2457071.043355613
  9
$USRTIMER
 70
     1
  9
$ANGBASE
 50
0.0
  9
$ANGDIR
 70
     0
  9
$PDMODE
 70
     0
  9
$PDSIZE
 40
-5.0
  9
$PLINEWID
 40
0.0
  9
$SPLFRAME
 70
     0
  9
$SPLINETYPE
 70
     6
  9
$SPLINESEGS
 70
     8
  9
$HANDSEED
  5
1BB31
  9
$SURFTAB1
 70
     6
  9
$SURFTAB2
 70
     6
  9
$SURFTYPE
 70
     6
  9
$SURFU
 70
     6
  9
$SURFV
 70
     6
  9
$UCSBASE
  2

  9
$UCSNAME
  2

  9
$UCSORG
 10
0.0
 20
0.0
 30
0.0
  9
$UCSXDIR
 10
1.0
 20
0.0
 30
0.0
  9
$UCSYDIR
 10
0.0
 20
1.0
 30
0.0
  9
$UCSORTHOREF
  2

  9
$UCSORTHOVIEW
 70
     0
  9
$UCSORGTOP
 10
0.0
 20
0.0
 30
0.0
  9
$UCSORGBOTTOM
 10
0.0
 20
0.0
 30
0.0
  9
$UCSORGLEFT
 10
0.0
 20
0.0
 30
0.0
  9
$UCSORGRIGHT
 10
0.0
 20
0.0
 30
0.0
  9
$UCSORGFRONT
 10
0.0
 20
0.0
 30
0.0
  9
$UCSORGBACK
 10
0.0
 20
0.0
 30
0.0
  9
$PUCSBASE
  2

  9
$PUCSNAME
  2

  9
$PUCSORG
 10
0.0
 20
0.0
 30
0.0
  9
$PUCSXDIR
 10
1.0
 20
0.0
 30
0.0
  9
$PUCSYDIR
 10
0.0
 20
1.0
 30
0.0
  9
$PUCSORTHOREF
  2

  9
$PUCSORTHOVIEW
 70
     0
  9
$PUCSORGTOP
 10
0.0
 20
0.0
 30
0.0
  9
$PUCSORGBOTTOM
 10
0.0
 20
0.0
 30
0.0
  9
$PUCSORGLEFT
 10
0.0
 20
0.0
 30
0.0
  9
$PUCSORGRIGHT
 10
0.0
 20
0.0
 30
0.0
  9
$PUCSORGFRONT
 10
0.0
 20
0.0
 30
0.0
  9
$PUCSORGBACK
 10
0.0
 20
0.0
 30
0.0
  9
$USERI1
 70
     0
  9
$USERI2
 70
     0
  9
$USERI3
 70
     0
  9
$USERI4
 70
     0
  9
$USERI5
 70
     0
  9
$USERR1
 40
0.0
  9
$USERR2
 40
0.0
  9
$USERR3
 40
0.0
  9
$USERR4
 40
0.0
  9
$USERR5
 40
0.0
  9
$WORLDVIEW
 70
     1
  9
$SHADEDGE
 70
     3
  9
$SHADEDIF
 70
    70
  9
$TILEMODE
 70
     1
  9
$MAXACTVP
 70
    64
  9
$PINSBASE
 10
0.0
 20
0.0
 30
0.0
  9
$PLIMCHECK
 70
     0
  9
$PEXTMIN
 10
1.000000000000000E+20
 20
1.000000000000000E+20
 30
1.000000000000000E+20
  9
$PEXTMAX
 10
-1.000000000000000E+20
 20
-1.000000000000000E+20
 30
-1.000000000000000E+20
  9
$PLIMMIN
 10
-7.5
 20
-20.0
  9
$PLIMMAX
 10
412.5
 20
277.0
  9
$UNITMODE
 70
     0
  9
$VISRETAIN
 70
     1
  9
$PLINEGEN
 70
     0
  9
$PSLTSCALE
 70
     1
  9
$TREEDEPTH
 70
  3020
  9
$CMLSTYLE
  2
Standard
  9
$CMLJUST
 70
     0
  9
$CMLSCALE
 40
1.0
  9
$PROXYGRAPHICS
 70
     1
  9
$MEASUREMENT
 70
     1
  9
$CELWEIGHT
370
    -1
  9
$ENDCAPS
280
     0
  9
$JOINSTYLE
280
     0
  9
$LWDISPLAY
290
     0
  9
$INSUNITS
 70
     4
  9
$HYPERLINKBASE
  1

  9
$STYLESHEET
  1

  9
$XEDIT
290
     1
  9
$CEPSNTYPE
380
     0
  9
$PSTYLEMODE
290
     1
  9
$FINGERPRINTGUID
  2
{A15AEFFC-2FE4-1CBF-F436-FBF2BCD2344A}
  9
$VERSIONGUID
  2
{FAEB1C32-E019-11D5-929B-00C0DF256EC4}
  9
$EXTNAMES
290
     1
  9
$PSVPSCALE
 40
0.0
  9
$OLESTARTUP
290
     0
  9
$SORTENTS
280
   127
  9
$INDEXCTL
280
     0
  9
$HIDETEXT
280
     1
  9
$XCLIPFRAME
290
     0
  9
$HALOGAP
280
     0
  9
$OBSCOLOR
 70
   257
  9
$OBSLTYPE
280
     0
  9
$INTERSECTIONDISPLAY
280
     0
  9
$INTERSECTIONCOLOR
 70
   257
  9
$DIMASSOC
280
     2
  9
$PROJECTNAME
  1

  9
$CAMERADISPLAY
290
     0
  9
$LENSLENGTH
 40
50.0
  9
$CAMERAHEIGHT
 40
0.0
  9
$STEPSPERSEC
 40
2.0
  9
$STEPSIZE
 40
6.0
  9
$3DDWFPREC
 40
2.0
  9
$PSOLWIDTH
 40
0.25
  9
$PSOLHEIGHT
 40
4.0
  9
$LOFTANG1
 40
1.570796326794897
  9
$LOFTANG2
 40
1.570796326794897
  9
$LOFTMAG1
 40
0.0
  9
$LOFTMAG2
 40
0.0
  9
$LOFTPARAM
 70
     7
  9
$LOFTNORMALS
280
     1
  9
$LATITUDE
 40
37.795
  9
$LONGITUDE
 40
-122.394
  9
$NORTHDIRECTION
 40
0.0
  9
$TIMEZONE
 70
 -8000
  9
$LIGHTGLYPHDISPLAY
280
     1
  9
$TILEMODELIGHTSYNCH
280
     1
  9
$SOLIDHIST
280
     1
  9
$SHOWHIST
280
     1
  9
$DWFFRAME
280
     2
  9
$DGNFRAME
280
     2
  9
$REALWORLDSCALE
290
     1
  9
$INTERFERECOLOR
 62
   256
  9
$CSHADOW
280
     0
  9
$SHADOWPLANELOCATION
 40
0.0
  0
ENDSEC
  0
SECTION
  2
CLASSES
  0
CLASS
  1
SCALE
  2
AcDbScale
  3
ObjectDBX Classes
 90
     1153
 91
        4
280
     0
281
     0
  0
CLASS
  1
MATERIAL
  2
AcDbMaterial
  3
ObjectDBX Classes
 90
     1153
 91
        4
280
     0
281
     0
  0
CLASS
  1
VISUALSTYLE
  2
AcDbVisualStyle
  3
ObjectDBX Classes
 90
     4095
 91
        4
280
     0
281
     0
  0
CLASS
  1
TABLESTYLE
  2
AcDbTableStyle
  3
ObjectDBX Classes
 90
     4095
 91
        4
280
     0
281
     0
  0
CLASS
  1
RASTERVARIABLES
  2
AcDbRasterVariables
  3
ISM
 90
        0
 91
        4
280
     0
281
     0
  0
CLASS
  1
ACDBDICTIONARYWDFLT
  2
AcDbDictionaryWithDefault
  3
ObjectDBX Classes
 90
        0
 91
        4
280
     0
281
     0
  0
CLASS
  1
DICTIONARYVAR
  2
AcDbDictionaryVar
  3
ObjectDBX Classes
 90
        0
 91
        4
280
     0
281
     0
  0
CLASS
  1
SORTENTSTABLE
  2
AcDbSortentsTable
  3
ObjectDBX Classes
 90
        0
 91
        4
280
     0
281
     0
  0
CLASS
  1
SUN
  2
AcDbSun
  3
SCENEOE
 90
     1153
 91
        4
280
     0
281
     0
  0
CLASS
  1
DIMASSOC
  2
AcDbDimAssoc
  3
"AcDbDimAssoc|Product Desc:     AcDim ARX App For Dimension|Company:          Autodesk, Inc.|WEB Address:      www.autodesk.com"
 90
        0
 91
        4
280
     0
281
     0
  0
CLASS
  1
MLEADERSTYLE
  2
AcDbMLeaderStyle
  3
ACDB_MLEADERSTYLE_CLASS
 90
     4095
 91
        4
280
     0
281
     0
  0
CLASS
  1
CELLSTYLEMAP
  2
AcDbCellStyleMap
  3
ObjectDBX Classes
 90
     1152
 91
        4
280
     0
281
     0
  0
ENDSEC
  0
SECTION
  2
TABLES
  0
TABLE
  2
VPORT
  5
8
330
0
100
AcDbSymbolTable
 70
     1
  0
VPORT
  5
2E
330
8
100
AcDbSymbolTableRecord
100
AcDbViewportTableRecord
  2
*ACTIVE
 70
     0
 10
0.0
 20
0.0
 11
1.0
 21
1.0
 12
511.7099507525636
 22
193.2547500260394
 13
0.0
 23
0.0
 14
10.0
 24
10.0
 15
10.0
 25
10.0
 16
0.0
 26
0.0
 36
1.0
 17
0.0
 27
0.0
 37
0.0
 40
119.6979322132828
 41
1.96301775147929
 42
50.0
 43
0.0
 44
0.0
 50
0.0
 51
0.0
 71
    16
 72
   100
 73
     1
 74
     3
 75
     0
 76
     0
 77
     0
 78
     0
281
     0
 65
     1
110
0.0
120
0.0
130
0.0
111
1.0
121
0.0
131
0.0
112
0.0
122
1.0
132
0.0
 79
     0
146
0.0
348
1002D
 60
     3
 61
     5
292
     1
282
     1
141
0.0
142
0.0
 63
   256
361
107AD
  0
ENDTAB
  0
TABLE
  2
LTYPE
  5
5
330
0
100
AcDbSymbolTable
 70
     1
  0
LTYPE
  5
14
330
5
100
AcDbSymbolTableRecord
100
AcDbLinetypeTableRecord
  2
BYBLOCK
 70
     0
  3

 72
    65
 73
     0
 40
0.0
  0
LTYPE
  5
15
330
5
100
AcDbSymbolTableRecord
100
AcDbLinetypeTableRecord
  2
BYLAYER
 70
     0
  3

 72
    65
 73
     0
 40
0.0
  0
LTYPE
  5
16
330
5
100
AcDbSymbolTableRecord
100
AcDbLinetypeTableRecord
  2
CONTINUOUS
 70
     0
  3
Solid line
 72
    65
 73
     0
 40
0.0
  0
ENDTAB
  0
TABLE
  2
LAYER
  5
2
102
{ACAD_XDICTIONARY
360
1013C
102
}
330
0
100
AcDbSymbolTable
 70
     5
  0
LAYER
  5
50
330
2
100
AcDbSymbolTableRecord
100
AcDbLayerTableRecord
  2
0
 70
     0
 62
    -7
  6
CONTINUOUS
370
    -3
390
1004F
347
10027
  0
LAYER
  5
51
330
2
100
AcDbSymbolTableRecord
100
AcDbLayerTableRecord
  2
Layer_1
 70
     0
 62
     7
  6
CONTINUOUS
370
    -3
390
1004F
347
10027
  0
LAYER
  5
104BE
330
2
100
AcDbSymbolTableRecord
100
AcDbLayerTableRecord
  2
text
 70
     0
 62
     4
  6
CONTINUOUS
290
     0
370
    -3
390
1004F
347
10027
1001
AcAecLayerStandard
1000

1000

  0
LAYER
  5
107B3
330
2
100
AcDbSymbolTableRecord
100
AcDbLayerTableRecord
  2
Defpoints
 70
     5
 62
     7
  6
CONTINUOUS
290
     0
370
    -3
390
1004F
347
10027
  0
LAYER
  5
16850
330
2
100
AcDbSymbolTableRecord
100
AcDbLayerTableRecord
  2
Layer 1
 70
     0
 62
     7
  6
CONTINUOUS
370
    -3
390
1004F
347
10027
  0
ENDTAB
  0
TABLE
  2
STYLE
  5
3
330
0
100
AcDbSymbolTable
 70
     2
  0
STYLE
  5
11
330
3
100
AcDbSymbolTableRecord
100
AcDbTextStyleTableRecord
  2
STANDARD
 70
     0
 40
0.0
 41
1.0
 50
0.0
 71
     0
 42
72.58179137865795
  3
txt
  4

  0
STYLE
  5
19AD3
330
3
100
AcDbSymbolTableRecord
100
AcDbTextStyleTableRecord
  2
textstyle28
 70
     0
 40
0.0
 41
1.0
 50
0.0
 71
     0
 42
72.58179137865795
  3
standard
  4

1001
ACAD
1000
standard
1071
        0
  0
ENDTAB
  0
TABLE
  2
VIEW
  5
6
330
0
100
AcDbSymbolTable
 70
     0
  0
ENDTAB
  0
TABLE
  2
UCS
  5
7
330
0
100
AcDbSymbolTable
 70
     0
  0
ENDTAB
  0
TABLE
  2
APPID
  5
9
330
0
100
AcDbSymbolTable
 70
     5
  0
APPID
  5
12
330
9
100
AcDbSymbolTableRecord
100
AcDbRegAppTableRecord
  2
ACAD
 70
     0
  0
APPID
  5
104BF
330
9
100
AcDbSymbolTableRecord
100
AcDbRegAppTableRecord
  2
AcAecLayerStandard
 70
     0
  0
APPID
  5
107B4
330
9
100
AcDbSymbolTableRecord
100
AcDbRegAppTableRecord
  2
ACAD_DSTYLE_DIMRADIAL_EXTENSION
 70
     0
  0
APPID
  5
10802
330
9
100
AcDbSymbolTableRecord
100
AcDbRegAppTableRecord
  2
FX_RP_XDATA
 70
     0
  0
APPID
  5
1BB2F
330
9
100
AcDbSymbolTableRecord
100
AcDbRegAppTableRecord
  2
ACAD_MLEADERVER
 70
     0
  0
ENDTAB
  0
TABLE
  2
DIMSTYLE
  5
A
330
0
100
AcDbSymbolTable
 70
     2
100
AcDbDimStyleTable
  0
DIMSTYLE
105
27
330
A
100
AcDbSymbolTableRecord
100
AcDbDimStyleTableRecord
  2
ISO-25
 70
     0
 41
2.5
 42
0.625
 43
3.75
 44
1.25
 73
     0
 74
     0
 77
     1
 78
     8
140
2.5
141
2.5
143
0.03937007874016
147
0.625
171
     3
172
     1
178
     0
271
     2
272
     2
274
     3
283
     0
284
     8
340
11
  0
DIMSTYLE
105
16852
330
A
100
AcDbSymbolTableRecord
100
AcDbDimStyleTableRecord
  2
Standard
 70
     0
178
     0
340
11
  0
ENDTAB
  0
TABLE
  2
BLOCK_RECORD
  5
1
330
0
100
AcDbSymbolTable
 70
   197
  0
BLOCK_RECORD
  5
1F
102
{ACAD_XDICTIONARY
360
1044A
102
}
330
1
100
AcDbSymbolTableRecord
100
AcDbBlockTableRecord
  2
*MODEL_SPACE
340
10000
 70
     0
280
     1
281
     0
  0
BLOCK_RECORD
  5
1B
330
1
100
AcDbSymbolTableRecord
100
AcDbBlockTableRecord
  2
*PAPER_SPACE
340
10001
 70
     0
280
     1
281
     0
  0
BLOCK_RECORD
  5
1BB10
330
1
100
AcDbSymbolTableRecord
100
AcDbBlockTableRecord
  2
*D195
340
0
 70
     0
280
     1
281
     0
  0
BLOCK_RECORD
  5
1BB20
330
1
100
AcDbSymbolTableRecord
100
AcDbBlockTableRecord
  2
*D196
340
0
 70
     0
280
     1
281
     0
  0
ENDTAB
  0
ENDSEC
  0
SECTION
  2
BLOCKS
  0
BLOCK
  5
20
330
1F
100
AcDbEntity
  8
0
100
AcDbBlockBegin
  2
*MODEL_SPACE
 70
     0
 10
0.0
 20
0.0
 30
0.0
  3
*MODEL_SPACE
  1
*MODEL_SPACE
  0
ENDBLK
  5
21
330
1F
100
AcDbEntity
  8
0
100
AcDbBlockEnd
  0
BLOCK
  5
1C
330
1B
100
AcDbEntity
 67
     1
  8
0
100
AcDbBlockBegin
  2
*PAPER_SPACE
 70
     0
 10
0.0
 20
0.0
 30
0.0
  3
*PAPER_SPACE
  1
*PAPER_SPACE
  0
ENDBLK
  5
1D
330
1B
100
AcDbEntity
 67
     1
  8
0
100
AcDbBlockEnd
  0
BLOCK
  5
1BB11
330
1BB10
100
AcDbEntity
  8
0
100
AcDbBlockBegin
  2
*D195
 70
     1
 10
0.0
 20
0.0
 30
0.0
  3
*D195
  1
*D195
  0
LINE
  5
1BB13
330
1BB10
100
AcDbEntity
  8
Layer_1
  6
ByBlock
 62
     0
370
    -2
100
AcDbLine
 10
415.6515524317245
 20
209.9768727483378
 30
0.0
 11
415.6515524317245
 21
226.3999018109295
 31
0.0
  0
LINE
  5
1BB14
330
1BB10
100
AcDbEntity
  8
Layer_1
  6
ByBlock
 62
     0
370
    -2
100
AcDbLine
 10
616.259382633033
 20
209.9768727483378
 30
0.0
 11
616.259382633033
 21
226.3999018109295
 31
0.0
  0
LINE
  5
1BB15
330
1BB10
100
AcDbEntity
  8
Layer_1
  6
ByBlock
 62
     0
370
    -2
100
AcDbLine
 10
415.8315524317245
 20
226.2199018109295
 30
0.0
 11
515.2804675323787
 21
226.2199018109295
 31
0.0
  0
LINE
  5
1BB16
330
1BB10
100
AcDbEntity
  8
Layer_1
  6
ByBlock
 62
     0
370
    -2
100
AcDbLine
 10
616.0793826330331
 20
226.2199018109295
 30
0.0
 11
516.6304675323788
 21
226.2199018109295
 31
0.0
  0
SOLID
  5
1BB17
330
1BB10
100
AcDbEntity
  8
Layer_1
 62
     0
100
AcDbTrace
 10
415.8315524317245
 20
226.2499018109295
 30
0.0
 11
415.8315524317245
 21
226.1899018109295
 31
0.0
 12
415.6515524317245
 22
226.2199018109295
 32
0.0
 13
415.6515524317245
 23
226.2199018109295
 33
0.0
  0
SOLID
  5
1BB18
330
1BB10
100
AcDbEntity
  8
Layer_1
 62
     0
100
AcDbTrace
 10
616.0793826330331
 20
226.1899018109295
 30
0.0
 11
616.0793826330331
 21
226.2499018109295
 31
0.0
 12
616.259382633033
 22
226.2199018109295
 32
0.0
 13
616.259382633033
 23
226.2199018109295
 33
0.0
  0
MTEXT
  5
1BB19
330
1BB10
100
AcDbEntity
  8
Layer_1
  6
ByBlock
 62
     0
100
AcDbMText
 10
515.9554675323787
 20
226.2199018109295
 30
0.0
 40
0.18
 41
0.0
 46
0.0
 71
     5
 72
     1
  1
\A1;200.6078
 73
     1
 44
1.0
  0
POINT
  5
1BB1A
330
1BB10
100
AcDbEntity
  8
Defpoints
 62
     0
100
AcDbPoint
 10
415.6515524317245
 20
209.9143727483378
 30
0.0
  0
POINT
  5
1BB1B
330
1BB10
100
AcDbEntity
  8
Defpoints
 62
     0
100
AcDbPoint
 10
616.259382633033
 20
209.9143727483378
 30
0.0
  0
POINT
  5
1BB1C
330
1BB10
100
AcDbEntity
  8
Defpoints
 62
     0
100
AcDbPoint
 10
616.259382633033
 20
226.2199018109295
 30
0.0
  0
ENDBLK
  5
1BB12
330
1BB10
100
AcDbEntity
  8
0
100
AcDbBlockEnd
  0
BLOCK
  5
1BB21
330
1BB20
100
AcDbEntity
  8
0
100
AcDbBlockBegin
  2
*D196
 70
     1
 10
0.0
 20
0.0
 30
0.0
  3
*D196
  1
*D196
  0
LINE
  5
1BB23
330
1BB20
100
AcDbEntity
  8
Layer_1
  6
ByBlock
 62
     0
370
    -2
100
AcDbLine
 10
419.5890524317245
 20
213.9143727483378
 30
0.0
 11
402.1796547601716
 21
213.9143727483378
 31
0.0
  0
LINE
  5
1BB24
330
1BB20
100
AcDbEntity
  8
Layer_1
  6
ByBlock
 62
     0
370
    -2
100
AcDbLine
 10
419.5890524317245
 20
93.91440117309389
 30
0.0
 11
402.1796547601716
 21
93.91440117309389
 31
0.0
  0
LINE
  5
1BB25
330
1BB20
100
AcDbEntity
  8
Layer_1
  6
ByBlock
 62
     0
370
    -2
100
AcDbLine
 10
402.3596547601716
 20
213.7343727483378
 30
0.0
 11
402.3596547601716
 21
154.0943869607158
 31
0.0
  0
LINE
  5
1BB26
330
1BB20
100
AcDbEntity
  8
Layer_1
  6
ByBlock
 62
     0
370
    -2
100
AcDbLine
 10
402.3596547601716
 20
94.0944011730939
 30
0.0
 11
402.3596547601716
 21
153.7343869607158
 31
0.0
  0
SOLID
  5
1BB27
330
1BB20
100
AcDbEntity
  8
Layer_1
 62
     0
100
AcDbTrace
 10
402.3896547601716
 20
213.7343727483378
 30
0.0
 11
402.3296547601716
 21
213.7343727483378
 31
0.0
 12
402.3596547601716
 22
213.9143727483378
 32
0.0
 13
402.3596547601716
 23
213.9143727483378
 33
0.0
  0
SOLID
  5
1BB28
330
1BB20
100
AcDbEntity
  8
Layer_1
 62
     0
100
AcDbTrace
 10
402.3296547601716
 20
94.0944011730939
 30
0.0
 11
402.3896547601716
 21
94.0944011730939
 31
0.0
 12
402.3596547601716
 22
93.91440117309389
 32
0.0
 13
402.3596547601716
 23
93.91440117309389
 33
0.0
  0
MTEXT
  5
1BB29
330
1BB20
100
AcDbEntity
  8
Layer_1
  6
ByBlock
 62
     0
100
AcDbMText
 10
402.3596547601716
 20
153.9143869607158
 30
0.0
 40
0.18
 41
0.0
 46
0.0
 71
     5
 72
     1
  1
\A1;120.0000
 73
     1
 44
1.0
  0
POINT
  5
1BB2A
330
1BB20
100
AcDbEntity
  8
Defpoints
 62
     0
100
AcDbPoint
 10
419.6515524317245
 20
213.9143727483378
 30
0.0
  0
POINT
  5
1BB2B
330
1BB20
100
AcDbEntity
  8
Defpoints
 62
     0
100
AcDbPoint
 10
419.6515524317245
 20
93.91440117309389
 30
0.0
  0
POINT
  5
1BB2C
330
1BB20
100
AcDbEntity
  8
Defpoints
 62
     0
100
AcDbPoint
 10
402.3596547601716
 20
93.91440117309389
 30
0.0
  0
ENDBLK
  5
1BB22
330
1BB20
100
AcDbEntity
  8
0
100
AcDbBlockEnd
  0
ENDSEC
  0
SECTION
  2
ENTITIES
  0
LINE
  5
19865
330
1F
100
AcDbEntity
  8
Layer_1
100
AcDbLine
 10
389.0462798675428
 20
155.7104606727692
 30
0.0
 11
389.0462798675428
 21
130.8430945937394
 31
0.0
  0
LINE
  5
19A6B
330
1F
100
AcDbEntity
  8
Layer_1
100
AcDbLine
 10
389.0462798675427
 20
209.4452
 30
0.0
 11
389.0462798675427
 21
97.44522842475612
 31
0.0
  0
MTEXT
  5
19AF6
330
1F
100
AcDbEntity
  8
text
  6
ByBlock
100
AcDbMText
 10
215.5181802311341
 20
253.3052979333684
 30
0.0
 40
2.5
 41
161.4251724848726
 46
21.66666666666667
 71
     1
 72
     1
  1
{\H2x;Switch mount plate\P3mm Acrylic or 1.5 mm stainless steel\PQuantity: 1}
  7
textstyle28
 73
     1
 44
1.0
1001
ACAD
1000
ACAD_MTEXT_DEFINED_HEIGHT_BEGIN
1070
    46
1040
21.66666666666667
1000
ACAD_MTEXT_DEFINED_HEIGHT_END
  0
MTEXT
  5
19B74
330
1F
100
AcDbEntity
  8
text
  6
ByBlock
100
AcDbMText
 10
662.5454650424015
 20
251.1324283631234
 30
0.0
 40
2.5
 41
161.4251724848726
 46
21.66666666666667
 71
     1
 72
     1
  1
{\H2x;Bottom plate\P3mm Acrylic or 1.5 mm stainless steel\PQuantity: 1}
  7
textstyle28
 73
     1
 44
1.0
1001
ACAD
1000
ACAD_MTEXT_DEFINED_HEIGHT_BEGIN
1070
    46
1040
21.66666666666667
1000
ACAD_MTEXT_DEFINED_HEIGHT_END
  0
MTEXT
  5
19BF2
330
1F
100
AcDbEntity
  8
text
  6
ByBlock
100
AcDbMText
 10
449.0063715479504
 20
253.2451523637029
 30
0.0
 40
2.5
 41
161.4251724848726
 46
21.66666666666667
 71
     1
 72
     1
  1
{\H2x;Middle plate\P3mm Acrylic\PQuantity: 3}
  7
textstyle28
 73
     1
 44
1.0
1001
ACAD
1000
ACAD_MTEXT_DEFINED_HEIGHT_BEGIN
1070
    46
1040
21.66666666666667
1000
ACAD_MTEXT_DEFINED_HEIGHT_END
  0
MTEXT
  5
19C47
330
1F
100
AcDbEntity
  8
text
  6
ByBlock
100
AcDbMText
 10
890.0491265580995
 20
252.5351833948503
 30
0.0
 40
2.5
 41
161.4251724848727
 46
21.66666666666667
 71
     1
 72
     1
  1
{\H2x;USB Middle plate\P3mm Acrylic\PQuantity: 1}
  7
textstyle28
 73
     1
 44
1.0
1001
ACAD
1000
ACAD_MTEXT_DEFINED_HEIGHT_BEGIN
1070
    46
1040
21.66666666666667
1000
ACAD_MTEXT_DEFINED_HEIGHT_END
  0
LWPOLYLINE
  5
19FA8
330
1F
100
AcDbEntity
  8
Layer_1
100
AcDbPolyline
 90
        5
 70
     0
 43
0.0
 10
223.8520559742286
 20
198.4452176545381
 10
237.8520559742286
 20
198.4452176545381
 10
237.8520559742286
 20
184.4452176545381
 10
223.8520559742286
 20
184.4452176545381
 10
223.8520559742286
 20
198.4452176545381
  0
LWPOLYLINE
  5
19FA9
330
1F
100
AcDbEntity
  8
Layer_1
100
AcDbPolyline
 90
        5
 70
     0
 43
0.0
 10
223.8520559742286
 20
179.4452176545381
 10
237.8520559742286
 20
179.4452176545381
 10
237.8520559742286
 20
165.4452176545381
 10
223.8520559742286
 20
165.4452176545381
 10
223.8520559742286
 20
179.4452176545381
  0
LWPOLYLINE
  5
19FAA
330
1F
100
AcDbEntity
  8
Layer_1
100
AcDbPolyline
 90
        5
 70
     0
 43
0.0
 10
223.8520559742286
 20
160.4452176545381
 10
237.8520559742286
 20
160.4452176545381
 10
237.8520559742286
 20
146.4452176545381
 10
223.8520559742286
 20
146.4452176545381
 10
223.8520559742286
 20
160.4452176545381
  0
LWPOLYLINE
  5
19FAB
330
1F
100
AcDbEntity
  8
Layer_1
100
AcDbPolyline
 90
        5
 70
     0
 43
0.0
 10
223.8520559742286
 20
141.4452176545381
 10
237.8520559742286
 20
141.4452176545381
 10
237.8520559742286
 20
127.4452176545381
 10
223.8520559742286
 20
127.4452176545381
 10
223.8520559742286
 20
141.4452176545381
  0
LWPOLYLINE
  5
19FAC
330
1F
100
AcDbEntity
  8
Layer_1
100
AcDbPolyline
 90
        5
 70
     0
 43
0.0
 10
249.9770559742286
 20
198.4452176545381
 10
263.9770559742286
 20
198.4452176545381
 10
263.9770559742286
 20
184.4452176545381
 10
249.9770559742286
 20
184.4452176545381
 10
249.9770559742286
 20
198.4452176545381
  0
LWPOLYLINE
  5
19FAD
330
1F
100
AcDbEntity
  8
Layer_1
100
AcDbPolyline
 90
        5
 70
     0
 43
0.0
 10
268.9770559742286
 20
198.4452176545381
 10
282.9770559742286
 20
198.4452176545381
 10
282.9770559742286
 20
184.4452176545381
 10
268.9770559742286
 20
184.4452176545381
 10
268.9770559742286
 20
198.4452176545381
  0
LWPOLYLINE
  5
19FAE
330
1F
100
AcDbEntity
  8
Layer_1
100
AcDbPolyline
 90
        5
 70
     0
 43
0.0
 10
287.9770559742286
 20
198.4452176545381
 10
301.9770559742286
 20
198.4452176545381
 10
301.9770559742286
 20
184.4452176545381
 10
287.9770559742286
 20
184.4452176545381
 10
287.9770559742286
 20
198.4452176545381
  0
LWPOLYLINE
  5
19FAF
330
1F
100
AcDbEntity
  8
Layer_1
100
AcDbPolyline
 90
        5
 70
     0
 43
0.0
 10
306.9770559742286
 20
198.4452176545381
 10
320.9770559742286
 20
198.4452176545381
 10
320.9770559742286
 20
184.4452176545381
 10
306.9770559742286
 20
184.4452176545381
 10
306.9770559742286
 20
198.4452176545381
  0
LWPOLYLINE
  5
19FB0
330
1F
100
AcDbEntity
  8
Layer_1
100
AcDbPolyline
 90
        5
 70
     0
 43
0.0
 10
325.9770559742286
 20
198.4452176545381
 10
339.9770559742286
 20
198.4452176545381
 10
339.9770559742286
 20
184.4452176545381
 10
325.9770559742286
 20
184.4452176545381
 10
325.9770559742286
 20
198.4452176545381
  0
LWPOLYLINE
  5
19FB1
330
1F
100
AcDbEntity
  8
Layer_1
100
AcDbPolyline
 90
        5
 70
     0
 43
0.0
 10
352.1020559742286
 20
198.4452176545381
 10
366.1020559742286
 20
198.4452176545381
 10
366.1020559742286
 20
184.4452176545381
 10
352.1020559742286
 20
184.4452176545381
 10
352.1020559742286
 20
198.4452176545381
  0
LWPOLYLINE
  5
19FB2
330
1F
100
AcDbEntity
  8
Layer_1
100
AcDbPolyline
 90
        5
 70
     0
 43
0.0
 10
249.9770559742286
 20
179.4452176545381
 10
263.9770559742286
 20
179.4452176545381
 10
263.9770559742286
 20
165.4452176545381
 10
249.9770559742286
 20
165.4452176545381
 10
249.9770559742286
 20
179.4452176545381
  0
LWPOLYLINE
  5
19FB3
330
1F
100
AcDbEntity
  8
Layer_1
100
AcDbPolyline
 90
        5
 70
     0
 43
0.0
 10
268.9770559742286
 20
179.4452176545381
 10
282.9770559742286
 20
179.4452176545381
 10
282.9770559742286
 20
165.4452176545381
 10
268.9770559742286
 20
165.4452176545381
 10
268.9770559742286
 20
179.4452176545381
  0
LWPOLYLINE
  5
19FB4
330
1F
100
AcDbEntity
  8
Layer_1
100
AcDbPolyline
 90
        5
 70
     0
 43
0.0
 10
287.9770559742286
 20
179.4452176545381
 10
301.9770559742286
 20
179.4452176545381
 10
301.9770559742286
 20
165.4452176545381
 10
287.9770559742286
 20
165.4452176545381
 10
287.9770559742286
 20
179.4452176545381
  0
LWPOLYLINE
  5
19FB5
330
1F
100
AcDbEntity
  8
Layer_1
100
AcDbPolyline
 90
        5
 70
     0
 43
0.0
 10
306.9770559742286
 20
179.4452176545381
 10
320.9770559742286
 20
179.4452176545381
 10
320.9770559742286
 20
165.4452176545381
 10
306.9770559742286
 20
165.4452176545381
 10
306.9770559742286
 20
179.4452176545381
  0
LWPOLYLINE
  5
19FB6
330
1F
100
AcDbEntity
  8
Layer_1
100
AcDbPolyline
 90
        5
 70
     0
 43
0.0
 10
325.9770559742286
 20
179.4452176545381
 10
339.9770559742286
 20
179.4452176545381
 10
339.9770559742286
 20
165.4452176545381
 10
325.9770559742286
 20
165.4452176545381
 10
325.9770559742286
 20
179.4452176545381
  0
LWPOLYLINE
  5
19FB7
330
1F
100
AcDbEntity
  8
Layer_1
100
AcDbPolyline
 90
        5
 70
     0
 43
0.0
 10
352.1020559742286
 20
179.4452176545381
 10
366.1020559742286
 20
179.4452176545381
 10
366.1020559742286
 20
165.4452176545381
 10
352.1020559742286
 20
165.4452176545381
 10
352.1020559742286
 20
179.4452176545381
  0
LWPOLYLINE
  5
19FB8
330
1F
100
AcDbEntity
  8
Layer_1
100
AcDbPolyline
 90
        5
 70
     0
 43
0.0
 10
249.9770559742286
 20
160.4452176545381
 10
263.9770559742286
 20
160.4452176545381
 10
263.9770559742286
 20
146.4452176545381
 10
249.9770559742286
 20
146.4452176545381
 10
249.9770559742286
 20
160.4452176545381
  0
LWPOLYLINE
  5
19FB9
330
1F
100
AcDbEntity
  8
Layer_1
100
AcDbPolyline
 90
        5
 70
     0
 43
0.0
 10
268.9770559742286
 20
160.4452176545381
 10
282.9770559742286
 20
160.4452176545381
 10
282.9770559742286
 20
146.4452176545381
 10
268.9770559742286
 20
146.4452176545381
 10
268.9770559742286
 20
160.4452176545381
  0
LWPOLYLINE
  5
19FBA
330
1F
100
AcDbEntity
  8
Layer_1
100
AcDbPolyline
 90
        5
 70
     0
 43
0.0
 10
287.9770559742286
 20
160.4452176545381
 10
301.9770559742286
 20
160.4452176545381
 10
301.9770559742286
 20
146.4452176545381
 10
287.9770559742286
 20
146.4452176545381
 10
287.9770559742286
 20
160.4452176545381
  0
LWPOLYLINE
  5
19FBB
330
1F
100
AcDbEntity
  8
Layer_1
100
AcDbPolyline
 90
        5
 70
     0
 43
0.0
 10
306.9770559742286
 20
160.4452176545381
 10
320.9770559742286
 20
160.4452176545381
 10
320.9770559742286
 20
146.4452176545381
 10
306.9770559742286
 20
146.4452176545381
 10
306.9770559742286
 20
160.4452176545381
  0
LWPOLYLINE
  5
19FBC
330
1F
100
AcDbEntity
  8
Layer_1
100
AcDbPolyline
 90
        5
 70
     0
 43
0.0
 10
325.9770559742286
 20
160.4452176545381
 10
339.9770559742286
 20
160.4452176545381
 10
339.9770559742286
 20
146.4452176545381
 10
325.9770559742286
 20
146.4452176545381
 10
325.9770559742286
 20
160.4452176545381
  0
LWPOLYLINE
  5
19FBD
330
1F
100
AcDbEntity
  8
Layer_1
100
AcDbPolyline
 90
        5
 70
     0
 43
0.0
 10
352.1020559742286
 20
160.4452176545381
 10
366.1020559742286
 20
160.4452176545381
 10
366.1020559742286
 20
146.4452176545381
 10
352.1020559742286
 20
146.4452176545381
 10
352.1020559742286
 20
160.4452176545381
  0
LWPOLYLINE
  5
19FBE
330
1F
100
AcDbEntity
  8
Layer_1
100
AcDbPolyline
 90
        5
 70
     0
 43
0.0
 10
249.9770559742286
 20
141.4452176545381
 10
263.9770559742286
 20
141.4452176545381
 10
263.9770559742286
 20
127.4452176545381
 10
249.9770559742286
 20
127.4452176545381
 10
249.9770559742286
 20
141.4452176545381
  0
LWPOLYLINE
  5
19FBF
330
1F
100
AcDbEntity
  8
Layer_1
100
AcDbPolyline
 90
        5
 70
     0
 43
0.0
 10
268.9770559742286
 20
141.4452176545381
 10
282.9770559742286
 20
141.4452176545381
 10
282.9770559742286
 20
127.4452176545381
 10
268.9770559742286
 20
127.4452176545381
 10
268.9770559742286
 20
141.4452176545381
  0
LWPOLYLINE
  5
19FC0
330
1F
100
AcDbEntity
  8
Layer_1
100
AcDbPolyline
 90
        5
 70
     0
 43
0.0
 10
287.9770559742286
 20
141.4452176545381
 10
301.9770559742286
 20
141.4452176545381
 10
301.9770559742286
 20
127.4452176545381
 10
287.9770559742286
 20
127.4452176545381
 10
287.9770559742286
 20
141.4452176545381
  0
LWPOLYLINE
  5
19FC1
330
1F
100
AcDbEntity
  8
Layer_1
100
AcDbPolyline
 90
        5
 70
     0
 43
0.0
 10
306.9770559742286
 20
141.4452176545381
 10
320.9770559742286
 20
141.4452176545381
 10
320.9770559742286
 20
127.4452176545381
 10
306.9770559742286
 20
127.4452176545381
 10
306.9770559742286
 20
141.4452176545381
  0
LWPOLYLINE
  5
19FC2
330
1F
100
AcDbEntity
  8
Layer_1
100
AcDbPolyline
 90
        5
 70
     0
 43
0.0
 10
325.9770559742286
 20
141.4452176545381
 10
339.9770559742286
 20
141.4452176545381
 10
339.9770559742286
 20
127.4452176545381
 10
325.9770559742286
 20
127.4452176545381
 10
325.9770559742286
 20
141.4452176545381
  0
LWPOLYLINE
  5
19FC3
330
1F
100
AcDbEntity
  8
Layer_1
100
AcDbPolyline
 90
        5
 70
     0
 43
0.0
 10
321.2270559742286
 20
122.4452176545381
 10
335.2270559742286
 20
122.4452176545381
 10
335.2270559742286
 20
108.4452176545381
 10
321.2270559742286
 20
108.4452176545381
 10
321.2270559742286
 20
122.4452176545381
  0
LWPOLYLINE
  5
19FC4
330
1F
100
AcDbEntity
  8
Layer_1
100
AcDbPolyline
 90
        5
 70
     0
 43
0.0
 10
292.7270559742286
 20
122.4452176545381
 10
306.7270559742286
 20
122.4452176545381
 10
306.7270559742286
 20
108.4452176545381
 10
292.7270559742286
 20
108.4452176545381
 10
292.7270559742286
 20
122.4452176545381
  0
LWPOLYLINE
  5
19FC5
330
1F
100
AcDbEntity
  8
Layer_1
100
AcDbPolyline
 90
        5
 70
     0
 43
0.0
 10
268.9770559742286
 20
122.4452176545381
 10
282.9770559742286
 20
122.4452176545381
 10
282.9770559742286
 20
108.4452176545381
 10
268.9770559742286
 20
108.4452176545381
 10
268.9770559742286
 20
122.4452176545381
  0
LWPOLYLINE
  5
19FC6
330
1F
100
AcDbEntity
  8
Layer_1
100
AcDbPolyline
 90
        5
 70
     0
 43
0.0
 10
249.9770559742286
 20
122.4452176545381
 10
263.9770559742286
 20
122.4452176545381
 10
263.9770559742286
 20
108.4452176545381
 10
249.9770559742286
 20
108.4452176545381
 10
249.9770559742286
 20
122.4452176545381
  0
LWPOLYLINE
  5
19FC7
330
1F
100
AcDbEntity
  8
Layer_1
100
AcDbPolyline
 90
        5
 70
     0
 43
0.0
 10
230.9770559742286
 20
122.4452176545381
 10
244.9770559742286
 20
122.4452176545381
 10
244.9770559742286
 20
108.4452176545381
 10
230.9770559742286
 20
108.4452176545381
 10
230.9770559742286
 20
122.4452176545381
  0
LWPOLYLINE
  5
19FC8
330
1F
100
AcDbEntity
  8
Layer_1
100
AcDbPolyline
 90
        5
 70
     0
 43
0.0
 10
211.9770559742286
 20
122.4452176545381
 10
225.9770559742286
 20
122.4452176545381
 10
225.9770559742286
 20
108.4452176545381
 10
211.9770559742286
 20
108.4452176545381
 10
211.9770559742286
 20
122.4452176545381
  0
LWPOLYLINE
  5
19FC9
330
1F
100
AcDbEntity
  8
Layer_1
100
AcDbPolyline
 90
        5
 70
     0
 43
0.0
 10
358.9770690668593
 20
131.9452176545381
 10
358.9770690668593
 20
117.9452176545381
 10
344.9770690668593
 20
117.9452176545381
 10
344.9770690668593
 20
131.9452176545381
 10
358.9770690668593
 20
131.9452176545381
  0
LWPOLYLINE
  5
19FCA
330
1F
100
AcDbEntity
  8
Layer_1
  6
ByBlock
100
AcDbPolyline
 90
        4
 70
     1
 43
0.0
 10
358.2270690668593
 20
138.5452176545381
 10
344.2270690668593
 20
138.5452176545381
 10
344.2270690668593
 20
135.2452176545381
 10
358.2270690668593
 20
135.2452176545381
  0
LWPOLYLINE
  5
19FCB
330
1F
100
AcDbEntity
  8
Layer_1
  6
ByBlock
100
AcDbPolyline
 90
        4
 70
     1
 43
0.0
 10
358.2270690668593
 20
114.645217654538
 10
344.2270690668593
 20
114.645217654538
 10
344.2270690668593
 20
111.3452176545381
 10
358.2270690668593
 20
111.3452176545381
  0
LWPOLYLINE
  5
19FCC
330
1F
100
AcDbEntity
  8
Layer_1
100
AcDbPolyline
 90
        5
 70
     0
 43
0.0
 10
377.9770690668593
 20
132.0077176545381
 10
377.9770690668593
 20
118.0077176545381
 10
363.9770690668593
 20
118.0077176545381
 10
363.9770690668593
 20
132.0077176545381
 10
377.9770690668593
 20
132.0077176545381
  0
LWPOLYLINE
  5
19FCD
330
1F
100
AcDbEntity
  8
Layer_1
  6
ByBlock
100
AcDbPolyline
 90
        4
 70
     1
 43
0.0
 10
377.2270690668593
 20
138.6077176545381
 10
363.2270690668593
 20
138.6077176545381
 10
363.2270690668593
 20
135.3077176545381
 10
377.2270690668593
 20
135.3077176545381
  0
LWPOLYLINE
  5
19FCE
330
1F
100
AcDbEntity
  8
Layer_1
  6
ByBlock
100
AcDbPolyline
 90
        4
 70
     1
 43
0.0
 10
377.2270690668593
 20
114.707717654538
 10
363.2270690668593
 20
114.707717654538
 10
363.2270690668593
 20
111.4077176545381
 10
377.2270690668593
 20
111.4077176545381
  0
CIRCLE
  5
19FCF
330
1F
100
AcDbEntity
  8
Layer_1
100
AcDbCircle
 10
243.9145559742286
 20
162.9452176545381
 30
0.0
 40
1.350000000000001
  0
CIRCLE
  5
19FD0
330
1F
100
AcDbEntity
  8
Layer_1
100
AcDbCircle
 10
346.0395559742286
 20
162.9452176545381
 30
0.0
 40
1.350000000000001
  0
LINE
  5
1A3ED
330
1F
100
AcDbEntity
  8
Layer_1
  6
ByBlock
100
AcDbLine
 10
188.4384496662341
 20
209.4452
 30
0.0
 11
188.4384496662341
 21
97.44522842475612
 31
0.0
  0
LINE
  5
1ACFD
330
1F
100
AcDbEntity
  8
Layer_1
  6
ByBlock
100
AcDbLine
 10
192.4384496662341
 20
213.4452
 30
0.0
 11
385.0462798675427
 21
213.4452
 31
0.0
  0
ARC
  5
1AD2A
330
1F
100
AcDbEntity
  8
Layer_1
100
AcDbCircle
 10
192.4384496662341
 20
209.4452
 30
0.0
 40
4.000000000000001
100
AcDbArc
 50
90.0
 51
180.0
  0
CIRCLE
  5
1AD2B
330
1F
100
AcDbEntity
  8
Layer_1
100
AcDbCircle
 10
192.6706833824512
 20
209.2129806682852
 30
0.0
 40
1.350000000000001
  0
ARC
  5
1AD56
330
1F
100
AcDbEntity
  8
Layer_1
100
AcDbCircle
 10
385.0462798675427
 20
209.4452
 30
0.0
 40
4.000000000000001
100
AcDbArc
 50
0.0
 51
90.0
  0
CIRCLE
  5
1AD57
330
1F
100
AcDbEntity
  8
Layer_1
100
AcDbCircle
 10
384.8140453205091
 20
209.2129654529664
 30
0.0
 40
1.350000000000001
  0
LINE
  5
1ADE3
330
1F
100
AcDbEntity
  8
Layer_1
  6
ByBlock
100
AcDbLine
 10
192.4384496662341
 20
93.44522842475612
 30
0.0
 11
385.0462798675427
 21
93.44522842475612
 31
0.0
  0
ARC
  5
1AE10
330
1F
100
AcDbEntity
  8
Layer_1
100
AcDbCircle
 10
192.4384496662341
 20
97.44522842475612
 30
0.0
 40
4.000000000000001
100
AcDbArc
 50
180.0
 51
270.0
  0
CIRCLE
  5
1AE11
330
1F
100
AcDbEntity
  8
Layer_1
100
AcDbCircle
 10
192.6706842132677
 20
97.67746297178974
 30
0.0
 40
1.350000000000001
  0
ARC
  5
1AE3C
330
1F
100
AcDbEntity
  8
Layer_1
100
AcDbCircle
 10
385.0462798675427
 20
97.44522842475612
 30
0.0
 40
4.000000000000001
100
AcDbArc
 50
270.0
 51
0.0
  0
CIRCLE
  5
1AE3D
330
1F
100
AcDbEntity
  8
Layer_1
100
AcDbCircle
 10
384.8140461513257
 20
97.67744775647088
 30
0.0
 40
1.350000000000001
  0
CIRCLE
  5
1B5D9
330
1F
100
AcDbEntity
  8
Layer_1
100
AcDbCircle
 10
285.5395559742286
 20
209.8452
 30
0.0
 40
1.350000000000001
  0
CIRCLE
  5
1B604
330
1F
100
AcDbEntity
  8
Layer_1
100
AcDbCircle
 10
287.8520559742286
 20
96.9603
 30
0.0
 40
1.350000000000001
  0
LINE
  5
1B67E
330
1F
100
AcDbEntity
  8
Layer_1
100
AcDbLine
 10
389.0462798675428
 20
155.7104606727692
 30
0.0
 11
389.0462798675428
 21
130.8430945937394
 31
0.0
  0
LINE
  5
1B681
330
1F
100
AcDbEntity
  8
Layer_1
  6
ByBlock
100
AcDbLine
 10
192.4384496662341
 20
213.4452
 30
0.0
 11
385.0462798675428
 21
213.4452
 31
0.0
  0
CIRCLE
  5
1B683
330
1F
100
AcDbEntity
  8
Layer_1
100
AcDbCircle
 10
192.6706833824512
 20
209.2129806682852
 30
0.0
 40
1.350000000000001
  0
ARC
  5
1B687
330
1F
100
AcDbEntity
  8
Layer_1
100
AcDbCircle
 10
192.4384496662341
 20
97.44522842475612
 30
0.0
 40
4.000000000000001
100
AcDbArc
 50
180.0
 51
270.0
  0
CIRCLE
  5
1B68A
330
1F
100
AcDbEntity
  8
Layer_1
100
AcDbCircle
 10
384.8140461513257
 20
97.67744775647088
 30
0.0
 40
1.350000000000001
  0
LINE
  5
1B68E
330
1F
100
AcDbEntity
  8
Layer_1
  6
ByBlock
100
AcDbLine
 10
389.0462798675428
 20
199.4452141853018
 30
0.0
 11
389.0462798675428
 21
209.4452
 31
0.0
  0
LINE
  5
1B68F
330
1F
100
AcDbEntity
  8
Layer_1
  6
ByBlock
100
AcDbLine
 10
389.0462798675428
 20
97.44522842475612
 30
0.0
 11
389.0462798675428
 21
107.4452142394543
 31
0.0
  0
LINE
  5
1B690
330
1F
100
AcDbEntity
  8
Layer_1
  6
ByBlock
100
AcDbLine
 10
375.0462940528445
 20
93.44522842475612
 30
0.0
 11
385.0462798675428
 21
93.44522842475612
 31
0.0
  0
LINE
  5
1B691
330
1F
100
AcDbEntity
  8
Layer_1
  6
ByBlock
100
AcDbLine
 10
192.4384496662341
 20
93.44522842475612
 30
0.0
 11
202.4384354809324
 21
93.44522842475612
 31
0.0
  0
LINE
  5
1B782
330
1F
100
AcDbEntity
  8
Layer_1
100
AcDbLine
 10
616.259382633033
 20
156.179633421107
 30
0.0
 11
616.259382633033
 21
131.3122673420771
 31
0.0
  0
LINE
  5
1B783
330
1F
100
AcDbEntity
  8
Layer_1
100
AcDbLine
 10
616.259382633033
 20
209.9143727483378
 30
0.0
 11
616.259382633033
 21
97.91440117309389
 31
0.0
  0
LINE
  5
1B7AD
330
1F
100
AcDbEntity
  8
Layer_1
  6
ByBlock
100
AcDbLine
 10
415.6515524317245
 20
209.9143727483378
 30
0.0
 11
415.6515524317245
 21
97.91440117309389
 31
0.0
  0
LINE
  5
1B7AE
330
1F
100
AcDbEntity
  8
Layer_1
  6
ByBlock
100
AcDbLine
 10
419.6515524317245
 20
213.9143727483378
 30
0.0
 11
612.259382633033
 21
213.9143727483378
 31
0.0
  0
ARC
  5
1B7AF
102
{ACAD_REACTORS
330
1BB0F
330
1BB1F
102
}
330
1F
100
AcDbEntity
  8
Layer_1
100
AcDbCircle
 10
419.6515524317245
 20
209.9143727483378
 30
0.0
 40
4.000000000000001
100
AcDbArc
 50
90.0
 51
180.0
  0
CIRCLE
  5
1B7B0
330
1F
100
AcDbEntity
  8
Layer_1
100
AcDbCircle
 10
419.8837861479415
 20
209.682153416623
 30
0.0
 40
1.350000000000001
  0
ARC
  5
1B7B1
102
{ACAD_REACTORS
330
1BB0F
102
}
330
1F
100
AcDbEntity
  8
Layer_1
100
AcDbCircle
 10
612.259382633033
 20
209.9143727483378
 30
0.0
 40
4.000000000000001
100
AcDbArc
 50
0.0
 51
90.0
  0
CIRCLE
  5
1B7B2
330
1F
100
AcDbEntity
  8
Layer_1
100
AcDbCircle
 10
612.0271480859994
 20
209.6821382013042
 30
0.0
 40
1.350000000000001
  0
LINE
  5
1B7B3
330
1F
100
AcDbEntity
  8
Layer_1
  6
ByBlock
100
AcDbLine
 10
419.6515524317245
 20
93.91440117309389
 30
0.0
 11
612.259382633033
 21
93.91440117309389
 31
0.0
  0
ARC
  5
1B7B4
102
{ACAD_REACTORS
330
1BB1F
102
}
330
1F
100
AcDbEntity
  8
Layer_1
100
AcDbCircle
 10
419.6515524317245
 20
97.91440117309389
 30
0.0
 40
4.000000000000001
100
AcDbArc
 50
180.0
 51
270.0
  0
CIRCLE
  5
1B7B5
330
1F
100
AcDbEntity
  8
Layer_1
100
AcDbCircle
 10
419.8837869787581
 20
98.1466357201275
 30
0.0
 40
1.350000000000001
  0
ARC
  5
1B7B6
330
1F
100
AcDbEntity
  8
Layer_1
100
AcDbCircle
 10
612.259382633033
 20
97.91440117309389
 30
0.0
 40
4.000000000000001
100
AcDbArc
 50
270.0
 51
0.0
  0
CIRCLE
  5
1B7B7
330
1F
100
AcDbEntity
  8
Layer_1
100
AcDbCircle
 10
612.027148916816
 20
98.14662050480865
 30
0.0
 40
1.350000000000001
  0
CIRCLE
  5
1B7BC
330
1F
100
AcDbEntity
  8
Layer_1
100
AcDbCircle
 10
512.752658739719
 20
210.3143727483378
 30
0.0
 40
1.350000000000001
  0
CIRCLE
  5
1B7BE
330
1F
100
AcDbEntity
  8
Layer_1
100
AcDbCircle
 10
515.065158739719
 20
97.42947274833777
 30
0.0
 40
1.350000000000001
  0
CIRCLE
  5
1B7CC
330
1F
100
AcDbEntity
  8
Layer_1
100
AcDbCircle
 10
419.8837869787581
 20
98.1466357201275
 30
0.0
 40
1.350000000000001
  0
LINE
  5
1B7D7
330
1F
100
AcDbEntity
  8
Layer_1
  6
ByBlock
100
AcDbLine
 10
607.2593897256841
 20
206.9144124238818
 30
0.0
 11
424.6515453390736
 21
206.9144006436875
 31
0.0
  0
ARC
  5
1B7D8
330
1F
100
AcDbEntity
  8
Layer_1
  6
ByBlock
100
AcDbCircle
 10
424.6515394489765
 20
204.9143739508915
 30
0.0
 40
2.000026692804686
100
AcDbArc
 50
89.99983126339964
 51
179.9998312633988
  0
ARC
  5
1B7D9
330
1F
100
AcDbEntity
  8
Layer_1
  6
ByBlock
100
AcDbCircle
 10
607.259383835587
 20
204.9143857310858
 30
0.0
 40
2.000026692804686
100
AcDbArc
 50
359.9998312633996
 51
89.99983126339964
  0
ARC
  5
1B7DA
330
1F
100
AcDbEntity
  8
Layer_1
  6
ByBlock
100
AcDbCircle
 10
607.2593956157812
 20
102.9143999705401
 30
0.0
 40
2.000026692804686
100
AcDbArc
 50
269.9998312633996
 51
359.9998312633996
  0
ARC
  5
1B7DB
330
1F
100
AcDbEntity
  8
Layer_1
  6
ByBlock
100
AcDbCircle
 10
424.6515512291707
 20
102.9143881903459
 30
0.0
 40
2.000026692804686
100
AcDbArc
 50
179.9998312633997
 51
269.9998312633996
  0
LINE
  5
1B7DC
330
1F
100
AcDbEntity
  8
Layer_1
  6
ByBlock
100
AcDbLine
 10
609.2594105283829
 20
204.9143798409887
 30
0.0
 11
609.2594223085771
 21
102.914394080443
 31
0.0
  0
LINE
  5
1B7DD
330
1F
100
AcDbEntity
  8
Layer_1
  6
ByBlock
100
AcDbLine
 10
607.2593897256841
 20
100.9143732777441
 30
0.0
 11
424.6515453390736
 21
100.9143614975499
 31
0.0
  0
LINE
  5
1B7DE
330
1F
100
AcDbEntity
  8
Layer_1
  6
ByBlock
100
AcDbLine
 10
422.6515245363747
 20
102.914394080443
 30
0.0
 11
422.6515127561805
 21
204.9143798409887
 31
0.0
  0
LINE
  5
1B88E
330
1F
100
AcDbEntity
  8
Layer_1
100
AcDbLine
 10
846.5665202715502
 20
154.6025068659776
 30
0.0
 11
846.5665202715502
 21
129.7351407869477
 31
0.0
  0
LINE
  5
1B88F
330
1F
100
AcDbEntity
  8
Layer_1
100
AcDbLine
 10
846.5665202715502
 20
208.3372461932084
 30
0.0
 11
846.5665202715502
 21
96.33727461796448
 31
0.0
  0
CIRCLE
  5
1B8B7
330
1F
100
AcDbEntity
  8
Layer_1
100
AcDbCircle
 10
701.4347963782361
 20
161.8372638477464
 30
0.0
 40
1.350000000000001
  0
CIRCLE
  5
1B8B8
330
1F
100
AcDbEntity
  8
Layer_1
100
AcDbCircle
 10
803.5597963782361
 20
161.8372638477464
 30
0.0
 40
1.350000000000001
  0
LINE
  5
1B8B9
330
1F
100
AcDbEntity
  8
Layer_1
  6
ByBlock
100
AcDbLine
 10
645.9586900702416
 20
208.3372461932084
 30
0.0
 11
645.9586900702416
 21
96.33727461796448
 31
0.0
  0
LINE
  5
1B8BA
330
1F
100
AcDbEntity
  8
Layer_1
  6
ByBlock
100
AcDbLine
 10
649.9586900702416
 20
212.3372461932084
 30
0.0
 11
842.5665202715502
 21
212.3372461932084
 31
0.0
  0
ARC
  5
1B8BB
330
1F
100
AcDbEntity
  8
Layer_1
100
AcDbCircle
 10
649.9586900702416
 20
208.3372461932084
 30
0.0
 40
4.000000000000001
100
AcDbArc
 50
90.0
 51
180.0
  0
CIRCLE
  5
1B8BC
330
1F
100
AcDbEntity
  8
Layer_1
100
AcDbCircle
 10
650.1909237864586
 20
208.1050268614936
 30
0.0
 40
1.350000000000001
  0
ARC
  5
1B8BD
330
1F
100
AcDbEntity
  8
Layer_1
100
AcDbCircle
 10
842.5665202715502
 20
208.3372461932084
 30
0.0
 40
4.000000000000001
100
AcDbArc
 50
0.0
 51
90.0
  0
CIRCLE
  5
1B8BE
330
1F
100
AcDbEntity
  8
Layer_1
100
AcDbCircle
 10
842.3342857245166
 20
208.1050116461747
 30
0.0
 40
1.350000000000001
  0
LINE
  5
1B8BF
330
1F
100
AcDbEntity
  8
Layer_1
  6
ByBlock
100
AcDbLine
 10
649.9586900702416
 20
92.33727461796448
 30
0.0
 11
842.5665202715502
 21
92.33727461796448
 31
0.0
  0
ARC
  5
1B8C0
330
1F
100
AcDbEntity
  8
Layer_1
100
AcDbCircle
 10
649.9586900702416
 20
96.33727461796448
 30
0.0
 40
4.000000000000001
100
AcDbArc
 50
180.0
 51
270.0
  0
CIRCLE
  5
1B8C1
330
1F
100
AcDbEntity
  8
Layer_1
100
AcDbCircle
 10
650.1909246172752
 20
96.5695091649981
 30
0.0
 40
1.350000000000001
  0
ARC
  5
1B8C2
330
1F
100
AcDbEntity
  8
Layer_1
100
AcDbCircle
 10
842.5665202715502
 20
96.33727461796448
 30
0.0
 40
4.000000000000001
100
AcDbArc
 50
270.0
 51
0.0
  0
CIRCLE
  5
1B8C3
330
1F
100
AcDbEntity
  8
Layer_1
100
AcDbCircle
 10
842.3342865553332
 20
96.56949394967924
 30
0.0
 40
1.350000000000001
  0
CIRCLE
  5
1B8C4
330
1F
100
AcDbEntity
  8
Layer_1
100
AcDbCircle
 10
743.0597963782361
 20
208.7372461932084
 30
0.0
 40
1.350000000000001
  0
CIRCLE
  5
1B8C5
330
1F
100
AcDbEntity
  8
Layer_1
100
AcDbCircle
 10
745.3722963782361
 20
95.85234619320836
 30
0.0
 40
1.350000000000001
  0
LINE
  5
1B8C6
330
1F
100
AcDbEntity
  8
Layer_1
100
AcDbLine
 10
846.5665202715502
 20
154.6025068659776
 30
0.0
 11
846.5665202715502
 21
129.7351407869477
 31
0.0
  0
LINE
  5
1B8C7
330
1F
100
AcDbEntity
  8
Layer_1
  6
ByBlock
100
AcDbLine
 10
649.9586900702416
 20
212.3372461932084
 30
0.0
 11
842.5665202715502
 21
212.3372461932084
 31
0.0
  0
CIRCLE
  5
1B8C8
330
1F
100
AcDbEntity
  8
Layer_1
100
AcDbCircle
 10
650.1909237864586
 20
208.1050268614936
 30
0.0
 40
1.350000000000001
  0
ARC
  5
1B8C9
330
1F
100
AcDbEntity
  8
Layer_1
100
AcDbCircle
 10
649.9586900702416
 20
96.33727461796448
 30
0.0
 40
4.000000000000001
100
AcDbArc
 50
180.0
 51
270.0
  0
CIRCLE
  5
1B8CA
330
1F
100
AcDbEntity
  8
Layer_1
100
AcDbCircle
 10
842.3342865553332
 20
96.56949394967924
 30
0.0
 40
1.350000000000001
  0
LINE
  5
1B8CB
330
1F
100
AcDbEntity
  8
Layer_1
  6
ByBlock
100
AcDbLine
 10
846.5665202715502
 20
198.3372603785101
 30
0.0
 11
846.5665202715502
 21
208.3372461932084
 31
0.0
  0
LINE
  5
1B8CC
330
1F
100
AcDbEntity
  8
Layer_1
  6
ByBlock
100
AcDbLine
 10
846.5665202715502
 20
96.33727461796448
 30
0.0
 11
846.5665202715502
 21
106.3372604326627
 31
0.0
  0
LINE
  5
1B8CD
330
1F
100
AcDbEntity
  8
Layer_1
  6
ByBlock
100
AcDbLine
 10
832.566534456852
 20
92.33727461796448
 30
0.0
 11
842.5665202715502
 21
92.33727461796448
 31
0.0
  0
LINE
  5
1B8CE
330
1F
100
AcDbEntity
  8
Layer_1
  6
ByBlock
100
AcDbLine
 10
649.9586900702416
 20
92.33727461796448
 30
0.0
 11
659.9586758849398
 21
92.33727461796448
 31
0.0
  0
LINE
  5
1B8D7
330
1F
100
AcDbEntity
  8
Layer_1
100
AcDbLine
 10
1083.417901831118
 20
156.179633421107
 30
0.0
 11
1083.417901831118
 21
131.3122673420771
 31
0.0
  0
LINE
  5
1B8D8
330
1F
100
AcDbEntity
  8
Layer_1
100
AcDbLine
 10
1083.417901831118
 20
209.9143727483378
 30
0.0
 11
1083.417901831118
 21
97.91440117309389
 31
0.0
  0
LINE
  5
1B8D9
330
1F
100
AcDbEntity
  8
Layer_1
  6
ByBlock
100
AcDbLine
 10
882.8100716298093
 20
209.9143727483378
 30
0.0
 11
882.8100716298093
 21
97.91440117309389
 31
0.0
  0
ARC
  5
1B8DB
330
1F
100
AcDbEntity
  8
Layer_1
100
AcDbCircle
 10
886.8100716298093
 20
209.9143727483378
 30
0.0
 40
4.000000000000001
100
AcDbArc
 50
90.0
 51
180.0
  0
CIRCLE
  5
1B8DC
330
1F
100
AcDbEntity
  8
Layer_1
100
AcDbCircle
 10
887.0423053460263
 20
209.682153416623
 30
0.0
 40
1.350000000000001
  0
ARC
  5
1B8DD
330
1F
100
AcDbEntity
  8
Layer_1
100
AcDbCircle
 10
1079.417901831118
 20
209.9143727483378
 30
0.0
 40
4.000000000000001
100
AcDbArc
 50
0.0
 51
90.0
  0
CIRCLE
  5
1B8DE
330
1F
100
AcDbEntity
  8
Layer_1
100
AcDbCircle
 10
1079.185667284084
 20
209.6821382013042
 30
0.0
 40
1.350000000000001
  0
LINE
  5
1B8DF
330
1F
100
AcDbEntity
  8
Layer_1
  6
ByBlock
100
AcDbLine
 10
886.8100716298093
 20
93.91440117309389
 30
0.0
 11
1079.417901831118
 21
93.91440117309389
 31
0.0
  0
ARC
  5
1B8E0
330
1F
100
AcDbEntity
  8
Layer_1
100
AcDbCircle
 10
886.8100716298093
 20
97.91440117309389
 30
0.0
 40
4.000000000000001
100
AcDbArc
 50
180.0
 51
270.0
  0
CIRCLE
  5
1B8E1
330
1F
100
AcDbEntity
  8
Layer_1
100
AcDbCircle
 10
887.0423061768429
 20
98.1466357201275
 30
0.0
 40
1.350000000000001
  0
ARC
  5
1B8E2
330
1F
100
AcDbEntity
  8
Layer_1
100
AcDbCircle
 10
1079.417901831118
 20
97.91440117309389
 30
0.0
 40
4.000000000000001
100
AcDbArc
 50
270.0
 51
0.0
  0
CIRCLE
  5
1B8E3
330
1F
100
AcDbEntity
  8
Layer_1
100
AcDbCircle
 10
1079.185668114901
 20
98.14662050480865
 30
0.0
 40
1.350000000000001
  0
CIRCLE
  5
1B8E4
330
1F
100
AcDbEntity
  8
Layer_1
100
AcDbCircle
 10
979.9111779378037
 20
210.3143727483378
 30
0.0
 40
1.350000000000001
  0
CIRCLE
  5
1B8E5
330
1F
100
AcDbEntity
  8
Layer_1
100
AcDbCircle
 10
982.2236779378037
 20
97.42947274833777
 30
0.0
 40
1.350000000000001
  0
CIRCLE
  5
1B8E6
330
1F
100
AcDbEntity
  8
Layer_1
100
AcDbCircle
 10
887.0423061768429
 20
98.1466357201275
 30
0.0
 40
1.350000000000001
  0
ARC
  5
1B8E8
330
1F
100
AcDbEntity
  8
Layer_1
  6
ByBlock
100
AcDbCircle
 10
891.8100586470612
 20
204.9143739508915
 30
0.0
 40
2.000026692804686
100
AcDbArc
 50
89.99983126339964
 51
179.9998312633988
  0
ARC
  5
1B8E9
330
1F
100
AcDbEntity
  8
Layer_1
  6
ByBlock
100
AcDbCircle
 10
1074.417903033672
 20
204.9143857310858
 30
0.0
 40
2.000026692804686
100
AcDbArc
 50
359.9998312633996
 51
89.99983126340616
  0
ARC
  5
1B8EA
330
1F
100
AcDbEntity
  8
Layer_1
  6
ByBlock
100
AcDbCircle
 10
1074.417914813866
 20
102.9143999705401
 30
0.0
 40
2.000026692804686
100
AcDbArc
 50
269.9998312633932
 51
359.9998312633996
  0
ARC
  5
1B8EB
330
1F
100
AcDbEntity
  8
Layer_1
  6
ByBlock
100
AcDbCircle
 10
891.8100704272554
 20
102.9143881903459
 30
0.0
 40
2.000026692804686
100
AcDbArc
 50
179.9998312633997
 51
269.9998312633996
  0
LINE
  5
1B8EC
330
1F
100
AcDbEntity
  8
Layer_1
  6
ByBlock
100
AcDbLine
 10
1076.417929726468
 20
204.9143798409887
 30
0.0
 11
1076.417941506662
 21
102.914394080443
 31
0.0
  0
LINE
  5
1B8ED
330
1F
100
AcDbEntity
  8
Layer_1
  6
ByBlock
100
AcDbLine
 10
1074.417908923769
 20
100.9143732777441
 30
0.0
 11
891.8100645371583
 21
100.9143614975499
 31
0.0
  0
LINE
  5
1B8EE
330
1F
100
AcDbEntity
  8
Layer_1
  6
ByBlock
100
AcDbLine
 10
889.8100437344594
 20
102.914394080443
 30
0.0
 11
889.8100319542652
 21
204.9143798409887
 31
0.0
  0
LINE
  5
1B99F
330
1F
100
AcDbEntity
  8
Layer_1
  6
ByBlock
100
AcDbLine
 10
886.8100716298093
 20
213.9143727483378
 30
0.0
 11
886.8100716298093
 21
213.9143727483378
 31
0.0
  0
LINE
  5
1B9A0
330
1F
100
AcDbEntity
  8
Layer_1
  6
ByBlock
100
AcDbLine
 10
886.8100716298093
 20
213.9143727483378
 30
0.0
 11
886.8100716298093
 21
213.9143727483378
 31
0.0
  0
LINE
  5
1BA21
330
1F
100
AcDbEntity
  8
Layer_1
  6
ByBlock
100
AcDbLine
 10
899.8166153225233
 20
208.9144
 30
0.0
 11
895.816622418287
 21
208.9144
 31
0.0
  0
LINE
  5
1BA4B
330
1F
100
AcDbEntity
  8
Layer_1
  6
ByBlock
100
AcDbLine
 10
899.8166153225233
 20
208.9144
 30
0.0
 11
899.8166153225233
 21
206.9144009021541
 31
0.0
  0
LINE
  5
1BA4E
330
1F
100
AcDbEntity
  8
Layer_1
  6
ByBlock
100
AcDbLine
 10
899.8166153225233
 20
206.9144009021541
 30
0.0
 11
891.8100645371583
 21
206.9144006436875
 31
0.0
  0
LINE
  5
1BA79
330
1F
100
AcDbEntity
  8
Layer_1
  6
ByBlock
100
AcDbLine
 10
886.8100716298093
 20
213.9143727483378
 30
0.0
 11
895.816622418287
 21
213.9143727483378
 31
0.0
  0
LINE
  5
1BAB4
330
1F
100
AcDbEntity
  8
Layer_1
  6
ByBlock
100
AcDbLine
 10
907.8165999999999
 20
208.9144
 30
0.0
 11
907.8165999999999
 21
206.9144009021541
 31
0.0
  0
LINE
  5
1BADE
330
1F
100
AcDbEntity
  8
Layer_1
  6
ByBlock
100
AcDbLine
 10
911.8165929042361
 20
208.9144
 30
0.0
 11
907.8165999999999
 21
208.9144
 31
0.0
  0
LINE
  5
1BAE0
330
1F
100
AcDbEntity
  8
Layer_1
  6
ByBlock
100
AcDbLine
 10
895.816622418287
 20
208.9144
 30
0.0
 11
895.816622418287
 21
213.9143727483378
 31
0.0
  0
LINE
  5
1BB0A
330
1F
100
AcDbEntity
  8
Layer_1
  6
ByBlock
100
AcDbLine
 10
911.8165929042361
 20
208.9144
 30
0.0
 11
911.8165929042361
 21
213.9143727483378
 31
0.0
  0
LINE
  5
1BB0B
330
1F
100
AcDbEntity
  8
Layer_1
  6
ByBlock
100
AcDbLine
 10
911.8165929042361
 20
213.9143727483378
 30
0.0
 11
1079.417901831118
 21
213.9143727483378
 31
0.0
  0
LINE
  5
1BB0C
330
1F
100
AcDbEntity
  8
Layer_1
  6
ByBlock
100
AcDbLine
 10
1074.417908923769
 20
206.9144124238818
 30
0.0
 11
907.8165999999999
 21
206.9144009021541
 31
0.0
  0
VIEWPORT
  5
10048
330
1B
100
AcDbEntity
 67
     1
  8
0
100
AcDbViewport
 10
202.5
 20
128.5
 30
0.0
 40
486.0
 41
308.4
 68
     1
 69
     1
 12
202.5
 22
128.5
 13
0.0
 23
0.0
 14
0.5
 24
0.5
 15
0.0
 25
0.0
 16
0.0
 26
0.0
 36
1.0
 17
0.0
 27
0.0
 37
0.0
 42
50.0
 43
0.0
 44
0.0
 45
308.4
 50
0.0
 51
0.0
 72
   100
 90
   557152
  1

281
     0
 71
     1
 74
     0
110
0.0
120
0.0
130
0.0
111
1.0
121
0.0
131
0.0
112
0.0
122
1.0
132
0.0
 79
     0
146
0.0
170
     0
 61
     5
348
1002D
292
     1
282
     1
141
0.0
142
0.0
 63
   256
  0
VIEWPORT
  5
10049
330
1B
100
AcDbEntity
 67
     1
  8
0
100
AcDbViewport
 10
202.5
 20
128.5
 30
0.0
 40
324.0
 41
205.6
 68
     2
 69
     2
 12
212.7984235
 22
147.641214
 13
0.0
 23
0.0
 14
0.5
 24
0.5
 15
0.0
 25
0.0
 16
0.0
 26
0.0
 36
1.0
 17
0.0
 27
0.0
 37
0.0
 42
50.0
 43
0.0
 44
0.0
 45
238.67999388
 50
0.0
 51
0.0
 72
   100
 90
   557152
  1

281
     0
 71
     1
 74
     0
110
0.0
120
0.0
130
0.0
111
1.0
121
0.0
131
0.0
112
0.0
122
1.0
132
0.0
 79
     0
146
0.0
170
     0
 61
     5
348
1002D
292
     1
282
     1
141
0.0
142
0.0
 63
   256
  0
ENDSEC
  0
SECTION
  2
OBJECTS
  0
DICTIONARY
  5
C
330
0
100
AcDbDictionary
281
     1
  3
ACAD_DETAILVIEWSTYLE
350
107AE
  3
ACAD_GROUP
350
D
  3
ACAD_IMAGE_VARS
350
1003C
  3
ACAD_LAYOUT
350
FFFF
  3
ACAD_MATERIAL
350
10024
  3
ACAD_MLEADERSTYLE
350
10058
  3
ACAD_MLINESTYLE
350
17
  3
ACAD_PLOTSETTINGS
350
1004D
  3
ACAD_PLOTSTYLENAME
350
1004E
  3
ACAD_SCALELIST
350
10002
  3
ACAD_SECTIONVIEWSTYLE
350
107AF
  3
ACAD_TABLESTYLE
350
10039
  3
ACAD_VISUALSTYLE
350
10028
  3
ACDB_RECOMPOSE_DATA
350
1BB30
  3
AcDbVariableDictionary
350
10138
  3
APPDATA
350
1003B
  0
SUN
  5
107AD
330
2E
100
AcDbSun
 90
        1
290
     0
 63
     7
421
 16777215
 40
1.0
291
     1
 91
  2455826
 92
 54000000
292
     0
 70
     2
 71
   256
280
     1
  0
DICTIONARY
  5
1013C
330
2
100
AcDbDictionary
280
     1
281
     1
  3
ACAD_LAYERSTATES
360
1013D
  3
ACLYDICTIONARY
360
1077A
  0
DICTIONARY
  5
1044A
330
1F
100
AcDbDictionary
280
     1
281
     1
  3
ACAD_SORTENTS
360
1044B
  0
DICTIONARY
  5
107AE
102
{ACAD_REACTORS
330
C
102
}
330
C
100
AcDbDictionary
281
     1
  0
DICTIONARY
  5
D
330
C
100
AcDbDictionary
281
     1
  0
RASTERVARIABLES
  5
1003C
102
{ACAD_REACTORS
330
C
102
}
330
C
100
AcDbRasterVariables
 90
        0
 70
     1
 71
     1
 72
     0
  0
DICTIONARY
  5
FFFF
102
{ACAD_REACTORS
330
C
102
}
330
C
100
AcDbDictionary
281
     1
  3
Model
350
10000
  3
Sheet 1
350
10001
  0
DICTIONARY
  5
10024
102
{ACAD_REACTORS
330
C
102
}
330
C
100
AcDbDictionary
281
     1
  3
ByBlock
350
10026
  3
ByLayer
350
10025
  3
Global
350
10027
  0
DICTIONARY
  5
10058
102
{ACAD_REACTORS
330
C
102
}
330
C
100
AcDbDictionary
281
     1
  3
Standard
350
18FFC
  0
DICTIONARY
  5
17
330
C
100
AcDbDictionary
281
     1
  3
Standard
350
1013B
  0
DICTIONARY
  5
1004D
102
{ACAD_REACTORS
330
C
102
}
330
C
100
AcDbDictionary
281
     1
  0
ACDBDICTIONARYWDFLT
  5
1004E
102
{ACAD_REACTORS
330
C
102
}
330
C
100
AcDbDictionary
281
     1
  3
Normal
350
1004F
100
AcDbDictionaryWithDefault
340
1004F
  0
DICTIONARY
  5
10002
102
{ACAD_REACTORS
330
C
102
}
330
C
100
AcDbDictionary
281
     1
  3
A0
350
10003
  3
A1
350
10004
  3
A2
350
10005
  3
A3
350
10006
  3
A4
350
10007
  3
A5
350
10008
  3
A6
350
10009
  3
A7
350
1000A
  3
A8
350
1000B
  3
A9
350
1000C
  3
B0
350
1000D
  3
B1
350
1000E
  3
B2
350
1000F
  3
B3
350
10010
  3
B4
350
10011
  3
B5
350
10012
  3
B6
350
10013
  3
B7
350
10014
  3
B8
350
10015
  3
B9
350
10016
  3
C0
350
10017
  3
C1
350
10018
  3
C2
350
10019
  3
C3
350
1001A
  3
C4
350
1001B
  3
C5
350
1001C
  3
C6
350
1001D
  3
C7
350
1001E
  3
C8
350
1001F
  3
C9
350
10020
  3
D0
350
10021
  3
D1
350
10022
  3
D2
350
10023
  0
DICTIONARY
  5
107AF
102
{ACAD_REACTORS
330
C
102
}
330
C
100
AcDbDictionary
281
     1
  0
DICTIONARY
  5
10039
102
{ACAD_REACTORS
330
C
102
}
330
C
100
AcDbDictionary
281
     1
  3
Standard
350
1003A
  0
DICTIONARY
  5
10028
102
{ACAD_REACTORS
330
C
102
}
330
C
100
AcDbDictionary
281
     1
  3
2dWireframe
350
1002D
  3
3D Hidden
350
1002F
  3
3dWireframe
350
1002E
  3
Basic
350
10030
  3
Brighten
350
10034
  3
ColorChange
350
10038
  3
Conceptual
350
10032
  3
Dim
350
10033
  3
EdgeColorOff
350
107A7
  3
Facepattern
350
10037
  3
Flat
350
10029
  3
FlatWithEdges
350
1002A
  3
Gouraud
350
1002B
  3
GouraudWithEdges
350
1002C
  3
Hidden
350
107A4
  3
JitterOff
350
107A5
  3
Linepattern
350
10036
  3
OverhangOff
350
107A6
  3
Realistic
350
10031
  3
Shaded
350
107AC
  3
Shaded with edges
350
107AB
  3
Shades of Gray
350
107A8
  3
Sketchy
350
107A9
  3
Thicken
350
10035
  3
Wireframe
350
107A3
  3
X-Ray
350
107AA
  0
XRECORD
  5
1BB30
102
{ACAD_REACTORS
330
C
102
}
330
C
100
AcDbXrecord
280
     1
 90
        1
330
1003A
  0
DICTIONARY
  5
10138
102
{ACAD_REACTORS
330
C
102
}
330
C
100
AcDbDictionary
281
     1
  3
CANNOSCALE
350
10139
  3
CMLEADERSTYLE
350
195FF
  3
CTABLESTYLE
350
1013A
  3
HPTRANSPARENCY
350
10B8E
  0
DICTIONARY
  5
1003B
102
{ACAD_REACTORS
330
C
102
}
330
C
100
AcDbDictionary
281
     1
  0
DICTIONARY
  5
1013D
102
{ACAD_REACTORS
330
1013C
102
}
330
1013C
100
AcDbDictionary
281
     1
  3
ARGON_LAYERP_10
350
19991
  3
ARGON_LAYERP_11
350
19992
  3
ARGON_LAYERP_12
350
19993
  3
ARGON_LAYERP_13
350
19994
  3
ARGON_LAYERP_14
350
19995
  3
ARGON_LAYERP_15
350
19996
  3
ARGON_LAYERP_16
350
19997
  3
ARGON_LAYERP_17
350
19998
  3
ARGON_LAYERP_18
350
19999
  3
ARGON_LAYERP_19
350
1999A
  3
ARGON_LAYERP_2
350
19989
  3
ARGON_LAYERP_20
350
1999B
  3
ARGON_LAYERP_21
350
1999C
  3
ARGON_LAYERP_22
350
19ACB
  3
ARGON_LAYERP_23
350
19C48
  3
ARGON_LAYERP_24
350
19C49
  3
ARGON_LAYERP_25
350
19C4A
  3
ARGON_LAYERP_26
350
19C4B
  3
ARGON_LAYERP_27
350
19C4C
  3
ARGON_LAYERP_3
350
1998A
  3
ARGON_LAYERP_32
350
10779
  3
ARGON_LAYERP_4
350
1998B
  3
ARGON_LAYERP_5
350
1998C
  3
ARGON_LAYERP_6
350
1998D
  3
ARGON_LAYERP_7
350
1998E
  3
ARGON_LAYERP_8
350
1998F
  3
ARGON_LAYERP_9
350
19990
  0
DICTIONARY
  5
1077A
102
{ACAD_REACTORS
330
1013C
102
}
330
1013C
100
AcDbDictionary
281
     1
1001
ACAD
1000
<All
  0
SORTENTSTABLE
  5
1044B
102
{ACAD_REACTORS
330
1044A
102
}
330
1044A
100
AcDbSortentsTable
330
1F
331
0
  5
10A
  0
LAYOUT
  5
10000
102
{ACAD_REACTORS
330
FFFF
102
}
330
FFFF
100
AcDbPlotSettings
  1

  2
none_device
  4
ISO_A3_(420.00_x_297.00_MM)
  6

 40
7.5
 41
20.0
 42
7.5
 43
20.0
 44
420.0
 45
297.0
 46
0.0
 47
0.0
 48
0.0
 49
0.0
140
0.0
141
0.0
142
1.0
143
2.052519650986572
 70
  1712
 72
     1
 73
     0
 74
     0
  7

 75
     0
 76
     0
 77
     2
 78
   300
147
0.4872060540415952
148
35.30155950586487
149
81.49724014038412
100
AcDbLayout
  1
Model
 70
     1
 71
     0
 10
0.0
 20
0.0
 11
12.0
 21
9.0
 12
0.0
 22
0.0
 32
0.0
 14
188.4384496662341
 24
92.33727461796448
 34
0.0
 15
1083.417901831118
 25
253.3052979333684
 35
0.0
146
0.0
 13
0.0
 23
0.0
 33
0.0
 16
1.0
 26
0.0
 36
0.0
 17
0.0
 27
1.0
 37
0.0
 76
     0
330
1F
331
2E
  0
LAYOUT
  5
10001
102
{ACAD_REACTORS
330
FFFF
102
}
330
FFFF
100
AcDbPlotSettings
  1

  2
none_device
  4
ISO_A3_(420.00_x_297.00_MM)
  6

 40
7.5
 41
20.0
 42
7.5
 43
20.0
 44
420.0
 45
297.0
 46
0.0
 47
0.0
 48
0.0
 49
0.0
140
0.0
141
0.0
142
1.0
143
1.0
 70
   688
 72
     1
 73
     0
 74
     5
  7

 75
    16
 76
     0
 77
     2
 78
   300
147
1.0
148
0.0
149
0.0
100
AcDbLayout
  1
Sheet 1
 70
     1
 71
     1
 10
0.0
 20
0.0
 11
412.5
 21
277.0
 12
0.0
 22
0.0
 32
0.0
 14
1.000000000000000E+20
 24
1.000000000000000E+20
 34
1.000000000000000E+20
 15
-1.000000000000000E+20
 25
-1.000000000000000E+20
 35
-1.000000000000000E+20
146
0.0
 13
0.0
 23
0.0
 33
0.0
 16
1.0
 26
0.0
 36
0.0
 17
0.0
 27
1.0
 37
0.0
 76
     0
330
1B
331
10048
  0
MATERIAL
  5
10026
102
{ACAD_REACTORS
330
10024
102
}
330
10024
100
AcDbMaterial
  1
ByBlock
 72
     1
 94
      127
  0
MATERIAL
  5
10025
102
{ACAD_REACTORS
330
10024
102
}
330
10024
100
AcDbMaterial
  1
ByLayer
 72
     1
 94
      127
  0
MATERIAL
  5
10027
102
{ACAD_REACTORS
330
10024
102
}
330
10024
100
AcDbMaterial
  1
Global
 72
     1
 94
      127
  0
MLEADERSTYLE
  5
18FFC
102
{ACAD_REACTORS
330
10058
102
}
330
10058
100
AcDbMLeaderStyle
170
     2
171
     1
172
     0
 90
        2
 40
0.0
 41
0.0
173
     1
 91
-1056964608
340
14
 92
       -2
290
     1
 42
2.0
291
     1
 43
8.0
  3
Standard
341
0
 44
4.0
300

342
11
174
     1
178
     6
175
     1
176
     0
 93
-1056964608
 45
4.0
292
     0
297
     0
 46
4.0
343
0
 94
-1056964608
 47
1.0
 49
1.0
140
1.0
293
     1
141
0.0
294
     1
177
     0
142
1.0
295
     0
296
     0
143
3.75
1001
ACAD_MLEADERVER
1070
     2
  0
MLINESTYLE
  5
1013B
102
{ACAD_REACTORS
330
17
102
}
330
17
100
AcDbMlineStyle
  2
Standard
 70
     0
  3

 62
   256
 51
90.0
 52
90.0
 71
     2
 49
0.5
 62
   256
  6
BYLAYER
 49
-0.5
 62
   256
  6
BYLAYER
  0
ACDBPLACEHOLDER
  5
1004F
102
{ACAD_REACTORS
330
1004E
102
}
330
1004E
  0
SCALE
  5
10003
102
{ACAD_REACTORS
330
10002
102
}
330
10002
100
AcDbScale
 70
     0
300
1:1
140
1.0
141
1.0
290
     1
  0
SCALE
  5
10004
102
{ACAD_REACTORS
330
10002
102
}
330
10002
100
AcDbScale
 70
     0
300
1:2
140
1.0
141
2.0
290
     0
  0
SCALE
  5
10005
102
{ACAD_REACTORS
330
10002
102
}
330
10002
100
AcDbScale
 70
     0
300
1:4
140
1.0
141
4.0
290
     0
  0
SCALE
  5
10006
102
{ACAD_REACTORS
330
10002
102
}
330
10002
100
AcDbScale
 70
     0
300
1:5
140
1.0
141
5.0
290
     0
  0
SCALE
  5
10007
102
{ACAD_REACTORS
330
10002
102
}
330
10002
100
AcDbScale
 70
     0
300
1:8
140
1.0
141
8.0
290
     0
  0
SCALE
  5
10008
102
{ACAD_REACTORS
330
10002
102
}
330
10002
100
AcDbScale
 70
     0
300
1:10
140
1.0
141
10.0
290
     0
  0
SCALE
  5
10009
102
{ACAD_REACTORS
330
10002
102
}
330
10002
100
AcDbScale
 70
     0
300
1:16
140
1.0
141
16.0
290
     0
  0
SCALE
  5
1000A
102
{ACAD_REACTORS
330
10002
102
}
330
10002
100
AcDbScale
 70
     0
300
1:20
140
1.0
141
20.0
290
     0
  0
SCALE
  5
1000B
102
{ACAD_REACTORS
330
10002
102
}
330
10002
100
AcDbScale
 70
     0
300
1:30
140
1.0
141
30.0
290
     0
  0
SCALE
  5
1000C
102
{ACAD_REACTORS
330
10002
102
}
330
10002
100
AcDbScale
 70
     0
300
1:40
140
1.0
141
40.0
290
     0
  0
SCALE
  5
1000D
102
{ACAD_REACTORS
330
10002
102
}
330
10002
100
AcDbScale
 70
     0
300
1:50
140
1.0
141
50.0
290
     0
  0
SCALE
  5
1000E
102
{ACAD_REACTORS
330
10002
102
}
330
10002
100
AcDbScale
 70
     0
300
1:100
140
1.0
141
100.0
290
     0
  0
SCALE
  5
1000F
102
{ACAD_REACTORS
330
10002
102
}
330
10002
100
AcDbScale
 70
     0
300
2:1
140
2.0
141
1.0
290
     0
  0
SCALE
  5
10010
102
{ACAD_REACTORS
330
10002
102
}
330
10002
100
AcDbScale
 70
     0
300
4:1
140
4.0
141
1.0
290
     0
  0
SCALE
  5
10011
102
{ACAD_REACTORS
330
10002
102
}
330
10002
100
AcDbScale
 70
     0
300
8:1
140
8.0
141
1.0
290
     0
  0
SCALE
  5
10012
102
{ACAD_REACTORS
330
10002
102
}
330
10002
100
AcDbScale
 70
     0
300
10:1
140
10.0
141
1.0
290
     0
  0
SCALE
  5
10013
102
{ACAD_REACTORS
330
10002
102
}
330
10002
100
AcDbScale
 70
     0
300
100:1
140
100.0
141
1.0
290
     0
  0
SCALE
  5
10014
102
{ACAD_REACTORS
330
10002
102
}
330
10002
100
AcDbScale
 70
     0
300
1/128" = 1'-0"
140
0.0078125
141
12.0
290
     0
  0
SCALE
  5
10015
102
{ACAD_REACTORS
330
10002
102
}
330
10002
100
AcDbScale
 70
     0
300
1/64" = 1'-0"
140
0.015625
141
12.0
290
     0
  0
SCALE
  5
10016
102
{ACAD_REACTORS
330
10002
102
}
330
10002
100
AcDbScale
 70
     0
300
1/32" = 1'-0"
140
0.03125
141
12.0
290
     0
  0
SCALE
  5
10017
102
{ACAD_REACTORS
330
10002
102
}
330
10002
100
AcDbScale
 70
     0
300
1/16" = 1'-0"
140
0.0625
141
12.0
290
     0
  0
SCALE
  5
10018
102
{ACAD_REACTORS
330
10002
102
}
330
10002
100
AcDbScale
 70
     0
300
3/32" = 1'-0"
140
0.09375
141
12.0
290
     0
  0
SCALE
  5
10019
102
{ACAD_REACTORS
330
10002
102
}
330
10002
100
AcDbScale
 70
     0
300
1/8" = 1'-0"
140
0.125
141
12.0
290
     0
  0
SCALE
  5
1001A
102
{ACAD_REACTORS
330
10002
102
}
330
10002
100
AcDbScale
 70
     0
300
3/16" = 1'-0"
140
0.1875
141
12.0
290
     0
  0
SCALE
  5
1001B
102
{ACAD_REACTORS
330
10002
102
}
330
10002
100
AcDbScale
 70
     0
300
1/4" = 1'-0"
140
0.25
141
12.0
290
     0
  0
SCALE
  5
1001C
102
{ACAD_REACTORS
330
10002
102
}
330
10002
100
AcDbScale
 70
     0
300
3/8" = 1'-0"
140
0.375
141
12.0
290
     0
  0
SCALE
  5
1001D
102
{ACAD_REACTORS
330
10002
102
}
330
10002
100
AcDbScale
 70
     0
300
1/2" = 1'-0"
140
0.5
141
12.0
290
     0
  0
SCALE
  5
1001E
102
{ACAD_REACTORS
330
10002
102
}
330
10002
100
AcDbScale
 70
     0
300
3/4" = 1'-0"
140
0.75
141
12.0
290
     0
  0
SCALE
  5
1001F
102
{ACAD_REACTORS
330
10002
102
}
330
10002
100
AcDbScale
 70
     0
300
1" = 1'-0"
140
1.0
141
12.0
290
     0
  0
SCALE
  5
10020
102
{ACAD_REACTORS
330
10002
102
}
330
10002
100
AcDbScale
 70
     0
300
1-1/2" = 1'-0"
140
1.5
141
12.0
290
     0
  0
SCALE
  5
10021
102
{ACAD_REACTORS
330
10002
102
}
330
10002
100
AcDbScale
 70
     0
300
3" = 1'-0"
140
3.0
141
12.0
290
     0
  0
SCALE
  5
10022
102
{ACAD_REACTORS
330
10002
102
}
330
10002
100
AcDbScale
 70
     0
300
6" = 1'-0"
140
6.0
141
12.0
290
     0
  0
SCALE
  5
10023
102
{ACAD_REACTORS
330
10002
102
}
330
10002
100
AcDbScale
 70
     0
300
1'-0" = 1'-0"
140
12.0
141
12.0
290
     0
  0
TABLESTYLE
  5
1003A
102
{ACAD_REACTORS
330
10039
102
}
102
{ACAD_XDICTIONARY
360
1BB2D
102
}
330
10039
100
AcDbTableStyle
  3
Standard
 70
     0
 71
     0
 40
1.5
 41
1.5
280
     0
281
     0
  7
STANDARD
140
4.5
170
     2
 62
     0
 63
   257
283
     0
 90
        4
 91
        0
  1

274
    -2
284
     1
 64
     0
275
    -2
285
     1
 65
     0
276
    -2
286
     1
 66
     0
277
    -2
287
     1
 67
     0
278
    -2
288
     1
 68
     0
279
    -2
289
     1
 69
     0
  7
STANDARD
140
6.0
170
     5
 62
     0
 63
   257
283
     0
 90
        4
 91
        0
  1

274
    -2
284
     1
 64
     0
275
    -2
285
     1
 65
     0
276
    -2
286
     1
 66
     0
277
    -2
287
     1
 67
     0
278
    -2
288
     1
 68
     0
279
    -2
289
     1
 69
     0
  7
STANDARD
140
4.5
170
     5
 62
     0
 63
   257
283
     0
 90
        4
 91
        0
  1

274
    -2
284
     1
 64
     0
275
    -2
285
     1
 65
     0
276
    -2
286
     1
 66
     0
277
    -2
287
     1
 67
     0
278
    -2
288
     1
 68
     0
279
    -2
289
     1
 69
     0
  0
VISUALSTYLE
  5
1002D
102
{ACAD_REACTORS
330
10028
102
}
330
10028
100
AcDbVisualStyle
  2
2dWireframe
 70
     4
 71
     0
 72
     2
 73
     0
 90
        0
 40
-0.6
 41
-30.0
 62
     5
 63
     7
421
 16777215
 74
     1
 91
        4
 64
     7
 65
   257
 75
     1
175
     1
 42
1.0
 92
        0
 66
   257
 43
1.0
 76
     1
 77
     6
 78
     2
 67
     7
 79
     5
170
     0
171
     0
290
     0
174
     0
 93
        1
 44
0.0
173
     0
291
     0
 45
0.0
  0
VISUALSTYLE
  5
1002F
102
{ACAD_REACTORS
330
10028
102
}
330
10028
100
AcDbVisualStyle
  2
3D Hidden
 70
     6
 71
     1
 72
     2
 73
     2
 90
        0
 40
-0.6
 41
-30.0
 62
     5
 63
     7
421
 16777215
 74
     2
 91
        2
 64
     7
 65
   257
 75
     2
175
     1
 42
40.0
 92
        0
 66
   257
 43
1.0
 76
     1
 77
     6
 78
     2
 67
     7
 79
     3
170
     0
171
     0
290
     0
174
     0
 93
        1
 44
0.0
173
     0
291
     0
 45
0.0
  0
VISUALSTYLE
  5
1002E
102
{ACAD_REACTORS
330
10028
102
}
330
10028
100
AcDbVisualStyle
  2
3dWireframe
 70
     5
 71
     0
 72
     2
 73
     0
 90
        0
 40
-0.6
 41
-30.0
 62
     5
 63
     7
421
 16777215
 74
     1
 91
        4
 64
     7
 65
   257
 75
     1
175
     1
 42
1.0
 92
        0
 66
   257
 43
1.0
 76
     1
 77
     6
 78
     2
 67
     7
 79
     5
170
     0
171
     0
290
     0
174
     0
 93
        1
 44
0.0
173
     0
291
     0
 45
0.0
  0
VISUALSTYLE
  5
10030
102
{ACAD_REACTORS
330
10028
102
}
330
10028
100
AcDbVisualStyle
  2
Basic
 70
     7
 71
     1
 72
     0
 73
     1
 90
        0
 40
-0.6
 41
-30.0
 62
     5
 63
     7
421
 16777215
 74
     0
 91
        4
 64
     7
 65
   257
 75
     1
175
     1
 42
1.0
 92
        8
 66
     7
 43
1.0
 76
     1
 77
     6
 78
     2
 67
     7
 79
     5
170
     0
171
     0
290
     0
174
     0
 93
        1
 44
0.0
173
     0
291
     1
 45
0.0
  0
VISUALSTYLE
  5
10034
102
{ACAD_REACTORS
330
10028
102
}
330
10028
100
AcDbVisualStyle
  2
Brighten
 70
    12
 71
     2
 72
     2
 73
     0
 90
        0
 40
-0.6
 41
-30.0
 62
     5
 63
     7
421
 16777215
 74
     1
 91
        4
 64
     7
 65
   257
 75
     1
175
     1
 42
1.0
 92
        8
 66
     7
 43
1.0
 76
     1
 77
     6
 78
     2
 67
     7
 79
     5
170
     0
171
     0
290
     0
174
     0
 93
        1
 44
50.0
173
     0
291
     1
 45
0.0
  0
VISUALSTYLE
  5
10038
102
{ACAD_REACTORS
330
10028
102
}
330
10028
100
AcDbVisualStyle
  2
ColorChange
 70
    16
 71
     2
 72
     2
 73
     3
 90
        0
 40
-0.6
 41
-30.0
 62
     5
 63
     8
421
  8421504
 74
     1
 91
        4
 64
     7
 65
   257
 75
     1
175
     1
 42
1.0
 92
        8
 66
     8
424
  8421504
 43
1.0
 76
     1
 77
     6
 78
     2
 67
     7
 79
     5
170
     0
171
     0
290
     0
174
     0
 93
        1
 44
0.0
173
     0
291
     1
 45
0.0
  0
VISUALSTYLE
  5
10032
102
{ACAD_REACTORS
330
10028
102
}
330
10028
100
AcDbVisualStyle
  2
Conceptual
 70
     9
 71
     3
 72
     2
 73
     0
 90
        0
 40
-0.6
 41
-30.0
 62
     5
 63
     7
421
 16777215
 74
     2
 91
        2
 64
     7
 65
   257
 75
     1
175
     1
 42
40.0
 92
        8
 66
     7
 43
1.0
 76
     1
 77
     6
 78
     2
 67
     7
 79
     3
170
     0
171
     0
290
     0
174
     0
 93
        1
 44
0.0
173
     0
291
     0
 45
0.0
  0
VISUALSTYLE
  5
10033
102
{ACAD_REACTORS
330
10028
102
}
330
10028
100
AcDbVisualStyle
  2
Dim
 70
    11
 71
     2
 72
     2
 73
     0
 90
        0
 40
-0.6
 41
-30.0
 62
     5
 63
     7
421
 16777215
 74
     1
 91
        4
 64
     7
 65
   257
 75
     1
175
     1
 42
1.0
 92
        8
 66
     7
 43
1.0
 76
     1
 77
     6
 78
     2
 67
     7
 79
     5
170
     0
171
     0
290
     0
174
     0
 93
        1
 44
-50.0
173
     0
291
     1
 45
0.0
  0
VISUALSTYLE
  5
107A7
102
{ACAD_REACTORS
330
10028
102
}
330
10028
100
AcDbVisualStyle
  2
EdgeColorOff
 70
    22
 71
     2
 72
     2
 73
     0
 90
        0
 40
0.6
 41
30.0
 62
     5
 63
     7
421
 16777215
 74
     1
 91
        4
 64
     7
 65
   257
 75
     1
175
     1
 42
1.0
 92
        8
 66
     7
 43
1.0
 76
     1
 77
     6
 78
     2
 67
     7
 79
     5
170
     0
171
     0
290
     0
174
     0
 93
        1
 44
0.0
173
     0
291
     1
 45
0.0
  0
VISUALSTYLE
  5
10037
102
{ACAD_REACTORS
330
10028
102
}
330
10028
100
AcDbVisualStyle
  2
Facepattern
 70
    15
 71
     2
 72
     2
 73
     0
 90
        0
 40
-0.6
 41
-30.0
 62
     5
 63
     7
421
 16777215
 74
     1
 91
        4
 64
     7
 65
   257
 75
     1
175
     1
 42
1.0
 92
        8
 66
     7
 43
1.0
 76
     1
 77
     6
 78
     2
 67
     7
 79
     5
170
     0
171
     0
290
     0
174
     0
 93
        1
 44
0.0
173
     0
291
     1
 45
0.0
  0
VISUALSTYLE
  5
10029
102
{ACAD_REACTORS
330
10028
102
}
330
10028
100
AcDbVisualStyle
  2
Flat
 70
     0
 71
     2
 72
     1
 73
     1
 90
        2
 40
-0.6
 41
30.0
 62
     5
 63
     7
421
 16777215
 74
     0
 91
        4
 64
     7
 65
   257
 75
     1
175
     1
 42
1.0
 92
        8
 66
     7
 43
1.0
 76
     1
 77
     6
 78
     2
 67
     7
 79
     5
170
     0
171
     0
290
     0
174
     0
 93
       13
 44
0.0
173
     0
291
     1
 45
0.0
  0
VISUALSTYLE
  5
1002A
102
{ACAD_REACTORS
330
10028
102
}
330
10028
100
AcDbVisualStyle
  2
FlatWithEdges
 70
     1
 71
     2
 72
     1
 73
     1
 90
        2
 40
-0.6
 41
30.0
 62
     5
 63
     7
421
 16777215
 74
     1
 91
        4
 64
     7
 65
   257
 75
     1
175
     1
 42
1.0
 92
        0
 66
   257
 43
1.0
 76
     1
 77
     6
 78
     2
 67
     7
 79
     5
170
     0
171
     0
290
     0
174
     0
 93
       13
 44
0.0
173
     0
291
     1
 45
0.0
  0
VISUALSTYLE
  5
1002B
102
{ACAD_REACTORS
330
10028
102
}
330
10028
100
AcDbVisualStyle
  2
Gouraud
 70
     2
 71
     2
 72
     2
 73
     1
 90
        2
 40
-0.6
 41
30.0
 62
     5
 63
     7
421
 16777215
 74
     0
 91
        4
 64
     7
 65
   257
 75
     1
175
     1
 42
1.0
 92
        0
 66
     7
 43
1.0
 76
     1
 77
     6
 78
     2
 67
     7
 79
     5
170
     0
171
     0
290
     0
174
     0
 93
       13
 44
0.0
173
     0
291
     1
 45
0.0
  0
VISUALSTYLE
  5
1002C
102
{ACAD_REACTORS
330
10028
102
}
330
10028
100
AcDbVisualStyle
  2
GouraudWithEdges
 70
     3
 71
     2
 72
     2
 73
     1
 90
        2
 40
-0.6
 41
30.0
 62
     5
 63
     7
421
 16777215
 74
     1
 91
        4
 64
     7
 65
   257
 75
     1
175
     1
 42
1.0
 92
        0
 66
   257
 43
1.0
 76
     1
 77
     6
 78
     2
 67
     7
 79
     5
170
     0
171
     0
290
     0
174
     0
 93
       13
 44
0.0
173
     0
291
     1
 45
0.0
  0
VISUALSTYLE
  5
107A4
102
{ACAD_REACTORS
330
10028
102
}
330
10028
100
AcDbVisualStyle
  2
Hidden
 70
     6
 71
     1
 72
     2
 73
     2
 90
        0
 40
0.6
 41
30.0
 62
     5
 63
     7
421
 16777215
 74
     2
 91
        2
 64
     7
 65
   257
 75
     2
175
     1
 42
40.0
 92
        0
 66
   257
 43
1.0
 76
     1
 77
     6
 78
     2
 67
     7
 79
     3
170
     0
171
     0
290
     0
174
     0
 93
        1
 44
0.0
173
     0
291
     0
 45
0.0
  0
VISUALSTYLE
  5
107A5
102
{ACAD_REACTORS
330
10028
102
}
330
10028
100
AcDbVisualStyle
  2
JitterOff
 70
    20
 71
     2
 72
     2
 73
     0
 90
        0
 40
0.6
 41
30.0
 62
     5
 63
     7
421
 16777215
 74
     1
 91
        4
 64
     7
 65
   257
 75
     1
175
     1
 42
1.0
 92
       10
 66
     7
 43
1.0
 76
     1
 77
     6
 78
     2
 67
     7
 79
     5
170
     0
171
     0
290
     0
174
     0
 93
        1
 44
0.0
173
     0
291
     1
 45
0.0
  0
VISUALSTYLE
  5
10036
102
{ACAD_REACTORS
330
10028
102
}
330
10028
100
AcDbVisualStyle
  2
Linepattern
 70
    14
 71
     2
 72
     2
 73
     0
 90
        0
 40
-0.6
 41
-30.0
 62
     5
 63
     7
421
 16777215
 74
     1
 91
        4
 64
     7
 65
   257
 75
     7
175
     7
 42
1.0
 92
        8
 66
     7
 43
1.0
 76
     1
 77
     6
 78
     2
 67
     7
 79
     5
170
     0
171
     0
290
     0
174
     0
 93
        1
 44
0.0
173
     0
291
     1
 45
0.0
  0
VISUALSTYLE
  5
107A6
102
{ACAD_REACTORS
330
10028
102
}
330
10028
100
AcDbVisualStyle
  2
OverhangOff
 70
    21
 71
     2
 72
     2
 73
     0
 90
        0
 40
0.6
 41
30.0
 62
     5
 63
     7
421
 16777215
 74
     1
 91
        4
 64
     7
 65
   257
 75
     1
175
     1
 42
1.0
 92
        9
 66
     7
 43
1.0
 76
     1
 77
     6
 78
     2
 67
     7
 79
     5
170
     0
171
     0
290
     0
174
     0
 93
        1
 44
0.0
173
     0
291
     1
 45
0.0
  0
VISUALSTYLE
  5
10031
102
{ACAD_REACTORS
330
10028
102
}
330
10028
100
AcDbVisualStyle
  2
Realistic
 70
     8
 71
     2
 72
     2
 73
     0
 90
        0
 40
-0.6
 41
-30.0
 62
     5
 63
     7
421
 16777215
 74
     1
 91
        0
 64
     7
 65
   257
 75
     1
175
     1
 42
1.0
 92
        8
 66
     8
424
  7895160
 43
1.0
 76
     1
 77
     6
 78
     2
 67
     7
 79
     5
170
     0
171
     0
290
     0
174
     0
 93
       13
 44
0.0
173
     0
291
     0
 45
0.0
  0
VISUALSTYLE
  5
107AC
102
{ACAD_REACTORS
330
10028
102
}
330
10028
100
AcDbVisualStyle
  2
Shaded
 70
    27
 71
     2
 72
     2
 73
     1
 90
        2
 40
0.6
 41
30.0
 62
     5
 63
     7
421
 16777215
 74
     0
 91
        4
 64
     7
 65
   257
 75
     1
175
     1
 42
1.0
 92
        8
 66
   257
 43
1.0
 76
     1
 77
     6
 78
     2
 67
     8
425
  7895160
 79
     3
170
     0
171
     0
290
     0
174
     0
 93
        5
 44
0.0
173
     0
291
     0
 45
0.0
  0
VISUALSTYLE
  5
107AB
102
{ACAD_REACTORS
330
10028
102
}
330
10028
100
AcDbVisualStyle
  2
Shaded with edges
 70
    26
 71
     2
 72
     2
 73
     1
 90
        2
 40
0.6
 41
30.0
 62
     5
 63
     7
421
 16777215
 74
     1
 91
       10
 64
     7
 65
   257
 75
     2
175
     1
 42
1.0
 92
        8
 66
   257
 43
1.0
 76
     1
 77
     6
 78
     2
 67
     7
 79
     3
170
     0
171
     0
290
     0
174
     0
 93
        5
 44
0.0
173
     0
291
     0
 45
0.0
  0
VISUALSTYLE
  5
107A8
102
{ACAD_REACTORS
330
10028
102
}
330
10028
100
AcDbVisualStyle
  2
Shades of Gray
 70
    23
 71
     2
 72
     2
 73
     3
 90
        0
 40
0.6
 41
30.0
 62
     5
 63
     7
421
 16777215
 74
     2
 91
        2
 64
     7
 65
     7
 75
     1
175
     1
 42
40.0
 92
        8
 66
     7
 43
1.0
 76
     1
 77
     6
 78
     2
 67
     7
 79
     3
170
     0
171
     0
290
     0
174
     0
 93
        1
 44
0.0
173
     0
291
     0
 45
0.0
  0
VISUALSTYLE
  5
107A9
102
{ACAD_REACTORS
330
10028
102
}
330
10028
100
AcDbVisualStyle
  2
Sketchy
 70
    24
 71
     1
 72
     2
 73
     2
 90
        0
 40
0.6
 41
30.0
 62
     5
 63
     7
421
 16777215
 74
     2
 91
        2
 64
     7
 65
     7
 75
     1
175
     1
 42
40.0
 92
       11
 66
     7
 43
1.0
 76
     1
 77
     6
 78
     2
 67
     7
 79
     6
170
     0
171
     0
290
     0
174
     0
 93
        1
 44
0.0
173
     0
291
     0
 45
0.0
  0
VISUALSTYLE
  5
10035
102
{ACAD_REACTORS
330
10028
102
}
330
10028
100
AcDbVisualStyle
  2
Thicken
 70
    13
 71
     2
 72
     2
 73
     0
 90
        0
 40
-0.6
 41
-30.0
 62
     5
 63
     7
421
 16777215
 74
     1
 91
        4
 64
     7
 65
   257
 75
     1
175
     1
 42
1.0
 92
       12
 66
     7
 43
1.0
 76
     1
 77
     6
 78
     2
 67
     7
 79
     5
170
     0
171
     0
290
     0
174
     0
 93
        1
 44
0.0
173
     0
291
     1
 45
0.0
  0
VISUALSTYLE
  5
107A3
102
{ACAD_REACTORS
330
10028
102
}
330
10028
100
AcDbVisualStyle
  2
Wireframe
 70
     5
 71
     0
 72
     2
 73
     0
 90
        0
 40
0.6
 41
30.0
 62
     5
 63
     7
421
 16777215
 74
     1
 91
        4
 64
     7
 65
   257
 75
     1
175
     1
 42
1.0
 92
        0
 66
   257
 43
1.0
 76
     1
 77
     6
 78
     2
 67
     7
 79
     3
170
     0
171
     0
290
     0
174
     0
 93
        1
 44
0.0
173
     0
291
     0
 45
0.0
  0
VISUALSTYLE
  5
107AA
102
{ACAD_REACTORS
330
10028
102
}
330
10028
100
AcDbVisualStyle
  2
X-Ray
 70
    25
 71
     2
 72
     2
 73
     1
 90
        1
 40
0.5
 41
30.0
 62
     5
 63
     7
421
 16777215
 74
     1
 91
        0
 64
     7
 65
   257
 75
     1
175
     1
 42
1.0
 92
        8
 66
     7
 43
1.0
 76
     1
 77
     6
 78
     2
 67
     7
 79
     3
170
     0
171
     0
290
     0
174
     0
 93
       13
 44
0.0
173
     0
291
     0
 45
0.0
  0
DICTIONARYVAR
  5
10139
102
{ACAD_REACTORS
330
10138
102
}
330
10138
100
DictionaryVariables
280
     0
  1
1:1
  0
DICTIONARYVAR
  5
195FF
102
{ACAD_REACTORS
330
10138
102
}
330
10138
100
DictionaryVariables
280
     0
  1
Standard
  0
DICTIONARYVAR
  5
1013A
102
{ACAD_REACTORS
330
10138
102
}
330
10138
100
DictionaryVariables
280
     0
  1
Standard
  0
DICTIONARYVAR
  5
10B8E
102
{ACAD_REACTORS
330
10138
102
}
330
10138
100
DictionaryVariables
280
     0
  1
ByLayer
  0
XRECORD
  5
19991
102
{ACAD_REACTORS
330
1013D
102
}
330
1013D
100
AcDbXrecord
280
     1
 91
     1023
301

290
     0
302
Layer 1
330
50
 90
        9
 62
     7
370
    -3
331
16
  1
Color_7
330
51
 90
        8
 62
     7
370
    -3
331
16
  1
Color_7
330
104BE
 90
        0
 62
     4
370
    -3
331
16
  1
Color_4
330
107B3
 90
        4
 62
     7
370
    -3
331
16
  1
Color_7
330
16850
 90
        8
 62
     7
370
    -3
331
16
  1
Color_7
  0
XRECORD
  5
19992
102
{ACAD_REACTORS
330
1013D
102
}
330
1013D
100
AcDbXrecord
280
     1
 91
     1023
301

290
     0
302
Layer 1
330
50
 90
        9
 62
     7
370
    -3
331
16
  1
Color_7
330
51
 90
        8
 62
     7
370
    -3
331
16
  1
Color_7
330
104BE
 90
        0
 62
     4
370
    -3
331
16
  1
Color_4
330
107B3
 90
        4
 62
     7
370
    -3
331
16
  1
Color_7
330
16850
 90
        8
 62
     7
370
    -3
331
16
  1
Color_7
  0
XRECORD
  5
19993
102
{ACAD_REACTORS
330
1013D
102
}
330
1013D
100
AcDbXrecord
280
     1
 91
     1023
301

290
     0
302
Layer 1
330
50
 90
        9
 62
     7
370
    -3
331
16
  1
Color_7
330
51
 90
        8
 62
     7
370
    -3
331
16
  1
Color_7
330
104BE
 90
        0
 62
     4
370
    -3
331
16
  1
Color_4
330
107B3
 90
        6
 62
     7
370
    -3
331
16
  1
Color_7
330
16850
 90
        8
 62
     7
370
    -3
331
16
  1
Color_7
  0
XRECORD
  5
19994
102
{ACAD_REACTORS
330
1013D
102
}
330
1013D
100
AcDbXrecord
280
     1
 91
     1023
301

290
     0
302
Layer 1
330
50
 90
        8
 62
     7
370
    -3
331
16
  1
Color_7
330
51
 90
        8
 62
     7
370
    -3
331
16
  1
Color_7
330
104BE
 90
        0
 62
     4
370
    -3
331
16
  1
Color_4
330
107B3
 90
        6
 62
     7
370
    -3
331
16
  1
Color_7
330
16850
 90
        8
 62
     7
370
    -3
331
16
  1
Color_7
  0
XRECORD
  5
19995
102
{ACAD_REACTORS
330
1013D
102
}
330
1013D
100
AcDbXrecord
280
     1
 91
     1023
301

290
     0
302
Layer 1
330
50
 90
        9
 62
     7
370
    -3
331
16
  1
Color_7
330
51
 90
        8
 62
     7
370
    -3
331
16
  1
Color_7
330
104BE
 90
        0
 62
     4
370
    -3
331
16
  1
Color_4
330
107B3
 90
        6
 62
     7
370
    -3
331
16
  1
Color_7
330
16850
 90
        8
 62
     7
370
    -3
331
16
  1
Color_7
  0
XRECORD
  5
19996
102
{ACAD_REACTORS
330
1013D
102
}
330
1013D
100
AcDbXrecord
280
     1
 91
     1023
301

290
     0
302
Layer 1
330
50
 90
        8
 62
     7
370
    -3
331
16
  1
Color_7
330
51
 90
        8
 62
     7
370
    -3
331
16
  1
Color_7
330
104BE
 90
        0
 62
     4
370
    -3
331
16
  1
Color_4
330
107B3
 90
        6
 62
     7
370
    -3
331
16
  1
Color_7
330
16850
 90
        8
 62
     7
370
    -3
331
16
  1
Color_7
  0
XRECORD
  5
19997
102
{ACAD_REACTORS
330
1013D
102
}
330
1013D
100
AcDbXrecord
280
     1
 91
     1023
301

290
     0
302
Layer 1
330
50
 90
        9
 62
     7
370
    -3
331
16
  1
Color_7
330
51
 90
        8
 62
     7
370
    -3
331
16
  1
Color_7
330
104BE
 90
        0
 62
     4
370
    -3
331
16
  1
Color_4
330
107B3
 90
        6
 62
     7
370
    -3
331
16
  1
Color_7
330
16850
 90
        8
 62
     7
370
    -3
331
16
  1
Color_7
  0
XRECORD
  5
19998
102
{ACAD_REACTORS
330
1013D
102
}
330
1013D
100
AcDbXrecord
280
     1
 91
     1023
301

290
     0
302
Layer 1
330
50
 90
        9
 62
     7
370
    -3
331
16
  1
Color_7
330
51
 90
        8
 62
     7
370
    -3
331
16
  1
Color_7
330
104BE
 90
        1
 62
     4
370
    -3
331
16
  1
Color_4
330
107B3
 90
        6
 62
     7
370
    -3
331
16
  1
Color_7
330
16850
 90
        8
 62
     7
370
    -3
331
16
  1
Color_7
  0
XRECORD
  5
19999
102
{ACAD_REACTORS
330
1013D
102
}
330
1013D
100
AcDbXrecord
280
     1
 91
     1023
301

290
     0
302
Layer 1
330
50
 90
        9
 62
     7
370
    -3
331
16
  1
Color_7
330
51
 90
        8
 62
     7
370
    -3
331
16
  1
Color_7
330
104BE
 90
        0
 62
     4
370
    -3
331
16
  1
Color_4
330
107B3
 90
        6
 62
     7
370
    -3
331
16
  1
Color_7
330
16850
 90
        8
 62
     7
370
    -3
331
16
  1
Color_7
  0
XRECORD
  5
1999A
102
{ACAD_REACTORS
330
1013D
102
}
330
1013D
100
AcDbXrecord
280
     1
 91
     1023
301

290
     0
302
Layer 1
330
50
 90
        9
 62
     7
370
    -3
331
16
  1
Color_7
330
51
 90
        9
 62
     7
370
    -3
331
16
  1
Color_7
330
104BE
 90
        0
 62
     4
370
    -3
331
16
  1
Color_4
330
107B3
 90
        6
 62
     7
370
    -3
331
16
  1
Color_7
330
16850
 90
        8
 62
     7
370
    -3
331
16
  1
Color_7
  0
XRECORD
  5
19989
102
{ACAD_REACTORS
330
1013D
102
}
330
1013D
100
AcDbXrecord
280
     1
 91
     1023
301

290
     0
302
Layer_1
330
50
 90
        9
 62
     7
370
    -3
331
16
  1
Color_7
330
51
 90
        8
 62
     7
370
    -3
331
16
  1
Color_7
330
104BE
 90
        0
 62
     4
370
    -3
331
16
  1
Color_4
330
107B3
 90
        4
 62
     7
370
    -3
331
16
  1
Color_7
330
16850
 90
        8
 62
     7
370
    -3
331
16
  1
Color_7
  0
XRECORD
  5
1999B
102
{ACAD_REACTORS
330
1013D
102
}
330
1013D
100
AcDbXrecord
280
     1
 91
     1023
301

290
     0
302
Layer 1
330
50
 90
        9
 62
     7
370
    -3
331
16
  1
Color_7
330
51
 90
        8
 62
     7
370
    -3
331
16
  1
Color_7
330
104BE
 90
        0
 62
     4
370
    -3
331
16
  1
Color_4
330
107B3
 90
        6
 62
     7
370
    -3
331
16
  1
Color_7
330
16850
 90
        8
 62
     7
370
    -3
331
16
  1
Color_7
  0
XRECORD
  5
1999C
102
{ACAD_REACTORS
330
1013D
102
}
330
1013D
100
AcDbXrecord
280
     1
 91
     1023
301

290
     0
302
Layer 1
330
50
 90
        9
 62
     7
370
    -3
331
16
  1
Color_7
330
51
 90
        8
 62
     7
370
    -3
331
16
  1
Color_7
330
104BE
 90
        0
 62
     4
370
    -3
331
16
  1
Color_4
330
107B3
 90
        6
 62
     7
370
    -3
331
16
  1
Color_7
330
16850
 90
        9
 62
     7
370
    -3
331
16
  1
Color_7
  0
XRECORD
  5
19ACB
102
{ACAD_REACTORS
330
1013D
102
}
330
1013D
100
AcDbXrecord
280
     1
 91
     1023
301

290
     0
302
Layer 1
330
50
 90
        9
 62
     7
370
    -3
331
16
  1
Color_7
330
51
 90
        8
 62
     7
370
    -3
331
16
  1
Color_7
330
104BE
 90
        0
 62
     4
370
    -3
331
16
  1
Color_4
330
107B3
 90
        6
 62
     7
370
    -3
331
16
  1
Color_7
330
16850
 90
        8
 62
     7
370
    -3
331
16
  1
Color_7
  0
XRECORD
  5
19C48
102
{ACAD_REACTORS
330
1013D
102
}
330
1013D
100
AcDbXrecord
280
     1
 91
     1023
301

290
     0
302
text
330
50
 90
        9
 62
     7
370
    -3
331
16
  1
Color_7
330
51
 90
        8
 62
     7
370
    -3
331
16
  1
Color_7
330
104BE
 90
        0
 62
     4
370
    -3
331
16
  1
Color_4
330
107B3
 90
        6
 62
     7
370
    -3
331
16
  1
Color_7
330
16850
 90
        8
 62
     7
370
    -3
331
16
  1
Color_7
  0
XRECORD
  5
19C49
102
{ACAD_REACTORS
330
1013D
102
}
330
1013D
100
AcDbXrecord
280
     1
 91
     1023
301

290
     0
302
Layer_1
330
50
 90
        9
 62
     7
370
    -3
331
16
  1
Color_7
330
51
 90
        8
 62
     7
370
    -3
331
16
  1
Color_7
330
104BE
 90
        0
 62
     4
370
    -3
331
16
  1
Color_4
330
107B3
 90
        6
 62
     7
370
    -3
331
16
  1
Color_7
330
16850
 90
        8
 62
     7
370
    -3
331
16
  1
Color_7
  0
XRECORD
  5
19C4A
102
{ACAD_REACTORS
330
1013D
102
}
330
1013D
100
AcDbXrecord
280
     1
 91
     1023
301

290
     0
302
Layer_1
330
50
 90
        9
 62
     7
370
    -3
331
16
  1
Color_7
330
51
 90
        8
 62
     7
370
    -3
331
16
  1
Color_7
330
104BE
 90
        0
 62
     4
370
    -3
331
16
  1
Color_4
330
107B3
 90
        6
 62
     7
370
    -3
331
16
  1
Color_7
330
16850
 90
        9
 62
     7
370
    -3
331
16
  1
Color_7
  0
XRECORD
  5
19C4B
102
{ACAD_REACTORS
330
1013D
102
}
330
1013D
100
AcDbXrecord
280
     1
 91
     1023
301

290
     0
302
Layer_1
330
50
 90
        9
 62
     7
370
    -3
331
16
  1
Color_7
330
51
 90
        8
 62
     7
370
    -3
331
16
  1
Color_7
330
104BE
 90
        0
 62
     4
370
    -3
331
16
  1
Color_4
330
107B3
 90
        6
 62
     7
370
    -3
331
16
  1
Color_7
330
16850
 90
        8
 62
     7
370
    -3
331
16
  1
Color_7
  0
XRECORD
  5
19C4C
102
{ACAD_REACTORS
330
1013D
102
}
330
1013D
100
AcDbXrecord
280
     1
 91
     1023
301

290
     0
302
Layer_1
330
50
 90
        9
 62
     7
370
    -3
331
16
  1
Color_7
330
51
 90
        9
 62
     7
370
    -3
331
16
  1
Color_7
330
104BE
 90
        0
 62
     4
370
    -3
331
16
  1
Color_4
330
107B3
 90
        6
 62
     7
370
    -3
331
16
  1
Color_7
330
16850
 90
        8
 62
     7
370
    -3
331
16
  1
Color_7
  0
XRECORD
  5
1998A
102
{ACAD_REACTORS
330
1013D
102
}
330
1013D
100
AcDbXrecord
280
     1
 91
     1023
301

290
     0
302
0
330
50
 90
        9
 62
     7
370
    -3
331
16
  1
Color_7
330
51
 90
        8
 62
     7
370
    -3
331
16
  1
Color_7
330
104BE
 90
        0
 62
     4
370
    -3
331
16
  1
Color_4
330
107B3
 90
        4
 62
     7
370
    -3
331
16
  1
Color_7
330
16850
 90
        8
 62
     7
370
    -3
331
16
  1
Color_7
  0
XRECORD
  5
10779
102
{ACAD_REACTORS
330
1013D
102
}
330
1013D
100
AcDbXrecord
280
     1
 91
     1023
301

290
     0
302
Layer_1
330
50
 90
        9
 62
     7
370
    -3
331
16
  1
Color_7
330
51
 90
        8
 62
     7
370
    -3
331
16
  1
Color_7
330
104BE
 90
        8
 62
     4
370
    -3
331
16
  1
Color_4
  0
XRECORD
  5
1998B
102
{ACAD_REACTORS
330
1013D
102
}
330
1013D
100
AcDbXrecord
280
     1
 91
     1023
301

290
     0
302
Defpoints
330
50
 90
        9
 62
     7
370
    -3
331
16
  1
Color_7
330
51
 90
        8
 62
     7
370
    -3
331
16
  1
Color_7
330
104BE
 90
        0
 62
     4
370
    -3
331
16
  1
Color_4
330
107B3
 90
        4
 62
     7
370
    -3
331
16
  1
Color_7
330
16850
 90
        8
 62
     7
370
    -3
331
16
  1
Color_7
  0
XRECORD
  5
1998C
102
{ACAD_REACTORS
330
1013D
102
}
330
1013D
100
AcDbXrecord
280
     1
 91
     1023
301

290
     0
302
Layer 1
330
50
 90
        9
 62
     7
370
    -3
331
16
  1
Color_7
330
51
 90
        8
 62
     7
370
    -3
331
16
  1
Color_7
330
104BE
 90
        0
 62
     4
370
    -3
331
16
  1
Color_4
330
107B3
 90
        4
 62
     7
370
    -3
331
16
  1
Color_7
330
16850
 90
        8
 62
     7
370
    -3
331
16
  1
Color_7
  0
XRECORD
  5
1998D
102
{ACAD_REACTORS
330
1013D
102
}
330
1013D
100
AcDbXrecord
280
     1
 91
     1023
301

290
     0
302
Layer 1
330
50
 90
        9
 62
     7
370
    -3
331
16
  1
Color_7
330
51
 90
        8
 62
     7
370
    -3
331
16
  1
Color_7
330
104BE
 90
        0
 62
     4
370
    -3
331
16
  1
Color_4
330
107B3
 90
        0
 62
     7
370
    -3
331
16
  1
Color_7
330
16850
 90
        8
 62
     7
370
    -3
331
16
  1
Color_7
  0
XRECORD
  5
1998E
102
{ACAD_REACTORS
330
1013D
102
}
330
1013D
100
AcDbXrecord
280
     1
 91
     1023
301

290
     0
302
Layer 1
330
50
 90
        9
 62
     7
370
    -3
331
16
  1
Color_7
330
51
 90
        8
 62
     7
370
    -3
331
16
  1
Color_7
330
104BE
 90
        0
 62
     4
370
    -3
331
16
  1
Color_4
330
107B3
 90
        4
 62
     7
370
    -3
331
16
  1
Color_7
330
16850
 90
        8
 62
     7
370
    -3
331
16
  1
Color_7
  0
XRECORD
  5
1998F
102
{ACAD_REACTORS
330
1013D
102
}
330
1013D
100
AcDbXrecord
280
     1
 91
     1023
301

290
     0
302
Layer 1
330
50
 90
        9
 62
     7
370
    -3
331
16
  1
Color_7
330
51
 90
        8
 62
     7
370
    -3
331
16
  1
Color_7
330
104BE
 90
        0
 62
     4
370
    -3
331
16
  1
Color_4
330
107B3
 90
        4
 62
     7
370
    -3
331
16
  1
Color_7
330
16850
 90
        8
 62
     7
370
    -3
331
16
  1
Color_7
  0
XRECORD
  5
19990
102
{ACAD_REACTORS
330
1013D
102
}
330
1013D
100
AcDbXrecord
280
     1
 91
     1023
301

290
     0
302
Layer 1
330
50
 90
        9
 62
     7
370
    -3
331
16
  1
Color_7
330
51
 90
       10
 62
     7
370
    -3
331
16
  1
Color_7
330
104BE
 90
        0
 62
     4
370
    -3
331
16
  1
Color_4
330
107B3
 90
        4
 62
     7
370
    -3
331
16
  1
Color_7
330
16850
 90
        8
 62
     7
370
    -3
331
16
  1
Color_7
  0
DICTIONARY
  5
1BB2D
330
1003A
100
AcDbDictionary
280
     1
281
     1
  3
ACAD_ROUNDTRIP_2008_TABLESTYLE_CELLSTYLEMAP
360
1BB2E
  0
CELLSTYLEMAP
  5
1BB2E
102
{ACAD_REACTORS
330
1BB2D
102
}
330
1BB2D
100
AcDbCellStyleMap
 90
        3
300
CELLSTYLE
  1
TABLEFORMAT_BEGIN
 90
        5
170
     1
 91
        0
 92
        0
 62
   257
 93
        1
300
CONTENTFORMAT
  1
CONTENTFORMAT_BEGIN
 90
        0
 91
        0
 92
        4
 93
        0
300

 40
0.0
140
1.0
 94
        5
 62
     0
340
11
144
6.0
309
CONTENTFORMAT_END
171
     1
301
MARGIN
  1
CELLMARGIN_BEGIN
 40
1.5
 40
1.5
 40
1.5
 40
1.5
 40
1.5
 40
1.5
309
CELLMARGIN_END
 94
        6
 95
        1
302
GRIDFORMAT
  1
GRIDFORMAT_BEGIN
 90
        0
 91
        1
 62
     0
 92
       -2
340
14
 93
        0
 40
0.045
309
GRIDFORMAT_END
 95
        2
302
GRIDFORMAT
  1
GRIDFORMAT_BEGIN
 90
        0
 91
        1
 62
     0
 92
       -2
340
14
 93
        0
 40
0.045
309
GRIDFORMAT_END
 95
        4
302
GRIDFORMAT
  1
GRIDFORMAT_BEGIN
 90
        0
 91
        1
 62
     0
 92
       -2
340
14
 93
        0
 40
0.045
309
GRIDFORMAT_END
 95
        8
302
GRIDFORMAT
  1
GRIDFORMAT_BEGIN
 90
        0
 91
        1
 62
     0
 92
       -2
340
14
 93
        0
 40
0.045
309
GRIDFORMAT_END
 95
       16
302
GRIDFORMAT
  1
GRIDFORMAT_BEGIN
 90
        0
 91
        1
 62
     0
 92
       -2
340
14
 93
        0
 40
0.045
309
GRIDFORMAT_END
 95
       32
302
GRIDFORMAT
  1
GRIDFORMAT_BEGIN
 90
        0
 91
        1
 62
     0
 92
       -2
340
14
 93
        0
 40
0.045
309
GRIDFORMAT_END
309
TABLEFORMAT_END
  1
CELLSTYLE_BEGIN
 90
        1
 91
        1
300
_TITLE
309
CELLSTYLE_END
300
CELLSTYLE
  1
TABLEFORMAT_BEGIN
 90
        5
170
     1
 91
        0
 92
        0
 62
   257
 93
        1
300
CONTENTFORMAT
  1
CONTENTFORMAT_BEGIN
 90
        0
 91
        0
 92
        4
 93
        0
300

 40
0.0
140
1.0
 94
        5
 62
     0
340
11
144
4.5
309
CONTENTFORMAT_END
171
     1
301
MARGIN
  1
CELLMARGIN_BEGIN
 40
1.5
 40
1.5
 40
1.5
 40
1.5
 40
1.5
 40
1.5
309
CELLMARGIN_END
 94
        6
 95
        1
302
GRIDFORMAT
  1
GRIDFORMAT_BEGIN
 90
        0
 91
        1
 62
     0
 92
       -2
340
14
 93
        0
 40
0.045
309
GRIDFORMAT_END
 95
        2
302
GRIDFORMAT
  1
GRIDFORMAT_BEGIN
 90
        0
 91
        1
 62
     0
 92
       -2
340
14
 93
        0
 40
0.045
309
GRIDFORMAT_END
 95
        4
302
GRIDFORMAT
  1
GRIDFORMAT_BEGIN
 90
        0
 91
        1
 62
     0
 92
       -2
340
14
 93
        0
 40
0.045
309
GRIDFORMAT_END
 95
        8
302
GRIDFORMAT
  1
GRIDFORMAT_BEGIN
 90
        0
 91
        1
 62
     0
 92
       -2
340
14
 93
        0
 40
0.045
309
GRIDFORMAT_END
 95
       16
302
GRIDFORMAT
  1
GRIDFORMAT_BEGIN
 90
        0
 91
        1
 62
     0
 92
       -2
340
14
 93
        0
 40
0.045
309
GRIDFORMAT_END
 95
       32
302
GRIDFORMAT
  1
GRIDFORMAT_BEGIN
 90
        0
 91
        1
 62
     0
 92
       -2
340
14
 93
        0
 40
0.045
309
GRIDFORMAT_END
309
TABLEFORMAT_END
  1
CELLSTYLE_BEGIN
 90
        2
 91
        1
300
_HEADER
309
CELLSTYLE_END
300
CELLSTYLE
  1
TABLEFORMAT_BEGIN
 90
        5
170
     1
 91
        0
 92
        0
 62
   257
 93
        1
300
CONTENTFORMAT
  1
CONTENTFORMAT_BEGIN
 90
        0
 91
        0
 92
        4
 93
        0
300

 40
0.0
140
1.0
 94
        2
 62
     0
340
11
144
4.5
309
CONTENTFORMAT_END
171
     1
301
MARGIN
  1
CELLMARGIN_BEGIN
 40
1.5
 40
1.5
 40
1.5
 40
1.5
 40
1.5
 40
1.5
309
CELLMARGIN_END
 94
        6
 95
        1
302
GRIDFORMAT
  1
GRIDFORMAT_BEGIN
 90
        0
 91
        1
 62
     0
 92
       -2
340
14
 93
        0
 40
0.045
309
GRIDFORMAT_END
 95
        2
302
GRIDFORMAT
  1
GRIDFORMAT_BEGIN
 90
        0
 91
        1
 62
     0
 92
       -2
340
14
 93
        0
 40
0.045
309
GRIDFORMAT_END
 95
        4
302
GRIDFORMAT
  1
GRIDFORMAT_BEGIN
 90
        0
 91
        1
 62
     0
 92
       -2
340
14
 93
        0
 40
0.045
309
GRIDFORMAT_END
 95
        8
302
GRIDFORMAT
  1
GRIDFORMAT_BEGIN
 90
        0
 91
        1
 62
     0
 92
       -2
340
14
 93
        0
 40
0.045
309
GRIDFORMAT_END
 95
       16
302
GRIDFORMAT
  1
GRIDFORMAT_BEGIN
 90
        0
 91
        1
 62
     0
 92
       -2
340
14
 93
        0
 40
0.045
309
GRIDFORMAT_END
 95
       32
302
GRIDFORMAT
  1
GRIDFORMAT_BEGIN
 90
        0
 91
        1
 62
     0
 92
       -2
340
14
 93
        0
 40
0.045
309
GRIDFORMAT_END
309
TABLEFORMAT_END
  1
CELLSTYLE_BEGIN
 90
        3
 91
        2
300
_DATA
309
CELLSTYLE_END
  0
ENDSEC
  0
EOF
