G04 #@! TF.FileFunction,Legend,Top*
%FSLAX46Y46*%
G04 Gerber Fmt 4.6, Leading zero omitted, Abs format (unit mm)*
G04 Created by KiCad (PCBNEW 4.0.0-rc1-stable) date 12/27/2015 3:28:10 PM*
%MOMM*%
G01*
G04 APERTURE LIST*
%ADD10C,0.150000*%
%ADD11C,0.300000*%
%ADD12C,0.304800*%
%ADD13C,0.203200*%
%ADD14C,0.200660*%
%ADD15C,0.381000*%
%ADD16C,0.250000*%
%ADD17C,0.225000*%
G04 APERTURE END LIST*
D10*
D11*
X124335716Y-72088571D02*
X124335716Y-70588571D01*
X124907144Y-70588571D01*
X125050002Y-70660000D01*
X125121430Y-70731429D01*
X125192859Y-70874286D01*
X125192859Y-71088571D01*
X125121430Y-71231429D01*
X125050002Y-71302857D01*
X124907144Y-71374286D01*
X124335716Y-71374286D01*
X126050002Y-72088571D02*
X125907144Y-72017143D01*
X125835716Y-71945714D01*
X125764287Y-71802857D01*
X125764287Y-71374286D01*
X125835716Y-71231429D01*
X125907144Y-71160000D01*
X126050002Y-71088571D01*
X126264287Y-71088571D01*
X126407144Y-71160000D01*
X126478573Y-71231429D01*
X126550002Y-71374286D01*
X126550002Y-71802857D01*
X126478573Y-71945714D01*
X126407144Y-72017143D01*
X126264287Y-72088571D01*
X126050002Y-72088571D01*
X127407145Y-72088571D02*
X127264287Y-72017143D01*
X127192859Y-71874286D01*
X127192859Y-70588571D01*
X128621430Y-72088571D02*
X128621430Y-71302857D01*
X128550001Y-71160000D01*
X128407144Y-71088571D01*
X128121430Y-71088571D01*
X127978573Y-71160000D01*
X128621430Y-72017143D02*
X128478573Y-72088571D01*
X128121430Y-72088571D01*
X127978573Y-72017143D01*
X127907144Y-71874286D01*
X127907144Y-71731429D01*
X127978573Y-71588571D01*
X128121430Y-71517143D01*
X128478573Y-71517143D01*
X128621430Y-71445714D01*
X129335716Y-72088571D02*
X129335716Y-71088571D01*
X129335716Y-71374286D02*
X129407144Y-71231429D01*
X129478573Y-71160000D01*
X129621430Y-71088571D01*
X129764287Y-71088571D01*
X130264287Y-72088571D02*
X130264287Y-70588571D01*
X130264287Y-71160000D02*
X130407144Y-71088571D01*
X130692858Y-71088571D01*
X130835715Y-71160000D01*
X130907144Y-71231429D01*
X130978573Y-71374286D01*
X130978573Y-71802857D01*
X130907144Y-71945714D01*
X130835715Y-72017143D01*
X130692858Y-72088571D01*
X130407144Y-72088571D01*
X130264287Y-72017143D01*
X132192858Y-72017143D02*
X132050001Y-72088571D01*
X131764287Y-72088571D01*
X131621430Y-72017143D01*
X131550001Y-71874286D01*
X131550001Y-71302857D01*
X131621430Y-71160000D01*
X131764287Y-71088571D01*
X132050001Y-71088571D01*
X132192858Y-71160000D01*
X132264287Y-71302857D01*
X132264287Y-71445714D01*
X131550001Y-71588571D01*
X133550001Y-72088571D02*
X133550001Y-71302857D01*
X133478572Y-71160000D01*
X133335715Y-71088571D01*
X133050001Y-71088571D01*
X132907144Y-71160000D01*
X133550001Y-72017143D02*
X133407144Y-72088571D01*
X133050001Y-72088571D01*
X132907144Y-72017143D01*
X132835715Y-71874286D01*
X132835715Y-71731429D01*
X132907144Y-71588571D01*
X133050001Y-71517143D01*
X133407144Y-71517143D01*
X133550001Y-71445714D01*
X134264287Y-72088571D02*
X134264287Y-71088571D01*
X134264287Y-71374286D02*
X134335715Y-71231429D01*
X134407144Y-71160000D01*
X134550001Y-71088571D01*
X134692858Y-71088571D01*
X136192858Y-71088571D02*
X136550001Y-72088571D01*
X136907143Y-71088571D01*
X138264286Y-72088571D02*
X137407143Y-72088571D01*
X137835715Y-72088571D02*
X137835715Y-70588571D01*
X137692858Y-70802857D01*
X137550000Y-70945714D01*
X137407143Y-71017143D01*
X138907143Y-71945714D02*
X138978571Y-72017143D01*
X138907143Y-72088571D01*
X138835714Y-72017143D01*
X138907143Y-71945714D01*
X138907143Y-72088571D01*
X140407143Y-72088571D02*
X139550000Y-72088571D01*
X139978572Y-72088571D02*
X139978572Y-70588571D01*
X139835715Y-70802857D01*
X139692857Y-70945714D01*
X139550000Y-71017143D01*
X143335714Y-72088571D02*
X143335714Y-70588571D01*
X143692857Y-70588571D01*
X143907142Y-70660000D01*
X144050000Y-70802857D01*
X144121428Y-70945714D01*
X144192857Y-71231429D01*
X144192857Y-71445714D01*
X144121428Y-71731429D01*
X144050000Y-71874286D01*
X143907142Y-72017143D01*
X143692857Y-72088571D01*
X143335714Y-72088571D01*
X145407142Y-72017143D02*
X145264285Y-72088571D01*
X144978571Y-72088571D01*
X144835714Y-72017143D01*
X144764285Y-71874286D01*
X144764285Y-71302857D01*
X144835714Y-71160000D01*
X144978571Y-71088571D01*
X145264285Y-71088571D01*
X145407142Y-71160000D01*
X145478571Y-71302857D01*
X145478571Y-71445714D01*
X144764285Y-71588571D01*
X146049999Y-72017143D02*
X146192856Y-72088571D01*
X146478571Y-72088571D01*
X146621428Y-72017143D01*
X146692856Y-71874286D01*
X146692856Y-71802857D01*
X146621428Y-71660000D01*
X146478571Y-71588571D01*
X146264285Y-71588571D01*
X146121428Y-71517143D01*
X146049999Y-71374286D01*
X146049999Y-71302857D01*
X146121428Y-71160000D01*
X146264285Y-71088571D01*
X146478571Y-71088571D01*
X146621428Y-71160000D01*
X147335714Y-72088571D02*
X147335714Y-71088571D01*
X147335714Y-70588571D02*
X147264285Y-70660000D01*
X147335714Y-70731429D01*
X147407142Y-70660000D01*
X147335714Y-70588571D01*
X147335714Y-70731429D01*
X148692857Y-71088571D02*
X148692857Y-72302857D01*
X148621428Y-72445714D01*
X148550000Y-72517143D01*
X148407143Y-72588571D01*
X148192857Y-72588571D01*
X148050000Y-72517143D01*
X148692857Y-72017143D02*
X148550000Y-72088571D01*
X148264286Y-72088571D01*
X148121428Y-72017143D01*
X148050000Y-71945714D01*
X147978571Y-71802857D01*
X147978571Y-71374286D01*
X148050000Y-71231429D01*
X148121428Y-71160000D01*
X148264286Y-71088571D01*
X148550000Y-71088571D01*
X148692857Y-71160000D01*
X149407143Y-71088571D02*
X149407143Y-72088571D01*
X149407143Y-71231429D02*
X149478571Y-71160000D01*
X149621429Y-71088571D01*
X149835714Y-71088571D01*
X149978571Y-71160000D01*
X150050000Y-71302857D01*
X150050000Y-72088571D01*
X151335714Y-72017143D02*
X151192857Y-72088571D01*
X150907143Y-72088571D01*
X150764286Y-72017143D01*
X150692857Y-71874286D01*
X150692857Y-71302857D01*
X150764286Y-71160000D01*
X150907143Y-71088571D01*
X151192857Y-71088571D01*
X151335714Y-71160000D01*
X151407143Y-71302857D01*
X151407143Y-71445714D01*
X150692857Y-71588571D01*
X152692857Y-72088571D02*
X152692857Y-70588571D01*
X152692857Y-72017143D02*
X152550000Y-72088571D01*
X152264286Y-72088571D01*
X152121428Y-72017143D01*
X152050000Y-71945714D01*
X151978571Y-71802857D01*
X151978571Y-71374286D01*
X152050000Y-71231429D01*
X152121428Y-71160000D01*
X152264286Y-71088571D01*
X152550000Y-71088571D01*
X152692857Y-71160000D01*
X154550000Y-72088571D02*
X154550000Y-70588571D01*
X154550000Y-71160000D02*
X154692857Y-71088571D01*
X154978571Y-71088571D01*
X155121428Y-71160000D01*
X155192857Y-71231429D01*
X155264286Y-71374286D01*
X155264286Y-71802857D01*
X155192857Y-71945714D01*
X155121428Y-72017143D01*
X154978571Y-72088571D01*
X154692857Y-72088571D01*
X154550000Y-72017143D01*
X155764286Y-71088571D02*
X156121429Y-72088571D01*
X156478571Y-71088571D02*
X156121429Y-72088571D01*
X155978571Y-72445714D01*
X155907143Y-72517143D01*
X155764286Y-72588571D01*
X158692857Y-71302857D02*
X158907143Y-71374286D01*
X158978571Y-71445714D01*
X159050000Y-71588571D01*
X159050000Y-71802857D01*
X158978571Y-71945714D01*
X158907143Y-72017143D01*
X158764285Y-72088571D01*
X158192857Y-72088571D01*
X158192857Y-70588571D01*
X158692857Y-70588571D01*
X158835714Y-70660000D01*
X158907143Y-70731429D01*
X158978571Y-70874286D01*
X158978571Y-71017143D01*
X158907143Y-71160000D01*
X158835714Y-71231429D01*
X158692857Y-71302857D01*
X158192857Y-71302857D01*
X159907143Y-72088571D02*
X159764285Y-72017143D01*
X159692857Y-71874286D01*
X159692857Y-70588571D01*
X161121428Y-71088571D02*
X161121428Y-72088571D01*
X160478571Y-71088571D02*
X160478571Y-71874286D01*
X160549999Y-72017143D01*
X160692857Y-72088571D01*
X160907142Y-72088571D01*
X161049999Y-72017143D01*
X161121428Y-71945714D01*
X162407142Y-72017143D02*
X162264285Y-72088571D01*
X161978571Y-72088571D01*
X161835714Y-72017143D01*
X161764285Y-71874286D01*
X161764285Y-71302857D01*
X161835714Y-71160000D01*
X161978571Y-71088571D01*
X162264285Y-71088571D01*
X162407142Y-71160000D01*
X162478571Y-71302857D01*
X162478571Y-71445714D01*
X161764285Y-71588571D01*
X163049999Y-72017143D02*
X163192856Y-72088571D01*
X163478571Y-72088571D01*
X163621428Y-72017143D01*
X163692856Y-71874286D01*
X163692856Y-71802857D01*
X163621428Y-71660000D01*
X163478571Y-71588571D01*
X163264285Y-71588571D01*
X163121428Y-71517143D01*
X163049999Y-71374286D01*
X163049999Y-71302857D01*
X163121428Y-71160000D01*
X163264285Y-71088571D01*
X163478571Y-71088571D01*
X163621428Y-71160000D01*
X164335714Y-72088571D02*
X164335714Y-70588571D01*
X164978571Y-72088571D02*
X164978571Y-71302857D01*
X164907142Y-71160000D01*
X164764285Y-71088571D01*
X164550000Y-71088571D01*
X164407142Y-71160000D01*
X164335714Y-71231429D01*
X166335714Y-72088571D02*
X166335714Y-71302857D01*
X166264285Y-71160000D01*
X166121428Y-71088571D01*
X165835714Y-71088571D01*
X165692857Y-71160000D01*
X166335714Y-72017143D02*
X166192857Y-72088571D01*
X165835714Y-72088571D01*
X165692857Y-72017143D01*
X165621428Y-71874286D01*
X165621428Y-71731429D01*
X165692857Y-71588571D01*
X165835714Y-71517143D01*
X166192857Y-71517143D01*
X166335714Y-71445714D01*
X167621428Y-72017143D02*
X167478571Y-72088571D01*
X167192857Y-72088571D01*
X167050000Y-72017143D01*
X166978571Y-71874286D01*
X166978571Y-71302857D01*
X167050000Y-71160000D01*
X167192857Y-71088571D01*
X167478571Y-71088571D01*
X167621428Y-71160000D01*
X167692857Y-71302857D01*
X167692857Y-71445714D01*
X166978571Y-71588571D01*
X168978571Y-72088571D02*
X168978571Y-70588571D01*
X168978571Y-72017143D02*
X168835714Y-72088571D01*
X168550000Y-72088571D01*
X168407142Y-72017143D01*
X168335714Y-71945714D01*
X168264285Y-71802857D01*
X168264285Y-71374286D01*
X168335714Y-71231429D01*
X168407142Y-71160000D01*
X168550000Y-71088571D01*
X168835714Y-71088571D01*
X168978571Y-71160000D01*
X169907143Y-72088571D02*
X169764285Y-72017143D01*
X169692857Y-71945714D01*
X169621428Y-71802857D01*
X169621428Y-71374286D01*
X169692857Y-71231429D01*
X169764285Y-71160000D01*
X169907143Y-71088571D01*
X170121428Y-71088571D01*
X170264285Y-71160000D01*
X170335714Y-71231429D01*
X170407143Y-71374286D01*
X170407143Y-71802857D01*
X170335714Y-71945714D01*
X170264285Y-72017143D01*
X170121428Y-72088571D01*
X169907143Y-72088571D01*
X170907143Y-71088571D02*
X171192857Y-72088571D01*
X171478571Y-71374286D01*
X171764286Y-72088571D01*
X172050000Y-71088571D01*
X173692857Y-70731429D02*
X173764286Y-70660000D01*
X173907143Y-70588571D01*
X174264286Y-70588571D01*
X174407143Y-70660000D01*
X174478572Y-70731429D01*
X174550000Y-70874286D01*
X174550000Y-71017143D01*
X174478572Y-71231429D01*
X173621429Y-72088571D01*
X174550000Y-72088571D01*
X175478571Y-70588571D02*
X175621428Y-70588571D01*
X175764285Y-70660000D01*
X175835714Y-70731429D01*
X175907143Y-70874286D01*
X175978571Y-71160000D01*
X175978571Y-71517143D01*
X175907143Y-71802857D01*
X175835714Y-71945714D01*
X175764285Y-72017143D01*
X175621428Y-72088571D01*
X175478571Y-72088571D01*
X175335714Y-72017143D01*
X175264285Y-71945714D01*
X175192857Y-71802857D01*
X175121428Y-71517143D01*
X175121428Y-71160000D01*
X175192857Y-70874286D01*
X175264285Y-70731429D01*
X175335714Y-70660000D01*
X175478571Y-70588571D01*
X177407142Y-72088571D02*
X176549999Y-72088571D01*
X176978571Y-72088571D02*
X176978571Y-70588571D01*
X176835714Y-70802857D01*
X176692856Y-70945714D01*
X176549999Y-71017143D01*
X178764285Y-70588571D02*
X178049999Y-70588571D01*
X177978570Y-71302857D01*
X178049999Y-71231429D01*
X178192856Y-71160000D01*
X178549999Y-71160000D01*
X178692856Y-71231429D01*
X178764285Y-71302857D01*
X178835713Y-71445714D01*
X178835713Y-71802857D01*
X178764285Y-71945714D01*
X178692856Y-72017143D01*
X178549999Y-72088571D01*
X178192856Y-72088571D01*
X178049999Y-72017143D01*
X177978570Y-71945714D01*
X71316000Y-75577000D02*
X71316000Y-76701000D01*
X71316000Y-76701000D02*
X69284000Y-76701000D01*
X69284000Y-76701000D02*
X69284000Y-75577000D01*
X71316000Y-74496000D02*
X71316000Y-73399000D01*
X71316000Y-73399000D02*
X69284000Y-73399000D01*
X69284000Y-73399000D02*
X69284000Y-74496000D01*
D10*
X213666228Y-95750000D02*
G75*
G03X213666228Y-95750000I-316228J0D01*
G01*
X214850000Y-99150000D02*
X214850000Y-100250000D01*
X214850000Y-100250000D02*
X213650000Y-100250000D01*
X213650000Y-100250000D02*
X213650000Y-99150000D01*
X214850000Y-96950000D02*
X214850000Y-95850000D01*
X214850000Y-95850000D02*
X213650000Y-95850000D01*
X213650000Y-95850000D02*
X213650000Y-96950000D01*
X219616228Y-95650000D02*
G75*
G03X219616228Y-95650000I-316228J0D01*
G01*
X220800000Y-99050000D02*
X220800000Y-100150000D01*
X220800000Y-100150000D02*
X219600000Y-100150000D01*
X219600000Y-100150000D02*
X219600000Y-99050000D01*
X220800000Y-96850000D02*
X220800000Y-95750000D01*
X220800000Y-95750000D02*
X219600000Y-95750000D01*
X219600000Y-95750000D02*
X219600000Y-96850000D01*
X226516228Y-88350000D02*
G75*
G03X226516228Y-88350000I-316228J0D01*
G01*
X224700000Y-84950000D02*
X224700000Y-83850000D01*
X224700000Y-83850000D02*
X225900000Y-83850000D01*
X225900000Y-83850000D02*
X225900000Y-84950000D01*
X224700000Y-87150000D02*
X224700000Y-88250000D01*
X224700000Y-88250000D02*
X225900000Y-88250000D01*
X225900000Y-88250000D02*
X225900000Y-87150000D01*
X226616228Y-69250000D02*
G75*
G03X226616228Y-69250000I-316228J0D01*
G01*
X224800000Y-65850000D02*
X224800000Y-64750000D01*
X224800000Y-64750000D02*
X226000000Y-64750000D01*
X226000000Y-64750000D02*
X226000000Y-65850000D01*
X224800000Y-68050000D02*
X224800000Y-69150000D01*
X224800000Y-69150000D02*
X226000000Y-69150000D01*
X226000000Y-69150000D02*
X226000000Y-68050000D01*
X226566228Y-49950000D02*
G75*
G03X226566228Y-49950000I-316228J0D01*
G01*
X224750000Y-46550000D02*
X224750000Y-45450000D01*
X224750000Y-45450000D02*
X225950000Y-45450000D01*
X225950000Y-45450000D02*
X225950000Y-46550000D01*
X224750000Y-48750000D02*
X224750000Y-49850000D01*
X224750000Y-49850000D02*
X225950000Y-49850000D01*
X225950000Y-49850000D02*
X225950000Y-48750000D01*
X196516228Y-125150000D02*
G75*
G03X196516228Y-125150000I-316228J0D01*
G01*
X194700000Y-121750000D02*
X194700000Y-120650000D01*
X194700000Y-120650000D02*
X195900000Y-120650000D01*
X195900000Y-120650000D02*
X195900000Y-121750000D01*
X194700000Y-123950000D02*
X194700000Y-125050000D01*
X194700000Y-125050000D02*
X195900000Y-125050000D01*
X195900000Y-125050000D02*
X195900000Y-123950000D01*
X200366228Y-100550000D02*
G75*
G03X200366228Y-100550000I-316228J0D01*
G01*
X198550000Y-97150000D02*
X198550000Y-96050000D01*
X198550000Y-96050000D02*
X199750000Y-96050000D01*
X199750000Y-96050000D02*
X199750000Y-97150000D01*
X198550000Y-99350000D02*
X198550000Y-100450000D01*
X198550000Y-100450000D02*
X199750000Y-100450000D01*
X199750000Y-100450000D02*
X199750000Y-99350000D01*
X200416228Y-87950000D02*
G75*
G03X200416228Y-87950000I-316228J0D01*
G01*
X198600000Y-84550000D02*
X198600000Y-83450000D01*
X198600000Y-83450000D02*
X199800000Y-83450000D01*
X199800000Y-83450000D02*
X199800000Y-84550000D01*
X198600000Y-86750000D02*
X198600000Y-87850000D01*
X198600000Y-87850000D02*
X199800000Y-87850000D01*
X199800000Y-87850000D02*
X199800000Y-86750000D01*
X200266228Y-66300000D02*
G75*
G03X200266228Y-66300000I-316228J0D01*
G01*
X198450000Y-62900000D02*
X198450000Y-61800000D01*
X198450000Y-61800000D02*
X199650000Y-61800000D01*
X199650000Y-61800000D02*
X199650000Y-62900000D01*
X198450000Y-65100000D02*
X198450000Y-66200000D01*
X198450000Y-66200000D02*
X199650000Y-66200000D01*
X199650000Y-66200000D02*
X199650000Y-65100000D01*
X200566228Y-50700000D02*
G75*
G03X200566228Y-50700000I-316228J0D01*
G01*
X198750000Y-47300000D02*
X198750000Y-46200000D01*
X198750000Y-46200000D02*
X199950000Y-46200000D01*
X199950000Y-46200000D02*
X199950000Y-47300000D01*
X198750000Y-49500000D02*
X198750000Y-50600000D01*
X198750000Y-50600000D02*
X199950000Y-50600000D01*
X199950000Y-50600000D02*
X199950000Y-49500000D01*
X167716228Y-125350000D02*
G75*
G03X167716228Y-125350000I-316228J0D01*
G01*
X165900000Y-121950000D02*
X165900000Y-120850000D01*
X165900000Y-120850000D02*
X167100000Y-120850000D01*
X167100000Y-120850000D02*
X167100000Y-121950000D01*
X165900000Y-124150000D02*
X165900000Y-125250000D01*
X165900000Y-125250000D02*
X167100000Y-125250000D01*
X167100000Y-125250000D02*
X167100000Y-124150000D01*
X180366228Y-68150000D02*
G75*
G03X180366228Y-68150000I-316228J0D01*
G01*
X178550000Y-64750000D02*
X178550000Y-63650000D01*
X178550000Y-63650000D02*
X179750000Y-63650000D01*
X179750000Y-63650000D02*
X179750000Y-64750000D01*
X178550000Y-66950000D02*
X178550000Y-68050000D01*
X178550000Y-68050000D02*
X179750000Y-68050000D01*
X179750000Y-68050000D02*
X179750000Y-66950000D01*
X180316228Y-107100000D02*
G75*
G03X180316228Y-107100000I-316228J0D01*
G01*
X178500000Y-103700000D02*
X178500000Y-102600000D01*
X178500000Y-102600000D02*
X179700000Y-102600000D01*
X179700000Y-102600000D02*
X179700000Y-103700000D01*
X178500000Y-105900000D02*
X178500000Y-107000000D01*
X178500000Y-107000000D02*
X179700000Y-107000000D01*
X179700000Y-107000000D02*
X179700000Y-105900000D01*
X180316228Y-87700000D02*
G75*
G03X180316228Y-87700000I-316228J0D01*
G01*
X178500000Y-84300000D02*
X178500000Y-83200000D01*
X178500000Y-83200000D02*
X179700000Y-83200000D01*
X179700000Y-83200000D02*
X179700000Y-84300000D01*
X178500000Y-86500000D02*
X178500000Y-87600000D01*
X178500000Y-87600000D02*
X179700000Y-87600000D01*
X179700000Y-87600000D02*
X179700000Y-86500000D01*
X180366228Y-50650000D02*
G75*
G03X180366228Y-50650000I-316228J0D01*
G01*
X178550000Y-47250000D02*
X178550000Y-46150000D01*
X178550000Y-46150000D02*
X179750000Y-46150000D01*
X179750000Y-46150000D02*
X179750000Y-47250000D01*
X178550000Y-49450000D02*
X178550000Y-50550000D01*
X178550000Y-50550000D02*
X179750000Y-50550000D01*
X179750000Y-50550000D02*
X179750000Y-49450000D01*
X161216228Y-106550000D02*
G75*
G03X161216228Y-106550000I-316228J0D01*
G01*
X159400000Y-103150000D02*
X159400000Y-102050000D01*
X159400000Y-102050000D02*
X160600000Y-102050000D01*
X160600000Y-102050000D02*
X160600000Y-103150000D01*
X159400000Y-105350000D02*
X159400000Y-106450000D01*
X159400000Y-106450000D02*
X160600000Y-106450000D01*
X160600000Y-106450000D02*
X160600000Y-105350000D01*
X161216228Y-87650000D02*
G75*
G03X161216228Y-87650000I-316228J0D01*
G01*
X159400000Y-84250000D02*
X159400000Y-83150000D01*
X159400000Y-83150000D02*
X160600000Y-83150000D01*
X160600000Y-83150000D02*
X160600000Y-84250000D01*
X159400000Y-86450000D02*
X159400000Y-87550000D01*
X159400000Y-87550000D02*
X160600000Y-87550000D01*
X160600000Y-87550000D02*
X160600000Y-86450000D01*
X161316228Y-68800000D02*
G75*
G03X161316228Y-68800000I-316228J0D01*
G01*
X159500000Y-65400000D02*
X159500000Y-64300000D01*
X159500000Y-64300000D02*
X160700000Y-64300000D01*
X160700000Y-64300000D02*
X160700000Y-65400000D01*
X159500000Y-67600000D02*
X159500000Y-68700000D01*
X159500000Y-68700000D02*
X160700000Y-68700000D01*
X160700000Y-68700000D02*
X160700000Y-67600000D01*
X161316228Y-50250000D02*
G75*
G03X161316228Y-50250000I-316228J0D01*
G01*
X159500000Y-46850000D02*
X159500000Y-45750000D01*
X159500000Y-45750000D02*
X160700000Y-45750000D01*
X160700000Y-45750000D02*
X160700000Y-46850000D01*
X159500000Y-49050000D02*
X159500000Y-50150000D01*
X159500000Y-50150000D02*
X160700000Y-50150000D01*
X160700000Y-50150000D02*
X160700000Y-49050000D01*
X144066228Y-125050000D02*
G75*
G03X144066228Y-125050000I-316228J0D01*
G01*
X142250000Y-121650000D02*
X142250000Y-120550000D01*
X142250000Y-120550000D02*
X143450000Y-120550000D01*
X143450000Y-120550000D02*
X143450000Y-121650000D01*
X142250000Y-123850000D02*
X142250000Y-124950000D01*
X142250000Y-124950000D02*
X143450000Y-124950000D01*
X143450000Y-124950000D02*
X143450000Y-123850000D01*
X142316228Y-106450000D02*
G75*
G03X142316228Y-106450000I-316228J0D01*
G01*
X140500000Y-103050000D02*
X140500000Y-101950000D01*
X140500000Y-101950000D02*
X141700000Y-101950000D01*
X141700000Y-101950000D02*
X141700000Y-103050000D01*
X140500000Y-105250000D02*
X140500000Y-106350000D01*
X140500000Y-106350000D02*
X141700000Y-106350000D01*
X141700000Y-106350000D02*
X141700000Y-105250000D01*
X142316228Y-87900000D02*
G75*
G03X142316228Y-87900000I-316228J0D01*
G01*
X140500000Y-84500000D02*
X140500000Y-83400000D01*
X140500000Y-83400000D02*
X141700000Y-83400000D01*
X141700000Y-83400000D02*
X141700000Y-84500000D01*
X140500000Y-86700000D02*
X140500000Y-87800000D01*
X140500000Y-87800000D02*
X141700000Y-87800000D01*
X141700000Y-87800000D02*
X141700000Y-86700000D01*
X142316228Y-68900000D02*
G75*
G03X142316228Y-68900000I-316228J0D01*
G01*
X140500000Y-65500000D02*
X140500000Y-64400000D01*
X140500000Y-64400000D02*
X141700000Y-64400000D01*
X141700000Y-64400000D02*
X141700000Y-65500000D01*
X140500000Y-67700000D02*
X140500000Y-68800000D01*
X140500000Y-68800000D02*
X141700000Y-68800000D01*
X141700000Y-68800000D02*
X141700000Y-67700000D01*
X142316228Y-50150000D02*
G75*
G03X142316228Y-50150000I-316228J0D01*
G01*
X140500000Y-46750000D02*
X140500000Y-45650000D01*
X140500000Y-45650000D02*
X141700000Y-45650000D01*
X141700000Y-45650000D02*
X141700000Y-46750000D01*
X140500000Y-48950000D02*
X140500000Y-50050000D01*
X140500000Y-50050000D02*
X141700000Y-50050000D01*
X141700000Y-50050000D02*
X141700000Y-48950000D01*
X123216228Y-125650000D02*
G75*
G03X123216228Y-125650000I-316228J0D01*
G01*
X121400000Y-122250000D02*
X121400000Y-121150000D01*
X121400000Y-121150000D02*
X122600000Y-121150000D01*
X122600000Y-121150000D02*
X122600000Y-122250000D01*
X121400000Y-124450000D02*
X121400000Y-125550000D01*
X121400000Y-125550000D02*
X122600000Y-125550000D01*
X122600000Y-125550000D02*
X122600000Y-124450000D01*
X123266228Y-106600000D02*
G75*
G03X123266228Y-106600000I-316228J0D01*
G01*
X121450000Y-103200000D02*
X121450000Y-102100000D01*
X121450000Y-102100000D02*
X122650000Y-102100000D01*
X122650000Y-102100000D02*
X122650000Y-103200000D01*
X121450000Y-105400000D02*
X121450000Y-106500000D01*
X121450000Y-106500000D02*
X122650000Y-106500000D01*
X122650000Y-106500000D02*
X122650000Y-105400000D01*
X123216228Y-87450000D02*
G75*
G03X123216228Y-87450000I-316228J0D01*
G01*
X121400000Y-84050000D02*
X121400000Y-82950000D01*
X121400000Y-82950000D02*
X122600000Y-82950000D01*
X122600000Y-82950000D02*
X122600000Y-84050000D01*
X121400000Y-86250000D02*
X121400000Y-87350000D01*
X121400000Y-87350000D02*
X122600000Y-87350000D01*
X122600000Y-87350000D02*
X122600000Y-86250000D01*
X123216228Y-68300000D02*
G75*
G03X123216228Y-68300000I-316228J0D01*
G01*
X121400000Y-64900000D02*
X121400000Y-63800000D01*
X121400000Y-63800000D02*
X122600000Y-63800000D01*
X122600000Y-63800000D02*
X122600000Y-64900000D01*
X121400000Y-67100000D02*
X121400000Y-68200000D01*
X121400000Y-68200000D02*
X122600000Y-68200000D01*
X122600000Y-68200000D02*
X122600000Y-67100000D01*
X123166228Y-50400000D02*
G75*
G03X123166228Y-50400000I-316228J0D01*
G01*
X121350000Y-47000000D02*
X121350000Y-45900000D01*
X121350000Y-45900000D02*
X122550000Y-45900000D01*
X122550000Y-45900000D02*
X122550000Y-47000000D01*
X121350000Y-49200000D02*
X121350000Y-50300000D01*
X121350000Y-50300000D02*
X122550000Y-50300000D01*
X122550000Y-50300000D02*
X122550000Y-49200000D01*
X85216228Y-124150000D02*
G75*
G03X85216228Y-124150000I-316228J0D01*
G01*
X83400000Y-120750000D02*
X83400000Y-119650000D01*
X83400000Y-119650000D02*
X84600000Y-119650000D01*
X84600000Y-119650000D02*
X84600000Y-120750000D01*
X83400000Y-122950000D02*
X83400000Y-124050000D01*
X83400000Y-124050000D02*
X84600000Y-124050000D01*
X84600000Y-124050000D02*
X84600000Y-122950000D01*
X104316228Y-124200000D02*
G75*
G03X104316228Y-124200000I-316228J0D01*
G01*
X102500000Y-120800000D02*
X102500000Y-119700000D01*
X102500000Y-119700000D02*
X103700000Y-119700000D01*
X103700000Y-119700000D02*
X103700000Y-120800000D01*
X102500000Y-123000000D02*
X102500000Y-124100000D01*
X102500000Y-124100000D02*
X103700000Y-124100000D01*
X103700000Y-124100000D02*
X103700000Y-123000000D01*
X98316228Y-106600000D02*
G75*
G03X98316228Y-106600000I-316228J0D01*
G01*
X96500000Y-103200000D02*
X96500000Y-102100000D01*
X96500000Y-102100000D02*
X97700000Y-102100000D01*
X97700000Y-102100000D02*
X97700000Y-103200000D01*
X96500000Y-105400000D02*
X96500000Y-106500000D01*
X96500000Y-106500000D02*
X97700000Y-106500000D01*
X97700000Y-106500000D02*
X97700000Y-105400000D01*
X98216228Y-88350000D02*
G75*
G03X98216228Y-88350000I-316228J0D01*
G01*
X96400000Y-84950000D02*
X96400000Y-83850000D01*
X96400000Y-83850000D02*
X97600000Y-83850000D01*
X97600000Y-83850000D02*
X97600000Y-84950000D01*
X96400000Y-87150000D02*
X96400000Y-88250000D01*
X96400000Y-88250000D02*
X97600000Y-88250000D01*
X97600000Y-88250000D02*
X97600000Y-87150000D01*
X98466228Y-67250000D02*
G75*
G03X98466228Y-67250000I-316228J0D01*
G01*
X96650000Y-63850000D02*
X96650000Y-62750000D01*
X96650000Y-62750000D02*
X97850000Y-62750000D01*
X97850000Y-62750000D02*
X97850000Y-63850000D01*
X96650000Y-66050000D02*
X96650000Y-67150000D01*
X96650000Y-67150000D02*
X97850000Y-67150000D01*
X97850000Y-67150000D02*
X97850000Y-66050000D01*
X98516228Y-50350000D02*
G75*
G03X98516228Y-50350000I-316228J0D01*
G01*
X96700000Y-46950000D02*
X96700000Y-45850000D01*
X96700000Y-45850000D02*
X97900000Y-45850000D01*
X97900000Y-45850000D02*
X97900000Y-46950000D01*
X96700000Y-49150000D02*
X96700000Y-50250000D01*
X96700000Y-50250000D02*
X97900000Y-50250000D01*
X97900000Y-50250000D02*
X97900000Y-49150000D01*
D12*
X73703800Y-55496200D02*
X73703800Y-65503800D01*
X73703800Y-65503800D02*
X63696200Y-65503800D01*
X63696200Y-55978800D02*
X63696200Y-65503800D01*
X64178800Y-55496200D02*
X73703800Y-55496200D01*
X63696200Y-55978800D02*
X64178800Y-55496200D01*
D13*
X65525000Y-56690000D02*
G75*
G03X65525000Y-56690000I-635000J0D01*
G01*
D14*
X68901140Y-91000000D02*
G75*
G03X68901140Y-91000000I-1501140J0D01*
G01*
X69749500Y-87901200D02*
X69749500Y-87400820D01*
X69749500Y-87400820D02*
X69051000Y-87400820D01*
X69051000Y-87400820D02*
X69051000Y-87901200D01*
X65050500Y-87400820D02*
X65050500Y-87901200D01*
X65749000Y-87400820D02*
X65050500Y-87400820D01*
X65749000Y-87901200D02*
X65749000Y-87400820D01*
X65749000Y-94098800D02*
X65749000Y-94599180D01*
X65749000Y-94599180D02*
X65050500Y-94599180D01*
X65050500Y-94599180D02*
X65050500Y-94098800D01*
X69749500Y-94098800D02*
X69749500Y-94599180D01*
X69749500Y-94599180D02*
X69051000Y-94599180D01*
X69051000Y-94599180D02*
X69051000Y-94098800D01*
D15*
X64301200Y-88200920D02*
X64301200Y-93799080D01*
X70498800Y-88200920D02*
X70498800Y-93799080D01*
X70399740Y-87901200D02*
X70399740Y-94098800D01*
X70399740Y-94098800D02*
X64400260Y-94098800D01*
X64400260Y-94098800D02*
X64400260Y-87901200D01*
X64400260Y-87901200D02*
X70399740Y-87901200D01*
D11*
X75016000Y-75602000D02*
X75016000Y-76726000D01*
X75016000Y-76726000D02*
X72984000Y-76726000D01*
X72984000Y-76726000D02*
X72984000Y-75602000D01*
X75016000Y-74521000D02*
X75016000Y-73424000D01*
X75016000Y-73424000D02*
X72984000Y-73424000D01*
X72984000Y-73424000D02*
X72984000Y-74521000D01*
X63323000Y-71266000D02*
X62199000Y-71266000D01*
X62199000Y-71266000D02*
X62199000Y-69234000D01*
X62199000Y-69234000D02*
X63323000Y-69234000D01*
X64404000Y-71266000D02*
X65501000Y-71266000D01*
X65501000Y-71266000D02*
X65501000Y-69234000D01*
X65501000Y-69234000D02*
X64404000Y-69234000D01*
X63323000Y-74391000D02*
X62199000Y-74391000D01*
X62199000Y-74391000D02*
X62199000Y-72359000D01*
X62199000Y-72359000D02*
X63323000Y-72359000D01*
X64404000Y-74391000D02*
X65501000Y-74391000D01*
X65501000Y-74391000D02*
X65501000Y-72359000D01*
X65501000Y-72359000D02*
X64404000Y-72359000D01*
X56534000Y-61623000D02*
X56534000Y-60499000D01*
X56534000Y-60499000D02*
X58566000Y-60499000D01*
X58566000Y-60499000D02*
X58566000Y-61623000D01*
X56534000Y-62704000D02*
X56534000Y-63801000D01*
X56534000Y-63801000D02*
X58566000Y-63801000D01*
X58566000Y-63801000D02*
X58566000Y-62704000D01*
X69577000Y-48934000D02*
X70701000Y-48934000D01*
X70701000Y-48934000D02*
X70701000Y-50966000D01*
X70701000Y-50966000D02*
X69577000Y-50966000D01*
X68496000Y-48934000D02*
X67399000Y-48934000D01*
X67399000Y-48934000D02*
X67399000Y-50966000D01*
X67399000Y-50966000D02*
X68496000Y-50966000D01*
X62984000Y-39373000D02*
X62984000Y-38249000D01*
X62984000Y-38249000D02*
X65016000Y-38249000D01*
X65016000Y-38249000D02*
X65016000Y-39373000D01*
X62984000Y-40454000D02*
X62984000Y-41551000D01*
X62984000Y-41551000D02*
X65016000Y-41551000D01*
X65016000Y-41551000D02*
X65016000Y-40454000D01*
X65584000Y-39373000D02*
X65584000Y-38249000D01*
X65584000Y-38249000D02*
X67616000Y-38249000D01*
X67616000Y-38249000D02*
X67616000Y-39373000D01*
X65584000Y-40454000D02*
X65584000Y-41551000D01*
X65584000Y-41551000D02*
X67616000Y-41551000D01*
X67616000Y-41551000D02*
X67616000Y-40454000D01*
D10*
X58500000Y-77400000D02*
G75*
G03X58500000Y-77400000I-1160000J0D01*
G01*
X61280000Y-84100000D02*
X56180000Y-84100000D01*
X61280000Y-75800000D02*
X56080000Y-75800000D01*
X56080000Y-75800000D02*
X56080000Y-84100000D01*
X61280000Y-84100000D02*
X61280000Y-75800000D01*
D15*
X78793600Y-35380000D02*
X94033600Y-35380000D01*
X94033600Y-35380000D02*
X94033600Y-50620000D01*
X94033600Y-50620000D02*
X78793600Y-50620000D01*
X78793600Y-50620000D02*
X78793600Y-35380000D01*
X78793600Y-54380000D02*
X94033600Y-54380000D01*
X94033600Y-54380000D02*
X94033600Y-69620000D01*
X94033600Y-69620000D02*
X78793600Y-69620000D01*
X78793600Y-69620000D02*
X78793600Y-54380000D01*
X78793600Y-73380000D02*
X94033600Y-73380000D01*
X94033600Y-73380000D02*
X94033600Y-88620000D01*
X94033600Y-88620000D02*
X78793600Y-88620000D01*
X78793600Y-88620000D02*
X78793600Y-73380000D01*
X78793600Y-92380000D02*
X94033600Y-92380000D01*
X94033600Y-92380000D02*
X94033600Y-107620000D01*
X94033600Y-107620000D02*
X78793600Y-107620000D01*
X78793600Y-107620000D02*
X78793600Y-92380000D01*
X85918600Y-111380000D02*
X101158600Y-111380000D01*
X101158600Y-111380000D02*
X101158600Y-126620000D01*
X101158600Y-126620000D02*
X85918600Y-126620000D01*
X85918600Y-126620000D02*
X85918600Y-111380000D01*
X66918600Y-111380000D02*
X82158600Y-111380000D01*
X82158600Y-111380000D02*
X82158600Y-126620000D01*
X82158600Y-126620000D02*
X66918600Y-126620000D01*
X66918600Y-126620000D02*
X66918600Y-111380000D01*
X104918600Y-35380000D02*
X120158600Y-35380000D01*
X120158600Y-35380000D02*
X120158600Y-50620000D01*
X120158600Y-50620000D02*
X104918600Y-50620000D01*
X104918600Y-50620000D02*
X104918600Y-35380000D01*
X104918600Y-54380000D02*
X120158600Y-54380000D01*
X120158600Y-54380000D02*
X120158600Y-69620000D01*
X120158600Y-69620000D02*
X104918600Y-69620000D01*
X104918600Y-69620000D02*
X104918600Y-54380000D01*
X104918600Y-73380000D02*
X120158600Y-73380000D01*
X120158600Y-73380000D02*
X120158600Y-88620000D01*
X120158600Y-88620000D02*
X104918600Y-88620000D01*
X104918600Y-88620000D02*
X104918600Y-73380000D01*
X104918600Y-92380000D02*
X120158600Y-92380000D01*
X120158600Y-92380000D02*
X120158600Y-107620000D01*
X120158600Y-107620000D02*
X104918600Y-107620000D01*
X104918600Y-107620000D02*
X104918600Y-92380000D01*
X104918600Y-111380000D02*
X120158600Y-111380000D01*
X120158600Y-111380000D02*
X120158600Y-126620000D01*
X120158600Y-126620000D02*
X104918600Y-126620000D01*
X104918600Y-126620000D02*
X104918600Y-111380000D01*
X123918600Y-35380000D02*
X139158600Y-35380000D01*
X139158600Y-35380000D02*
X139158600Y-50620000D01*
X139158600Y-50620000D02*
X123918600Y-50620000D01*
X123918600Y-50620000D02*
X123918600Y-35380000D01*
X123918600Y-54380000D02*
X139158600Y-54380000D01*
X139158600Y-54380000D02*
X139158600Y-69620000D01*
X139158600Y-69620000D02*
X123918600Y-69620000D01*
X123918600Y-69620000D02*
X123918600Y-54380000D01*
X123918600Y-73380000D02*
X139158600Y-73380000D01*
X139158600Y-73380000D02*
X139158600Y-88620000D01*
X139158600Y-88620000D02*
X123918600Y-88620000D01*
X123918600Y-88620000D02*
X123918600Y-73380000D01*
X123918600Y-92380000D02*
X139158600Y-92380000D01*
X139158600Y-92380000D02*
X139158600Y-107620000D01*
X139158600Y-107620000D02*
X123918600Y-107620000D01*
X123918600Y-107620000D02*
X123918600Y-92380000D01*
X123918600Y-111380000D02*
X139158600Y-111380000D01*
X139158600Y-111380000D02*
X139158600Y-126620000D01*
X139158600Y-126620000D02*
X123918600Y-126620000D01*
X123918600Y-126620000D02*
X123918600Y-111380000D01*
X142918600Y-35380000D02*
X158158600Y-35380000D01*
X158158600Y-35380000D02*
X158158600Y-50620000D01*
X158158600Y-50620000D02*
X142918600Y-50620000D01*
X142918600Y-50620000D02*
X142918600Y-35380000D01*
X142918600Y-54380000D02*
X158158600Y-54380000D01*
X158158600Y-54380000D02*
X158158600Y-69620000D01*
X158158600Y-69620000D02*
X142918600Y-69620000D01*
X142918600Y-69620000D02*
X142918600Y-54380000D01*
X142918600Y-73380000D02*
X158158600Y-73380000D01*
X158158600Y-73380000D02*
X158158600Y-88620000D01*
X158158600Y-88620000D02*
X142918600Y-88620000D01*
X142918600Y-88620000D02*
X142918600Y-73380000D01*
X142918600Y-92380000D02*
X158158600Y-92380000D01*
X158158600Y-92380000D02*
X158158600Y-107620000D01*
X158158600Y-107620000D02*
X142918600Y-107620000D01*
X142918600Y-107620000D02*
X142918600Y-92380000D01*
X161918600Y-35380000D02*
X177158600Y-35380000D01*
X177158600Y-35380000D02*
X177158600Y-50620000D01*
X177158600Y-50620000D02*
X161918600Y-50620000D01*
X161918600Y-50620000D02*
X161918600Y-35380000D01*
X161918600Y-54380000D02*
X177158600Y-54380000D01*
X177158600Y-54380000D02*
X177158600Y-69620000D01*
X177158600Y-69620000D02*
X161918600Y-69620000D01*
X161918600Y-69620000D02*
X161918600Y-54380000D01*
X161918600Y-73380000D02*
X177158600Y-73380000D01*
X177158600Y-73380000D02*
X177158600Y-88620000D01*
X177158600Y-88620000D02*
X161918600Y-88620000D01*
X161918600Y-88620000D02*
X161918600Y-73380000D01*
X161918600Y-92380000D02*
X177158600Y-92380000D01*
X177158600Y-92380000D02*
X177158600Y-107620000D01*
X177158600Y-107620000D02*
X161918600Y-107620000D01*
X161918600Y-107620000D02*
X161918600Y-92380000D01*
X147668600Y-111380000D02*
X162908600Y-111380000D01*
X162908600Y-111380000D02*
X162908600Y-126620000D01*
X162908600Y-126620000D02*
X147668600Y-126620000D01*
X147668600Y-126620000D02*
X147668600Y-111380000D01*
X180918600Y-35380000D02*
X196158600Y-35380000D01*
X196158600Y-35380000D02*
X196158600Y-50620000D01*
X196158600Y-50620000D02*
X180918600Y-50620000D01*
X180918600Y-50620000D02*
X180918600Y-35380000D01*
X180918600Y-54380000D02*
X196158600Y-54380000D01*
X196158600Y-54380000D02*
X196158600Y-69620000D01*
X196158600Y-69620000D02*
X180918600Y-69620000D01*
X180918600Y-69620000D02*
X180918600Y-54380000D01*
X180918600Y-73380000D02*
X196158600Y-73380000D01*
X196158600Y-73380000D02*
X196158600Y-88620000D01*
X196158600Y-88620000D02*
X180918600Y-88620000D01*
X180918600Y-88620000D02*
X180918600Y-73380000D01*
X180918600Y-92380000D02*
X196158600Y-92380000D01*
X196158600Y-92380000D02*
X196158600Y-107620000D01*
X196158600Y-107620000D02*
X180918600Y-107620000D01*
X180918600Y-107620000D02*
X180918600Y-92380000D01*
X176166000Y-111380000D02*
X191406000Y-111380000D01*
X191406000Y-111380000D02*
X191406000Y-126620000D01*
X191406000Y-126620000D02*
X176166000Y-126620000D01*
X176166000Y-126620000D02*
X176166000Y-111380000D01*
X207043600Y-35380000D02*
X222283600Y-35380000D01*
X222283600Y-35380000D02*
X222283600Y-50620000D01*
X222283600Y-50620000D02*
X207043600Y-50620000D01*
X207043600Y-50620000D02*
X207043600Y-35380000D01*
X207043600Y-54380000D02*
X222283600Y-54380000D01*
X222283600Y-54380000D02*
X222283600Y-69620000D01*
X222283600Y-69620000D02*
X207043600Y-69620000D01*
X207043600Y-69620000D02*
X207043600Y-54380000D01*
X207043600Y-73380000D02*
X222283600Y-73380000D01*
X222283600Y-73380000D02*
X222283600Y-88620000D01*
X222283600Y-88620000D02*
X207043600Y-88620000D01*
X207043600Y-88620000D02*
X207043600Y-73380000D01*
X218918600Y-101880000D02*
X234158600Y-101880000D01*
X234158600Y-101880000D02*
X234158600Y-117120000D01*
X234158600Y-117120000D02*
X218918600Y-117120000D01*
X218918600Y-117120000D02*
X218918600Y-101880000D01*
X199918600Y-101880000D02*
X215158600Y-101880000D01*
X215158600Y-101880000D02*
X215158600Y-117120000D01*
X215158600Y-117120000D02*
X199918600Y-117120000D01*
X199918600Y-117120000D02*
X199918600Y-101880000D01*
D11*
X65548000Y-81141000D02*
X64424000Y-81141000D01*
X64424000Y-81141000D02*
X64424000Y-79109000D01*
X64424000Y-79109000D02*
X65548000Y-79109000D01*
X66629000Y-81141000D02*
X67726000Y-81141000D01*
X67726000Y-81141000D02*
X67726000Y-79109000D01*
X67726000Y-79109000D02*
X66629000Y-79109000D01*
D10*
X61100000Y-35550000D02*
X68900000Y-35550000D01*
X61100000Y-30150000D02*
X61100000Y-35550000D01*
X68900000Y-30150000D02*
X68900000Y-35550000D01*
X65000000Y-30150000D02*
X61100000Y-30150000D01*
X65000000Y-30150000D02*
X68900000Y-30150000D01*
D16*
X67623334Y-74407143D02*
X67575715Y-74454762D01*
X67432858Y-74502381D01*
X67337620Y-74502381D01*
X67194762Y-74454762D01*
X67099524Y-74359524D01*
X67051905Y-74264286D01*
X67004286Y-74073810D01*
X67004286Y-73930952D01*
X67051905Y-73740476D01*
X67099524Y-73645238D01*
X67194762Y-73550000D01*
X67337620Y-73502381D01*
X67432858Y-73502381D01*
X67575715Y-73550000D01*
X67623334Y-73597619D01*
X68575715Y-74502381D02*
X68004286Y-74502381D01*
X68290000Y-74502381D02*
X68290000Y-73502381D01*
X68194762Y-73645238D01*
X68099524Y-73740476D01*
X68004286Y-73788095D01*
X66038572Y-76562381D02*
X65467143Y-76562381D01*
X65752857Y-76562381D02*
X65752857Y-75562381D01*
X65657619Y-75705238D01*
X65562381Y-75800476D01*
X65467143Y-75848095D01*
X66610000Y-75990952D02*
X66514762Y-75943333D01*
X66467143Y-75895714D01*
X66419524Y-75800476D01*
X66419524Y-75752857D01*
X66467143Y-75657619D01*
X66514762Y-75610000D01*
X66610000Y-75562381D01*
X66800477Y-75562381D01*
X66895715Y-75610000D01*
X66943334Y-75657619D01*
X66990953Y-75752857D01*
X66990953Y-75800476D01*
X66943334Y-75895714D01*
X66895715Y-75943333D01*
X66800477Y-75990952D01*
X66610000Y-75990952D01*
X66514762Y-76038571D01*
X66467143Y-76086190D01*
X66419524Y-76181429D01*
X66419524Y-76371905D01*
X66467143Y-76467143D01*
X66514762Y-76514762D01*
X66610000Y-76562381D01*
X66800477Y-76562381D01*
X66895715Y-76514762D01*
X66943334Y-76467143D01*
X66990953Y-76371905D01*
X66990953Y-76181429D01*
X66943334Y-76086190D01*
X66895715Y-76038571D01*
X66800477Y-75990952D01*
X67419524Y-75895714D02*
X67419524Y-76895714D01*
X67419524Y-75943333D02*
X67514762Y-75895714D01*
X67705239Y-75895714D01*
X67800477Y-75943333D01*
X67848096Y-75990952D01*
X67895715Y-76086190D01*
X67895715Y-76371905D01*
X67848096Y-76467143D01*
X67800477Y-76514762D01*
X67705239Y-76562381D01*
X67514762Y-76562381D01*
X67419524Y-76514762D01*
X68657620Y-76038571D02*
X68324286Y-76038571D01*
X68324286Y-76562381D02*
X68324286Y-75562381D01*
X68800477Y-75562381D01*
D17*
X64628572Y-59941667D02*
X65057143Y-59941667D01*
X64542857Y-60227381D02*
X64842857Y-59227381D01*
X65142857Y-60227381D01*
X65314286Y-59227381D02*
X65828572Y-59227381D01*
X65571429Y-60227381D02*
X65571429Y-59227381D01*
X66128572Y-60227381D02*
X66128572Y-59227381D01*
X66428572Y-59941667D01*
X66728572Y-59227381D01*
X66728572Y-60227381D01*
X67157143Y-59703571D02*
X67457143Y-59703571D01*
X67585714Y-60227381D02*
X67157143Y-60227381D01*
X67157143Y-59227381D01*
X67585714Y-59227381D01*
X68442857Y-59275000D02*
X68357143Y-59227381D01*
X68228572Y-59227381D01*
X68100000Y-59275000D01*
X68014286Y-59370238D01*
X67971429Y-59465476D01*
X67928572Y-59655952D01*
X67928572Y-59798810D01*
X67971429Y-59989286D01*
X68014286Y-60084524D01*
X68100000Y-60179762D01*
X68228572Y-60227381D01*
X68314286Y-60227381D01*
X68442857Y-60179762D01*
X68485714Y-60132143D01*
X68485714Y-59798810D01*
X68314286Y-59798810D01*
X68828572Y-59941667D02*
X69257143Y-59941667D01*
X68742857Y-60227381D02*
X69042857Y-59227381D01*
X69342857Y-60227381D01*
X69557143Y-59227381D02*
X70114286Y-59227381D01*
X69814286Y-59608333D01*
X69942858Y-59608333D01*
X70028572Y-59655952D01*
X70071429Y-59703571D01*
X70114286Y-59798810D01*
X70114286Y-60036905D01*
X70071429Y-60132143D01*
X70028572Y-60179762D01*
X69942858Y-60227381D01*
X69685715Y-60227381D01*
X69600001Y-60179762D01*
X69557143Y-60132143D01*
X70457144Y-59322619D02*
X70500001Y-59275000D01*
X70585715Y-59227381D01*
X70800001Y-59227381D01*
X70885715Y-59275000D01*
X70928572Y-59322619D01*
X70971429Y-59417857D01*
X70971429Y-59513095D01*
X70928572Y-59655952D01*
X70414286Y-60227381D01*
X70971429Y-60227381D01*
X71357144Y-59227381D02*
X71357144Y-60036905D01*
X71400001Y-60132143D01*
X71442858Y-60179762D01*
X71528572Y-60227381D01*
X71700001Y-60227381D01*
X71785715Y-60179762D01*
X71828572Y-60132143D01*
X71871429Y-60036905D01*
X71871429Y-59227381D01*
X72685715Y-59560714D02*
X72685715Y-60227381D01*
X72471429Y-59179762D02*
X72257144Y-59894048D01*
X72814286Y-59894048D01*
D16*
X76273334Y-74407143D02*
X76225715Y-74454762D01*
X76082858Y-74502381D01*
X75987620Y-74502381D01*
X75844762Y-74454762D01*
X75749524Y-74359524D01*
X75701905Y-74264286D01*
X75654286Y-74073810D01*
X75654286Y-73930952D01*
X75701905Y-73740476D01*
X75749524Y-73645238D01*
X75844762Y-73550000D01*
X75987620Y-73502381D01*
X76082858Y-73502381D01*
X76225715Y-73550000D01*
X76273334Y-73597619D01*
X76654286Y-73597619D02*
X76701905Y-73550000D01*
X76797143Y-73502381D01*
X77035239Y-73502381D01*
X77130477Y-73550000D01*
X77178096Y-73597619D01*
X77225715Y-73692857D01*
X77225715Y-73788095D01*
X77178096Y-73930952D01*
X76606667Y-74502381D01*
X77225715Y-74502381D01*
X76038572Y-76432381D02*
X75467143Y-76432381D01*
X75752857Y-76432381D02*
X75752857Y-75432381D01*
X75657619Y-75575238D01*
X75562381Y-75670476D01*
X75467143Y-75718095D01*
X76610000Y-75860952D02*
X76514762Y-75813333D01*
X76467143Y-75765714D01*
X76419524Y-75670476D01*
X76419524Y-75622857D01*
X76467143Y-75527619D01*
X76514762Y-75480000D01*
X76610000Y-75432381D01*
X76800477Y-75432381D01*
X76895715Y-75480000D01*
X76943334Y-75527619D01*
X76990953Y-75622857D01*
X76990953Y-75670476D01*
X76943334Y-75765714D01*
X76895715Y-75813333D01*
X76800477Y-75860952D01*
X76610000Y-75860952D01*
X76514762Y-75908571D01*
X76467143Y-75956190D01*
X76419524Y-76051429D01*
X76419524Y-76241905D01*
X76467143Y-76337143D01*
X76514762Y-76384762D01*
X76610000Y-76432381D01*
X76800477Y-76432381D01*
X76895715Y-76384762D01*
X76943334Y-76337143D01*
X76990953Y-76241905D01*
X76990953Y-76051429D01*
X76943334Y-75956190D01*
X76895715Y-75908571D01*
X76800477Y-75860952D01*
X77419524Y-75765714D02*
X77419524Y-76765714D01*
X77419524Y-75813333D02*
X77514762Y-75765714D01*
X77705239Y-75765714D01*
X77800477Y-75813333D01*
X77848096Y-75860952D01*
X77895715Y-75956190D01*
X77895715Y-76241905D01*
X77848096Y-76337143D01*
X77800477Y-76384762D01*
X77705239Y-76432381D01*
X77514762Y-76432381D01*
X77419524Y-76384762D01*
X78657620Y-75908571D02*
X78324286Y-75908571D01*
X78324286Y-76432381D02*
X78324286Y-75432381D01*
X78800477Y-75432381D01*
X60543334Y-69817143D02*
X60495715Y-69864762D01*
X60352858Y-69912381D01*
X60257620Y-69912381D01*
X60114762Y-69864762D01*
X60019524Y-69769524D01*
X59971905Y-69674286D01*
X59924286Y-69483810D01*
X59924286Y-69340952D01*
X59971905Y-69150476D01*
X60019524Y-69055238D01*
X60114762Y-68960000D01*
X60257620Y-68912381D01*
X60352858Y-68912381D01*
X60495715Y-68960000D01*
X60543334Y-69007619D01*
X61448096Y-68912381D02*
X60971905Y-68912381D01*
X60924286Y-69388571D01*
X60971905Y-69340952D01*
X61067143Y-69293333D01*
X61305239Y-69293333D01*
X61400477Y-69340952D01*
X61448096Y-69388571D01*
X61495715Y-69483810D01*
X61495715Y-69721905D01*
X61448096Y-69817143D01*
X61400477Y-69864762D01*
X61305239Y-69912381D01*
X61067143Y-69912381D01*
X60971905Y-69864762D01*
X60924286Y-69817143D01*
X57992381Y-71332381D02*
X57420952Y-71332381D01*
X57706666Y-71332381D02*
X57706666Y-70332381D01*
X57611428Y-70475238D01*
X57516190Y-70570476D01*
X57420952Y-70618095D01*
X58611428Y-70332381D02*
X58706667Y-70332381D01*
X58801905Y-70380000D01*
X58849524Y-70427619D01*
X58897143Y-70522857D01*
X58944762Y-70713333D01*
X58944762Y-70951429D01*
X58897143Y-71141905D01*
X58849524Y-71237143D01*
X58801905Y-71284762D01*
X58706667Y-71332381D01*
X58611428Y-71332381D01*
X58516190Y-71284762D01*
X58468571Y-71237143D01*
X58420952Y-71141905D01*
X58373333Y-70951429D01*
X58373333Y-70713333D01*
X58420952Y-70522857D01*
X58468571Y-70427619D01*
X58516190Y-70380000D01*
X58611428Y-70332381D01*
X59563809Y-70332381D02*
X59659048Y-70332381D01*
X59754286Y-70380000D01*
X59801905Y-70427619D01*
X59849524Y-70522857D01*
X59897143Y-70713333D01*
X59897143Y-70951429D01*
X59849524Y-71141905D01*
X59801905Y-71237143D01*
X59754286Y-71284762D01*
X59659048Y-71332381D01*
X59563809Y-71332381D01*
X59468571Y-71284762D01*
X59420952Y-71237143D01*
X59373333Y-71141905D01*
X59325714Y-70951429D01*
X59325714Y-70713333D01*
X59373333Y-70522857D01*
X59420952Y-70427619D01*
X59468571Y-70380000D01*
X59563809Y-70332381D01*
X60325714Y-70665714D02*
X60325714Y-71332381D01*
X60325714Y-70760952D02*
X60373333Y-70713333D01*
X60468571Y-70665714D01*
X60611429Y-70665714D01*
X60706667Y-70713333D01*
X60754286Y-70808571D01*
X60754286Y-71332381D01*
X61563810Y-70808571D02*
X61230476Y-70808571D01*
X61230476Y-71332381D02*
X61230476Y-70332381D01*
X61706667Y-70332381D01*
X60663334Y-73117143D02*
X60615715Y-73164762D01*
X60472858Y-73212381D01*
X60377620Y-73212381D01*
X60234762Y-73164762D01*
X60139524Y-73069524D01*
X60091905Y-72974286D01*
X60044286Y-72783810D01*
X60044286Y-72640952D01*
X60091905Y-72450476D01*
X60139524Y-72355238D01*
X60234762Y-72260000D01*
X60377620Y-72212381D01*
X60472858Y-72212381D01*
X60615715Y-72260000D01*
X60663334Y-72307619D01*
X61520477Y-72545714D02*
X61520477Y-73212381D01*
X61282381Y-72164762D02*
X61044286Y-72879048D01*
X61663334Y-72879048D01*
X57792381Y-74692381D02*
X57220952Y-74692381D01*
X57506666Y-74692381D02*
X57506666Y-73692381D01*
X57411428Y-73835238D01*
X57316190Y-73930476D01*
X57220952Y-73978095D01*
X58411428Y-73692381D02*
X58506667Y-73692381D01*
X58601905Y-73740000D01*
X58649524Y-73787619D01*
X58697143Y-73882857D01*
X58744762Y-74073333D01*
X58744762Y-74311429D01*
X58697143Y-74501905D01*
X58649524Y-74597143D01*
X58601905Y-74644762D01*
X58506667Y-74692381D01*
X58411428Y-74692381D01*
X58316190Y-74644762D01*
X58268571Y-74597143D01*
X58220952Y-74501905D01*
X58173333Y-74311429D01*
X58173333Y-74073333D01*
X58220952Y-73882857D01*
X58268571Y-73787619D01*
X58316190Y-73740000D01*
X58411428Y-73692381D01*
X59363809Y-73692381D02*
X59459048Y-73692381D01*
X59554286Y-73740000D01*
X59601905Y-73787619D01*
X59649524Y-73882857D01*
X59697143Y-74073333D01*
X59697143Y-74311429D01*
X59649524Y-74501905D01*
X59601905Y-74597143D01*
X59554286Y-74644762D01*
X59459048Y-74692381D01*
X59363809Y-74692381D01*
X59268571Y-74644762D01*
X59220952Y-74597143D01*
X59173333Y-74501905D01*
X59125714Y-74311429D01*
X59125714Y-74073333D01*
X59173333Y-73882857D01*
X59220952Y-73787619D01*
X59268571Y-73740000D01*
X59363809Y-73692381D01*
X60125714Y-74025714D02*
X60125714Y-74692381D01*
X60125714Y-74120952D02*
X60173333Y-74073333D01*
X60268571Y-74025714D01*
X60411429Y-74025714D01*
X60506667Y-74073333D01*
X60554286Y-74168571D01*
X60554286Y-74692381D01*
X61363810Y-74168571D02*
X61030476Y-74168571D01*
X61030476Y-74692381D02*
X61030476Y-73692381D01*
X61506667Y-73692381D01*
X54903334Y-63527143D02*
X54855715Y-63574762D01*
X54712858Y-63622381D01*
X54617620Y-63622381D01*
X54474762Y-63574762D01*
X54379524Y-63479524D01*
X54331905Y-63384286D01*
X54284286Y-63193810D01*
X54284286Y-63050952D01*
X54331905Y-62860476D01*
X54379524Y-62765238D01*
X54474762Y-62670000D01*
X54617620Y-62622381D01*
X54712858Y-62622381D01*
X54855715Y-62670000D01*
X54903334Y-62717619D01*
X55236667Y-62622381D02*
X55855715Y-62622381D01*
X55522381Y-63003333D01*
X55665239Y-63003333D01*
X55760477Y-63050952D01*
X55808096Y-63098571D01*
X55855715Y-63193810D01*
X55855715Y-63431905D01*
X55808096Y-63527143D01*
X55760477Y-63574762D01*
X55665239Y-63622381D01*
X55379524Y-63622381D01*
X55284286Y-63574762D01*
X55236667Y-63527143D01*
X54274762Y-61552381D02*
X53703333Y-61552381D01*
X53989047Y-61552381D02*
X53989047Y-60552381D01*
X53893809Y-60695238D01*
X53798571Y-60790476D01*
X53703333Y-60838095D01*
X55131905Y-60885714D02*
X55131905Y-61552381D01*
X54703333Y-60885714D02*
X54703333Y-61409524D01*
X54750952Y-61504762D01*
X54846190Y-61552381D01*
X54989048Y-61552381D01*
X55084286Y-61504762D01*
X55131905Y-61457143D01*
X55941429Y-61028571D02*
X55608095Y-61028571D01*
X55608095Y-61552381D02*
X55608095Y-60552381D01*
X56084286Y-60552381D01*
X65963334Y-51037143D02*
X65915715Y-51084762D01*
X65772858Y-51132381D01*
X65677620Y-51132381D01*
X65534762Y-51084762D01*
X65439524Y-50989524D01*
X65391905Y-50894286D01*
X65344286Y-50703810D01*
X65344286Y-50560952D01*
X65391905Y-50370476D01*
X65439524Y-50275238D01*
X65534762Y-50180000D01*
X65677620Y-50132381D01*
X65772858Y-50132381D01*
X65915715Y-50180000D01*
X65963334Y-50227619D01*
X66820477Y-50132381D02*
X66630000Y-50132381D01*
X66534762Y-50180000D01*
X66487143Y-50227619D01*
X66391905Y-50370476D01*
X66344286Y-50560952D01*
X66344286Y-50941905D01*
X66391905Y-51037143D01*
X66439524Y-51084762D01*
X66534762Y-51132381D01*
X66725239Y-51132381D01*
X66820477Y-51084762D01*
X66868096Y-51037143D01*
X66915715Y-50941905D01*
X66915715Y-50703810D01*
X66868096Y-50608571D01*
X66820477Y-50560952D01*
X66725239Y-50513333D01*
X66534762Y-50513333D01*
X66439524Y-50560952D01*
X66391905Y-50608571D01*
X66344286Y-50703810D01*
X65284762Y-49652381D02*
X64713333Y-49652381D01*
X64999047Y-49652381D02*
X64999047Y-48652381D01*
X64903809Y-48795238D01*
X64808571Y-48890476D01*
X64713333Y-48938095D01*
X66141905Y-48985714D02*
X66141905Y-49652381D01*
X65713333Y-48985714D02*
X65713333Y-49509524D01*
X65760952Y-49604762D01*
X65856190Y-49652381D01*
X65999048Y-49652381D01*
X66094286Y-49604762D01*
X66141905Y-49557143D01*
X66951429Y-49128571D02*
X66618095Y-49128571D01*
X66618095Y-49652381D02*
X66618095Y-48652381D01*
X67094286Y-48652381D01*
X61133334Y-39302381D02*
X60800000Y-38826190D01*
X60561905Y-39302381D02*
X60561905Y-38302381D01*
X60942858Y-38302381D01*
X61038096Y-38350000D01*
X61085715Y-38397619D01*
X61133334Y-38492857D01*
X61133334Y-38635714D01*
X61085715Y-38730952D01*
X61038096Y-38778571D01*
X60942858Y-38826190D01*
X60561905Y-38826190D01*
X61514286Y-38397619D02*
X61561905Y-38350000D01*
X61657143Y-38302381D01*
X61895239Y-38302381D01*
X61990477Y-38350000D01*
X62038096Y-38397619D01*
X62085715Y-38492857D01*
X62085715Y-38588095D01*
X62038096Y-38730952D01*
X61466667Y-39302381D01*
X62085715Y-39302381D01*
X60538095Y-40547619D02*
X60585714Y-40500000D01*
X60680952Y-40452381D01*
X60919048Y-40452381D01*
X61014286Y-40500000D01*
X61061905Y-40547619D01*
X61109524Y-40642857D01*
X61109524Y-40738095D01*
X61061905Y-40880952D01*
X60490476Y-41452381D01*
X61109524Y-41452381D01*
X61490476Y-40547619D02*
X61538095Y-40500000D01*
X61633333Y-40452381D01*
X61871429Y-40452381D01*
X61966667Y-40500000D01*
X62014286Y-40547619D01*
X62061905Y-40642857D01*
X62061905Y-40738095D01*
X62014286Y-40880952D01*
X61442857Y-41452381D01*
X62061905Y-41452381D01*
X69083334Y-39252381D02*
X68750000Y-38776190D01*
X68511905Y-39252381D02*
X68511905Y-38252381D01*
X68892858Y-38252381D01*
X68988096Y-38300000D01*
X69035715Y-38347619D01*
X69083334Y-38442857D01*
X69083334Y-38585714D01*
X69035715Y-38680952D01*
X68988096Y-38728571D01*
X68892858Y-38776190D01*
X68511905Y-38776190D01*
X70035715Y-39252381D02*
X69464286Y-39252381D01*
X69750000Y-39252381D02*
X69750000Y-38252381D01*
X69654762Y-38395238D01*
X69559524Y-38490476D01*
X69464286Y-38538095D01*
X68488095Y-40497619D02*
X68535714Y-40450000D01*
X68630952Y-40402381D01*
X68869048Y-40402381D01*
X68964286Y-40450000D01*
X69011905Y-40497619D01*
X69059524Y-40592857D01*
X69059524Y-40688095D01*
X69011905Y-40830952D01*
X68440476Y-41402381D01*
X69059524Y-41402381D01*
X69440476Y-40497619D02*
X69488095Y-40450000D01*
X69583333Y-40402381D01*
X69821429Y-40402381D01*
X69916667Y-40450000D01*
X69964286Y-40497619D01*
X70011905Y-40592857D01*
X70011905Y-40688095D01*
X69964286Y-40830952D01*
X69392857Y-41402381D01*
X70011905Y-41402381D01*
D12*
X85252457Y-48696857D02*
X85470171Y-48769429D01*
X85833028Y-48769429D01*
X85978171Y-48696857D01*
X86050742Y-48624286D01*
X86123314Y-48479143D01*
X86123314Y-48334000D01*
X86050742Y-48188857D01*
X85978171Y-48116286D01*
X85833028Y-48043714D01*
X85542742Y-47971143D01*
X85397600Y-47898571D01*
X85325028Y-47826000D01*
X85252457Y-47680857D01*
X85252457Y-47535714D01*
X85325028Y-47390571D01*
X85397600Y-47318000D01*
X85542742Y-47245429D01*
X85905600Y-47245429D01*
X86123314Y-47318000D01*
X86703886Y-47390571D02*
X86776457Y-47318000D01*
X86921600Y-47245429D01*
X87284457Y-47245429D01*
X87429600Y-47318000D01*
X87502171Y-47390571D01*
X87574743Y-47535714D01*
X87574743Y-47680857D01*
X87502171Y-47898571D01*
X86631314Y-48769429D01*
X87574743Y-48769429D01*
X85252457Y-67696857D02*
X85470171Y-67769429D01*
X85833028Y-67769429D01*
X85978171Y-67696857D01*
X86050742Y-67624286D01*
X86123314Y-67479143D01*
X86123314Y-67334000D01*
X86050742Y-67188857D01*
X85978171Y-67116286D01*
X85833028Y-67043714D01*
X85542742Y-66971143D01*
X85397600Y-66898571D01*
X85325028Y-66826000D01*
X85252457Y-66680857D01*
X85252457Y-66535714D01*
X85325028Y-66390571D01*
X85397600Y-66318000D01*
X85542742Y-66245429D01*
X85905600Y-66245429D01*
X86123314Y-66318000D01*
X86631314Y-66245429D02*
X87574743Y-66245429D01*
X87066743Y-66826000D01*
X87284457Y-66826000D01*
X87429600Y-66898571D01*
X87502171Y-66971143D01*
X87574743Y-67116286D01*
X87574743Y-67479143D01*
X87502171Y-67624286D01*
X87429600Y-67696857D01*
X87284457Y-67769429D01*
X86849029Y-67769429D01*
X86703886Y-67696857D01*
X86631314Y-67624286D01*
X85252457Y-86696857D02*
X85470171Y-86769429D01*
X85833028Y-86769429D01*
X85978171Y-86696857D01*
X86050742Y-86624286D01*
X86123314Y-86479143D01*
X86123314Y-86334000D01*
X86050742Y-86188857D01*
X85978171Y-86116286D01*
X85833028Y-86043714D01*
X85542742Y-85971143D01*
X85397600Y-85898571D01*
X85325028Y-85826000D01*
X85252457Y-85680857D01*
X85252457Y-85535714D01*
X85325028Y-85390571D01*
X85397600Y-85318000D01*
X85542742Y-85245429D01*
X85905600Y-85245429D01*
X86123314Y-85318000D01*
X87429600Y-85753429D02*
X87429600Y-86769429D01*
X87066743Y-85172857D02*
X86703886Y-86261429D01*
X87647314Y-86261429D01*
X85252457Y-105696857D02*
X85470171Y-105769429D01*
X85833028Y-105769429D01*
X85978171Y-105696857D01*
X86050742Y-105624286D01*
X86123314Y-105479143D01*
X86123314Y-105334000D01*
X86050742Y-105188857D01*
X85978171Y-105116286D01*
X85833028Y-105043714D01*
X85542742Y-104971143D01*
X85397600Y-104898571D01*
X85325028Y-104826000D01*
X85252457Y-104680857D01*
X85252457Y-104535714D01*
X85325028Y-104390571D01*
X85397600Y-104318000D01*
X85542742Y-104245429D01*
X85905600Y-104245429D01*
X86123314Y-104318000D01*
X87502171Y-104245429D02*
X86776457Y-104245429D01*
X86703886Y-104971143D01*
X86776457Y-104898571D01*
X86921600Y-104826000D01*
X87284457Y-104826000D01*
X87429600Y-104898571D01*
X87502171Y-104971143D01*
X87574743Y-105116286D01*
X87574743Y-105479143D01*
X87502171Y-105624286D01*
X87429600Y-105696857D01*
X87284457Y-105769429D01*
X86921600Y-105769429D01*
X86776457Y-105696857D01*
X86703886Y-105624286D01*
X92377457Y-124696857D02*
X92595171Y-124769429D01*
X92958028Y-124769429D01*
X93103171Y-124696857D01*
X93175742Y-124624286D01*
X93248314Y-124479143D01*
X93248314Y-124334000D01*
X93175742Y-124188857D01*
X93103171Y-124116286D01*
X92958028Y-124043714D01*
X92667742Y-123971143D01*
X92522600Y-123898571D01*
X92450028Y-123826000D01*
X92377457Y-123680857D01*
X92377457Y-123535714D01*
X92450028Y-123390571D01*
X92522600Y-123318000D01*
X92667742Y-123245429D01*
X93030600Y-123245429D01*
X93248314Y-123318000D01*
X94554600Y-123245429D02*
X94264314Y-123245429D01*
X94119171Y-123318000D01*
X94046600Y-123390571D01*
X93901457Y-123608286D01*
X93828886Y-123898571D01*
X93828886Y-124479143D01*
X93901457Y-124624286D01*
X93974029Y-124696857D01*
X94119171Y-124769429D01*
X94409457Y-124769429D01*
X94554600Y-124696857D01*
X94627171Y-124624286D01*
X94699743Y-124479143D01*
X94699743Y-124116286D01*
X94627171Y-123971143D01*
X94554600Y-123898571D01*
X94409457Y-123826000D01*
X94119171Y-123826000D01*
X93974029Y-123898571D01*
X93901457Y-123971143D01*
X93828886Y-124116286D01*
X73377457Y-124696857D02*
X73595171Y-124769429D01*
X73958028Y-124769429D01*
X74103171Y-124696857D01*
X74175742Y-124624286D01*
X74248314Y-124479143D01*
X74248314Y-124334000D01*
X74175742Y-124188857D01*
X74103171Y-124116286D01*
X73958028Y-124043714D01*
X73667742Y-123971143D01*
X73522600Y-123898571D01*
X73450028Y-123826000D01*
X73377457Y-123680857D01*
X73377457Y-123535714D01*
X73450028Y-123390571D01*
X73522600Y-123318000D01*
X73667742Y-123245429D01*
X74030600Y-123245429D01*
X74248314Y-123318000D01*
X74756314Y-123245429D02*
X75772314Y-123245429D01*
X75119171Y-124769429D01*
X111377457Y-48696857D02*
X111595171Y-48769429D01*
X111958028Y-48769429D01*
X112103171Y-48696857D01*
X112175742Y-48624286D01*
X112248314Y-48479143D01*
X112248314Y-48334000D01*
X112175742Y-48188857D01*
X112103171Y-48116286D01*
X111958028Y-48043714D01*
X111667742Y-47971143D01*
X111522600Y-47898571D01*
X111450028Y-47826000D01*
X111377457Y-47680857D01*
X111377457Y-47535714D01*
X111450028Y-47390571D01*
X111522600Y-47318000D01*
X111667742Y-47245429D01*
X112030600Y-47245429D01*
X112248314Y-47318000D01*
X113119171Y-47898571D02*
X112974029Y-47826000D01*
X112901457Y-47753429D01*
X112828886Y-47608286D01*
X112828886Y-47535714D01*
X112901457Y-47390571D01*
X112974029Y-47318000D01*
X113119171Y-47245429D01*
X113409457Y-47245429D01*
X113554600Y-47318000D01*
X113627171Y-47390571D01*
X113699743Y-47535714D01*
X113699743Y-47608286D01*
X113627171Y-47753429D01*
X113554600Y-47826000D01*
X113409457Y-47898571D01*
X113119171Y-47898571D01*
X112974029Y-47971143D01*
X112901457Y-48043714D01*
X112828886Y-48188857D01*
X112828886Y-48479143D01*
X112901457Y-48624286D01*
X112974029Y-48696857D01*
X113119171Y-48769429D01*
X113409457Y-48769429D01*
X113554600Y-48696857D01*
X113627171Y-48624286D01*
X113699743Y-48479143D01*
X113699743Y-48188857D01*
X113627171Y-48043714D01*
X113554600Y-47971143D01*
X113409457Y-47898571D01*
X111377457Y-67696857D02*
X111595171Y-67769429D01*
X111958028Y-67769429D01*
X112103171Y-67696857D01*
X112175742Y-67624286D01*
X112248314Y-67479143D01*
X112248314Y-67334000D01*
X112175742Y-67188857D01*
X112103171Y-67116286D01*
X111958028Y-67043714D01*
X111667742Y-66971143D01*
X111522600Y-66898571D01*
X111450028Y-66826000D01*
X111377457Y-66680857D01*
X111377457Y-66535714D01*
X111450028Y-66390571D01*
X111522600Y-66318000D01*
X111667742Y-66245429D01*
X112030600Y-66245429D01*
X112248314Y-66318000D01*
X112974029Y-67769429D02*
X113264314Y-67769429D01*
X113409457Y-67696857D01*
X113482029Y-67624286D01*
X113627171Y-67406571D01*
X113699743Y-67116286D01*
X113699743Y-66535714D01*
X113627171Y-66390571D01*
X113554600Y-66318000D01*
X113409457Y-66245429D01*
X113119171Y-66245429D01*
X112974029Y-66318000D01*
X112901457Y-66390571D01*
X112828886Y-66535714D01*
X112828886Y-66898571D01*
X112901457Y-67043714D01*
X112974029Y-67116286D01*
X113119171Y-67188857D01*
X113409457Y-67188857D01*
X113554600Y-67116286D01*
X113627171Y-67043714D01*
X113699743Y-66898571D01*
X110651743Y-86696857D02*
X110869457Y-86769429D01*
X111232314Y-86769429D01*
X111377457Y-86696857D01*
X111450028Y-86624286D01*
X111522600Y-86479143D01*
X111522600Y-86334000D01*
X111450028Y-86188857D01*
X111377457Y-86116286D01*
X111232314Y-86043714D01*
X110942028Y-85971143D01*
X110796886Y-85898571D01*
X110724314Y-85826000D01*
X110651743Y-85680857D01*
X110651743Y-85535714D01*
X110724314Y-85390571D01*
X110796886Y-85318000D01*
X110942028Y-85245429D01*
X111304886Y-85245429D01*
X111522600Y-85318000D01*
X112974029Y-86769429D02*
X112103172Y-86769429D01*
X112538600Y-86769429D02*
X112538600Y-85245429D01*
X112393457Y-85463143D01*
X112248315Y-85608286D01*
X112103172Y-85680857D01*
X113917458Y-85245429D02*
X114062601Y-85245429D01*
X114207744Y-85318000D01*
X114280315Y-85390571D01*
X114352886Y-85535714D01*
X114425458Y-85826000D01*
X114425458Y-86188857D01*
X114352886Y-86479143D01*
X114280315Y-86624286D01*
X114207744Y-86696857D01*
X114062601Y-86769429D01*
X113917458Y-86769429D01*
X113772315Y-86696857D01*
X113699744Y-86624286D01*
X113627172Y-86479143D01*
X113554601Y-86188857D01*
X113554601Y-85826000D01*
X113627172Y-85535714D01*
X113699744Y-85390571D01*
X113772315Y-85318000D01*
X113917458Y-85245429D01*
X110651743Y-105696857D02*
X110869457Y-105769429D01*
X111232314Y-105769429D01*
X111377457Y-105696857D01*
X111450028Y-105624286D01*
X111522600Y-105479143D01*
X111522600Y-105334000D01*
X111450028Y-105188857D01*
X111377457Y-105116286D01*
X111232314Y-105043714D01*
X110942028Y-104971143D01*
X110796886Y-104898571D01*
X110724314Y-104826000D01*
X110651743Y-104680857D01*
X110651743Y-104535714D01*
X110724314Y-104390571D01*
X110796886Y-104318000D01*
X110942028Y-104245429D01*
X111304886Y-104245429D01*
X111522600Y-104318000D01*
X112974029Y-105769429D02*
X112103172Y-105769429D01*
X112538600Y-105769429D02*
X112538600Y-104245429D01*
X112393457Y-104463143D01*
X112248315Y-104608286D01*
X112103172Y-104680857D01*
X114425458Y-105769429D02*
X113554601Y-105769429D01*
X113990029Y-105769429D02*
X113990029Y-104245429D01*
X113844886Y-104463143D01*
X113699744Y-104608286D01*
X113554601Y-104680857D01*
X110651743Y-124696857D02*
X110869457Y-124769429D01*
X111232314Y-124769429D01*
X111377457Y-124696857D01*
X111450028Y-124624286D01*
X111522600Y-124479143D01*
X111522600Y-124334000D01*
X111450028Y-124188857D01*
X111377457Y-124116286D01*
X111232314Y-124043714D01*
X110942028Y-123971143D01*
X110796886Y-123898571D01*
X110724314Y-123826000D01*
X110651743Y-123680857D01*
X110651743Y-123535714D01*
X110724314Y-123390571D01*
X110796886Y-123318000D01*
X110942028Y-123245429D01*
X111304886Y-123245429D01*
X111522600Y-123318000D01*
X112974029Y-124769429D02*
X112103172Y-124769429D01*
X112538600Y-124769429D02*
X112538600Y-123245429D01*
X112393457Y-123463143D01*
X112248315Y-123608286D01*
X112103172Y-123680857D01*
X113554601Y-123390571D02*
X113627172Y-123318000D01*
X113772315Y-123245429D01*
X114135172Y-123245429D01*
X114280315Y-123318000D01*
X114352886Y-123390571D01*
X114425458Y-123535714D01*
X114425458Y-123680857D01*
X114352886Y-123898571D01*
X113482029Y-124769429D01*
X114425458Y-124769429D01*
X129651743Y-48696857D02*
X129869457Y-48769429D01*
X130232314Y-48769429D01*
X130377457Y-48696857D01*
X130450028Y-48624286D01*
X130522600Y-48479143D01*
X130522600Y-48334000D01*
X130450028Y-48188857D01*
X130377457Y-48116286D01*
X130232314Y-48043714D01*
X129942028Y-47971143D01*
X129796886Y-47898571D01*
X129724314Y-47826000D01*
X129651743Y-47680857D01*
X129651743Y-47535714D01*
X129724314Y-47390571D01*
X129796886Y-47318000D01*
X129942028Y-47245429D01*
X130304886Y-47245429D01*
X130522600Y-47318000D01*
X131974029Y-48769429D02*
X131103172Y-48769429D01*
X131538600Y-48769429D02*
X131538600Y-47245429D01*
X131393457Y-47463143D01*
X131248315Y-47608286D01*
X131103172Y-47680857D01*
X132482029Y-47245429D02*
X133425458Y-47245429D01*
X132917458Y-47826000D01*
X133135172Y-47826000D01*
X133280315Y-47898571D01*
X133352886Y-47971143D01*
X133425458Y-48116286D01*
X133425458Y-48479143D01*
X133352886Y-48624286D01*
X133280315Y-48696857D01*
X133135172Y-48769429D01*
X132699744Y-48769429D01*
X132554601Y-48696857D01*
X132482029Y-48624286D01*
X129651743Y-67696857D02*
X129869457Y-67769429D01*
X130232314Y-67769429D01*
X130377457Y-67696857D01*
X130450028Y-67624286D01*
X130522600Y-67479143D01*
X130522600Y-67334000D01*
X130450028Y-67188857D01*
X130377457Y-67116286D01*
X130232314Y-67043714D01*
X129942028Y-66971143D01*
X129796886Y-66898571D01*
X129724314Y-66826000D01*
X129651743Y-66680857D01*
X129651743Y-66535714D01*
X129724314Y-66390571D01*
X129796886Y-66318000D01*
X129942028Y-66245429D01*
X130304886Y-66245429D01*
X130522600Y-66318000D01*
X131974029Y-67769429D02*
X131103172Y-67769429D01*
X131538600Y-67769429D02*
X131538600Y-66245429D01*
X131393457Y-66463143D01*
X131248315Y-66608286D01*
X131103172Y-66680857D01*
X133280315Y-66753429D02*
X133280315Y-67769429D01*
X132917458Y-66172857D02*
X132554601Y-67261429D01*
X133498029Y-67261429D01*
X129651743Y-86696857D02*
X129869457Y-86769429D01*
X130232314Y-86769429D01*
X130377457Y-86696857D01*
X130450028Y-86624286D01*
X130522600Y-86479143D01*
X130522600Y-86334000D01*
X130450028Y-86188857D01*
X130377457Y-86116286D01*
X130232314Y-86043714D01*
X129942028Y-85971143D01*
X129796886Y-85898571D01*
X129724314Y-85826000D01*
X129651743Y-85680857D01*
X129651743Y-85535714D01*
X129724314Y-85390571D01*
X129796886Y-85318000D01*
X129942028Y-85245429D01*
X130304886Y-85245429D01*
X130522600Y-85318000D01*
X131974029Y-86769429D02*
X131103172Y-86769429D01*
X131538600Y-86769429D02*
X131538600Y-85245429D01*
X131393457Y-85463143D01*
X131248315Y-85608286D01*
X131103172Y-85680857D01*
X133352886Y-85245429D02*
X132627172Y-85245429D01*
X132554601Y-85971143D01*
X132627172Y-85898571D01*
X132772315Y-85826000D01*
X133135172Y-85826000D01*
X133280315Y-85898571D01*
X133352886Y-85971143D01*
X133425458Y-86116286D01*
X133425458Y-86479143D01*
X133352886Y-86624286D01*
X133280315Y-86696857D01*
X133135172Y-86769429D01*
X132772315Y-86769429D01*
X132627172Y-86696857D01*
X132554601Y-86624286D01*
X129651743Y-105696857D02*
X129869457Y-105769429D01*
X130232314Y-105769429D01*
X130377457Y-105696857D01*
X130450028Y-105624286D01*
X130522600Y-105479143D01*
X130522600Y-105334000D01*
X130450028Y-105188857D01*
X130377457Y-105116286D01*
X130232314Y-105043714D01*
X129942028Y-104971143D01*
X129796886Y-104898571D01*
X129724314Y-104826000D01*
X129651743Y-104680857D01*
X129651743Y-104535714D01*
X129724314Y-104390571D01*
X129796886Y-104318000D01*
X129942028Y-104245429D01*
X130304886Y-104245429D01*
X130522600Y-104318000D01*
X131974029Y-105769429D02*
X131103172Y-105769429D01*
X131538600Y-105769429D02*
X131538600Y-104245429D01*
X131393457Y-104463143D01*
X131248315Y-104608286D01*
X131103172Y-104680857D01*
X133280315Y-104245429D02*
X132990029Y-104245429D01*
X132844886Y-104318000D01*
X132772315Y-104390571D01*
X132627172Y-104608286D01*
X132554601Y-104898571D01*
X132554601Y-105479143D01*
X132627172Y-105624286D01*
X132699744Y-105696857D01*
X132844886Y-105769429D01*
X133135172Y-105769429D01*
X133280315Y-105696857D01*
X133352886Y-105624286D01*
X133425458Y-105479143D01*
X133425458Y-105116286D01*
X133352886Y-104971143D01*
X133280315Y-104898571D01*
X133135172Y-104826000D01*
X132844886Y-104826000D01*
X132699744Y-104898571D01*
X132627172Y-104971143D01*
X132554601Y-105116286D01*
X129651743Y-124696857D02*
X129869457Y-124769429D01*
X130232314Y-124769429D01*
X130377457Y-124696857D01*
X130450028Y-124624286D01*
X130522600Y-124479143D01*
X130522600Y-124334000D01*
X130450028Y-124188857D01*
X130377457Y-124116286D01*
X130232314Y-124043714D01*
X129942028Y-123971143D01*
X129796886Y-123898571D01*
X129724314Y-123826000D01*
X129651743Y-123680857D01*
X129651743Y-123535714D01*
X129724314Y-123390571D01*
X129796886Y-123318000D01*
X129942028Y-123245429D01*
X130304886Y-123245429D01*
X130522600Y-123318000D01*
X131974029Y-124769429D02*
X131103172Y-124769429D01*
X131538600Y-124769429D02*
X131538600Y-123245429D01*
X131393457Y-123463143D01*
X131248315Y-123608286D01*
X131103172Y-123680857D01*
X132482029Y-123245429D02*
X133498029Y-123245429D01*
X132844886Y-124769429D01*
X148651743Y-48696857D02*
X148869457Y-48769429D01*
X149232314Y-48769429D01*
X149377457Y-48696857D01*
X149450028Y-48624286D01*
X149522600Y-48479143D01*
X149522600Y-48334000D01*
X149450028Y-48188857D01*
X149377457Y-48116286D01*
X149232314Y-48043714D01*
X148942028Y-47971143D01*
X148796886Y-47898571D01*
X148724314Y-47826000D01*
X148651743Y-47680857D01*
X148651743Y-47535714D01*
X148724314Y-47390571D01*
X148796886Y-47318000D01*
X148942028Y-47245429D01*
X149304886Y-47245429D01*
X149522600Y-47318000D01*
X150974029Y-48769429D02*
X150103172Y-48769429D01*
X150538600Y-48769429D02*
X150538600Y-47245429D01*
X150393457Y-47463143D01*
X150248315Y-47608286D01*
X150103172Y-47680857D01*
X151844886Y-47898571D02*
X151699744Y-47826000D01*
X151627172Y-47753429D01*
X151554601Y-47608286D01*
X151554601Y-47535714D01*
X151627172Y-47390571D01*
X151699744Y-47318000D01*
X151844886Y-47245429D01*
X152135172Y-47245429D01*
X152280315Y-47318000D01*
X152352886Y-47390571D01*
X152425458Y-47535714D01*
X152425458Y-47608286D01*
X152352886Y-47753429D01*
X152280315Y-47826000D01*
X152135172Y-47898571D01*
X151844886Y-47898571D01*
X151699744Y-47971143D01*
X151627172Y-48043714D01*
X151554601Y-48188857D01*
X151554601Y-48479143D01*
X151627172Y-48624286D01*
X151699744Y-48696857D01*
X151844886Y-48769429D01*
X152135172Y-48769429D01*
X152280315Y-48696857D01*
X152352886Y-48624286D01*
X152425458Y-48479143D01*
X152425458Y-48188857D01*
X152352886Y-48043714D01*
X152280315Y-47971143D01*
X152135172Y-47898571D01*
X148651743Y-67696857D02*
X148869457Y-67769429D01*
X149232314Y-67769429D01*
X149377457Y-67696857D01*
X149450028Y-67624286D01*
X149522600Y-67479143D01*
X149522600Y-67334000D01*
X149450028Y-67188857D01*
X149377457Y-67116286D01*
X149232314Y-67043714D01*
X148942028Y-66971143D01*
X148796886Y-66898571D01*
X148724314Y-66826000D01*
X148651743Y-66680857D01*
X148651743Y-66535714D01*
X148724314Y-66390571D01*
X148796886Y-66318000D01*
X148942028Y-66245429D01*
X149304886Y-66245429D01*
X149522600Y-66318000D01*
X150974029Y-67769429D02*
X150103172Y-67769429D01*
X150538600Y-67769429D02*
X150538600Y-66245429D01*
X150393457Y-66463143D01*
X150248315Y-66608286D01*
X150103172Y-66680857D01*
X151699744Y-67769429D02*
X151990029Y-67769429D01*
X152135172Y-67696857D01*
X152207744Y-67624286D01*
X152352886Y-67406571D01*
X152425458Y-67116286D01*
X152425458Y-66535714D01*
X152352886Y-66390571D01*
X152280315Y-66318000D01*
X152135172Y-66245429D01*
X151844886Y-66245429D01*
X151699744Y-66318000D01*
X151627172Y-66390571D01*
X151554601Y-66535714D01*
X151554601Y-66898571D01*
X151627172Y-67043714D01*
X151699744Y-67116286D01*
X151844886Y-67188857D01*
X152135172Y-67188857D01*
X152280315Y-67116286D01*
X152352886Y-67043714D01*
X152425458Y-66898571D01*
X148651743Y-86696857D02*
X148869457Y-86769429D01*
X149232314Y-86769429D01*
X149377457Y-86696857D01*
X149450028Y-86624286D01*
X149522600Y-86479143D01*
X149522600Y-86334000D01*
X149450028Y-86188857D01*
X149377457Y-86116286D01*
X149232314Y-86043714D01*
X148942028Y-85971143D01*
X148796886Y-85898571D01*
X148724314Y-85826000D01*
X148651743Y-85680857D01*
X148651743Y-85535714D01*
X148724314Y-85390571D01*
X148796886Y-85318000D01*
X148942028Y-85245429D01*
X149304886Y-85245429D01*
X149522600Y-85318000D01*
X150103172Y-85390571D02*
X150175743Y-85318000D01*
X150320886Y-85245429D01*
X150683743Y-85245429D01*
X150828886Y-85318000D01*
X150901457Y-85390571D01*
X150974029Y-85535714D01*
X150974029Y-85680857D01*
X150901457Y-85898571D01*
X150030600Y-86769429D01*
X150974029Y-86769429D01*
X151917458Y-85245429D02*
X152062601Y-85245429D01*
X152207744Y-85318000D01*
X152280315Y-85390571D01*
X152352886Y-85535714D01*
X152425458Y-85826000D01*
X152425458Y-86188857D01*
X152352886Y-86479143D01*
X152280315Y-86624286D01*
X152207744Y-86696857D01*
X152062601Y-86769429D01*
X151917458Y-86769429D01*
X151772315Y-86696857D01*
X151699744Y-86624286D01*
X151627172Y-86479143D01*
X151554601Y-86188857D01*
X151554601Y-85826000D01*
X151627172Y-85535714D01*
X151699744Y-85390571D01*
X151772315Y-85318000D01*
X151917458Y-85245429D01*
X148651743Y-105696857D02*
X148869457Y-105769429D01*
X149232314Y-105769429D01*
X149377457Y-105696857D01*
X149450028Y-105624286D01*
X149522600Y-105479143D01*
X149522600Y-105334000D01*
X149450028Y-105188857D01*
X149377457Y-105116286D01*
X149232314Y-105043714D01*
X148942028Y-104971143D01*
X148796886Y-104898571D01*
X148724314Y-104826000D01*
X148651743Y-104680857D01*
X148651743Y-104535714D01*
X148724314Y-104390571D01*
X148796886Y-104318000D01*
X148942028Y-104245429D01*
X149304886Y-104245429D01*
X149522600Y-104318000D01*
X150103172Y-104390571D02*
X150175743Y-104318000D01*
X150320886Y-104245429D01*
X150683743Y-104245429D01*
X150828886Y-104318000D01*
X150901457Y-104390571D01*
X150974029Y-104535714D01*
X150974029Y-104680857D01*
X150901457Y-104898571D01*
X150030600Y-105769429D01*
X150974029Y-105769429D01*
X152425458Y-105769429D02*
X151554601Y-105769429D01*
X151990029Y-105769429D02*
X151990029Y-104245429D01*
X151844886Y-104463143D01*
X151699744Y-104608286D01*
X151554601Y-104680857D01*
X167651743Y-48696857D02*
X167869457Y-48769429D01*
X168232314Y-48769429D01*
X168377457Y-48696857D01*
X168450028Y-48624286D01*
X168522600Y-48479143D01*
X168522600Y-48334000D01*
X168450028Y-48188857D01*
X168377457Y-48116286D01*
X168232314Y-48043714D01*
X167942028Y-47971143D01*
X167796886Y-47898571D01*
X167724314Y-47826000D01*
X167651743Y-47680857D01*
X167651743Y-47535714D01*
X167724314Y-47390571D01*
X167796886Y-47318000D01*
X167942028Y-47245429D01*
X168304886Y-47245429D01*
X168522600Y-47318000D01*
X169103172Y-47390571D02*
X169175743Y-47318000D01*
X169320886Y-47245429D01*
X169683743Y-47245429D01*
X169828886Y-47318000D01*
X169901457Y-47390571D01*
X169974029Y-47535714D01*
X169974029Y-47680857D01*
X169901457Y-47898571D01*
X169030600Y-48769429D01*
X169974029Y-48769429D01*
X170554601Y-47390571D02*
X170627172Y-47318000D01*
X170772315Y-47245429D01*
X171135172Y-47245429D01*
X171280315Y-47318000D01*
X171352886Y-47390571D01*
X171425458Y-47535714D01*
X171425458Y-47680857D01*
X171352886Y-47898571D01*
X170482029Y-48769429D01*
X171425458Y-48769429D01*
X167651743Y-67696857D02*
X167869457Y-67769429D01*
X168232314Y-67769429D01*
X168377457Y-67696857D01*
X168450028Y-67624286D01*
X168522600Y-67479143D01*
X168522600Y-67334000D01*
X168450028Y-67188857D01*
X168377457Y-67116286D01*
X168232314Y-67043714D01*
X167942028Y-66971143D01*
X167796886Y-66898571D01*
X167724314Y-66826000D01*
X167651743Y-66680857D01*
X167651743Y-66535714D01*
X167724314Y-66390571D01*
X167796886Y-66318000D01*
X167942028Y-66245429D01*
X168304886Y-66245429D01*
X168522600Y-66318000D01*
X169103172Y-66390571D02*
X169175743Y-66318000D01*
X169320886Y-66245429D01*
X169683743Y-66245429D01*
X169828886Y-66318000D01*
X169901457Y-66390571D01*
X169974029Y-66535714D01*
X169974029Y-66680857D01*
X169901457Y-66898571D01*
X169030600Y-67769429D01*
X169974029Y-67769429D01*
X170482029Y-66245429D02*
X171425458Y-66245429D01*
X170917458Y-66826000D01*
X171135172Y-66826000D01*
X171280315Y-66898571D01*
X171352886Y-66971143D01*
X171425458Y-67116286D01*
X171425458Y-67479143D01*
X171352886Y-67624286D01*
X171280315Y-67696857D01*
X171135172Y-67769429D01*
X170699744Y-67769429D01*
X170554601Y-67696857D01*
X170482029Y-67624286D01*
X167651743Y-86696857D02*
X167869457Y-86769429D01*
X168232314Y-86769429D01*
X168377457Y-86696857D01*
X168450028Y-86624286D01*
X168522600Y-86479143D01*
X168522600Y-86334000D01*
X168450028Y-86188857D01*
X168377457Y-86116286D01*
X168232314Y-86043714D01*
X167942028Y-85971143D01*
X167796886Y-85898571D01*
X167724314Y-85826000D01*
X167651743Y-85680857D01*
X167651743Y-85535714D01*
X167724314Y-85390571D01*
X167796886Y-85318000D01*
X167942028Y-85245429D01*
X168304886Y-85245429D01*
X168522600Y-85318000D01*
X169103172Y-85390571D02*
X169175743Y-85318000D01*
X169320886Y-85245429D01*
X169683743Y-85245429D01*
X169828886Y-85318000D01*
X169901457Y-85390571D01*
X169974029Y-85535714D01*
X169974029Y-85680857D01*
X169901457Y-85898571D01*
X169030600Y-86769429D01*
X169974029Y-86769429D01*
X171280315Y-85753429D02*
X171280315Y-86769429D01*
X170917458Y-85172857D02*
X170554601Y-86261429D01*
X171498029Y-86261429D01*
X167651743Y-105696857D02*
X167869457Y-105769429D01*
X168232314Y-105769429D01*
X168377457Y-105696857D01*
X168450028Y-105624286D01*
X168522600Y-105479143D01*
X168522600Y-105334000D01*
X168450028Y-105188857D01*
X168377457Y-105116286D01*
X168232314Y-105043714D01*
X167942028Y-104971143D01*
X167796886Y-104898571D01*
X167724314Y-104826000D01*
X167651743Y-104680857D01*
X167651743Y-104535714D01*
X167724314Y-104390571D01*
X167796886Y-104318000D01*
X167942028Y-104245429D01*
X168304886Y-104245429D01*
X168522600Y-104318000D01*
X169103172Y-104390571D02*
X169175743Y-104318000D01*
X169320886Y-104245429D01*
X169683743Y-104245429D01*
X169828886Y-104318000D01*
X169901457Y-104390571D01*
X169974029Y-104535714D01*
X169974029Y-104680857D01*
X169901457Y-104898571D01*
X169030600Y-105769429D01*
X169974029Y-105769429D01*
X171352886Y-104245429D02*
X170627172Y-104245429D01*
X170554601Y-104971143D01*
X170627172Y-104898571D01*
X170772315Y-104826000D01*
X171135172Y-104826000D01*
X171280315Y-104898571D01*
X171352886Y-104971143D01*
X171425458Y-105116286D01*
X171425458Y-105479143D01*
X171352886Y-105624286D01*
X171280315Y-105696857D01*
X171135172Y-105769429D01*
X170772315Y-105769429D01*
X170627172Y-105696857D01*
X170554601Y-105624286D01*
X153401743Y-124696857D02*
X153619457Y-124769429D01*
X153982314Y-124769429D01*
X154127457Y-124696857D01*
X154200028Y-124624286D01*
X154272600Y-124479143D01*
X154272600Y-124334000D01*
X154200028Y-124188857D01*
X154127457Y-124116286D01*
X153982314Y-124043714D01*
X153692028Y-123971143D01*
X153546886Y-123898571D01*
X153474314Y-123826000D01*
X153401743Y-123680857D01*
X153401743Y-123535714D01*
X153474314Y-123390571D01*
X153546886Y-123318000D01*
X153692028Y-123245429D01*
X154054886Y-123245429D01*
X154272600Y-123318000D01*
X154853172Y-123390571D02*
X154925743Y-123318000D01*
X155070886Y-123245429D01*
X155433743Y-123245429D01*
X155578886Y-123318000D01*
X155651457Y-123390571D01*
X155724029Y-123535714D01*
X155724029Y-123680857D01*
X155651457Y-123898571D01*
X154780600Y-124769429D01*
X155724029Y-124769429D01*
X157030315Y-123245429D02*
X156740029Y-123245429D01*
X156594886Y-123318000D01*
X156522315Y-123390571D01*
X156377172Y-123608286D01*
X156304601Y-123898571D01*
X156304601Y-124479143D01*
X156377172Y-124624286D01*
X156449744Y-124696857D01*
X156594886Y-124769429D01*
X156885172Y-124769429D01*
X157030315Y-124696857D01*
X157102886Y-124624286D01*
X157175458Y-124479143D01*
X157175458Y-124116286D01*
X157102886Y-123971143D01*
X157030315Y-123898571D01*
X156885172Y-123826000D01*
X156594886Y-123826000D01*
X156449744Y-123898571D01*
X156377172Y-123971143D01*
X156304601Y-124116286D01*
X186651743Y-48696857D02*
X186869457Y-48769429D01*
X187232314Y-48769429D01*
X187377457Y-48696857D01*
X187450028Y-48624286D01*
X187522600Y-48479143D01*
X187522600Y-48334000D01*
X187450028Y-48188857D01*
X187377457Y-48116286D01*
X187232314Y-48043714D01*
X186942028Y-47971143D01*
X186796886Y-47898571D01*
X186724314Y-47826000D01*
X186651743Y-47680857D01*
X186651743Y-47535714D01*
X186724314Y-47390571D01*
X186796886Y-47318000D01*
X186942028Y-47245429D01*
X187304886Y-47245429D01*
X187522600Y-47318000D01*
X188103172Y-47390571D02*
X188175743Y-47318000D01*
X188320886Y-47245429D01*
X188683743Y-47245429D01*
X188828886Y-47318000D01*
X188901457Y-47390571D01*
X188974029Y-47535714D01*
X188974029Y-47680857D01*
X188901457Y-47898571D01*
X188030600Y-48769429D01*
X188974029Y-48769429D01*
X189482029Y-47245429D02*
X190498029Y-47245429D01*
X189844886Y-48769429D01*
X186651743Y-67696857D02*
X186869457Y-67769429D01*
X187232314Y-67769429D01*
X187377457Y-67696857D01*
X187450028Y-67624286D01*
X187522600Y-67479143D01*
X187522600Y-67334000D01*
X187450028Y-67188857D01*
X187377457Y-67116286D01*
X187232314Y-67043714D01*
X186942028Y-66971143D01*
X186796886Y-66898571D01*
X186724314Y-66826000D01*
X186651743Y-66680857D01*
X186651743Y-66535714D01*
X186724314Y-66390571D01*
X186796886Y-66318000D01*
X186942028Y-66245429D01*
X187304886Y-66245429D01*
X187522600Y-66318000D01*
X188103172Y-66390571D02*
X188175743Y-66318000D01*
X188320886Y-66245429D01*
X188683743Y-66245429D01*
X188828886Y-66318000D01*
X188901457Y-66390571D01*
X188974029Y-66535714D01*
X188974029Y-66680857D01*
X188901457Y-66898571D01*
X188030600Y-67769429D01*
X188974029Y-67769429D01*
X189844886Y-66898571D02*
X189699744Y-66826000D01*
X189627172Y-66753429D01*
X189554601Y-66608286D01*
X189554601Y-66535714D01*
X189627172Y-66390571D01*
X189699744Y-66318000D01*
X189844886Y-66245429D01*
X190135172Y-66245429D01*
X190280315Y-66318000D01*
X190352886Y-66390571D01*
X190425458Y-66535714D01*
X190425458Y-66608286D01*
X190352886Y-66753429D01*
X190280315Y-66826000D01*
X190135172Y-66898571D01*
X189844886Y-66898571D01*
X189699744Y-66971143D01*
X189627172Y-67043714D01*
X189554601Y-67188857D01*
X189554601Y-67479143D01*
X189627172Y-67624286D01*
X189699744Y-67696857D01*
X189844886Y-67769429D01*
X190135172Y-67769429D01*
X190280315Y-67696857D01*
X190352886Y-67624286D01*
X190425458Y-67479143D01*
X190425458Y-67188857D01*
X190352886Y-67043714D01*
X190280315Y-66971143D01*
X190135172Y-66898571D01*
X186651743Y-86696857D02*
X186869457Y-86769429D01*
X187232314Y-86769429D01*
X187377457Y-86696857D01*
X187450028Y-86624286D01*
X187522600Y-86479143D01*
X187522600Y-86334000D01*
X187450028Y-86188857D01*
X187377457Y-86116286D01*
X187232314Y-86043714D01*
X186942028Y-85971143D01*
X186796886Y-85898571D01*
X186724314Y-85826000D01*
X186651743Y-85680857D01*
X186651743Y-85535714D01*
X186724314Y-85390571D01*
X186796886Y-85318000D01*
X186942028Y-85245429D01*
X187304886Y-85245429D01*
X187522600Y-85318000D01*
X188103172Y-85390571D02*
X188175743Y-85318000D01*
X188320886Y-85245429D01*
X188683743Y-85245429D01*
X188828886Y-85318000D01*
X188901457Y-85390571D01*
X188974029Y-85535714D01*
X188974029Y-85680857D01*
X188901457Y-85898571D01*
X188030600Y-86769429D01*
X188974029Y-86769429D01*
X189699744Y-86769429D02*
X189990029Y-86769429D01*
X190135172Y-86696857D01*
X190207744Y-86624286D01*
X190352886Y-86406571D01*
X190425458Y-86116286D01*
X190425458Y-85535714D01*
X190352886Y-85390571D01*
X190280315Y-85318000D01*
X190135172Y-85245429D01*
X189844886Y-85245429D01*
X189699744Y-85318000D01*
X189627172Y-85390571D01*
X189554601Y-85535714D01*
X189554601Y-85898571D01*
X189627172Y-86043714D01*
X189699744Y-86116286D01*
X189844886Y-86188857D01*
X190135172Y-86188857D01*
X190280315Y-86116286D01*
X190352886Y-86043714D01*
X190425458Y-85898571D01*
X186651743Y-105696857D02*
X186869457Y-105769429D01*
X187232314Y-105769429D01*
X187377457Y-105696857D01*
X187450028Y-105624286D01*
X187522600Y-105479143D01*
X187522600Y-105334000D01*
X187450028Y-105188857D01*
X187377457Y-105116286D01*
X187232314Y-105043714D01*
X186942028Y-104971143D01*
X186796886Y-104898571D01*
X186724314Y-104826000D01*
X186651743Y-104680857D01*
X186651743Y-104535714D01*
X186724314Y-104390571D01*
X186796886Y-104318000D01*
X186942028Y-104245429D01*
X187304886Y-104245429D01*
X187522600Y-104318000D01*
X188030600Y-104245429D02*
X188974029Y-104245429D01*
X188466029Y-104826000D01*
X188683743Y-104826000D01*
X188828886Y-104898571D01*
X188901457Y-104971143D01*
X188974029Y-105116286D01*
X188974029Y-105479143D01*
X188901457Y-105624286D01*
X188828886Y-105696857D01*
X188683743Y-105769429D01*
X188248315Y-105769429D01*
X188103172Y-105696857D01*
X188030600Y-105624286D01*
X189917458Y-104245429D02*
X190062601Y-104245429D01*
X190207744Y-104318000D01*
X190280315Y-104390571D01*
X190352886Y-104535714D01*
X190425458Y-104826000D01*
X190425458Y-105188857D01*
X190352886Y-105479143D01*
X190280315Y-105624286D01*
X190207744Y-105696857D01*
X190062601Y-105769429D01*
X189917458Y-105769429D01*
X189772315Y-105696857D01*
X189699744Y-105624286D01*
X189627172Y-105479143D01*
X189554601Y-105188857D01*
X189554601Y-104826000D01*
X189627172Y-104535714D01*
X189699744Y-104390571D01*
X189772315Y-104318000D01*
X189917458Y-104245429D01*
X181899143Y-124696857D02*
X182116857Y-124769429D01*
X182479714Y-124769429D01*
X182624857Y-124696857D01*
X182697428Y-124624286D01*
X182770000Y-124479143D01*
X182770000Y-124334000D01*
X182697428Y-124188857D01*
X182624857Y-124116286D01*
X182479714Y-124043714D01*
X182189428Y-123971143D01*
X182044286Y-123898571D01*
X181971714Y-123826000D01*
X181899143Y-123680857D01*
X181899143Y-123535714D01*
X181971714Y-123390571D01*
X182044286Y-123318000D01*
X182189428Y-123245429D01*
X182552286Y-123245429D01*
X182770000Y-123318000D01*
X183278000Y-123245429D02*
X184221429Y-123245429D01*
X183713429Y-123826000D01*
X183931143Y-123826000D01*
X184076286Y-123898571D01*
X184148857Y-123971143D01*
X184221429Y-124116286D01*
X184221429Y-124479143D01*
X184148857Y-124624286D01*
X184076286Y-124696857D01*
X183931143Y-124769429D01*
X183495715Y-124769429D01*
X183350572Y-124696857D01*
X183278000Y-124624286D01*
X185672858Y-124769429D02*
X184802001Y-124769429D01*
X185237429Y-124769429D02*
X185237429Y-123245429D01*
X185092286Y-123463143D01*
X184947144Y-123608286D01*
X184802001Y-123680857D01*
X212776743Y-48696857D02*
X212994457Y-48769429D01*
X213357314Y-48769429D01*
X213502457Y-48696857D01*
X213575028Y-48624286D01*
X213647600Y-48479143D01*
X213647600Y-48334000D01*
X213575028Y-48188857D01*
X213502457Y-48116286D01*
X213357314Y-48043714D01*
X213067028Y-47971143D01*
X212921886Y-47898571D01*
X212849314Y-47826000D01*
X212776743Y-47680857D01*
X212776743Y-47535714D01*
X212849314Y-47390571D01*
X212921886Y-47318000D01*
X213067028Y-47245429D01*
X213429886Y-47245429D01*
X213647600Y-47318000D01*
X214155600Y-47245429D02*
X215099029Y-47245429D01*
X214591029Y-47826000D01*
X214808743Y-47826000D01*
X214953886Y-47898571D01*
X215026457Y-47971143D01*
X215099029Y-48116286D01*
X215099029Y-48479143D01*
X215026457Y-48624286D01*
X214953886Y-48696857D01*
X214808743Y-48769429D01*
X214373315Y-48769429D01*
X214228172Y-48696857D01*
X214155600Y-48624286D01*
X215679601Y-47390571D02*
X215752172Y-47318000D01*
X215897315Y-47245429D01*
X216260172Y-47245429D01*
X216405315Y-47318000D01*
X216477886Y-47390571D01*
X216550458Y-47535714D01*
X216550458Y-47680857D01*
X216477886Y-47898571D01*
X215607029Y-48769429D01*
X216550458Y-48769429D01*
X212776743Y-67696857D02*
X212994457Y-67769429D01*
X213357314Y-67769429D01*
X213502457Y-67696857D01*
X213575028Y-67624286D01*
X213647600Y-67479143D01*
X213647600Y-67334000D01*
X213575028Y-67188857D01*
X213502457Y-67116286D01*
X213357314Y-67043714D01*
X213067028Y-66971143D01*
X212921886Y-66898571D01*
X212849314Y-66826000D01*
X212776743Y-66680857D01*
X212776743Y-66535714D01*
X212849314Y-66390571D01*
X212921886Y-66318000D01*
X213067028Y-66245429D01*
X213429886Y-66245429D01*
X213647600Y-66318000D01*
X214155600Y-66245429D02*
X215099029Y-66245429D01*
X214591029Y-66826000D01*
X214808743Y-66826000D01*
X214953886Y-66898571D01*
X215026457Y-66971143D01*
X215099029Y-67116286D01*
X215099029Y-67479143D01*
X215026457Y-67624286D01*
X214953886Y-67696857D01*
X214808743Y-67769429D01*
X214373315Y-67769429D01*
X214228172Y-67696857D01*
X214155600Y-67624286D01*
X215607029Y-66245429D02*
X216550458Y-66245429D01*
X216042458Y-66826000D01*
X216260172Y-66826000D01*
X216405315Y-66898571D01*
X216477886Y-66971143D01*
X216550458Y-67116286D01*
X216550458Y-67479143D01*
X216477886Y-67624286D01*
X216405315Y-67696857D01*
X216260172Y-67769429D01*
X215824744Y-67769429D01*
X215679601Y-67696857D01*
X215607029Y-67624286D01*
X212776743Y-86696857D02*
X212994457Y-86769429D01*
X213357314Y-86769429D01*
X213502457Y-86696857D01*
X213575028Y-86624286D01*
X213647600Y-86479143D01*
X213647600Y-86334000D01*
X213575028Y-86188857D01*
X213502457Y-86116286D01*
X213357314Y-86043714D01*
X213067028Y-85971143D01*
X212921886Y-85898571D01*
X212849314Y-85826000D01*
X212776743Y-85680857D01*
X212776743Y-85535714D01*
X212849314Y-85390571D01*
X212921886Y-85318000D01*
X213067028Y-85245429D01*
X213429886Y-85245429D01*
X213647600Y-85318000D01*
X214155600Y-85245429D02*
X215099029Y-85245429D01*
X214591029Y-85826000D01*
X214808743Y-85826000D01*
X214953886Y-85898571D01*
X215026457Y-85971143D01*
X215099029Y-86116286D01*
X215099029Y-86479143D01*
X215026457Y-86624286D01*
X214953886Y-86696857D01*
X214808743Y-86769429D01*
X214373315Y-86769429D01*
X214228172Y-86696857D01*
X214155600Y-86624286D01*
X216405315Y-85753429D02*
X216405315Y-86769429D01*
X216042458Y-85172857D02*
X215679601Y-86261429D01*
X216623029Y-86261429D01*
X224651743Y-115196857D02*
X224869457Y-115269429D01*
X225232314Y-115269429D01*
X225377457Y-115196857D01*
X225450028Y-115124286D01*
X225522600Y-114979143D01*
X225522600Y-114834000D01*
X225450028Y-114688857D01*
X225377457Y-114616286D01*
X225232314Y-114543714D01*
X224942028Y-114471143D01*
X224796886Y-114398571D01*
X224724314Y-114326000D01*
X224651743Y-114180857D01*
X224651743Y-114035714D01*
X224724314Y-113890571D01*
X224796886Y-113818000D01*
X224942028Y-113745429D01*
X225304886Y-113745429D01*
X225522600Y-113818000D01*
X226030600Y-113745429D02*
X226974029Y-113745429D01*
X226466029Y-114326000D01*
X226683743Y-114326000D01*
X226828886Y-114398571D01*
X226901457Y-114471143D01*
X226974029Y-114616286D01*
X226974029Y-114979143D01*
X226901457Y-115124286D01*
X226828886Y-115196857D01*
X226683743Y-115269429D01*
X226248315Y-115269429D01*
X226103172Y-115196857D01*
X226030600Y-115124286D01*
X228352886Y-113745429D02*
X227627172Y-113745429D01*
X227554601Y-114471143D01*
X227627172Y-114398571D01*
X227772315Y-114326000D01*
X228135172Y-114326000D01*
X228280315Y-114398571D01*
X228352886Y-114471143D01*
X228425458Y-114616286D01*
X228425458Y-114979143D01*
X228352886Y-115124286D01*
X228280315Y-115196857D01*
X228135172Y-115269429D01*
X227772315Y-115269429D01*
X227627172Y-115196857D01*
X227554601Y-115124286D01*
X205651743Y-115196857D02*
X205869457Y-115269429D01*
X206232314Y-115269429D01*
X206377457Y-115196857D01*
X206450028Y-115124286D01*
X206522600Y-114979143D01*
X206522600Y-114834000D01*
X206450028Y-114688857D01*
X206377457Y-114616286D01*
X206232314Y-114543714D01*
X205942028Y-114471143D01*
X205796886Y-114398571D01*
X205724314Y-114326000D01*
X205651743Y-114180857D01*
X205651743Y-114035714D01*
X205724314Y-113890571D01*
X205796886Y-113818000D01*
X205942028Y-113745429D01*
X206304886Y-113745429D01*
X206522600Y-113818000D01*
X207030600Y-113745429D02*
X207974029Y-113745429D01*
X207466029Y-114326000D01*
X207683743Y-114326000D01*
X207828886Y-114398571D01*
X207901457Y-114471143D01*
X207974029Y-114616286D01*
X207974029Y-114979143D01*
X207901457Y-115124286D01*
X207828886Y-115196857D01*
X207683743Y-115269429D01*
X207248315Y-115269429D01*
X207103172Y-115196857D01*
X207030600Y-115124286D01*
X209280315Y-113745429D02*
X208990029Y-113745429D01*
X208844886Y-113818000D01*
X208772315Y-113890571D01*
X208627172Y-114108286D01*
X208554601Y-114398571D01*
X208554601Y-114979143D01*
X208627172Y-115124286D01*
X208699744Y-115196857D01*
X208844886Y-115269429D01*
X209135172Y-115269429D01*
X209280315Y-115196857D01*
X209352886Y-115124286D01*
X209425458Y-114979143D01*
X209425458Y-114616286D01*
X209352886Y-114471143D01*
X209280315Y-114398571D01*
X209135172Y-114326000D01*
X208844886Y-114326000D01*
X208699744Y-114398571D01*
X208627172Y-114471143D01*
X208554601Y-114616286D01*
D16*
X69083334Y-79602381D02*
X68750000Y-79126190D01*
X68511905Y-79602381D02*
X68511905Y-78602381D01*
X68892858Y-78602381D01*
X68988096Y-78650000D01*
X69035715Y-78697619D01*
X69083334Y-78792857D01*
X69083334Y-78935714D01*
X69035715Y-79030952D01*
X68988096Y-79078571D01*
X68892858Y-79126190D01*
X68511905Y-79126190D01*
X69416667Y-78602381D02*
X70035715Y-78602381D01*
X69702381Y-78983333D01*
X69845239Y-78983333D01*
X69940477Y-79030952D01*
X69988096Y-79078571D01*
X70035715Y-79173810D01*
X70035715Y-79411905D01*
X69988096Y-79507143D01*
X69940477Y-79554762D01*
X69845239Y-79602381D01*
X69559524Y-79602381D01*
X69464286Y-79554762D01*
X69416667Y-79507143D01*
X69054762Y-81102381D02*
X68483333Y-81102381D01*
X68769047Y-81102381D02*
X68769047Y-80102381D01*
X68673809Y-80245238D01*
X68578571Y-80340476D01*
X68483333Y-80388095D01*
X69673809Y-80102381D02*
X69769048Y-80102381D01*
X69864286Y-80150000D01*
X69911905Y-80197619D01*
X69959524Y-80292857D01*
X70007143Y-80483333D01*
X70007143Y-80721429D01*
X69959524Y-80911905D01*
X69911905Y-81007143D01*
X69864286Y-81054762D01*
X69769048Y-81102381D01*
X69673809Y-81102381D01*
X69578571Y-81054762D01*
X69530952Y-81007143D01*
X69483333Y-80911905D01*
X69435714Y-80721429D01*
X69435714Y-80483333D01*
X69483333Y-80292857D01*
X69530952Y-80197619D01*
X69578571Y-80150000D01*
X69673809Y-80102381D01*
X70435714Y-81102381D02*
X70435714Y-80102381D01*
X70530952Y-80721429D02*
X70816667Y-81102381D01*
X70816667Y-80435714D02*
X70435714Y-80816667D01*
M02*
