G04 #@! TF.FileFunction,Copper,L2,Bot,Signal*
%FSLAX46Y46*%
G04 Gerber Fmt 4.6, Leading zero omitted, Abs format (unit mm)*
G04 Created by KiCad (PCBNEW 4.0.2-stable) date 7/10/2016 3:50:19 PM*
%MOMM*%
G01*
G04 APERTURE LIST*
%ADD10C,0.150000*%
%ADD11C,1.700000*%
%ADD12C,3.000000*%
%ADD13C,4.099560*%
%ADD14R,1.752600X1.752600*%
%ADD15C,1.752600*%
%ADD16O,0.700000X1.200000*%
%ADD17O,0.650000X1.050000*%
%ADD18C,1.800000*%
%ADD19R,1.397000X0.889000*%
%ADD20C,1.200000*%
%ADD21R,1.000000X3.100000*%
%ADD22C,2.100000*%
%ADD23C,0.889000*%
%ADD24C,0.635000*%
%ADD25C,0.381000*%
%ADD26C,0.254000*%
G04 APERTURE END LIST*
D10*
D11*
X231618600Y-109500000D03*
D12*
X223998600Y-104420000D03*
X230348600Y-106960000D03*
D13*
X226538600Y-109500000D03*
D12*
X229078600Y-104420000D03*
X222728600Y-106960000D03*
D11*
X221458600Y-109500000D03*
D14*
X74082000Y-32032000D03*
D15*
X74082000Y-34572000D03*
X74082000Y-37112000D03*
X74082000Y-39652000D03*
X74082000Y-42192000D03*
X74082000Y-44732000D03*
X74082000Y-47272000D03*
X74082000Y-49812000D03*
X74082000Y-52352000D03*
X74082000Y-54892000D03*
X74082000Y-57432000D03*
X74082000Y-59972000D03*
X58842000Y-59972000D03*
X58842000Y-57432000D03*
X58842000Y-54892000D03*
X58842000Y-52352000D03*
X58842000Y-49812000D03*
X58842000Y-47272000D03*
X58842000Y-44732000D03*
X58842000Y-37112000D03*
X58842000Y-34572000D03*
X58842000Y-32032000D03*
X58842000Y-42192000D03*
X58842000Y-39652000D03*
D16*
X204875000Y-31150000D03*
X199425000Y-31150000D03*
D17*
X204575000Y-34050000D03*
X199725000Y-34050000D03*
D18*
X227498000Y-89817000D03*
X227498000Y-87277000D03*
X227498000Y-84737000D03*
X230038000Y-89817000D03*
X230038000Y-87277000D03*
X230038000Y-84737000D03*
D19*
X216957000Y-110835500D03*
X216957000Y-108930500D03*
D20*
X226382000Y-123599000D03*
X221502000Y-123599000D03*
D21*
X231531500Y-78773000D03*
X227531000Y-69873000D03*
X231529000Y-69873000D03*
X227531000Y-78773000D03*
D19*
X216957000Y-115915500D03*
X216957000Y-114010500D03*
D11*
X117618600Y-100000000D03*
D12*
X109998600Y-94920000D03*
X116348600Y-97460000D03*
D13*
X112538600Y-100000000D03*
D12*
X115078600Y-94920000D03*
X108728600Y-97460000D03*
D11*
X107458600Y-100000000D03*
X136618600Y-62000000D03*
D12*
X128998600Y-56920000D03*
X135348600Y-59460000D03*
D13*
X131538600Y-62000000D03*
D12*
X134078600Y-56920000D03*
X127728600Y-59460000D03*
D11*
X126458600Y-62000000D03*
X117618600Y-43000000D03*
D12*
X109998600Y-37920000D03*
X116348600Y-40460000D03*
D13*
X112538600Y-43000000D03*
D12*
X115078600Y-37920000D03*
X108728600Y-40460000D03*
D11*
X107458600Y-43000000D03*
X91493600Y-43000000D03*
D12*
X83873600Y-37920000D03*
X90223600Y-40460000D03*
D13*
X86413600Y-43000000D03*
D12*
X88953600Y-37920000D03*
X82603600Y-40460000D03*
D11*
X81333600Y-43000000D03*
X91493600Y-62000000D03*
D12*
X83873600Y-56920000D03*
X90223600Y-59460000D03*
D13*
X86413600Y-62000000D03*
D12*
X88953600Y-56920000D03*
X82603600Y-59460000D03*
D11*
X81333600Y-62000000D03*
X91493600Y-81000000D03*
D12*
X83873600Y-75920000D03*
X90223600Y-78460000D03*
D13*
X86413600Y-81000000D03*
D12*
X88953600Y-75920000D03*
X82603600Y-78460000D03*
D11*
X81333600Y-81000000D03*
X91493600Y-100000000D03*
D12*
X83873600Y-94920000D03*
X90223600Y-97460000D03*
D13*
X86413600Y-100000000D03*
D12*
X88953600Y-94920000D03*
X82603600Y-97460000D03*
D11*
X81333600Y-100000000D03*
X98618600Y-119000000D03*
D12*
X90998600Y-113920000D03*
X97348600Y-116460000D03*
D13*
X93538600Y-119000000D03*
D12*
X96078600Y-113920000D03*
X89728600Y-116460000D03*
D11*
X88458600Y-119000000D03*
X79618600Y-119000000D03*
D12*
X71998600Y-113920000D03*
X78348600Y-116460000D03*
D13*
X74538600Y-119000000D03*
D12*
X77078600Y-113920000D03*
X70728600Y-116460000D03*
D11*
X69458600Y-119000000D03*
X117618600Y-62000000D03*
D12*
X109998600Y-56920000D03*
X116348600Y-59460000D03*
D13*
X112538600Y-62000000D03*
D12*
X115078600Y-56920000D03*
X108728600Y-59460000D03*
D11*
X107458600Y-62000000D03*
X117618600Y-81000000D03*
D12*
X109998600Y-75920000D03*
X116348600Y-78460000D03*
D13*
X112538600Y-81000000D03*
D12*
X115078600Y-75920000D03*
X108728600Y-78460000D03*
D11*
X107458600Y-81000000D03*
X117618600Y-119000000D03*
D12*
X109998600Y-113920000D03*
X116348600Y-116460000D03*
D13*
X112538600Y-119000000D03*
D12*
X115078600Y-113920000D03*
X108728600Y-116460000D03*
D11*
X107458600Y-119000000D03*
X136618600Y-43000000D03*
D12*
X128998600Y-37920000D03*
X135348600Y-40460000D03*
D13*
X131538600Y-43000000D03*
D12*
X134078600Y-37920000D03*
X127728600Y-40460000D03*
D11*
X126458600Y-43000000D03*
X136618600Y-81000000D03*
D12*
X128998600Y-75920000D03*
X135348600Y-78460000D03*
D13*
X131538600Y-81000000D03*
D12*
X134078600Y-75920000D03*
X127728600Y-78460000D03*
D11*
X126458600Y-81000000D03*
X136618600Y-100000000D03*
D12*
X128998600Y-94920000D03*
X135348600Y-97460000D03*
D13*
X131538600Y-100000000D03*
D12*
X134078600Y-94920000D03*
X127728600Y-97460000D03*
D11*
X126458600Y-100000000D03*
X136618600Y-119000000D03*
D12*
X128998600Y-113920000D03*
X135348600Y-116460000D03*
D13*
X131538600Y-119000000D03*
D12*
X134078600Y-113920000D03*
X127728600Y-116460000D03*
D11*
X126458600Y-119000000D03*
X155618600Y-43000000D03*
D12*
X147998600Y-37920000D03*
X154348600Y-40460000D03*
D13*
X150538600Y-43000000D03*
D12*
X153078600Y-37920000D03*
X146728600Y-40460000D03*
D11*
X145458600Y-43000000D03*
X155618600Y-62000000D03*
D12*
X147998600Y-56920000D03*
X154348600Y-59460000D03*
D13*
X150538600Y-62000000D03*
D12*
X153078600Y-56920000D03*
X146728600Y-59460000D03*
D11*
X145458600Y-62000000D03*
X155618600Y-81000000D03*
D12*
X147998600Y-75920000D03*
X154348600Y-78460000D03*
D13*
X150538600Y-81000000D03*
D12*
X153078600Y-75920000D03*
X146728600Y-78460000D03*
D11*
X145458600Y-81000000D03*
X155618600Y-100000000D03*
D12*
X147998600Y-94920000D03*
X154348600Y-97460000D03*
D13*
X150538600Y-100000000D03*
D12*
X153078600Y-94920000D03*
X146728600Y-97460000D03*
D11*
X145458600Y-100000000D03*
X174618600Y-43000000D03*
D12*
X166998600Y-37920000D03*
X173348600Y-40460000D03*
D13*
X169538600Y-43000000D03*
D12*
X172078600Y-37920000D03*
X165728600Y-40460000D03*
D11*
X164458600Y-43000000D03*
X174618600Y-62000000D03*
D12*
X166998600Y-56920000D03*
X173348600Y-59460000D03*
D13*
X169538600Y-62000000D03*
D12*
X172078600Y-56920000D03*
X165728600Y-59460000D03*
D11*
X164458600Y-62000000D03*
X174618600Y-81000000D03*
D12*
X166998600Y-75920000D03*
X173348600Y-78460000D03*
D13*
X169538600Y-81000000D03*
D12*
X172078600Y-75920000D03*
X165728600Y-78460000D03*
D11*
X164458600Y-81000000D03*
X174618600Y-100000000D03*
D12*
X166998600Y-94920000D03*
X173348600Y-97460000D03*
D13*
X169538600Y-100000000D03*
D12*
X172078600Y-94920000D03*
X165728600Y-97460000D03*
D11*
X164458600Y-100000000D03*
X160368600Y-119000000D03*
D12*
X152748600Y-113920000D03*
X159098600Y-116460000D03*
D13*
X155288600Y-119000000D03*
D12*
X157828600Y-113920000D03*
X151478600Y-116460000D03*
D11*
X150208600Y-119000000D03*
X193618600Y-43000000D03*
D12*
X185998600Y-37920000D03*
X192348600Y-40460000D03*
D13*
X188538600Y-43000000D03*
D12*
X191078600Y-37920000D03*
X184728600Y-40460000D03*
D11*
X183458600Y-43000000D03*
X193618600Y-62000000D03*
D12*
X185998600Y-56920000D03*
X192348600Y-59460000D03*
D13*
X188538600Y-62000000D03*
D12*
X191078600Y-56920000D03*
X184728600Y-59460000D03*
D11*
X183458600Y-62000000D03*
X193618600Y-81000000D03*
D12*
X185998600Y-75920000D03*
X192348600Y-78460000D03*
D13*
X188538600Y-81000000D03*
D12*
X191078600Y-75920000D03*
X184728600Y-78460000D03*
D11*
X183458600Y-81000000D03*
X193618600Y-100000000D03*
D12*
X185998600Y-94920000D03*
X192348600Y-97460000D03*
D13*
X188538600Y-100000000D03*
D12*
X191078600Y-94920000D03*
X184728600Y-97460000D03*
D11*
X183458600Y-100000000D03*
X188866000Y-119000000D03*
D12*
X181246000Y-113920000D03*
X187596000Y-116460000D03*
D13*
X183786000Y-119000000D03*
D12*
X186326000Y-113920000D03*
X179976000Y-116460000D03*
D11*
X178706000Y-119000000D03*
X219743600Y-43000000D03*
D12*
X212123600Y-37920000D03*
X218473600Y-40460000D03*
D13*
X214663600Y-43000000D03*
D12*
X217203600Y-37920000D03*
X210853600Y-40460000D03*
D11*
X209583600Y-43000000D03*
X219743600Y-62000000D03*
D12*
X212123600Y-56920000D03*
X218473600Y-59460000D03*
D13*
X214663600Y-62000000D03*
D12*
X217203600Y-56920000D03*
X210853600Y-59460000D03*
D11*
X209583600Y-62000000D03*
X219743600Y-81000000D03*
D12*
X212123600Y-75920000D03*
X218473600Y-78460000D03*
D13*
X214663600Y-81000000D03*
D12*
X217203600Y-75920000D03*
X210853600Y-78460000D03*
D11*
X209583600Y-81000000D03*
X212618600Y-109500000D03*
D12*
X204998600Y-104420000D03*
X211348600Y-106960000D03*
D13*
X207538600Y-109500000D03*
D12*
X210078600Y-104420000D03*
X203728600Y-106960000D03*
D11*
X202458600Y-109500000D03*
D22*
X231689000Y-36477000D03*
X229149000Y-36477000D03*
X226609000Y-36477000D03*
X231689000Y-46637000D03*
X229149000Y-46637000D03*
X226609000Y-46637000D03*
X231689000Y-52479000D03*
X229149000Y-52479000D03*
X226609000Y-52479000D03*
X231689000Y-62639000D03*
X229149000Y-62639000D03*
X226609000Y-62639000D03*
X62906000Y-110645000D03*
X60366000Y-110645000D03*
X57826000Y-110645000D03*
X62906000Y-120805000D03*
X60366000Y-120805000D03*
X57826000Y-120805000D03*
D23*
X206479500Y-82514500D03*
X199050000Y-81943000D03*
X61128000Y-50066000D03*
X219370000Y-115979000D03*
X216703000Y-107089000D03*
X213655000Y-105946000D03*
X214798000Y-103406000D03*
X232324000Y-81816000D03*
X232324000Y-85880000D03*
X232197000Y-75466000D03*
X205908000Y-43271500D03*
X199812000Y-47272000D03*
X205908000Y-37366000D03*
X213909000Y-93246000D03*
X218354000Y-93246000D03*
X200701000Y-105946000D03*
X232451000Y-100485000D03*
X227879000Y-100739000D03*
X215941000Y-103914000D03*
X217719000Y-104041000D03*
X227879000Y-81689000D03*
X220259000Y-105438000D03*
X230673000Y-93373000D03*
X208575000Y-98707000D03*
X201717000Y-118900000D03*
X226736000Y-95659000D03*
X210988000Y-100866000D03*
X196002000Y-120678000D03*
X74590000Y-110518000D03*
X214290000Y-97818000D03*
X96434000Y-91214000D03*
X209591000Y-89817000D03*
X110912000Y-109248000D03*
X121580000Y-88166000D03*
X220640000Y-87531000D03*
X129708000Y-107978000D03*
X140376000Y-85499000D03*
X219878000Y-86261000D03*
X159680000Y-84610000D03*
X219116000Y-84991000D03*
X155870000Y-107724000D03*
X178984000Y-83594000D03*
X218354000Y-83848000D03*
X164506000Y-107724000D03*
X216703000Y-91722000D03*
X197907000Y-88674000D03*
X182794000Y-107216000D03*
X202098000Y-121186000D03*
X215433000Y-91849000D03*
X200701000Y-112931000D03*
X197780000Y-91214000D03*
X218608000Y-97183000D03*
X219751000Y-95405000D03*
X68367000Y-95278000D03*
X227117000Y-99342000D03*
X68494000Y-93881000D03*
X220132000Y-94135000D03*
X68367000Y-92357000D03*
X220894000Y-92865000D03*
X208067000Y-49939000D03*
X213401000Y-49685000D03*
X197399000Y-115090000D03*
X209210000Y-97310000D03*
X194859000Y-117503000D03*
D24*
X205908000Y-81943000D02*
X206479500Y-82514500D01*
X199050000Y-81943000D02*
X205908000Y-81943000D01*
X231529000Y-69873000D02*
X231529000Y-74798000D01*
X231529000Y-74798000D02*
X232197000Y-75466000D01*
X58842000Y-59972000D02*
X59731000Y-59972000D01*
X61128000Y-58575000D02*
X61128000Y-50066000D01*
X59731000Y-59972000D02*
X61128000Y-58575000D01*
X216957000Y-114010500D02*
X217655500Y-114010500D01*
X219370000Y-115725000D02*
X219370000Y-115979000D01*
X217655500Y-114010500D02*
X219370000Y-115725000D01*
X216957000Y-107343000D02*
X216957000Y-108930500D01*
D25*
X216703000Y-107089000D02*
X216957000Y-107343000D01*
D24*
X213655000Y-104549000D02*
X213655000Y-105946000D01*
X214798000Y-103406000D02*
X213655000Y-104549000D01*
X232324000Y-85880000D02*
X232324000Y-81816000D01*
X231531500Y-78773000D02*
X231531500Y-76131500D01*
X231531500Y-76131500D02*
X232197000Y-75466000D01*
X201907500Y-47272000D02*
X199812000Y-47272000D01*
X201907500Y-47272000D02*
X205908000Y-43271500D01*
X213909000Y-93246000D02*
X218354000Y-93246000D01*
D25*
X232451000Y-100485000D02*
X228133000Y-100485000D01*
X228133000Y-100485000D02*
X227879000Y-100739000D01*
D24*
X215877500Y-115915500D02*
X214925000Y-114963000D01*
X214925000Y-114963000D02*
X214925000Y-105946000D01*
X214925000Y-105946000D02*
X215941000Y-104930000D01*
X215877500Y-115915500D02*
X216957000Y-115915500D01*
D25*
X215941000Y-103914000D02*
X215941000Y-104930000D01*
D24*
X221502000Y-123599000D02*
X221502000Y-120460500D01*
X221502000Y-120460500D02*
X216957000Y-115915500D01*
X218989000Y-107089000D02*
X217846000Y-105946000D01*
X217909500Y-110835500D02*
X216957000Y-110835500D01*
X217909500Y-110835500D02*
X218989000Y-109756000D01*
X218989000Y-109756000D02*
X218989000Y-107089000D01*
D25*
X217846000Y-104168000D02*
X217846000Y-105946000D01*
X217719000Y-104041000D02*
X217846000Y-104168000D01*
D24*
X226382000Y-123599000D02*
X226382000Y-120260500D01*
X226382000Y-120260500D02*
X216957000Y-110835500D01*
X227531000Y-69873000D02*
X227531000Y-78773000D01*
X227531000Y-78773000D02*
X227531000Y-81341000D01*
X227531000Y-81341000D02*
X227879000Y-81689000D01*
X220259000Y-103787000D02*
X220259000Y-105438000D01*
X230673000Y-93373000D02*
X220259000Y-103787000D01*
X230038000Y-87277000D02*
X230927000Y-87277000D01*
X230927000Y-87277000D02*
X232197000Y-88547000D01*
X226736000Y-92103000D02*
X225974000Y-92865000D01*
X225974000Y-92865000D02*
X225974000Y-94262000D01*
X225974000Y-94262000D02*
X220894000Y-99342000D01*
X213909000Y-98961000D02*
X208829000Y-98961000D01*
X214290000Y-99342000D02*
X213909000Y-98961000D01*
X220894000Y-99342000D02*
X214290000Y-99342000D01*
X230673000Y-92103000D02*
X229403000Y-92103000D01*
X229403000Y-92103000D02*
X228133000Y-92103000D01*
X208575000Y-98707000D02*
X208829000Y-98961000D01*
X228133000Y-92103000D02*
X226736000Y-92103000D01*
X232197000Y-90579000D02*
X230673000Y-92103000D01*
X232197000Y-88547000D02*
X232197000Y-90579000D01*
X230038000Y-87277000D02*
X230419000Y-87277000D01*
X205273000Y-98707000D02*
X208575000Y-98707000D01*
X198923000Y-105057000D02*
X205273000Y-98707000D01*
X198923000Y-116106000D02*
X198923000Y-105057000D01*
X201717000Y-118900000D02*
X198923000Y-116106000D01*
X221529000Y-100866000D02*
X210988000Y-100866000D01*
X226736000Y-95659000D02*
X221529000Y-100866000D01*
X208575000Y-100866000D02*
X210988000Y-100866000D01*
X208575000Y-100866000D02*
X205021000Y-104420000D01*
X204998600Y-104420000D02*
X205021000Y-104420000D01*
X204998600Y-104420000D02*
X205783000Y-104420000D01*
X180508000Y-117757000D02*
X180508000Y-121059000D01*
X180508000Y-121059000D02*
X182032000Y-122583000D01*
X182032000Y-122583000D02*
X194097000Y-122583000D01*
X194097000Y-122583000D02*
X196002000Y-120678000D01*
X179976000Y-117225000D02*
X180508000Y-117757000D01*
X179976000Y-116460000D02*
X179976000Y-117225000D01*
X152748600Y-113920000D02*
X152748600Y-113766400D01*
X152748600Y-113766400D02*
X155108000Y-111407000D01*
X178733000Y-111407000D02*
X181246000Y-113920000D01*
X155108000Y-111407000D02*
X178733000Y-111407000D01*
X128998600Y-113920000D02*
X128998600Y-113767400D01*
X128998600Y-113767400D02*
X131486000Y-111280000D01*
X150108600Y-111280000D02*
X152748600Y-113920000D01*
X131486000Y-111280000D02*
X150108600Y-111280000D01*
X109998600Y-113920000D02*
X109998600Y-113590400D01*
X109998600Y-113590400D02*
X112055000Y-111534000D01*
X126612600Y-111534000D02*
X128998600Y-113920000D01*
X112055000Y-111534000D02*
X126612600Y-111534000D01*
X90998600Y-113920000D02*
X90998600Y-113032400D01*
X90998600Y-113032400D02*
X92497000Y-111534000D01*
X107612600Y-111534000D02*
X109998600Y-113920000D01*
X92497000Y-111534000D02*
X107612600Y-111534000D01*
X88612600Y-111534000D02*
X90998600Y-113920000D01*
X75606000Y-111534000D02*
X88612600Y-111534000D01*
X74590000Y-110518000D02*
X75606000Y-111534000D01*
X90998600Y-113920000D02*
X90946000Y-113920000D01*
X214290000Y-97818000D02*
X214798000Y-98326000D01*
X226482000Y-87277000D02*
X224958000Y-88801000D01*
X226482000Y-87277000D02*
X227498000Y-87277000D01*
X220132000Y-98326000D02*
X216957000Y-98326000D01*
X224958000Y-93500000D02*
X220132000Y-98326000D01*
X224958000Y-88801000D02*
X224958000Y-93500000D01*
X216957000Y-98326000D02*
X214798000Y-98326000D01*
X96434000Y-91214000D02*
X97831000Y-89817000D01*
X97831000Y-89817000D02*
X209591000Y-89817000D01*
X58842000Y-47272000D02*
X60620000Y-47272000D01*
X62906000Y-99215000D02*
X61255000Y-97564000D01*
X61255000Y-97564000D02*
X61255000Y-89944000D01*
X61255000Y-89944000D02*
X62906000Y-88293000D01*
X62906000Y-88293000D02*
X62906000Y-85372000D01*
X68240000Y-109248000D02*
X68113000Y-109248000D01*
X68240000Y-109248000D02*
X110658000Y-109248000D01*
X62906000Y-49558000D02*
X62906000Y-85372000D01*
X62906000Y-100358000D02*
X62906000Y-100739000D01*
X110658000Y-109248000D02*
X110912000Y-109248000D01*
X62906000Y-104041000D02*
X62906000Y-100739000D01*
X68113000Y-109248000D02*
X62906000Y-104041000D01*
X62906000Y-100358000D02*
X62906000Y-99215000D01*
X60620000Y-47272000D02*
X62906000Y-49558000D01*
X121580000Y-88166000D02*
X122215000Y-87531000D01*
X122215000Y-87531000D02*
X220640000Y-87531000D01*
X64176000Y-48796000D02*
X60239000Y-44859000D01*
X64176000Y-88801000D02*
X62525000Y-90452000D01*
X62525000Y-90452000D02*
X62525000Y-96802000D01*
X62525000Y-96802000D02*
X64176000Y-98453000D01*
X64176000Y-103152000D02*
X64176000Y-103406000D01*
X64176000Y-103152000D02*
X64176000Y-100612000D01*
X129708000Y-107978000D02*
X128438000Y-107978000D01*
X64176000Y-48796000D02*
X64176000Y-88420000D01*
X64176000Y-98453000D02*
X64176000Y-100612000D01*
X68748000Y-107978000D02*
X128438000Y-107978000D01*
X64176000Y-103406000D02*
X68748000Y-107978000D01*
X64176000Y-88420000D02*
X64176000Y-88801000D01*
X60239000Y-44859000D02*
X58969000Y-44859000D01*
X58969000Y-44859000D02*
X58842000Y-44732000D01*
X140376000Y-85499000D02*
X141138000Y-86261000D01*
X141138000Y-86261000D02*
X219878000Y-86261000D01*
X65446000Y-48796000D02*
X65446000Y-47653000D01*
X65446000Y-88928000D02*
X63668000Y-90706000D01*
X63668000Y-90706000D02*
X63668000Y-96675000D01*
X63668000Y-96675000D02*
X65446000Y-98453000D01*
X65446000Y-88420000D02*
X65446000Y-88801000D01*
X65446000Y-102644000D02*
X69510000Y-106708000D01*
X154854000Y-106708000D02*
X69510000Y-106708000D01*
X65446000Y-98453000D02*
X65446000Y-99850000D01*
X65446000Y-48796000D02*
X65446000Y-88420000D01*
X65446000Y-102390000D02*
X65446000Y-99850000D01*
X65446000Y-102390000D02*
X65446000Y-102644000D01*
X65446000Y-88801000D02*
X65446000Y-88928000D01*
X59985000Y-42192000D02*
X58842000Y-42192000D01*
X65446000Y-47653000D02*
X59985000Y-42192000D01*
X159680000Y-84610000D02*
X160061000Y-84991000D01*
X160061000Y-84991000D02*
X219116000Y-84991000D01*
X155870000Y-107724000D02*
X154854000Y-106708000D01*
X154854000Y-106708000D02*
X153584000Y-106708000D01*
X66716000Y-46510000D02*
X66716000Y-46383000D01*
X66716000Y-88420000D02*
X66716000Y-89055000D01*
X66716000Y-101882000D02*
X66716000Y-98453000D01*
X70653000Y-105438000D02*
X70272000Y-105438000D01*
X66716000Y-46510000D02*
X66716000Y-88420000D01*
X70272000Y-105438000D02*
X66716000Y-101882000D01*
X66716000Y-98072000D02*
X66716000Y-98453000D01*
X64811000Y-96167000D02*
X66716000Y-98072000D01*
X64811000Y-90960000D02*
X64811000Y-96167000D01*
X66716000Y-89055000D02*
X64811000Y-90960000D01*
X59985000Y-39652000D02*
X58842000Y-39652000D01*
X66716000Y-46383000D02*
X59985000Y-39652000D01*
X178984000Y-83594000D02*
X179365000Y-83975000D01*
X179365000Y-83975000D02*
X218227000Y-83975000D01*
X218227000Y-83975000D02*
X218354000Y-83848000D01*
X162220000Y-105438000D02*
X164506000Y-107724000D01*
X160696000Y-105438000D02*
X162220000Y-105438000D01*
X70653000Y-105438000D02*
X160696000Y-105438000D01*
X70526000Y-105438000D02*
X70653000Y-105438000D01*
X58842000Y-37112000D02*
X59477000Y-37112000D01*
X59477000Y-37112000D02*
X68113000Y-45748000D01*
X216703000Y-91722000D02*
X216703000Y-91087000D01*
X214290000Y-88674000D02*
X197907000Y-88674000D01*
X216703000Y-91087000D02*
X214290000Y-88674000D01*
X68113000Y-88420000D02*
X68113000Y-89182000D01*
X68113000Y-45748000D02*
X68113000Y-88420000D01*
X68113000Y-98453000D02*
X68113000Y-101501000D01*
X68113000Y-101501000D02*
X70907000Y-104295000D01*
X70907000Y-104295000D02*
X179873000Y-104295000D01*
X179873000Y-104295000D02*
X182794000Y-107216000D01*
X68113000Y-98072000D02*
X68113000Y-98453000D01*
X65954000Y-95913000D02*
X68113000Y-98072000D01*
X65954000Y-91341000D02*
X65954000Y-95913000D01*
X68113000Y-89182000D02*
X65954000Y-91341000D01*
X204384000Y-116614000D02*
X204384000Y-118900000D01*
X204384000Y-118900000D02*
X202098000Y-121186000D01*
X69510000Y-97945000D02*
X67097000Y-95532000D01*
X69510000Y-98199000D02*
X69510000Y-97945000D01*
X69510000Y-89563000D02*
X69510000Y-88420000D01*
X69510000Y-45370137D02*
X58476300Y-34064000D01*
X200828000Y-121186000D02*
X202098000Y-121186000D01*
X182794000Y-103152000D02*
X200828000Y-121186000D01*
X71669000Y-103152000D02*
X182794000Y-103152000D01*
X69510000Y-101247000D02*
X71669000Y-103152000D01*
X69510000Y-98453000D02*
X69510000Y-101247000D01*
X69510000Y-45370137D02*
X69510000Y-88420000D01*
X69510000Y-98453000D02*
X69510000Y-98199000D01*
X67097000Y-91976000D02*
X69510000Y-89563000D01*
X67097000Y-95532000D02*
X67097000Y-91976000D01*
X197780000Y-91214000D02*
X214798000Y-91214000D01*
X200701000Y-112931000D02*
X204384000Y-116614000D01*
X204384000Y-116614000D02*
X204384000Y-116614000D01*
X214798000Y-91214000D02*
X215433000Y-91849000D01*
X58842000Y-34064000D02*
X58476300Y-34064000D01*
X210853600Y-40460000D02*
X210853600Y-41549600D01*
X210853600Y-41549600D02*
X211496000Y-42192000D01*
X221021000Y-95786000D02*
X219624000Y-97183000D01*
X223942000Y-92865000D02*
X221021000Y-95786000D01*
X223942000Y-65560000D02*
X223942000Y-92865000D01*
X219624000Y-97183000D02*
X218608000Y-97183000D01*
X223942000Y-57178000D02*
X223942000Y-65560000D01*
X220259000Y-53495000D02*
X223942000Y-57178000D01*
X212385000Y-53495000D02*
X220259000Y-53495000D01*
X211496000Y-52606000D02*
X212385000Y-53495000D01*
X211496000Y-42192000D02*
X211496000Y-52606000D01*
D25*
X212123600Y-37920000D02*
X212123600Y-36992400D01*
X210853600Y-40460000D02*
X210853600Y-41041600D01*
D24*
X185998600Y-37920000D02*
X185998600Y-37209400D01*
X185998600Y-37209400D02*
X187620000Y-35588000D01*
X209791600Y-35588000D02*
X212123600Y-37920000D01*
X187620000Y-35588000D02*
X209791600Y-35588000D01*
X219751000Y-95405000D02*
X217084000Y-95405000D01*
X187493000Y-92484000D02*
X185998600Y-93978400D01*
X199939000Y-92484000D02*
X202098000Y-92484000D01*
X187493000Y-92484000D02*
X199939000Y-92484000D01*
X204003000Y-94389000D02*
X202098000Y-92484000D01*
X216068000Y-94389000D02*
X204003000Y-94389000D01*
X217084000Y-95405000D02*
X216068000Y-94389000D01*
X70549000Y-97460000D02*
X68367000Y-95278000D01*
X70549000Y-97460000D02*
X82603600Y-97460000D01*
X223998600Y-104420000D02*
X223998600Y-102460400D01*
X223998600Y-102460400D02*
X227117000Y-99342000D01*
X185998600Y-94920000D02*
X185998600Y-93978400D01*
D25*
X185998600Y-94920000D02*
X185998600Y-94359400D01*
D24*
X166998600Y-94920000D02*
X167023000Y-94920000D01*
X167023000Y-94920000D02*
X169459000Y-92484000D01*
X183562600Y-92484000D02*
X185998600Y-94920000D01*
X169459000Y-92484000D02*
X183562600Y-92484000D01*
X147998600Y-94920000D02*
X147998600Y-94767400D01*
X147998600Y-94767400D02*
X150282000Y-92484000D01*
X164562600Y-92484000D02*
X166998600Y-94920000D01*
X150282000Y-92484000D02*
X164562600Y-92484000D01*
X128998600Y-94920000D02*
X128998600Y-94717400D01*
X128998600Y-94717400D02*
X131232000Y-92484000D01*
X145562600Y-92484000D02*
X147998600Y-94920000D01*
X131232000Y-92484000D02*
X145562600Y-92484000D01*
X109998600Y-94920000D02*
X109998600Y-94667400D01*
X109998600Y-94667400D02*
X112182000Y-92484000D01*
X126562600Y-92484000D02*
X128998600Y-94920000D01*
X112182000Y-92484000D02*
X126562600Y-92484000D01*
X83873600Y-94920000D02*
X83873600Y-94376400D01*
X83873600Y-94376400D02*
X85766000Y-92484000D01*
X107562600Y-92484000D02*
X109998600Y-94920000D01*
X85766000Y-92484000D02*
X107562600Y-92484000D01*
X79724000Y-78460000D02*
X71796000Y-86388000D01*
X71796000Y-86388000D02*
X71796000Y-90579000D01*
X71796000Y-90579000D02*
X68494000Y-93881000D01*
X79724000Y-78460000D02*
X82603600Y-78460000D01*
X221783000Y-88420000D02*
X219497000Y-90706000D01*
X219497000Y-90706000D02*
X219497000Y-93500000D01*
X219497000Y-93500000D02*
X220132000Y-94135000D01*
X219624000Y-73307000D02*
X221783000Y-75466000D01*
X215306000Y-73307000D02*
X219624000Y-73307000D01*
X215306000Y-73307000D02*
X212693000Y-75920000D01*
X221783000Y-75466000D02*
X221783000Y-88420000D01*
D25*
X212123600Y-75920000D02*
X212693000Y-75920000D01*
D24*
X185998600Y-75920000D02*
X185998600Y-75817400D01*
X185998600Y-75817400D02*
X188255000Y-73561000D01*
X188255000Y-73561000D02*
X209764600Y-73561000D01*
X209764600Y-73561000D02*
X212123600Y-75920000D01*
X166998600Y-75920000D02*
X166998600Y-75767400D01*
X166998600Y-75767400D02*
X169205000Y-73561000D01*
X183639600Y-73561000D02*
X185998600Y-75920000D01*
X169205000Y-73561000D02*
X183639600Y-73561000D01*
X147998600Y-75920000D02*
X147998600Y-75717400D01*
X147998600Y-75717400D02*
X150155000Y-73561000D01*
X164639600Y-73561000D02*
X166998600Y-75920000D01*
X150155000Y-73561000D02*
X164639600Y-73561000D01*
X128998600Y-75920000D02*
X128998600Y-75667400D01*
X128998600Y-75667400D02*
X131105000Y-73561000D01*
X145639600Y-73561000D02*
X147998600Y-75920000D01*
X131105000Y-73561000D02*
X145639600Y-73561000D01*
X109998600Y-75920000D02*
X109998600Y-75617400D01*
X109998600Y-75617400D02*
X112182000Y-73434000D01*
X126512600Y-73434000D02*
X128998600Y-75920000D01*
X112182000Y-73434000D02*
X126512600Y-73434000D01*
X83873600Y-75920000D02*
X83873600Y-74691400D01*
X83873600Y-74691400D02*
X85258000Y-73307000D01*
X107385600Y-73307000D02*
X109998600Y-75920000D01*
X85258000Y-73307000D02*
X107385600Y-73307000D01*
X70780000Y-85626000D02*
X70780000Y-87531000D01*
X70780000Y-87531000D02*
X70780000Y-89944000D01*
X70780000Y-89944000D02*
X68367000Y-92357000D01*
X83226000Y-60861000D02*
X83226000Y-73180000D01*
X83226000Y-73180000D02*
X70780000Y-85626000D01*
X83226000Y-60861000D02*
X82603600Y-60238600D01*
X82603600Y-59460000D02*
X82603600Y-60238600D01*
X214671000Y-54511000D02*
X219624000Y-54511000D01*
X219624000Y-54511000D02*
X222926000Y-57813000D01*
X222926000Y-57813000D02*
X222926000Y-89309000D01*
X222926000Y-89309000D02*
X220894000Y-91341000D01*
X220894000Y-91341000D02*
X220894000Y-92865000D01*
X214671000Y-54511000D02*
X212262000Y-56920000D01*
X212123600Y-56920000D02*
X212262000Y-56920000D01*
D25*
X212123600Y-56920000D02*
X212123600Y-56677400D01*
X185998600Y-56920000D02*
X185998600Y-56767400D01*
D24*
X185998600Y-56767400D02*
X188255000Y-54511000D01*
X209714600Y-54511000D02*
X212123600Y-56920000D01*
X188255000Y-54511000D02*
X209714600Y-54511000D01*
X166998600Y-56920000D02*
X166998600Y-55955400D01*
X166998600Y-55955400D02*
X168443000Y-54511000D01*
X183589600Y-54511000D02*
X185998600Y-56920000D01*
X168443000Y-54511000D02*
X183589600Y-54511000D01*
X147998600Y-56920000D02*
X147998600Y-56413400D01*
X147998600Y-56413400D02*
X149901000Y-54511000D01*
X164589600Y-54511000D02*
X166998600Y-56920000D01*
X149901000Y-54511000D02*
X164589600Y-54511000D01*
X128998600Y-56920000D02*
X128998600Y-56490400D01*
X128998600Y-56490400D02*
X130978000Y-54511000D01*
X145589600Y-54511000D02*
X147998600Y-56920000D01*
X130978000Y-54511000D02*
X145589600Y-54511000D01*
X109998600Y-56920000D02*
X109998600Y-56694400D01*
X109998600Y-56694400D02*
X112309000Y-54384000D01*
X126462600Y-54384000D02*
X128998600Y-56920000D01*
X112309000Y-54384000D02*
X126462600Y-54384000D01*
X83873600Y-56920000D02*
X83873600Y-56276400D01*
X83873600Y-56276400D02*
X85766000Y-54384000D01*
X107462600Y-54384000D02*
X109998600Y-56920000D01*
X85766000Y-54384000D02*
X107462600Y-54384000D01*
X82603600Y-59460000D02*
X82603600Y-60365600D01*
X229149000Y-36477000D02*
X229149000Y-38382000D01*
X74844000Y-34572000D02*
X74082000Y-34572000D01*
X77384000Y-37112000D02*
X74844000Y-34572000D01*
X77384000Y-42700000D02*
X77384000Y-37112000D01*
X83607000Y-48923000D02*
X77384000Y-42700000D01*
X207051000Y-48923000D02*
X83607000Y-48923000D01*
X208067000Y-49939000D02*
X207051000Y-48923000D01*
X217846000Y-49685000D02*
X213401000Y-49685000D01*
X229149000Y-38382000D02*
X217846000Y-49685000D01*
X74209000Y-34572000D02*
X74082000Y-34572000D01*
X200066000Y-97310000D02*
X197399000Y-99977000D01*
X197399000Y-99977000D02*
X197399000Y-115090000D01*
X209210000Y-97310000D02*
X200066000Y-97310000D01*
X60366000Y-113439000D02*
X60366000Y-110645000D01*
X71796000Y-124869000D02*
X60366000Y-113439000D01*
X194478000Y-124869000D02*
X71796000Y-124869000D01*
X198034000Y-121313000D02*
X194478000Y-124869000D01*
X198034000Y-120678000D02*
X198034000Y-121313000D01*
X194859000Y-117503000D02*
X198034000Y-120678000D01*
D26*
G36*
X58042104Y-30714973D02*
X57958604Y-30968999D01*
X58842000Y-31852395D01*
X59725396Y-30968999D01*
X59641896Y-30714973D01*
X59559646Y-30685000D01*
X72764531Y-30685000D01*
X72754259Y-30691610D01*
X72609269Y-30903810D01*
X72558260Y-31155700D01*
X72558260Y-32908300D01*
X72602538Y-33143617D01*
X72741610Y-33359741D01*
X72953810Y-33504731D01*
X73002157Y-33514522D01*
X72801529Y-33714800D01*
X72570963Y-34270065D01*
X72570438Y-34871297D01*
X72800035Y-35426964D01*
X73214698Y-35842351D01*
X72801529Y-36254800D01*
X72570963Y-36810065D01*
X72570438Y-37411297D01*
X72800035Y-37966964D01*
X73214698Y-38382351D01*
X72801529Y-38794800D01*
X72570963Y-39350065D01*
X72570438Y-39951297D01*
X72800035Y-40506964D01*
X73214698Y-40922351D01*
X72801529Y-41334800D01*
X72570963Y-41890065D01*
X72570438Y-42491297D01*
X72800035Y-43046964D01*
X73214698Y-43462351D01*
X72801529Y-43874800D01*
X72570963Y-44430065D01*
X72570438Y-45031297D01*
X72800035Y-45586964D01*
X73214698Y-46002351D01*
X72801529Y-46414800D01*
X72570963Y-46970065D01*
X72570438Y-47571297D01*
X72800035Y-48126964D01*
X73214698Y-48542351D01*
X72801529Y-48954800D01*
X72570963Y-49510065D01*
X72570438Y-50111297D01*
X72800035Y-50666964D01*
X73214698Y-51082351D01*
X72801529Y-51494800D01*
X72570963Y-52050065D01*
X72570438Y-52651297D01*
X72800035Y-53206964D01*
X73214698Y-53622351D01*
X72801529Y-54034800D01*
X72570963Y-54590065D01*
X72570438Y-55191297D01*
X72800035Y-55746964D01*
X73214698Y-56162351D01*
X72801529Y-56574800D01*
X72570963Y-57130065D01*
X72570438Y-57731297D01*
X72800035Y-58286964D01*
X73214698Y-58702351D01*
X72801529Y-59114800D01*
X72570963Y-59670065D01*
X72570438Y-60271297D01*
X72800035Y-60826964D01*
X73224800Y-61252471D01*
X73780065Y-61483037D01*
X74381297Y-61483562D01*
X74936964Y-61253965D01*
X75362471Y-60829200D01*
X75593037Y-60273935D01*
X75593562Y-59672703D01*
X75363965Y-59117036D01*
X74949302Y-58701649D01*
X75362471Y-58289200D01*
X75593037Y-57733935D01*
X75593562Y-57132703D01*
X75363965Y-56577036D01*
X74949302Y-56161649D01*
X75362471Y-55749200D01*
X75593037Y-55193935D01*
X75593562Y-54592703D01*
X75363965Y-54037036D01*
X74949302Y-53621649D01*
X75362471Y-53209200D01*
X75593037Y-52653935D01*
X75593562Y-52052703D01*
X75363965Y-51497036D01*
X74949302Y-51081649D01*
X75362471Y-50669200D01*
X75593037Y-50113935D01*
X75593562Y-49512703D01*
X75363965Y-48957036D01*
X74949302Y-48541649D01*
X75362471Y-48129200D01*
X75593037Y-47573935D01*
X75593562Y-46972703D01*
X75363965Y-46417036D01*
X74949302Y-46001649D01*
X75362471Y-45589200D01*
X75593037Y-45033935D01*
X75593562Y-44432703D01*
X75363965Y-43877036D01*
X74949302Y-43461649D01*
X75362471Y-43049200D01*
X75593037Y-42493935D01*
X75593562Y-41892703D01*
X75363965Y-41337036D01*
X74949302Y-40921649D01*
X75362471Y-40509200D01*
X75593037Y-39953935D01*
X75593562Y-39352703D01*
X75363965Y-38797036D01*
X74949302Y-38381649D01*
X75362471Y-37969200D01*
X75593037Y-37413935D01*
X75593562Y-36812703D01*
X75492095Y-36567133D01*
X76431500Y-37506539D01*
X76431500Y-42700000D01*
X76504005Y-43064506D01*
X76710481Y-43373519D01*
X82933481Y-49596519D01*
X83242494Y-49802995D01*
X83607000Y-49875500D01*
X206656462Y-49875500D01*
X207025031Y-50244069D01*
X207151311Y-50549689D01*
X207454714Y-50853622D01*
X207851332Y-51018313D01*
X208280784Y-51018687D01*
X208677689Y-50854689D01*
X208981622Y-50551286D01*
X209146313Y-50154668D01*
X209146687Y-49725216D01*
X208982689Y-49328311D01*
X208679286Y-49024378D01*
X208371691Y-48896653D01*
X207724519Y-48249481D01*
X207415506Y-48043005D01*
X207051000Y-47970500D01*
X84001538Y-47970500D01*
X79325127Y-43294089D01*
X79848343Y-43294089D01*
X80073944Y-43840086D01*
X80491317Y-44258188D01*
X81036919Y-44484742D01*
X81627689Y-44485257D01*
X82173686Y-44259656D01*
X82591788Y-43842283D01*
X82818342Y-43296681D01*
X82818857Y-42705911D01*
X82773091Y-42595149D01*
X83026415Y-42595370D01*
X83808819Y-42272086D01*
X83729287Y-42463621D01*
X83728355Y-43531693D01*
X84136227Y-44518819D01*
X84890809Y-45274719D01*
X85877221Y-45684313D01*
X86945293Y-45685245D01*
X87932419Y-45277373D01*
X88688319Y-44522791D01*
X89097913Y-43536379D01*
X89098845Y-42468307D01*
X89017245Y-42270821D01*
X89797059Y-42594628D01*
X90053897Y-42594852D01*
X90008858Y-42703319D01*
X90008343Y-43294089D01*
X90233944Y-43840086D01*
X90651317Y-44258188D01*
X91196919Y-44484742D01*
X91787689Y-44485257D01*
X92333686Y-44259656D01*
X92751788Y-43842283D01*
X92978342Y-43296681D01*
X92978344Y-43294089D01*
X105973343Y-43294089D01*
X106198944Y-43840086D01*
X106616317Y-44258188D01*
X107161919Y-44484742D01*
X107752689Y-44485257D01*
X108298686Y-44259656D01*
X108716788Y-43842283D01*
X108943342Y-43296681D01*
X108943857Y-42705911D01*
X108898091Y-42595149D01*
X109151415Y-42595370D01*
X109933819Y-42272086D01*
X109854287Y-42463621D01*
X109853355Y-43531693D01*
X110261227Y-44518819D01*
X111015809Y-45274719D01*
X112002221Y-45684313D01*
X113070293Y-45685245D01*
X114057419Y-45277373D01*
X114813319Y-44522791D01*
X115222913Y-43536379D01*
X115223845Y-42468307D01*
X115142245Y-42270821D01*
X115922059Y-42594628D01*
X116178897Y-42594852D01*
X116133858Y-42703319D01*
X116133343Y-43294089D01*
X116358944Y-43840086D01*
X116776317Y-44258188D01*
X117321919Y-44484742D01*
X117912689Y-44485257D01*
X118458686Y-44259656D01*
X118876788Y-43842283D01*
X119103342Y-43296681D01*
X119103344Y-43294089D01*
X124973343Y-43294089D01*
X125198944Y-43840086D01*
X125616317Y-44258188D01*
X126161919Y-44484742D01*
X126752689Y-44485257D01*
X127298686Y-44259656D01*
X127716788Y-43842283D01*
X127943342Y-43296681D01*
X127943857Y-42705911D01*
X127898091Y-42595149D01*
X128151415Y-42595370D01*
X128933819Y-42272086D01*
X128854287Y-42463621D01*
X128853355Y-43531693D01*
X129261227Y-44518819D01*
X130015809Y-45274719D01*
X131002221Y-45684313D01*
X132070293Y-45685245D01*
X133057419Y-45277373D01*
X133813319Y-44522791D01*
X134222913Y-43536379D01*
X134223845Y-42468307D01*
X134142245Y-42270821D01*
X134922059Y-42594628D01*
X135178897Y-42594852D01*
X135133858Y-42703319D01*
X135133343Y-43294089D01*
X135358944Y-43840086D01*
X135776317Y-44258188D01*
X136321919Y-44484742D01*
X136912689Y-44485257D01*
X137458686Y-44259656D01*
X137876788Y-43842283D01*
X138103342Y-43296681D01*
X138103344Y-43294089D01*
X143973343Y-43294089D01*
X144198944Y-43840086D01*
X144616317Y-44258188D01*
X145161919Y-44484742D01*
X145752689Y-44485257D01*
X146298686Y-44259656D01*
X146716788Y-43842283D01*
X146943342Y-43296681D01*
X146943857Y-42705911D01*
X146898091Y-42595149D01*
X147151415Y-42595370D01*
X147933819Y-42272086D01*
X147854287Y-42463621D01*
X147853355Y-43531693D01*
X148261227Y-44518819D01*
X149015809Y-45274719D01*
X150002221Y-45684313D01*
X151070293Y-45685245D01*
X152057419Y-45277373D01*
X152813319Y-44522791D01*
X153222913Y-43536379D01*
X153223845Y-42468307D01*
X153142245Y-42270821D01*
X153922059Y-42594628D01*
X154178897Y-42594852D01*
X154133858Y-42703319D01*
X154133343Y-43294089D01*
X154358944Y-43840086D01*
X154776317Y-44258188D01*
X155321919Y-44484742D01*
X155912689Y-44485257D01*
X156458686Y-44259656D01*
X156876788Y-43842283D01*
X157103342Y-43296681D01*
X157103344Y-43294089D01*
X162973343Y-43294089D01*
X163198944Y-43840086D01*
X163616317Y-44258188D01*
X164161919Y-44484742D01*
X164752689Y-44485257D01*
X165298686Y-44259656D01*
X165716788Y-43842283D01*
X165943342Y-43296681D01*
X165943857Y-42705911D01*
X165898091Y-42595149D01*
X166151415Y-42595370D01*
X166933819Y-42272086D01*
X166854287Y-42463621D01*
X166853355Y-43531693D01*
X167261227Y-44518819D01*
X168015809Y-45274719D01*
X169002221Y-45684313D01*
X170070293Y-45685245D01*
X171057419Y-45277373D01*
X171813319Y-44522791D01*
X172222913Y-43536379D01*
X172223845Y-42468307D01*
X172142245Y-42270821D01*
X172922059Y-42594628D01*
X173178897Y-42594852D01*
X173133858Y-42703319D01*
X173133343Y-43294089D01*
X173358944Y-43840086D01*
X173776317Y-44258188D01*
X174321919Y-44484742D01*
X174912689Y-44485257D01*
X175458686Y-44259656D01*
X175876788Y-43842283D01*
X176103342Y-43296681D01*
X176103857Y-42705911D01*
X175878256Y-42159914D01*
X175460883Y-41741812D01*
X175177031Y-41623946D01*
X175483228Y-40886541D01*
X175483970Y-40037185D01*
X175159620Y-39252200D01*
X174559559Y-38651091D01*
X174156298Y-38483642D01*
X174213228Y-38346541D01*
X174213970Y-37497185D01*
X173889620Y-36712200D01*
X173289559Y-36111091D01*
X172505141Y-35785372D01*
X171655785Y-35784630D01*
X170870800Y-36108980D01*
X170269691Y-36709041D01*
X169943972Y-37493459D01*
X169943230Y-38342815D01*
X170267580Y-39127800D01*
X170867641Y-39728909D01*
X171270902Y-39896358D01*
X171213972Y-40033459D01*
X171213235Y-40877390D01*
X171061391Y-40725281D01*
X170074979Y-40315687D01*
X169006907Y-40314755D01*
X168019781Y-40722627D01*
X167863235Y-40878900D01*
X167863970Y-40037185D01*
X167805850Y-39896524D01*
X168206400Y-39731020D01*
X168807509Y-39130959D01*
X169133228Y-38346541D01*
X169133970Y-37497185D01*
X168809620Y-36712200D01*
X168209559Y-36111091D01*
X167425141Y-35785372D01*
X166575785Y-35784630D01*
X165790800Y-36108980D01*
X165189691Y-36709041D01*
X164863972Y-37493459D01*
X164863230Y-38342815D01*
X164921350Y-38483476D01*
X164520800Y-38648980D01*
X163919691Y-39249041D01*
X163593972Y-40033459D01*
X163593230Y-40882815D01*
X163899571Y-41624214D01*
X163618514Y-41740344D01*
X163200412Y-42157717D01*
X162973858Y-42703319D01*
X162973343Y-43294089D01*
X157103344Y-43294089D01*
X157103857Y-42705911D01*
X156878256Y-42159914D01*
X156460883Y-41741812D01*
X156177031Y-41623946D01*
X156483228Y-40886541D01*
X156483970Y-40037185D01*
X156159620Y-39252200D01*
X155559559Y-38651091D01*
X155156298Y-38483642D01*
X155213228Y-38346541D01*
X155213970Y-37497185D01*
X154889620Y-36712200D01*
X154289559Y-36111091D01*
X153505141Y-35785372D01*
X152655785Y-35784630D01*
X151870800Y-36108980D01*
X151269691Y-36709041D01*
X150943972Y-37493459D01*
X150943230Y-38342815D01*
X151267580Y-39127800D01*
X151867641Y-39728909D01*
X152270902Y-39896358D01*
X152213972Y-40033459D01*
X152213235Y-40877390D01*
X152061391Y-40725281D01*
X151074979Y-40315687D01*
X150006907Y-40314755D01*
X149019781Y-40722627D01*
X148863235Y-40878900D01*
X148863970Y-40037185D01*
X148805850Y-39896524D01*
X149206400Y-39731020D01*
X149807509Y-39130959D01*
X150133228Y-38346541D01*
X150133970Y-37497185D01*
X149809620Y-36712200D01*
X149209559Y-36111091D01*
X148425141Y-35785372D01*
X147575785Y-35784630D01*
X146790800Y-36108980D01*
X146189691Y-36709041D01*
X145863972Y-37493459D01*
X145863230Y-38342815D01*
X145921350Y-38483476D01*
X145520800Y-38648980D01*
X144919691Y-39249041D01*
X144593972Y-40033459D01*
X144593230Y-40882815D01*
X144899571Y-41624214D01*
X144618514Y-41740344D01*
X144200412Y-42157717D01*
X143973858Y-42703319D01*
X143973343Y-43294089D01*
X138103344Y-43294089D01*
X138103857Y-42705911D01*
X137878256Y-42159914D01*
X137460883Y-41741812D01*
X137177031Y-41623946D01*
X137483228Y-40886541D01*
X137483970Y-40037185D01*
X137159620Y-39252200D01*
X136559559Y-38651091D01*
X136156298Y-38483642D01*
X136213228Y-38346541D01*
X136213970Y-37497185D01*
X135889620Y-36712200D01*
X135289559Y-36111091D01*
X134505141Y-35785372D01*
X133655785Y-35784630D01*
X132870800Y-36108980D01*
X132269691Y-36709041D01*
X131943972Y-37493459D01*
X131943230Y-38342815D01*
X132267580Y-39127800D01*
X132867641Y-39728909D01*
X133270902Y-39896358D01*
X133213972Y-40033459D01*
X133213235Y-40877390D01*
X133061391Y-40725281D01*
X132074979Y-40315687D01*
X131006907Y-40314755D01*
X130019781Y-40722627D01*
X129863235Y-40878900D01*
X129863970Y-40037185D01*
X129805850Y-39896524D01*
X130206400Y-39731020D01*
X130807509Y-39130959D01*
X131133228Y-38346541D01*
X131133970Y-37497185D01*
X130809620Y-36712200D01*
X130209559Y-36111091D01*
X129425141Y-35785372D01*
X128575785Y-35784630D01*
X127790800Y-36108980D01*
X127189691Y-36709041D01*
X126863972Y-37493459D01*
X126863230Y-38342815D01*
X126921350Y-38483476D01*
X126520800Y-38648980D01*
X125919691Y-39249041D01*
X125593972Y-40033459D01*
X125593230Y-40882815D01*
X125899571Y-41624214D01*
X125618514Y-41740344D01*
X125200412Y-42157717D01*
X124973858Y-42703319D01*
X124973343Y-43294089D01*
X119103344Y-43294089D01*
X119103857Y-42705911D01*
X118878256Y-42159914D01*
X118460883Y-41741812D01*
X118177031Y-41623946D01*
X118483228Y-40886541D01*
X118483970Y-40037185D01*
X118159620Y-39252200D01*
X117559559Y-38651091D01*
X117156298Y-38483642D01*
X117213228Y-38346541D01*
X117213970Y-37497185D01*
X116889620Y-36712200D01*
X116289559Y-36111091D01*
X115505141Y-35785372D01*
X114655785Y-35784630D01*
X113870800Y-36108980D01*
X113269691Y-36709041D01*
X112943972Y-37493459D01*
X112943230Y-38342815D01*
X113267580Y-39127800D01*
X113867641Y-39728909D01*
X114270902Y-39896358D01*
X114213972Y-40033459D01*
X114213235Y-40877390D01*
X114061391Y-40725281D01*
X113074979Y-40315687D01*
X112006907Y-40314755D01*
X111019781Y-40722627D01*
X110863235Y-40878900D01*
X110863970Y-40037185D01*
X110805850Y-39896524D01*
X111206400Y-39731020D01*
X111807509Y-39130959D01*
X112133228Y-38346541D01*
X112133970Y-37497185D01*
X111809620Y-36712200D01*
X111209559Y-36111091D01*
X110425141Y-35785372D01*
X109575785Y-35784630D01*
X108790800Y-36108980D01*
X108189691Y-36709041D01*
X107863972Y-37493459D01*
X107863230Y-38342815D01*
X107921350Y-38483476D01*
X107520800Y-38648980D01*
X106919691Y-39249041D01*
X106593972Y-40033459D01*
X106593230Y-40882815D01*
X106899571Y-41624214D01*
X106618514Y-41740344D01*
X106200412Y-42157717D01*
X105973858Y-42703319D01*
X105973343Y-43294089D01*
X92978344Y-43294089D01*
X92978857Y-42705911D01*
X92753256Y-42159914D01*
X92335883Y-41741812D01*
X92052031Y-41623946D01*
X92358228Y-40886541D01*
X92358970Y-40037185D01*
X92034620Y-39252200D01*
X91434559Y-38651091D01*
X91031298Y-38483642D01*
X91088228Y-38346541D01*
X91088970Y-37497185D01*
X90764620Y-36712200D01*
X90164559Y-36111091D01*
X89380141Y-35785372D01*
X88530785Y-35784630D01*
X87745800Y-36108980D01*
X87144691Y-36709041D01*
X86818972Y-37493459D01*
X86818230Y-38342815D01*
X87142580Y-39127800D01*
X87742641Y-39728909D01*
X88145902Y-39896358D01*
X88088972Y-40033459D01*
X88088235Y-40877390D01*
X87936391Y-40725281D01*
X86949979Y-40315687D01*
X85881907Y-40314755D01*
X84894781Y-40722627D01*
X84738235Y-40878900D01*
X84738970Y-40037185D01*
X84680850Y-39896524D01*
X85081400Y-39731020D01*
X85682509Y-39130959D01*
X86008228Y-38346541D01*
X86008970Y-37497185D01*
X85684620Y-36712200D01*
X85084559Y-36111091D01*
X84300141Y-35785372D01*
X83450785Y-35784630D01*
X82665800Y-36108980D01*
X82064691Y-36709041D01*
X81738972Y-37493459D01*
X81738230Y-38342815D01*
X81796350Y-38483476D01*
X81395800Y-38648980D01*
X80794691Y-39249041D01*
X80468972Y-40033459D01*
X80468230Y-40882815D01*
X80774571Y-41624214D01*
X80493514Y-41740344D01*
X80075412Y-42157717D01*
X79848858Y-42703319D01*
X79848343Y-43294089D01*
X79325127Y-43294089D01*
X78336500Y-42305462D01*
X78336500Y-37112000D01*
X78263995Y-36747494D01*
X78077240Y-36467995D01*
X78057519Y-36438480D01*
X75517519Y-33898481D01*
X75408967Y-33825949D01*
X75363965Y-33717036D01*
X75164263Y-33516985D01*
X75193617Y-33511462D01*
X75409741Y-33372390D01*
X75554731Y-33160190D01*
X75605740Y-32908300D01*
X75605740Y-31155700D01*
X75561462Y-30920383D01*
X75422390Y-30704259D01*
X75394204Y-30685000D01*
X198477954Y-30685000D01*
X198440000Y-30875805D01*
X198440000Y-31424195D01*
X198514979Y-31801138D01*
X198728500Y-32120695D01*
X199048057Y-32334216D01*
X199425000Y-32409195D01*
X199801943Y-32334216D01*
X200121500Y-32120695D01*
X200335021Y-31801138D01*
X200410000Y-31424195D01*
X200410000Y-30875805D01*
X200372046Y-30685000D01*
X203927954Y-30685000D01*
X203890000Y-30875805D01*
X203890000Y-31424195D01*
X203964979Y-31801138D01*
X204178500Y-32120695D01*
X204498057Y-32334216D01*
X204875000Y-32409195D01*
X205251943Y-32334216D01*
X205571500Y-32120695D01*
X205785021Y-31801138D01*
X205860000Y-31424195D01*
X205860000Y-30875805D01*
X205822046Y-30685000D01*
X234922800Y-30685000D01*
X234922800Y-129315000D01*
X53685000Y-129315000D01*
X53685000Y-121138697D01*
X56140708Y-121138697D01*
X56396694Y-121758229D01*
X56870278Y-122232640D01*
X57489362Y-122489707D01*
X58159697Y-122490292D01*
X58779229Y-122234306D01*
X59096137Y-121917950D01*
X59410278Y-122232640D01*
X60029362Y-122489707D01*
X60699697Y-122490292D01*
X61319229Y-122234306D01*
X61560252Y-121993703D01*
X61896902Y-121993703D01*
X62001687Y-122265745D01*
X62629526Y-122500619D01*
X63299456Y-122477349D01*
X63810313Y-122265745D01*
X63915098Y-121993703D01*
X62906000Y-120984605D01*
X61896902Y-121993703D01*
X61560252Y-121993703D01*
X61793640Y-121760722D01*
X61809949Y-121721446D01*
X62726395Y-120805000D01*
X63085605Y-120805000D01*
X64094703Y-121814098D01*
X64366745Y-121709313D01*
X64601619Y-121081474D01*
X64578349Y-120411544D01*
X64366745Y-119900687D01*
X64094703Y-119795902D01*
X63085605Y-120805000D01*
X62726395Y-120805000D01*
X61810896Y-119889501D01*
X61795306Y-119851771D01*
X61560243Y-119616297D01*
X61896902Y-119616297D01*
X62906000Y-120625395D01*
X63915098Y-119616297D01*
X63810313Y-119344255D01*
X63182474Y-119109381D01*
X62512544Y-119132651D01*
X62001687Y-119344255D01*
X61896902Y-119616297D01*
X61560243Y-119616297D01*
X61321722Y-119377360D01*
X60702638Y-119120293D01*
X60032303Y-119119708D01*
X59412771Y-119375694D01*
X59095863Y-119692050D01*
X58781722Y-119377360D01*
X58162638Y-119120293D01*
X57492303Y-119119708D01*
X56872771Y-119375694D01*
X56398360Y-119849278D01*
X56141293Y-120468362D01*
X56140708Y-121138697D01*
X53685000Y-121138697D01*
X53685000Y-110978697D01*
X56140708Y-110978697D01*
X56396694Y-111598229D01*
X56870278Y-112072640D01*
X57489362Y-112329707D01*
X58159697Y-112330292D01*
X58779229Y-112074306D01*
X59096137Y-111757950D01*
X59410278Y-112072640D01*
X59413500Y-112073978D01*
X59413500Y-113439000D01*
X59486005Y-113803506D01*
X59692481Y-114112519D01*
X71122481Y-125542519D01*
X71431494Y-125748995D01*
X71796000Y-125821500D01*
X194478000Y-125821500D01*
X194842506Y-125748995D01*
X195151519Y-125542519D01*
X198707519Y-121986520D01*
X198913995Y-121677506D01*
X198930667Y-121593689D01*
X198986500Y-121313000D01*
X198986500Y-120691538D01*
X200154481Y-121859519D01*
X200463494Y-122065995D01*
X200828000Y-122138500D01*
X201576934Y-122138500D01*
X201882332Y-122265313D01*
X202311784Y-122265687D01*
X202708689Y-122101689D01*
X203012622Y-121798286D01*
X203140347Y-121490691D01*
X205057519Y-119573519D01*
X205263995Y-119264506D01*
X205336500Y-118900000D01*
X205336500Y-116614000D01*
X205263995Y-116249494D01*
X205168115Y-116106000D01*
X205057520Y-115940481D01*
X201742969Y-112625930D01*
X201616689Y-112320311D01*
X201313286Y-112016378D01*
X200916668Y-111851687D01*
X200487216Y-111851313D01*
X200090311Y-112015311D01*
X199875500Y-112229747D01*
X199875500Y-105451538D01*
X205667538Y-99659500D01*
X208053934Y-99659500D01*
X208359332Y-99786313D01*
X208382687Y-99786333D01*
X208464494Y-99840995D01*
X208829000Y-99913500D01*
X208575000Y-99913500D01*
X208210494Y-99986005D01*
X207901481Y-100192481D01*
X205696084Y-102397878D01*
X205425141Y-102285372D01*
X204575785Y-102284630D01*
X203790800Y-102608980D01*
X203189691Y-103209041D01*
X202863972Y-103993459D01*
X202863230Y-104842815D01*
X202921350Y-104983476D01*
X202520800Y-105148980D01*
X201919691Y-105749041D01*
X201593972Y-106533459D01*
X201593230Y-107382815D01*
X201899571Y-108124214D01*
X201618514Y-108240344D01*
X201200412Y-108657717D01*
X200973858Y-109203319D01*
X200973343Y-109794089D01*
X201198944Y-110340086D01*
X201616317Y-110758188D01*
X202161919Y-110984742D01*
X202752689Y-110985257D01*
X203298686Y-110759656D01*
X203716788Y-110342283D01*
X203943342Y-109796681D01*
X203943857Y-109205911D01*
X203898091Y-109095149D01*
X204151415Y-109095370D01*
X204933819Y-108772086D01*
X204854287Y-108963621D01*
X204853355Y-110031693D01*
X205261227Y-111018819D01*
X206015809Y-111774719D01*
X207002221Y-112184313D01*
X208070293Y-112185245D01*
X209057419Y-111777373D01*
X209813319Y-111022791D01*
X210222913Y-110036379D01*
X210223845Y-108968307D01*
X210142245Y-108770821D01*
X210922059Y-109094628D01*
X211178897Y-109094852D01*
X211133858Y-109203319D01*
X211133343Y-109794089D01*
X211358944Y-110340086D01*
X211776317Y-110758188D01*
X212321919Y-110984742D01*
X212912689Y-110985257D01*
X213458686Y-110759656D01*
X213876788Y-110342283D01*
X213972500Y-110111783D01*
X213972500Y-114963000D01*
X214045005Y-115327506D01*
X214251481Y-115636519D01*
X215203980Y-116589019D01*
X215299015Y-116652519D01*
X215512994Y-116795495D01*
X215877058Y-116867912D01*
X216006610Y-116956431D01*
X216258500Y-117007440D01*
X216701902Y-117007440D01*
X220549500Y-120855038D01*
X220549500Y-122804808D01*
X220455629Y-122898515D01*
X220267215Y-123352266D01*
X220266786Y-123843579D01*
X220454408Y-124297657D01*
X220801515Y-124645371D01*
X221255266Y-124833785D01*
X221746579Y-124834214D01*
X222200657Y-124646592D01*
X222548371Y-124299485D01*
X222736785Y-123845734D01*
X222737214Y-123354421D01*
X222549592Y-122900343D01*
X222454500Y-122805085D01*
X222454500Y-120460500D01*
X222381995Y-120095994D01*
X222175519Y-119786981D01*
X219447106Y-117058568D01*
X219583784Y-117058687D01*
X219980689Y-116894689D01*
X220284622Y-116591286D01*
X220449313Y-116194668D01*
X220449687Y-115765216D01*
X220386321Y-115611859D01*
X225429500Y-120655038D01*
X225429500Y-122804808D01*
X225335629Y-122898515D01*
X225147215Y-123352266D01*
X225146786Y-123843579D01*
X225334408Y-124297657D01*
X225681515Y-124645371D01*
X226135266Y-124833785D01*
X226626579Y-124834214D01*
X227080657Y-124646592D01*
X227428371Y-124299485D01*
X227616785Y-123845734D01*
X227617214Y-123354421D01*
X227429592Y-122900343D01*
X227334500Y-122805085D01*
X227334500Y-120260500D01*
X227261995Y-119895994D01*
X227055519Y-119586981D01*
X218780288Y-111311750D01*
X219662520Y-110429519D01*
X219786293Y-110244279D01*
X219868995Y-110120506D01*
X219941500Y-109756000D01*
X219941500Y-107089000D01*
X219868995Y-106724494D01*
X219662519Y-106415481D01*
X218671500Y-105424462D01*
X218671500Y-104562066D01*
X218798313Y-104256668D01*
X218798687Y-103827216D01*
X218634689Y-103430311D01*
X218331286Y-103126378D01*
X217934668Y-102961687D01*
X217505216Y-102961313D01*
X217108311Y-103125311D01*
X216878097Y-103355123D01*
X216856689Y-103303311D01*
X216553286Y-102999378D01*
X216156668Y-102834687D01*
X215729805Y-102834315D01*
X215713689Y-102795311D01*
X215410286Y-102491378D01*
X215013668Y-102326687D01*
X214584216Y-102326313D01*
X214187311Y-102490311D01*
X213883378Y-102793714D01*
X213755653Y-103101309D01*
X212981481Y-103875481D01*
X212775005Y-104184494D01*
X212702500Y-104549000D01*
X212702500Y-105294282D01*
X212559559Y-105151091D01*
X212156298Y-104983642D01*
X212213228Y-104846541D01*
X212213970Y-103997185D01*
X211889620Y-103212200D01*
X211289559Y-102611091D01*
X210505141Y-102285372D01*
X209655785Y-102284630D01*
X208870800Y-102608980D01*
X208269691Y-103209041D01*
X207943972Y-103993459D01*
X207943230Y-104842815D01*
X208267580Y-105627800D01*
X208867641Y-106228909D01*
X209270902Y-106396358D01*
X209213972Y-106533459D01*
X209213235Y-107377390D01*
X209061391Y-107225281D01*
X208074979Y-106815687D01*
X207006907Y-106814755D01*
X206019781Y-107222627D01*
X205863235Y-107378900D01*
X205863970Y-106537185D01*
X205805850Y-106396524D01*
X206206400Y-106231020D01*
X206807509Y-105630959D01*
X207133228Y-104846541D01*
X207133970Y-103997185D01*
X207033649Y-103754389D01*
X208969538Y-101818500D01*
X210466934Y-101818500D01*
X210772332Y-101945313D01*
X211201784Y-101945687D01*
X211509600Y-101818500D01*
X220880462Y-101818500D01*
X219585481Y-103113481D01*
X219379005Y-103422494D01*
X219306500Y-103787000D01*
X219306500Y-104916934D01*
X219179687Y-105222332D01*
X219179313Y-105651784D01*
X219343311Y-106048689D01*
X219646714Y-106352622D01*
X220043332Y-106517313D01*
X220472784Y-106517687D01*
X220626976Y-106453976D01*
X220593972Y-106533459D01*
X220593230Y-107382815D01*
X220899571Y-108124214D01*
X220618514Y-108240344D01*
X220200412Y-108657717D01*
X219973858Y-109203319D01*
X219973343Y-109794089D01*
X220198944Y-110340086D01*
X220616317Y-110758188D01*
X221161919Y-110984742D01*
X221752689Y-110985257D01*
X222298686Y-110759656D01*
X222716788Y-110342283D01*
X222943342Y-109796681D01*
X222943857Y-109205911D01*
X222898091Y-109095149D01*
X223151415Y-109095370D01*
X223933819Y-108772086D01*
X223854287Y-108963621D01*
X223853355Y-110031693D01*
X224261227Y-111018819D01*
X225015809Y-111774719D01*
X226002221Y-112184313D01*
X227070293Y-112185245D01*
X228057419Y-111777373D01*
X228813319Y-111022791D01*
X229222913Y-110036379D01*
X229223845Y-108968307D01*
X229142245Y-108770821D01*
X229922059Y-109094628D01*
X230178897Y-109094852D01*
X230133858Y-109203319D01*
X230133343Y-109794089D01*
X230358944Y-110340086D01*
X230776317Y-110758188D01*
X231321919Y-110984742D01*
X231912689Y-110985257D01*
X232458686Y-110759656D01*
X232876788Y-110342283D01*
X233103342Y-109796681D01*
X233103857Y-109205911D01*
X232878256Y-108659914D01*
X232460883Y-108241812D01*
X232177031Y-108123946D01*
X232483228Y-107386541D01*
X232483970Y-106537185D01*
X232159620Y-105752200D01*
X231559559Y-105151091D01*
X231156298Y-104983642D01*
X231213228Y-104846541D01*
X231213970Y-103997185D01*
X230889620Y-103212200D01*
X230289559Y-102611091D01*
X229505141Y-102285372D01*
X228655785Y-102284630D01*
X227870800Y-102608980D01*
X227269691Y-103209041D01*
X226943972Y-103993459D01*
X226943230Y-104842815D01*
X227267580Y-105627800D01*
X227867641Y-106228909D01*
X228270902Y-106396358D01*
X228213972Y-106533459D01*
X228213235Y-107377390D01*
X228061391Y-107225281D01*
X227074979Y-106815687D01*
X226006907Y-106814755D01*
X225019781Y-107222627D01*
X224863235Y-107378900D01*
X224863970Y-106537185D01*
X224805850Y-106396524D01*
X225206400Y-106231020D01*
X225807509Y-105630959D01*
X226133228Y-104846541D01*
X226133970Y-103997185D01*
X225809620Y-103212200D01*
X225209559Y-102611091D01*
X225199234Y-102606804D01*
X227422071Y-100383968D01*
X227727689Y-100257689D01*
X228031622Y-99954286D01*
X228196313Y-99557668D01*
X228196687Y-99128216D01*
X228032689Y-98731311D01*
X227729286Y-98427378D01*
X227332668Y-98262687D01*
X227130527Y-98262511D01*
X230978069Y-94414969D01*
X231283689Y-94288689D01*
X231587622Y-93985286D01*
X231752313Y-93588668D01*
X231752687Y-93159216D01*
X231588689Y-92762311D01*
X231474808Y-92648231D01*
X232870519Y-91252520D01*
X233076995Y-90943506D01*
X233102257Y-90816506D01*
X233149500Y-90579000D01*
X233149500Y-88547000D01*
X233076995Y-88182494D01*
X232870519Y-87873481D01*
X231848430Y-86851392D01*
X232108332Y-86959313D01*
X232537784Y-86959687D01*
X232934689Y-86795689D01*
X233238622Y-86492286D01*
X233403313Y-86095668D01*
X233403687Y-85666216D01*
X233276500Y-85358400D01*
X233276500Y-82337066D01*
X233403313Y-82031668D01*
X233403687Y-81602216D01*
X233239689Y-81205311D01*
X232936286Y-80901378D01*
X232539668Y-80736687D01*
X232517393Y-80736668D01*
X232627931Y-80574890D01*
X232678940Y-80323000D01*
X232678940Y-77223000D01*
X232634662Y-76987683D01*
X232495590Y-76771559D01*
X232484000Y-76763640D01*
X232484000Y-76526038D01*
X232502069Y-76507969D01*
X232807689Y-76381689D01*
X233111622Y-76078286D01*
X233276313Y-75681668D01*
X233276687Y-75252216D01*
X233112689Y-74855311D01*
X232809286Y-74551378D01*
X232501691Y-74423653D01*
X232481500Y-74403462D01*
X232481500Y-71885540D01*
X232625431Y-71674890D01*
X232676440Y-71423000D01*
X232676440Y-68323000D01*
X232632162Y-68087683D01*
X232493090Y-67871559D01*
X232280890Y-67726569D01*
X232029000Y-67675560D01*
X231029000Y-67675560D01*
X230793683Y-67719838D01*
X230577559Y-67858910D01*
X230432569Y-68071110D01*
X230381560Y-68323000D01*
X230381560Y-71423000D01*
X230425838Y-71658317D01*
X230564910Y-71874441D01*
X230576500Y-71882360D01*
X230576500Y-74798000D01*
X230649005Y-75162506D01*
X230852208Y-75466621D01*
X230651505Y-75766994D01*
X230579000Y-76131500D01*
X230579000Y-76760460D01*
X230435069Y-76971110D01*
X230384060Y-77223000D01*
X230384060Y-80323000D01*
X230428338Y-80558317D01*
X230567410Y-80774441D01*
X230779610Y-80919431D01*
X231031500Y-80970440D01*
X231643059Y-80970440D01*
X231409378Y-81203714D01*
X231244687Y-81600332D01*
X231244313Y-82029784D01*
X231371500Y-82337600D01*
X231371500Y-83921793D01*
X231118159Y-83836446D01*
X230217605Y-84737000D01*
X231118159Y-85637554D01*
X231278193Y-85583641D01*
X231244687Y-85664332D01*
X231244313Y-86093784D01*
X231399386Y-86469088D01*
X231351954Y-86437395D01*
X231340068Y-86408629D01*
X230908643Y-85976449D01*
X230887806Y-85967797D01*
X230938554Y-85817159D01*
X230038000Y-84916605D01*
X229137446Y-85817159D01*
X229188035Y-85967327D01*
X229169629Y-85974932D01*
X228767677Y-86376182D01*
X228398818Y-86006677D01*
X228798551Y-85607643D01*
X228807203Y-85586806D01*
X228957841Y-85637554D01*
X229858395Y-84737000D01*
X228957841Y-83836446D01*
X228807673Y-83887035D01*
X228800068Y-83868629D01*
X228588650Y-83656841D01*
X229137446Y-83656841D01*
X230038000Y-84557395D01*
X230938554Y-83656841D01*
X230852148Y-83400357D01*
X230278664Y-83190542D01*
X229668540Y-83216161D01*
X229223852Y-83400357D01*
X229137446Y-83656841D01*
X228588650Y-83656841D01*
X228368643Y-83436449D01*
X227804670Y-83202267D01*
X227194009Y-83201735D01*
X226629629Y-83434932D01*
X226197449Y-83866357D01*
X225963267Y-84430330D01*
X225962735Y-85040991D01*
X226195932Y-85605371D01*
X226597182Y-86007323D01*
X226229045Y-86374816D01*
X226117494Y-86397005D01*
X225808480Y-86603481D01*
X224894500Y-87517462D01*
X224894500Y-68323000D01*
X226383560Y-68323000D01*
X226383560Y-71423000D01*
X226427838Y-71658317D01*
X226566910Y-71874441D01*
X226578500Y-71882360D01*
X226578500Y-76760460D01*
X226434569Y-76971110D01*
X226383560Y-77223000D01*
X226383560Y-80323000D01*
X226427838Y-80558317D01*
X226566910Y-80774441D01*
X226578500Y-80782360D01*
X226578500Y-81341000D01*
X226651005Y-81705506D01*
X226826036Y-81967458D01*
X226963311Y-82299689D01*
X227266714Y-82603622D01*
X227663332Y-82768313D01*
X228092784Y-82768687D01*
X228489689Y-82604689D01*
X228793622Y-82301286D01*
X228958313Y-81904668D01*
X228958687Y-81475216D01*
X228794689Y-81078311D01*
X228491286Y-80774378D01*
X228491162Y-80774326D01*
X228627431Y-80574890D01*
X228678440Y-80323000D01*
X228678440Y-77223000D01*
X228634162Y-76987683D01*
X228495090Y-76771559D01*
X228483500Y-76763640D01*
X228483500Y-71885540D01*
X228627431Y-71674890D01*
X228678440Y-71423000D01*
X228678440Y-68323000D01*
X228634162Y-68087683D01*
X228495090Y-67871559D01*
X228282890Y-67726569D01*
X228031000Y-67675560D01*
X227031000Y-67675560D01*
X226795683Y-67719838D01*
X226579559Y-67858910D01*
X226434569Y-68071110D01*
X226383560Y-68323000D01*
X224894500Y-68323000D01*
X224894500Y-62972697D01*
X224923708Y-62972697D01*
X225179694Y-63592229D01*
X225653278Y-64066640D01*
X226272362Y-64323707D01*
X226942697Y-64324292D01*
X227562229Y-64068306D01*
X227879137Y-63751950D01*
X228193278Y-64066640D01*
X228812362Y-64323707D01*
X229482697Y-64324292D01*
X230102229Y-64068306D01*
X230343252Y-63827703D01*
X230679902Y-63827703D01*
X230784687Y-64099745D01*
X231412526Y-64334619D01*
X232082456Y-64311349D01*
X232593313Y-64099745D01*
X232698098Y-63827703D01*
X231689000Y-62818605D01*
X230679902Y-63827703D01*
X230343252Y-63827703D01*
X230576640Y-63594722D01*
X230592949Y-63555446D01*
X231509395Y-62639000D01*
X231868605Y-62639000D01*
X232877703Y-63648098D01*
X233149745Y-63543313D01*
X233384619Y-62915474D01*
X233361349Y-62245544D01*
X233149745Y-61734687D01*
X232877703Y-61629902D01*
X231868605Y-62639000D01*
X231509395Y-62639000D01*
X230593896Y-61723501D01*
X230578306Y-61685771D01*
X230343243Y-61450297D01*
X230679902Y-61450297D01*
X231689000Y-62459395D01*
X232698098Y-61450297D01*
X232593313Y-61178255D01*
X231965474Y-60943381D01*
X231295544Y-60966651D01*
X230784687Y-61178255D01*
X230679902Y-61450297D01*
X230343243Y-61450297D01*
X230104722Y-61211360D01*
X229485638Y-60954293D01*
X228815303Y-60953708D01*
X228195771Y-61209694D01*
X227878863Y-61526050D01*
X227564722Y-61211360D01*
X226945638Y-60954293D01*
X226275303Y-60953708D01*
X225655771Y-61209694D01*
X225181360Y-61683278D01*
X224924293Y-62302362D01*
X224923708Y-62972697D01*
X224894500Y-62972697D01*
X224894500Y-57178000D01*
X224821995Y-56813494D01*
X224731060Y-56677400D01*
X224615520Y-56504481D01*
X220932519Y-52821481D01*
X220919373Y-52812697D01*
X224923708Y-52812697D01*
X225179694Y-53432229D01*
X225653278Y-53906640D01*
X226272362Y-54163707D01*
X226942697Y-54164292D01*
X227562229Y-53908306D01*
X227879137Y-53591950D01*
X228193278Y-53906640D01*
X228812362Y-54163707D01*
X229482697Y-54164292D01*
X230102229Y-53908306D01*
X230343252Y-53667703D01*
X230679902Y-53667703D01*
X230784687Y-53939745D01*
X231412526Y-54174619D01*
X232082456Y-54151349D01*
X232593313Y-53939745D01*
X232698098Y-53667703D01*
X231689000Y-52658605D01*
X230679902Y-53667703D01*
X230343252Y-53667703D01*
X230576640Y-53434722D01*
X230592949Y-53395446D01*
X231509395Y-52479000D01*
X231868605Y-52479000D01*
X232877703Y-53488098D01*
X233149745Y-53383313D01*
X233384619Y-52755474D01*
X233361349Y-52085544D01*
X233149745Y-51574687D01*
X232877703Y-51469902D01*
X231868605Y-52479000D01*
X231509395Y-52479000D01*
X230593896Y-51563501D01*
X230578306Y-51525771D01*
X230343243Y-51290297D01*
X230679902Y-51290297D01*
X231689000Y-52299395D01*
X232698098Y-51290297D01*
X232593313Y-51018255D01*
X231965474Y-50783381D01*
X231295544Y-50806651D01*
X230784687Y-51018255D01*
X230679902Y-51290297D01*
X230343243Y-51290297D01*
X230104722Y-51051360D01*
X229485638Y-50794293D01*
X228815303Y-50793708D01*
X228195771Y-51049694D01*
X227878863Y-51366050D01*
X227564722Y-51051360D01*
X226945638Y-50794293D01*
X226275303Y-50793708D01*
X225655771Y-51049694D01*
X225181360Y-51523278D01*
X224924293Y-52142362D01*
X224923708Y-52812697D01*
X220919373Y-52812697D01*
X220623506Y-52615005D01*
X220259000Y-52542500D01*
X212779538Y-52542500D01*
X212448500Y-52211462D01*
X212448500Y-50206600D01*
X212485311Y-50295689D01*
X212788714Y-50599622D01*
X213185332Y-50764313D01*
X213614784Y-50764687D01*
X213922600Y-50637500D01*
X217846000Y-50637500D01*
X218210506Y-50564995D01*
X218519519Y-50358519D01*
X221907341Y-46970697D01*
X224923708Y-46970697D01*
X225179694Y-47590229D01*
X225653278Y-48064640D01*
X226272362Y-48321707D01*
X226942697Y-48322292D01*
X227562229Y-48066306D01*
X227879137Y-47749950D01*
X228193278Y-48064640D01*
X228812362Y-48321707D01*
X229482697Y-48322292D01*
X230102229Y-48066306D01*
X230343252Y-47825703D01*
X230679902Y-47825703D01*
X230784687Y-48097745D01*
X231412526Y-48332619D01*
X232082456Y-48309349D01*
X232593313Y-48097745D01*
X232698098Y-47825703D01*
X231689000Y-46816605D01*
X230679902Y-47825703D01*
X230343252Y-47825703D01*
X230576640Y-47592722D01*
X230592949Y-47553446D01*
X231509395Y-46637000D01*
X231868605Y-46637000D01*
X232877703Y-47646098D01*
X233149745Y-47541313D01*
X233384619Y-46913474D01*
X233361349Y-46243544D01*
X233149745Y-45732687D01*
X232877703Y-45627902D01*
X231868605Y-46637000D01*
X231509395Y-46637000D01*
X230593896Y-45721501D01*
X230578306Y-45683771D01*
X230343243Y-45448297D01*
X230679902Y-45448297D01*
X231689000Y-46457395D01*
X232698098Y-45448297D01*
X232593313Y-45176255D01*
X231965474Y-44941381D01*
X231295544Y-44964651D01*
X230784687Y-45176255D01*
X230679902Y-45448297D01*
X230343243Y-45448297D01*
X230104722Y-45209360D01*
X229485638Y-44952293D01*
X228815303Y-44951708D01*
X228195771Y-45207694D01*
X227878863Y-45524050D01*
X227564722Y-45209360D01*
X226945638Y-44952293D01*
X226275303Y-44951708D01*
X225655771Y-45207694D01*
X225181360Y-45681278D01*
X224924293Y-46300362D01*
X224923708Y-46970697D01*
X221907341Y-46970697D01*
X229822519Y-39055519D01*
X230028995Y-38746506D01*
X230101500Y-38382000D01*
X230101500Y-37906607D01*
X230102229Y-37906306D01*
X230343252Y-37665703D01*
X230679902Y-37665703D01*
X230784687Y-37937745D01*
X231412526Y-38172619D01*
X232082456Y-38149349D01*
X232593313Y-37937745D01*
X232698098Y-37665703D01*
X231689000Y-36656605D01*
X230679902Y-37665703D01*
X230343252Y-37665703D01*
X230576640Y-37432722D01*
X230592949Y-37393446D01*
X231509395Y-36477000D01*
X231868605Y-36477000D01*
X232877703Y-37486098D01*
X233149745Y-37381313D01*
X233384619Y-36753474D01*
X233361349Y-36083544D01*
X233149745Y-35572687D01*
X232877703Y-35467902D01*
X231868605Y-36477000D01*
X231509395Y-36477000D01*
X230593896Y-35561501D01*
X230578306Y-35523771D01*
X230343243Y-35288297D01*
X230679902Y-35288297D01*
X231689000Y-36297395D01*
X232698098Y-35288297D01*
X232593313Y-35016255D01*
X231965474Y-34781381D01*
X231295544Y-34804651D01*
X230784687Y-35016255D01*
X230679902Y-35288297D01*
X230343243Y-35288297D01*
X230104722Y-35049360D01*
X229485638Y-34792293D01*
X228815303Y-34791708D01*
X228195771Y-35047694D01*
X227878863Y-35364050D01*
X227564722Y-35049360D01*
X226945638Y-34792293D01*
X226275303Y-34791708D01*
X225655771Y-35047694D01*
X225181360Y-35521278D01*
X224924293Y-36140362D01*
X224923708Y-36810697D01*
X225179694Y-37430229D01*
X225653278Y-37904640D01*
X226272362Y-38161707D01*
X226942697Y-38162292D01*
X227562229Y-37906306D01*
X227879137Y-37589950D01*
X228193278Y-37904640D01*
X228196500Y-37905978D01*
X228196500Y-37987462D01*
X217451462Y-48732500D01*
X213922066Y-48732500D01*
X213616668Y-48605687D01*
X213187216Y-48605313D01*
X212790311Y-48769311D01*
X212486378Y-49072714D01*
X212448500Y-49163934D01*
X212448500Y-44581201D01*
X213140809Y-45274719D01*
X214127221Y-45684313D01*
X215195293Y-45685245D01*
X216182419Y-45277373D01*
X216938319Y-44522791D01*
X217347913Y-43536379D01*
X217348845Y-42468307D01*
X217267245Y-42270821D01*
X218047059Y-42594628D01*
X218303897Y-42594852D01*
X218258858Y-42703319D01*
X218258343Y-43294089D01*
X218483944Y-43840086D01*
X218901317Y-44258188D01*
X219446919Y-44484742D01*
X220037689Y-44485257D01*
X220583686Y-44259656D01*
X221001788Y-43842283D01*
X221228342Y-43296681D01*
X221228857Y-42705911D01*
X221003256Y-42159914D01*
X220585883Y-41741812D01*
X220302031Y-41623946D01*
X220608228Y-40886541D01*
X220608970Y-40037185D01*
X220284620Y-39252200D01*
X219684559Y-38651091D01*
X219281298Y-38483642D01*
X219338228Y-38346541D01*
X219338970Y-37497185D01*
X219014620Y-36712200D01*
X218414559Y-36111091D01*
X217630141Y-35785372D01*
X216780785Y-35784630D01*
X215995800Y-36108980D01*
X215394691Y-36709041D01*
X215068972Y-37493459D01*
X215068230Y-38342815D01*
X215392580Y-39127800D01*
X215992641Y-39728909D01*
X216395902Y-39896358D01*
X216338972Y-40033459D01*
X216338235Y-40877390D01*
X216186391Y-40725281D01*
X215199979Y-40315687D01*
X214131907Y-40314755D01*
X213144781Y-40722627D01*
X212988235Y-40878900D01*
X212988970Y-40037185D01*
X212930850Y-39896524D01*
X213331400Y-39731020D01*
X213932509Y-39130959D01*
X214258228Y-38346541D01*
X214258970Y-37497185D01*
X213934620Y-36712200D01*
X213334559Y-36111091D01*
X212550141Y-35785372D01*
X211700785Y-35784630D01*
X211442139Y-35891501D01*
X210465119Y-34914481D01*
X210156106Y-34708005D01*
X209791600Y-34635500D01*
X205462839Y-34635500D01*
X205535000Y-34272726D01*
X205535000Y-33827274D01*
X205461924Y-33459898D01*
X205253823Y-33148451D01*
X204942376Y-32940350D01*
X204575000Y-32867274D01*
X204207624Y-32940350D01*
X203896177Y-33148451D01*
X203688076Y-33459898D01*
X203615000Y-33827274D01*
X203615000Y-34272726D01*
X203687161Y-34635500D01*
X200612839Y-34635500D01*
X200685000Y-34272726D01*
X200685000Y-33827274D01*
X200611924Y-33459898D01*
X200403823Y-33148451D01*
X200092376Y-32940350D01*
X199725000Y-32867274D01*
X199357624Y-32940350D01*
X199046177Y-33148451D01*
X198838076Y-33459898D01*
X198765000Y-33827274D01*
X198765000Y-34272726D01*
X198837161Y-34635500D01*
X187620000Y-34635500D01*
X187255494Y-34708005D01*
X186946481Y-34914481D01*
X186075895Y-35785067D01*
X185575785Y-35784630D01*
X184790800Y-36108980D01*
X184189691Y-36709041D01*
X183863972Y-37493459D01*
X183863230Y-38342815D01*
X183921350Y-38483476D01*
X183520800Y-38648980D01*
X182919691Y-39249041D01*
X182593972Y-40033459D01*
X182593230Y-40882815D01*
X182899571Y-41624214D01*
X182618514Y-41740344D01*
X182200412Y-42157717D01*
X181973858Y-42703319D01*
X181973343Y-43294089D01*
X182198944Y-43840086D01*
X182616317Y-44258188D01*
X183161919Y-44484742D01*
X183752689Y-44485257D01*
X184298686Y-44259656D01*
X184716788Y-43842283D01*
X184943342Y-43296681D01*
X184943857Y-42705911D01*
X184898091Y-42595149D01*
X185151415Y-42595370D01*
X185933819Y-42272086D01*
X185854287Y-42463621D01*
X185853355Y-43531693D01*
X186261227Y-44518819D01*
X187015809Y-45274719D01*
X188002221Y-45684313D01*
X189070293Y-45685245D01*
X190057419Y-45277373D01*
X190813319Y-44522791D01*
X191222913Y-43536379D01*
X191223845Y-42468307D01*
X191142245Y-42270821D01*
X191922059Y-42594628D01*
X192178897Y-42594852D01*
X192133858Y-42703319D01*
X192133343Y-43294089D01*
X192358944Y-43840086D01*
X192776317Y-44258188D01*
X193321919Y-44484742D01*
X193912689Y-44485257D01*
X194458686Y-44259656D01*
X194876788Y-43842283D01*
X195103342Y-43296681D01*
X195103857Y-42705911D01*
X194878256Y-42159914D01*
X194460883Y-41741812D01*
X194177031Y-41623946D01*
X194483228Y-40886541D01*
X194483970Y-40037185D01*
X194159620Y-39252200D01*
X193559559Y-38651091D01*
X193156298Y-38483642D01*
X193213228Y-38346541D01*
X193213970Y-37497185D01*
X192889620Y-36712200D01*
X192718219Y-36540500D01*
X209397062Y-36540500D01*
X210094905Y-37238343D01*
X209988972Y-37493459D01*
X209988230Y-38342815D01*
X210046350Y-38483476D01*
X209645800Y-38648980D01*
X209044691Y-39249041D01*
X208718972Y-40033459D01*
X208718230Y-40882815D01*
X209024571Y-41624214D01*
X208743514Y-41740344D01*
X208325412Y-42157717D01*
X208098858Y-42703319D01*
X208098343Y-43294089D01*
X208323944Y-43840086D01*
X208741317Y-44258188D01*
X209286919Y-44484742D01*
X209877689Y-44485257D01*
X210423686Y-44259656D01*
X210543500Y-44140051D01*
X210543500Y-52606000D01*
X210616005Y-52970506D01*
X210822481Y-53279519D01*
X211711481Y-54168519D01*
X212020494Y-54374995D01*
X212385000Y-54447500D01*
X213387461Y-54447500D01*
X212903049Y-54931912D01*
X212550141Y-54785372D01*
X211700785Y-54784630D01*
X211442139Y-54891501D01*
X210388119Y-53837481D01*
X210079106Y-53631005D01*
X209714600Y-53558500D01*
X188255000Y-53558500D01*
X187890494Y-53631005D01*
X187581480Y-53837481D01*
X186572430Y-54846532D01*
X186425141Y-54785372D01*
X185575785Y-54784630D01*
X185317139Y-54891501D01*
X184263119Y-53837481D01*
X183954106Y-53631005D01*
X183589600Y-53558500D01*
X168443000Y-53558500D01*
X168078494Y-53631005D01*
X167769481Y-53837481D01*
X166822117Y-54784845D01*
X166575785Y-54784630D01*
X166317139Y-54891501D01*
X165263119Y-53837481D01*
X164954106Y-53631005D01*
X164589600Y-53558500D01*
X149901000Y-53558500D01*
X149536494Y-53631005D01*
X149227481Y-53837481D01*
X148279717Y-54785245D01*
X147575785Y-54784630D01*
X147317139Y-54891501D01*
X146263119Y-53837481D01*
X145954106Y-53631005D01*
X145589600Y-53558500D01*
X130978000Y-53558500D01*
X130613494Y-53631005D01*
X130304481Y-53837481D01*
X129356650Y-54785312D01*
X128575785Y-54784630D01*
X128317139Y-54891501D01*
X127136119Y-53710481D01*
X126827106Y-53504005D01*
X126462600Y-53431500D01*
X112309000Y-53431500D01*
X111944494Y-53504005D01*
X111635481Y-53710481D01*
X110520849Y-54825113D01*
X110425141Y-54785372D01*
X109575785Y-54784630D01*
X109317139Y-54891501D01*
X108136119Y-53710481D01*
X107827106Y-53504005D01*
X107462600Y-53431500D01*
X85766000Y-53431500D01*
X85401494Y-53504005D01*
X85092481Y-53710481D01*
X84017837Y-54785125D01*
X83450785Y-54784630D01*
X82665800Y-55108980D01*
X82064691Y-55709041D01*
X81738972Y-56493459D01*
X81738230Y-57342815D01*
X81796350Y-57483476D01*
X81395800Y-57648980D01*
X80794691Y-58249041D01*
X80468972Y-59033459D01*
X80468230Y-59882815D01*
X80774571Y-60624214D01*
X80493514Y-60740344D01*
X80075412Y-61157717D01*
X79848858Y-61703319D01*
X79848343Y-62294089D01*
X80073944Y-62840086D01*
X80491317Y-63258188D01*
X81036919Y-63484742D01*
X81627689Y-63485257D01*
X82173686Y-63259656D01*
X82273500Y-63160016D01*
X82273500Y-72785462D01*
X70462500Y-84596462D01*
X70462500Y-45370137D01*
X70427362Y-45193486D01*
X70394375Y-45016389D01*
X70391149Y-45011431D01*
X70389995Y-45005631D01*
X70289934Y-44855879D01*
X70191682Y-44704881D01*
X60353256Y-34623531D01*
X60353562Y-34272703D01*
X60123965Y-33717036D01*
X59699200Y-33291529D01*
X59665408Y-33277497D01*
X59725396Y-33095001D01*
X58842000Y-32211605D01*
X57958604Y-33095001D01*
X58010178Y-33251902D01*
X57962042Y-33284066D01*
X57811044Y-33382318D01*
X57807698Y-33387195D01*
X57802781Y-33390481D01*
X57702719Y-33540234D01*
X57629555Y-33646892D01*
X57561529Y-33714800D01*
X57330963Y-34270065D01*
X57330438Y-34871297D01*
X57560035Y-35426964D01*
X57974698Y-35842351D01*
X57561529Y-36254800D01*
X57330963Y-36810065D01*
X57330438Y-37411297D01*
X57560035Y-37966964D01*
X57974698Y-38382351D01*
X57561529Y-38794800D01*
X57330963Y-39350065D01*
X57330438Y-39951297D01*
X57560035Y-40506964D01*
X57974698Y-40922351D01*
X57561529Y-41334800D01*
X57330963Y-41890065D01*
X57330438Y-42491297D01*
X57560035Y-43046964D01*
X57974698Y-43462351D01*
X57561529Y-43874800D01*
X57330963Y-44430065D01*
X57330438Y-45031297D01*
X57560035Y-45586964D01*
X57974698Y-46002351D01*
X57561529Y-46414800D01*
X57330963Y-46970065D01*
X57330438Y-47571297D01*
X57560035Y-48126964D01*
X57974698Y-48542351D01*
X57561529Y-48954800D01*
X57330963Y-49510065D01*
X57330438Y-50111297D01*
X57560035Y-50666964D01*
X57974698Y-51082351D01*
X57561529Y-51494800D01*
X57330963Y-52050065D01*
X57330438Y-52651297D01*
X57560035Y-53206964D01*
X57974698Y-53622351D01*
X57561529Y-54034800D01*
X57330963Y-54590065D01*
X57330438Y-55191297D01*
X57560035Y-55746964D01*
X57974698Y-56162351D01*
X57561529Y-56574800D01*
X57330963Y-57130065D01*
X57330438Y-57731297D01*
X57560035Y-58286964D01*
X57974698Y-58702351D01*
X57561529Y-59114800D01*
X57330963Y-59670065D01*
X57330438Y-60271297D01*
X57560035Y-60826964D01*
X57984800Y-61252471D01*
X58540065Y-61483037D01*
X59141297Y-61483562D01*
X59696964Y-61253965D01*
X60107997Y-60843649D01*
X60404519Y-60645519D01*
X61801519Y-59248519D01*
X61953500Y-59021063D01*
X61953500Y-87898462D01*
X60581481Y-89270481D01*
X60375005Y-89579494D01*
X60302500Y-89944000D01*
X60302500Y-97564000D01*
X60375005Y-97928506D01*
X60581481Y-98237519D01*
X61953500Y-99609538D01*
X61953500Y-104041000D01*
X62026005Y-104405506D01*
X62232481Y-104714519D01*
X67439481Y-109921519D01*
X67748494Y-110127995D01*
X68113000Y-110200500D01*
X73552972Y-110200500D01*
X73510687Y-110302332D01*
X73510313Y-110731784D01*
X73674311Y-111128689D01*
X73977714Y-111432622D01*
X74285309Y-111560347D01*
X74932481Y-112207519D01*
X75241494Y-112413995D01*
X75511459Y-112467695D01*
X75269691Y-112709041D01*
X74943972Y-113493459D01*
X74943230Y-114342815D01*
X75267580Y-115127800D01*
X75867641Y-115728909D01*
X76270902Y-115896358D01*
X76213972Y-116033459D01*
X76213235Y-116877390D01*
X76061391Y-116725281D01*
X75074979Y-116315687D01*
X74006907Y-116314755D01*
X73019781Y-116722627D01*
X72863235Y-116878900D01*
X72863970Y-116037185D01*
X72805850Y-115896524D01*
X73206400Y-115731020D01*
X73807509Y-115130959D01*
X74133228Y-114346541D01*
X74133970Y-113497185D01*
X73809620Y-112712200D01*
X73209559Y-112111091D01*
X72425141Y-111785372D01*
X71575785Y-111784630D01*
X70790800Y-112108980D01*
X70189691Y-112709041D01*
X69863972Y-113493459D01*
X69863230Y-114342815D01*
X69921350Y-114483476D01*
X69520800Y-114648980D01*
X68919691Y-115249041D01*
X68593972Y-116033459D01*
X68593230Y-116882815D01*
X68899571Y-117624214D01*
X68618514Y-117740344D01*
X68200412Y-118157717D01*
X67973858Y-118703319D01*
X67973343Y-119294089D01*
X68198944Y-119840086D01*
X68616317Y-120258188D01*
X69161919Y-120484742D01*
X69752689Y-120485257D01*
X70298686Y-120259656D01*
X70716788Y-119842283D01*
X70943342Y-119296681D01*
X70943857Y-118705911D01*
X70898091Y-118595149D01*
X71151415Y-118595370D01*
X71933819Y-118272086D01*
X71854287Y-118463621D01*
X71853355Y-119531693D01*
X72261227Y-120518819D01*
X73015809Y-121274719D01*
X74002221Y-121684313D01*
X75070293Y-121685245D01*
X76057419Y-121277373D01*
X76813319Y-120522791D01*
X77222913Y-119536379D01*
X77223845Y-118468307D01*
X77142245Y-118270821D01*
X77922059Y-118594628D01*
X78178897Y-118594852D01*
X78133858Y-118703319D01*
X78133343Y-119294089D01*
X78358944Y-119840086D01*
X78776317Y-120258188D01*
X79321919Y-120484742D01*
X79912689Y-120485257D01*
X80458686Y-120259656D01*
X80876788Y-119842283D01*
X81103342Y-119296681D01*
X81103857Y-118705911D01*
X80878256Y-118159914D01*
X80460883Y-117741812D01*
X80177031Y-117623946D01*
X80483228Y-116886541D01*
X80483970Y-116037185D01*
X80159620Y-115252200D01*
X79559559Y-114651091D01*
X79156298Y-114483642D01*
X79213228Y-114346541D01*
X79213970Y-113497185D01*
X78889620Y-112712200D01*
X78664313Y-112486500D01*
X88218062Y-112486500D01*
X88969905Y-113238344D01*
X88863972Y-113493459D01*
X88863230Y-114342815D01*
X88921350Y-114483476D01*
X88520800Y-114648980D01*
X87919691Y-115249041D01*
X87593972Y-116033459D01*
X87593230Y-116882815D01*
X87899571Y-117624214D01*
X87618514Y-117740344D01*
X87200412Y-118157717D01*
X86973858Y-118703319D01*
X86973343Y-119294089D01*
X87198944Y-119840086D01*
X87616317Y-120258188D01*
X88161919Y-120484742D01*
X88752689Y-120485257D01*
X89298686Y-120259656D01*
X89716788Y-119842283D01*
X89943342Y-119296681D01*
X89943857Y-118705911D01*
X89898091Y-118595149D01*
X90151415Y-118595370D01*
X90933819Y-118272086D01*
X90854287Y-118463621D01*
X90853355Y-119531693D01*
X91261227Y-120518819D01*
X92015809Y-121274719D01*
X93002221Y-121684313D01*
X94070293Y-121685245D01*
X95057419Y-121277373D01*
X95813319Y-120522791D01*
X96222913Y-119536379D01*
X96223845Y-118468307D01*
X96142245Y-118270821D01*
X96922059Y-118594628D01*
X97178897Y-118594852D01*
X97133858Y-118703319D01*
X97133343Y-119294089D01*
X97358944Y-119840086D01*
X97776317Y-120258188D01*
X98321919Y-120484742D01*
X98912689Y-120485257D01*
X99458686Y-120259656D01*
X99876788Y-119842283D01*
X100103342Y-119296681D01*
X100103857Y-118705911D01*
X99878256Y-118159914D01*
X99460883Y-117741812D01*
X99177031Y-117623946D01*
X99483228Y-116886541D01*
X99483970Y-116037185D01*
X99159620Y-115252200D01*
X98559559Y-114651091D01*
X98156298Y-114483642D01*
X98213228Y-114346541D01*
X98213970Y-113497185D01*
X97889620Y-112712200D01*
X97664313Y-112486500D01*
X107218062Y-112486500D01*
X107969905Y-113238344D01*
X107863972Y-113493459D01*
X107863230Y-114342815D01*
X107921350Y-114483476D01*
X107520800Y-114648980D01*
X106919691Y-115249041D01*
X106593972Y-116033459D01*
X106593230Y-116882815D01*
X106899571Y-117624214D01*
X106618514Y-117740344D01*
X106200412Y-118157717D01*
X105973858Y-118703319D01*
X105973343Y-119294089D01*
X106198944Y-119840086D01*
X106616317Y-120258188D01*
X107161919Y-120484742D01*
X107752689Y-120485257D01*
X108298686Y-120259656D01*
X108716788Y-119842283D01*
X108943342Y-119296681D01*
X108943857Y-118705911D01*
X108898091Y-118595149D01*
X109151415Y-118595370D01*
X109933819Y-118272086D01*
X109854287Y-118463621D01*
X109853355Y-119531693D01*
X110261227Y-120518819D01*
X111015809Y-121274719D01*
X112002221Y-121684313D01*
X113070293Y-121685245D01*
X114057419Y-121277373D01*
X114813319Y-120522791D01*
X115222913Y-119536379D01*
X115223845Y-118468307D01*
X115142245Y-118270821D01*
X115922059Y-118594628D01*
X116178897Y-118594852D01*
X116133858Y-118703319D01*
X116133343Y-119294089D01*
X116358944Y-119840086D01*
X116776317Y-120258188D01*
X117321919Y-120484742D01*
X117912689Y-120485257D01*
X118458686Y-120259656D01*
X118876788Y-119842283D01*
X119103342Y-119296681D01*
X119103857Y-118705911D01*
X118878256Y-118159914D01*
X118460883Y-117741812D01*
X118177031Y-117623946D01*
X118483228Y-116886541D01*
X118483970Y-116037185D01*
X118159620Y-115252200D01*
X117559559Y-114651091D01*
X117156298Y-114483642D01*
X117213228Y-114346541D01*
X117213970Y-113497185D01*
X116889620Y-112712200D01*
X116664313Y-112486500D01*
X126218062Y-112486500D01*
X126969905Y-113238344D01*
X126863972Y-113493459D01*
X126863230Y-114342815D01*
X126921350Y-114483476D01*
X126520800Y-114648980D01*
X125919691Y-115249041D01*
X125593972Y-116033459D01*
X125593230Y-116882815D01*
X125899571Y-117624214D01*
X125618514Y-117740344D01*
X125200412Y-118157717D01*
X124973858Y-118703319D01*
X124973343Y-119294089D01*
X125198944Y-119840086D01*
X125616317Y-120258188D01*
X126161919Y-120484742D01*
X126752689Y-120485257D01*
X127298686Y-120259656D01*
X127716788Y-119842283D01*
X127943342Y-119296681D01*
X127943857Y-118705911D01*
X127898091Y-118595149D01*
X128151415Y-118595370D01*
X128933819Y-118272086D01*
X128854287Y-118463621D01*
X128853355Y-119531693D01*
X129261227Y-120518819D01*
X130015809Y-121274719D01*
X131002221Y-121684313D01*
X132070293Y-121685245D01*
X133057419Y-121277373D01*
X133813319Y-120522791D01*
X134222913Y-119536379D01*
X134223845Y-118468307D01*
X134142245Y-118270821D01*
X134922059Y-118594628D01*
X135178897Y-118594852D01*
X135133858Y-118703319D01*
X135133343Y-119294089D01*
X135358944Y-119840086D01*
X135776317Y-120258188D01*
X136321919Y-120484742D01*
X136912689Y-120485257D01*
X137458686Y-120259656D01*
X137876788Y-119842283D01*
X138103342Y-119296681D01*
X138103857Y-118705911D01*
X137878256Y-118159914D01*
X137460883Y-117741812D01*
X137177031Y-117623946D01*
X137483228Y-116886541D01*
X137483970Y-116037185D01*
X137159620Y-115252200D01*
X136559559Y-114651091D01*
X136156298Y-114483642D01*
X136213228Y-114346541D01*
X136213970Y-113497185D01*
X135889620Y-112712200D01*
X135410756Y-112232500D01*
X149714062Y-112232500D01*
X150719905Y-113238343D01*
X150613972Y-113493459D01*
X150613230Y-114342815D01*
X150671350Y-114483476D01*
X150270800Y-114648980D01*
X149669691Y-115249041D01*
X149343972Y-116033459D01*
X149343230Y-116882815D01*
X149649571Y-117624214D01*
X149368514Y-117740344D01*
X148950412Y-118157717D01*
X148723858Y-118703319D01*
X148723343Y-119294089D01*
X148948944Y-119840086D01*
X149366317Y-120258188D01*
X149911919Y-120484742D01*
X150502689Y-120485257D01*
X151048686Y-120259656D01*
X151466788Y-119842283D01*
X151693342Y-119296681D01*
X151693857Y-118705911D01*
X151648091Y-118595149D01*
X151901415Y-118595370D01*
X152683819Y-118272086D01*
X152604287Y-118463621D01*
X152603355Y-119531693D01*
X153011227Y-120518819D01*
X153765809Y-121274719D01*
X154752221Y-121684313D01*
X155820293Y-121685245D01*
X156807419Y-121277373D01*
X157563319Y-120522791D01*
X157972913Y-119536379D01*
X157973845Y-118468307D01*
X157892245Y-118270821D01*
X158672059Y-118594628D01*
X158928897Y-118594852D01*
X158883858Y-118703319D01*
X158883343Y-119294089D01*
X159108944Y-119840086D01*
X159526317Y-120258188D01*
X160071919Y-120484742D01*
X160662689Y-120485257D01*
X161208686Y-120259656D01*
X161626788Y-119842283D01*
X161853342Y-119296681D01*
X161853857Y-118705911D01*
X161628256Y-118159914D01*
X161210883Y-117741812D01*
X160927031Y-117623946D01*
X161233228Y-116886541D01*
X161233970Y-116037185D01*
X160909620Y-115252200D01*
X160309559Y-114651091D01*
X159906298Y-114483642D01*
X159963228Y-114346541D01*
X159963970Y-113497185D01*
X159639620Y-112712200D01*
X159287535Y-112359500D01*
X178338462Y-112359500D01*
X179217305Y-113238343D01*
X179111372Y-113493459D01*
X179110630Y-114342815D01*
X179168750Y-114483476D01*
X178768200Y-114648980D01*
X178167091Y-115249041D01*
X177841372Y-116033459D01*
X177840630Y-116882815D01*
X178146971Y-117624214D01*
X177865914Y-117740344D01*
X177447812Y-118157717D01*
X177221258Y-118703319D01*
X177220743Y-119294089D01*
X177446344Y-119840086D01*
X177863717Y-120258188D01*
X178409319Y-120484742D01*
X179000089Y-120485257D01*
X179546086Y-120259656D01*
X179555500Y-120250258D01*
X179555500Y-121059000D01*
X179628005Y-121423506D01*
X179834481Y-121732519D01*
X181358480Y-123256519D01*
X181667494Y-123462995D01*
X182032000Y-123535500D01*
X194097000Y-123535500D01*
X194461506Y-123462995D01*
X194688920Y-123311042D01*
X194083462Y-123916500D01*
X72190538Y-123916500D01*
X61318500Y-113044462D01*
X61318500Y-112074607D01*
X61319229Y-112074306D01*
X61560252Y-111833703D01*
X61896902Y-111833703D01*
X62001687Y-112105745D01*
X62629526Y-112340619D01*
X63299456Y-112317349D01*
X63810313Y-112105745D01*
X63915098Y-111833703D01*
X62906000Y-110824605D01*
X61896902Y-111833703D01*
X61560252Y-111833703D01*
X61793640Y-111600722D01*
X61809949Y-111561446D01*
X62726395Y-110645000D01*
X63085605Y-110645000D01*
X64094703Y-111654098D01*
X64366745Y-111549313D01*
X64601619Y-110921474D01*
X64578349Y-110251544D01*
X64366745Y-109740687D01*
X64094703Y-109635902D01*
X63085605Y-110645000D01*
X62726395Y-110645000D01*
X61810896Y-109729501D01*
X61795306Y-109691771D01*
X61560243Y-109456297D01*
X61896902Y-109456297D01*
X62906000Y-110465395D01*
X63915098Y-109456297D01*
X63810313Y-109184255D01*
X63182474Y-108949381D01*
X62512544Y-108972651D01*
X62001687Y-109184255D01*
X61896902Y-109456297D01*
X61560243Y-109456297D01*
X61321722Y-109217360D01*
X60702638Y-108960293D01*
X60032303Y-108959708D01*
X59412771Y-109215694D01*
X59095863Y-109532050D01*
X58781722Y-109217360D01*
X58162638Y-108960293D01*
X57492303Y-108959708D01*
X56872771Y-109215694D01*
X56398360Y-109689278D01*
X56141293Y-110308362D01*
X56140708Y-110978697D01*
X53685000Y-110978697D01*
X53685000Y-31796997D01*
X57319118Y-31796997D01*
X57345109Y-32397668D01*
X57524973Y-32831896D01*
X57778999Y-32915396D01*
X58662395Y-32032000D01*
X59021605Y-32032000D01*
X59905001Y-32915396D01*
X60159027Y-32831896D01*
X60364882Y-32267003D01*
X60338891Y-31666332D01*
X60159027Y-31232104D01*
X59905001Y-31148604D01*
X59021605Y-32032000D01*
X58662395Y-32032000D01*
X57778999Y-31148604D01*
X57524973Y-31232104D01*
X57319118Y-31796997D01*
X53685000Y-31796997D01*
X53685000Y-30685000D01*
X58114465Y-30685000D01*
X58042104Y-30714973D01*
X58042104Y-30714973D01*
G37*
X58042104Y-30714973D02*
X57958604Y-30968999D01*
X58842000Y-31852395D01*
X59725396Y-30968999D01*
X59641896Y-30714973D01*
X59559646Y-30685000D01*
X72764531Y-30685000D01*
X72754259Y-30691610D01*
X72609269Y-30903810D01*
X72558260Y-31155700D01*
X72558260Y-32908300D01*
X72602538Y-33143617D01*
X72741610Y-33359741D01*
X72953810Y-33504731D01*
X73002157Y-33514522D01*
X72801529Y-33714800D01*
X72570963Y-34270065D01*
X72570438Y-34871297D01*
X72800035Y-35426964D01*
X73214698Y-35842351D01*
X72801529Y-36254800D01*
X72570963Y-36810065D01*
X72570438Y-37411297D01*
X72800035Y-37966964D01*
X73214698Y-38382351D01*
X72801529Y-38794800D01*
X72570963Y-39350065D01*
X72570438Y-39951297D01*
X72800035Y-40506964D01*
X73214698Y-40922351D01*
X72801529Y-41334800D01*
X72570963Y-41890065D01*
X72570438Y-42491297D01*
X72800035Y-43046964D01*
X73214698Y-43462351D01*
X72801529Y-43874800D01*
X72570963Y-44430065D01*
X72570438Y-45031297D01*
X72800035Y-45586964D01*
X73214698Y-46002351D01*
X72801529Y-46414800D01*
X72570963Y-46970065D01*
X72570438Y-47571297D01*
X72800035Y-48126964D01*
X73214698Y-48542351D01*
X72801529Y-48954800D01*
X72570963Y-49510065D01*
X72570438Y-50111297D01*
X72800035Y-50666964D01*
X73214698Y-51082351D01*
X72801529Y-51494800D01*
X72570963Y-52050065D01*
X72570438Y-52651297D01*
X72800035Y-53206964D01*
X73214698Y-53622351D01*
X72801529Y-54034800D01*
X72570963Y-54590065D01*
X72570438Y-55191297D01*
X72800035Y-55746964D01*
X73214698Y-56162351D01*
X72801529Y-56574800D01*
X72570963Y-57130065D01*
X72570438Y-57731297D01*
X72800035Y-58286964D01*
X73214698Y-58702351D01*
X72801529Y-59114800D01*
X72570963Y-59670065D01*
X72570438Y-60271297D01*
X72800035Y-60826964D01*
X73224800Y-61252471D01*
X73780065Y-61483037D01*
X74381297Y-61483562D01*
X74936964Y-61253965D01*
X75362471Y-60829200D01*
X75593037Y-60273935D01*
X75593562Y-59672703D01*
X75363965Y-59117036D01*
X74949302Y-58701649D01*
X75362471Y-58289200D01*
X75593037Y-57733935D01*
X75593562Y-57132703D01*
X75363965Y-56577036D01*
X74949302Y-56161649D01*
X75362471Y-55749200D01*
X75593037Y-55193935D01*
X75593562Y-54592703D01*
X75363965Y-54037036D01*
X74949302Y-53621649D01*
X75362471Y-53209200D01*
X75593037Y-52653935D01*
X75593562Y-52052703D01*
X75363965Y-51497036D01*
X74949302Y-51081649D01*
X75362471Y-50669200D01*
X75593037Y-50113935D01*
X75593562Y-49512703D01*
X75363965Y-48957036D01*
X74949302Y-48541649D01*
X75362471Y-48129200D01*
X75593037Y-47573935D01*
X75593562Y-46972703D01*
X75363965Y-46417036D01*
X74949302Y-46001649D01*
X75362471Y-45589200D01*
X75593037Y-45033935D01*
X75593562Y-44432703D01*
X75363965Y-43877036D01*
X74949302Y-43461649D01*
X75362471Y-43049200D01*
X75593037Y-42493935D01*
X75593562Y-41892703D01*
X75363965Y-41337036D01*
X74949302Y-40921649D01*
X75362471Y-40509200D01*
X75593037Y-39953935D01*
X75593562Y-39352703D01*
X75363965Y-38797036D01*
X74949302Y-38381649D01*
X75362471Y-37969200D01*
X75593037Y-37413935D01*
X75593562Y-36812703D01*
X75492095Y-36567133D01*
X76431500Y-37506539D01*
X76431500Y-42700000D01*
X76504005Y-43064506D01*
X76710481Y-43373519D01*
X82933481Y-49596519D01*
X83242494Y-49802995D01*
X83607000Y-49875500D01*
X206656462Y-49875500D01*
X207025031Y-50244069D01*
X207151311Y-50549689D01*
X207454714Y-50853622D01*
X207851332Y-51018313D01*
X208280784Y-51018687D01*
X208677689Y-50854689D01*
X208981622Y-50551286D01*
X209146313Y-50154668D01*
X209146687Y-49725216D01*
X208982689Y-49328311D01*
X208679286Y-49024378D01*
X208371691Y-48896653D01*
X207724519Y-48249481D01*
X207415506Y-48043005D01*
X207051000Y-47970500D01*
X84001538Y-47970500D01*
X79325127Y-43294089D01*
X79848343Y-43294089D01*
X80073944Y-43840086D01*
X80491317Y-44258188D01*
X81036919Y-44484742D01*
X81627689Y-44485257D01*
X82173686Y-44259656D01*
X82591788Y-43842283D01*
X82818342Y-43296681D01*
X82818857Y-42705911D01*
X82773091Y-42595149D01*
X83026415Y-42595370D01*
X83808819Y-42272086D01*
X83729287Y-42463621D01*
X83728355Y-43531693D01*
X84136227Y-44518819D01*
X84890809Y-45274719D01*
X85877221Y-45684313D01*
X86945293Y-45685245D01*
X87932419Y-45277373D01*
X88688319Y-44522791D01*
X89097913Y-43536379D01*
X89098845Y-42468307D01*
X89017245Y-42270821D01*
X89797059Y-42594628D01*
X90053897Y-42594852D01*
X90008858Y-42703319D01*
X90008343Y-43294089D01*
X90233944Y-43840086D01*
X90651317Y-44258188D01*
X91196919Y-44484742D01*
X91787689Y-44485257D01*
X92333686Y-44259656D01*
X92751788Y-43842283D01*
X92978342Y-43296681D01*
X92978344Y-43294089D01*
X105973343Y-43294089D01*
X106198944Y-43840086D01*
X106616317Y-44258188D01*
X107161919Y-44484742D01*
X107752689Y-44485257D01*
X108298686Y-44259656D01*
X108716788Y-43842283D01*
X108943342Y-43296681D01*
X108943857Y-42705911D01*
X108898091Y-42595149D01*
X109151415Y-42595370D01*
X109933819Y-42272086D01*
X109854287Y-42463621D01*
X109853355Y-43531693D01*
X110261227Y-44518819D01*
X111015809Y-45274719D01*
X112002221Y-45684313D01*
X113070293Y-45685245D01*
X114057419Y-45277373D01*
X114813319Y-44522791D01*
X115222913Y-43536379D01*
X115223845Y-42468307D01*
X115142245Y-42270821D01*
X115922059Y-42594628D01*
X116178897Y-42594852D01*
X116133858Y-42703319D01*
X116133343Y-43294089D01*
X116358944Y-43840086D01*
X116776317Y-44258188D01*
X117321919Y-44484742D01*
X117912689Y-44485257D01*
X118458686Y-44259656D01*
X118876788Y-43842283D01*
X119103342Y-43296681D01*
X119103344Y-43294089D01*
X124973343Y-43294089D01*
X125198944Y-43840086D01*
X125616317Y-44258188D01*
X126161919Y-44484742D01*
X126752689Y-44485257D01*
X127298686Y-44259656D01*
X127716788Y-43842283D01*
X127943342Y-43296681D01*
X127943857Y-42705911D01*
X127898091Y-42595149D01*
X128151415Y-42595370D01*
X128933819Y-42272086D01*
X128854287Y-42463621D01*
X128853355Y-43531693D01*
X129261227Y-44518819D01*
X130015809Y-45274719D01*
X131002221Y-45684313D01*
X132070293Y-45685245D01*
X133057419Y-45277373D01*
X133813319Y-44522791D01*
X134222913Y-43536379D01*
X134223845Y-42468307D01*
X134142245Y-42270821D01*
X134922059Y-42594628D01*
X135178897Y-42594852D01*
X135133858Y-42703319D01*
X135133343Y-43294089D01*
X135358944Y-43840086D01*
X135776317Y-44258188D01*
X136321919Y-44484742D01*
X136912689Y-44485257D01*
X137458686Y-44259656D01*
X137876788Y-43842283D01*
X138103342Y-43296681D01*
X138103344Y-43294089D01*
X143973343Y-43294089D01*
X144198944Y-43840086D01*
X144616317Y-44258188D01*
X145161919Y-44484742D01*
X145752689Y-44485257D01*
X146298686Y-44259656D01*
X146716788Y-43842283D01*
X146943342Y-43296681D01*
X146943857Y-42705911D01*
X146898091Y-42595149D01*
X147151415Y-42595370D01*
X147933819Y-42272086D01*
X147854287Y-42463621D01*
X147853355Y-43531693D01*
X148261227Y-44518819D01*
X149015809Y-45274719D01*
X150002221Y-45684313D01*
X151070293Y-45685245D01*
X152057419Y-45277373D01*
X152813319Y-44522791D01*
X153222913Y-43536379D01*
X153223845Y-42468307D01*
X153142245Y-42270821D01*
X153922059Y-42594628D01*
X154178897Y-42594852D01*
X154133858Y-42703319D01*
X154133343Y-43294089D01*
X154358944Y-43840086D01*
X154776317Y-44258188D01*
X155321919Y-44484742D01*
X155912689Y-44485257D01*
X156458686Y-44259656D01*
X156876788Y-43842283D01*
X157103342Y-43296681D01*
X157103344Y-43294089D01*
X162973343Y-43294089D01*
X163198944Y-43840086D01*
X163616317Y-44258188D01*
X164161919Y-44484742D01*
X164752689Y-44485257D01*
X165298686Y-44259656D01*
X165716788Y-43842283D01*
X165943342Y-43296681D01*
X165943857Y-42705911D01*
X165898091Y-42595149D01*
X166151415Y-42595370D01*
X166933819Y-42272086D01*
X166854287Y-42463621D01*
X166853355Y-43531693D01*
X167261227Y-44518819D01*
X168015809Y-45274719D01*
X169002221Y-45684313D01*
X170070293Y-45685245D01*
X171057419Y-45277373D01*
X171813319Y-44522791D01*
X172222913Y-43536379D01*
X172223845Y-42468307D01*
X172142245Y-42270821D01*
X172922059Y-42594628D01*
X173178897Y-42594852D01*
X173133858Y-42703319D01*
X173133343Y-43294089D01*
X173358944Y-43840086D01*
X173776317Y-44258188D01*
X174321919Y-44484742D01*
X174912689Y-44485257D01*
X175458686Y-44259656D01*
X175876788Y-43842283D01*
X176103342Y-43296681D01*
X176103857Y-42705911D01*
X175878256Y-42159914D01*
X175460883Y-41741812D01*
X175177031Y-41623946D01*
X175483228Y-40886541D01*
X175483970Y-40037185D01*
X175159620Y-39252200D01*
X174559559Y-38651091D01*
X174156298Y-38483642D01*
X174213228Y-38346541D01*
X174213970Y-37497185D01*
X173889620Y-36712200D01*
X173289559Y-36111091D01*
X172505141Y-35785372D01*
X171655785Y-35784630D01*
X170870800Y-36108980D01*
X170269691Y-36709041D01*
X169943972Y-37493459D01*
X169943230Y-38342815D01*
X170267580Y-39127800D01*
X170867641Y-39728909D01*
X171270902Y-39896358D01*
X171213972Y-40033459D01*
X171213235Y-40877390D01*
X171061391Y-40725281D01*
X170074979Y-40315687D01*
X169006907Y-40314755D01*
X168019781Y-40722627D01*
X167863235Y-40878900D01*
X167863970Y-40037185D01*
X167805850Y-39896524D01*
X168206400Y-39731020D01*
X168807509Y-39130959D01*
X169133228Y-38346541D01*
X169133970Y-37497185D01*
X168809620Y-36712200D01*
X168209559Y-36111091D01*
X167425141Y-35785372D01*
X166575785Y-35784630D01*
X165790800Y-36108980D01*
X165189691Y-36709041D01*
X164863972Y-37493459D01*
X164863230Y-38342815D01*
X164921350Y-38483476D01*
X164520800Y-38648980D01*
X163919691Y-39249041D01*
X163593972Y-40033459D01*
X163593230Y-40882815D01*
X163899571Y-41624214D01*
X163618514Y-41740344D01*
X163200412Y-42157717D01*
X162973858Y-42703319D01*
X162973343Y-43294089D01*
X157103344Y-43294089D01*
X157103857Y-42705911D01*
X156878256Y-42159914D01*
X156460883Y-41741812D01*
X156177031Y-41623946D01*
X156483228Y-40886541D01*
X156483970Y-40037185D01*
X156159620Y-39252200D01*
X155559559Y-38651091D01*
X155156298Y-38483642D01*
X155213228Y-38346541D01*
X155213970Y-37497185D01*
X154889620Y-36712200D01*
X154289559Y-36111091D01*
X153505141Y-35785372D01*
X152655785Y-35784630D01*
X151870800Y-36108980D01*
X151269691Y-36709041D01*
X150943972Y-37493459D01*
X150943230Y-38342815D01*
X151267580Y-39127800D01*
X151867641Y-39728909D01*
X152270902Y-39896358D01*
X152213972Y-40033459D01*
X152213235Y-40877390D01*
X152061391Y-40725281D01*
X151074979Y-40315687D01*
X150006907Y-40314755D01*
X149019781Y-40722627D01*
X148863235Y-40878900D01*
X148863970Y-40037185D01*
X148805850Y-39896524D01*
X149206400Y-39731020D01*
X149807509Y-39130959D01*
X150133228Y-38346541D01*
X150133970Y-37497185D01*
X149809620Y-36712200D01*
X149209559Y-36111091D01*
X148425141Y-35785372D01*
X147575785Y-35784630D01*
X146790800Y-36108980D01*
X146189691Y-36709041D01*
X145863972Y-37493459D01*
X145863230Y-38342815D01*
X145921350Y-38483476D01*
X145520800Y-38648980D01*
X144919691Y-39249041D01*
X144593972Y-40033459D01*
X144593230Y-40882815D01*
X144899571Y-41624214D01*
X144618514Y-41740344D01*
X144200412Y-42157717D01*
X143973858Y-42703319D01*
X143973343Y-43294089D01*
X138103344Y-43294089D01*
X138103857Y-42705911D01*
X137878256Y-42159914D01*
X137460883Y-41741812D01*
X137177031Y-41623946D01*
X137483228Y-40886541D01*
X137483970Y-40037185D01*
X137159620Y-39252200D01*
X136559559Y-38651091D01*
X136156298Y-38483642D01*
X136213228Y-38346541D01*
X136213970Y-37497185D01*
X135889620Y-36712200D01*
X135289559Y-36111091D01*
X134505141Y-35785372D01*
X133655785Y-35784630D01*
X132870800Y-36108980D01*
X132269691Y-36709041D01*
X131943972Y-37493459D01*
X131943230Y-38342815D01*
X132267580Y-39127800D01*
X132867641Y-39728909D01*
X133270902Y-39896358D01*
X133213972Y-40033459D01*
X133213235Y-40877390D01*
X133061391Y-40725281D01*
X132074979Y-40315687D01*
X131006907Y-40314755D01*
X130019781Y-40722627D01*
X129863235Y-40878900D01*
X129863970Y-40037185D01*
X129805850Y-39896524D01*
X130206400Y-39731020D01*
X130807509Y-39130959D01*
X131133228Y-38346541D01*
X131133970Y-37497185D01*
X130809620Y-36712200D01*
X130209559Y-36111091D01*
X129425141Y-35785372D01*
X128575785Y-35784630D01*
X127790800Y-36108980D01*
X127189691Y-36709041D01*
X126863972Y-37493459D01*
X126863230Y-38342815D01*
X126921350Y-38483476D01*
X126520800Y-38648980D01*
X125919691Y-39249041D01*
X125593972Y-40033459D01*
X125593230Y-40882815D01*
X125899571Y-41624214D01*
X125618514Y-41740344D01*
X125200412Y-42157717D01*
X124973858Y-42703319D01*
X124973343Y-43294089D01*
X119103344Y-43294089D01*
X119103857Y-42705911D01*
X118878256Y-42159914D01*
X118460883Y-41741812D01*
X118177031Y-41623946D01*
X118483228Y-40886541D01*
X118483970Y-40037185D01*
X118159620Y-39252200D01*
X117559559Y-38651091D01*
X117156298Y-38483642D01*
X117213228Y-38346541D01*
X117213970Y-37497185D01*
X116889620Y-36712200D01*
X116289559Y-36111091D01*
X115505141Y-35785372D01*
X114655785Y-35784630D01*
X113870800Y-36108980D01*
X113269691Y-36709041D01*
X112943972Y-37493459D01*
X112943230Y-38342815D01*
X113267580Y-39127800D01*
X113867641Y-39728909D01*
X114270902Y-39896358D01*
X114213972Y-40033459D01*
X114213235Y-40877390D01*
X114061391Y-40725281D01*
X113074979Y-40315687D01*
X112006907Y-40314755D01*
X111019781Y-40722627D01*
X110863235Y-40878900D01*
X110863970Y-40037185D01*
X110805850Y-39896524D01*
X111206400Y-39731020D01*
X111807509Y-39130959D01*
X112133228Y-38346541D01*
X112133970Y-37497185D01*
X111809620Y-36712200D01*
X111209559Y-36111091D01*
X110425141Y-35785372D01*
X109575785Y-35784630D01*
X108790800Y-36108980D01*
X108189691Y-36709041D01*
X107863972Y-37493459D01*
X107863230Y-38342815D01*
X107921350Y-38483476D01*
X107520800Y-38648980D01*
X106919691Y-39249041D01*
X106593972Y-40033459D01*
X106593230Y-40882815D01*
X106899571Y-41624214D01*
X106618514Y-41740344D01*
X106200412Y-42157717D01*
X105973858Y-42703319D01*
X105973343Y-43294089D01*
X92978344Y-43294089D01*
X92978857Y-42705911D01*
X92753256Y-42159914D01*
X92335883Y-41741812D01*
X92052031Y-41623946D01*
X92358228Y-40886541D01*
X92358970Y-40037185D01*
X92034620Y-39252200D01*
X91434559Y-38651091D01*
X91031298Y-38483642D01*
X91088228Y-38346541D01*
X91088970Y-37497185D01*
X90764620Y-36712200D01*
X90164559Y-36111091D01*
X89380141Y-35785372D01*
X88530785Y-35784630D01*
X87745800Y-36108980D01*
X87144691Y-36709041D01*
X86818972Y-37493459D01*
X86818230Y-38342815D01*
X87142580Y-39127800D01*
X87742641Y-39728909D01*
X88145902Y-39896358D01*
X88088972Y-40033459D01*
X88088235Y-40877390D01*
X87936391Y-40725281D01*
X86949979Y-40315687D01*
X85881907Y-40314755D01*
X84894781Y-40722627D01*
X84738235Y-40878900D01*
X84738970Y-40037185D01*
X84680850Y-39896524D01*
X85081400Y-39731020D01*
X85682509Y-39130959D01*
X86008228Y-38346541D01*
X86008970Y-37497185D01*
X85684620Y-36712200D01*
X85084559Y-36111091D01*
X84300141Y-35785372D01*
X83450785Y-35784630D01*
X82665800Y-36108980D01*
X82064691Y-36709041D01*
X81738972Y-37493459D01*
X81738230Y-38342815D01*
X81796350Y-38483476D01*
X81395800Y-38648980D01*
X80794691Y-39249041D01*
X80468972Y-40033459D01*
X80468230Y-40882815D01*
X80774571Y-41624214D01*
X80493514Y-41740344D01*
X80075412Y-42157717D01*
X79848858Y-42703319D01*
X79848343Y-43294089D01*
X79325127Y-43294089D01*
X78336500Y-42305462D01*
X78336500Y-37112000D01*
X78263995Y-36747494D01*
X78077240Y-36467995D01*
X78057519Y-36438480D01*
X75517519Y-33898481D01*
X75408967Y-33825949D01*
X75363965Y-33717036D01*
X75164263Y-33516985D01*
X75193617Y-33511462D01*
X75409741Y-33372390D01*
X75554731Y-33160190D01*
X75605740Y-32908300D01*
X75605740Y-31155700D01*
X75561462Y-30920383D01*
X75422390Y-30704259D01*
X75394204Y-30685000D01*
X198477954Y-30685000D01*
X198440000Y-30875805D01*
X198440000Y-31424195D01*
X198514979Y-31801138D01*
X198728500Y-32120695D01*
X199048057Y-32334216D01*
X199425000Y-32409195D01*
X199801943Y-32334216D01*
X200121500Y-32120695D01*
X200335021Y-31801138D01*
X200410000Y-31424195D01*
X200410000Y-30875805D01*
X200372046Y-30685000D01*
X203927954Y-30685000D01*
X203890000Y-30875805D01*
X203890000Y-31424195D01*
X203964979Y-31801138D01*
X204178500Y-32120695D01*
X204498057Y-32334216D01*
X204875000Y-32409195D01*
X205251943Y-32334216D01*
X205571500Y-32120695D01*
X205785021Y-31801138D01*
X205860000Y-31424195D01*
X205860000Y-30875805D01*
X205822046Y-30685000D01*
X234922800Y-30685000D01*
X234922800Y-129315000D01*
X53685000Y-129315000D01*
X53685000Y-121138697D01*
X56140708Y-121138697D01*
X56396694Y-121758229D01*
X56870278Y-122232640D01*
X57489362Y-122489707D01*
X58159697Y-122490292D01*
X58779229Y-122234306D01*
X59096137Y-121917950D01*
X59410278Y-122232640D01*
X60029362Y-122489707D01*
X60699697Y-122490292D01*
X61319229Y-122234306D01*
X61560252Y-121993703D01*
X61896902Y-121993703D01*
X62001687Y-122265745D01*
X62629526Y-122500619D01*
X63299456Y-122477349D01*
X63810313Y-122265745D01*
X63915098Y-121993703D01*
X62906000Y-120984605D01*
X61896902Y-121993703D01*
X61560252Y-121993703D01*
X61793640Y-121760722D01*
X61809949Y-121721446D01*
X62726395Y-120805000D01*
X63085605Y-120805000D01*
X64094703Y-121814098D01*
X64366745Y-121709313D01*
X64601619Y-121081474D01*
X64578349Y-120411544D01*
X64366745Y-119900687D01*
X64094703Y-119795902D01*
X63085605Y-120805000D01*
X62726395Y-120805000D01*
X61810896Y-119889501D01*
X61795306Y-119851771D01*
X61560243Y-119616297D01*
X61896902Y-119616297D01*
X62906000Y-120625395D01*
X63915098Y-119616297D01*
X63810313Y-119344255D01*
X63182474Y-119109381D01*
X62512544Y-119132651D01*
X62001687Y-119344255D01*
X61896902Y-119616297D01*
X61560243Y-119616297D01*
X61321722Y-119377360D01*
X60702638Y-119120293D01*
X60032303Y-119119708D01*
X59412771Y-119375694D01*
X59095863Y-119692050D01*
X58781722Y-119377360D01*
X58162638Y-119120293D01*
X57492303Y-119119708D01*
X56872771Y-119375694D01*
X56398360Y-119849278D01*
X56141293Y-120468362D01*
X56140708Y-121138697D01*
X53685000Y-121138697D01*
X53685000Y-110978697D01*
X56140708Y-110978697D01*
X56396694Y-111598229D01*
X56870278Y-112072640D01*
X57489362Y-112329707D01*
X58159697Y-112330292D01*
X58779229Y-112074306D01*
X59096137Y-111757950D01*
X59410278Y-112072640D01*
X59413500Y-112073978D01*
X59413500Y-113439000D01*
X59486005Y-113803506D01*
X59692481Y-114112519D01*
X71122481Y-125542519D01*
X71431494Y-125748995D01*
X71796000Y-125821500D01*
X194478000Y-125821500D01*
X194842506Y-125748995D01*
X195151519Y-125542519D01*
X198707519Y-121986520D01*
X198913995Y-121677506D01*
X198930667Y-121593689D01*
X198986500Y-121313000D01*
X198986500Y-120691538D01*
X200154481Y-121859519D01*
X200463494Y-122065995D01*
X200828000Y-122138500D01*
X201576934Y-122138500D01*
X201882332Y-122265313D01*
X202311784Y-122265687D01*
X202708689Y-122101689D01*
X203012622Y-121798286D01*
X203140347Y-121490691D01*
X205057519Y-119573519D01*
X205263995Y-119264506D01*
X205336500Y-118900000D01*
X205336500Y-116614000D01*
X205263995Y-116249494D01*
X205168115Y-116106000D01*
X205057520Y-115940481D01*
X201742969Y-112625930D01*
X201616689Y-112320311D01*
X201313286Y-112016378D01*
X200916668Y-111851687D01*
X200487216Y-111851313D01*
X200090311Y-112015311D01*
X199875500Y-112229747D01*
X199875500Y-105451538D01*
X205667538Y-99659500D01*
X208053934Y-99659500D01*
X208359332Y-99786313D01*
X208382687Y-99786333D01*
X208464494Y-99840995D01*
X208829000Y-99913500D01*
X208575000Y-99913500D01*
X208210494Y-99986005D01*
X207901481Y-100192481D01*
X205696084Y-102397878D01*
X205425141Y-102285372D01*
X204575785Y-102284630D01*
X203790800Y-102608980D01*
X203189691Y-103209041D01*
X202863972Y-103993459D01*
X202863230Y-104842815D01*
X202921350Y-104983476D01*
X202520800Y-105148980D01*
X201919691Y-105749041D01*
X201593972Y-106533459D01*
X201593230Y-107382815D01*
X201899571Y-108124214D01*
X201618514Y-108240344D01*
X201200412Y-108657717D01*
X200973858Y-109203319D01*
X200973343Y-109794089D01*
X201198944Y-110340086D01*
X201616317Y-110758188D01*
X202161919Y-110984742D01*
X202752689Y-110985257D01*
X203298686Y-110759656D01*
X203716788Y-110342283D01*
X203943342Y-109796681D01*
X203943857Y-109205911D01*
X203898091Y-109095149D01*
X204151415Y-109095370D01*
X204933819Y-108772086D01*
X204854287Y-108963621D01*
X204853355Y-110031693D01*
X205261227Y-111018819D01*
X206015809Y-111774719D01*
X207002221Y-112184313D01*
X208070293Y-112185245D01*
X209057419Y-111777373D01*
X209813319Y-111022791D01*
X210222913Y-110036379D01*
X210223845Y-108968307D01*
X210142245Y-108770821D01*
X210922059Y-109094628D01*
X211178897Y-109094852D01*
X211133858Y-109203319D01*
X211133343Y-109794089D01*
X211358944Y-110340086D01*
X211776317Y-110758188D01*
X212321919Y-110984742D01*
X212912689Y-110985257D01*
X213458686Y-110759656D01*
X213876788Y-110342283D01*
X213972500Y-110111783D01*
X213972500Y-114963000D01*
X214045005Y-115327506D01*
X214251481Y-115636519D01*
X215203980Y-116589019D01*
X215299015Y-116652519D01*
X215512994Y-116795495D01*
X215877058Y-116867912D01*
X216006610Y-116956431D01*
X216258500Y-117007440D01*
X216701902Y-117007440D01*
X220549500Y-120855038D01*
X220549500Y-122804808D01*
X220455629Y-122898515D01*
X220267215Y-123352266D01*
X220266786Y-123843579D01*
X220454408Y-124297657D01*
X220801515Y-124645371D01*
X221255266Y-124833785D01*
X221746579Y-124834214D01*
X222200657Y-124646592D01*
X222548371Y-124299485D01*
X222736785Y-123845734D01*
X222737214Y-123354421D01*
X222549592Y-122900343D01*
X222454500Y-122805085D01*
X222454500Y-120460500D01*
X222381995Y-120095994D01*
X222175519Y-119786981D01*
X219447106Y-117058568D01*
X219583784Y-117058687D01*
X219980689Y-116894689D01*
X220284622Y-116591286D01*
X220449313Y-116194668D01*
X220449687Y-115765216D01*
X220386321Y-115611859D01*
X225429500Y-120655038D01*
X225429500Y-122804808D01*
X225335629Y-122898515D01*
X225147215Y-123352266D01*
X225146786Y-123843579D01*
X225334408Y-124297657D01*
X225681515Y-124645371D01*
X226135266Y-124833785D01*
X226626579Y-124834214D01*
X227080657Y-124646592D01*
X227428371Y-124299485D01*
X227616785Y-123845734D01*
X227617214Y-123354421D01*
X227429592Y-122900343D01*
X227334500Y-122805085D01*
X227334500Y-120260500D01*
X227261995Y-119895994D01*
X227055519Y-119586981D01*
X218780288Y-111311750D01*
X219662520Y-110429519D01*
X219786293Y-110244279D01*
X219868995Y-110120506D01*
X219941500Y-109756000D01*
X219941500Y-107089000D01*
X219868995Y-106724494D01*
X219662519Y-106415481D01*
X218671500Y-105424462D01*
X218671500Y-104562066D01*
X218798313Y-104256668D01*
X218798687Y-103827216D01*
X218634689Y-103430311D01*
X218331286Y-103126378D01*
X217934668Y-102961687D01*
X217505216Y-102961313D01*
X217108311Y-103125311D01*
X216878097Y-103355123D01*
X216856689Y-103303311D01*
X216553286Y-102999378D01*
X216156668Y-102834687D01*
X215729805Y-102834315D01*
X215713689Y-102795311D01*
X215410286Y-102491378D01*
X215013668Y-102326687D01*
X214584216Y-102326313D01*
X214187311Y-102490311D01*
X213883378Y-102793714D01*
X213755653Y-103101309D01*
X212981481Y-103875481D01*
X212775005Y-104184494D01*
X212702500Y-104549000D01*
X212702500Y-105294282D01*
X212559559Y-105151091D01*
X212156298Y-104983642D01*
X212213228Y-104846541D01*
X212213970Y-103997185D01*
X211889620Y-103212200D01*
X211289559Y-102611091D01*
X210505141Y-102285372D01*
X209655785Y-102284630D01*
X208870800Y-102608980D01*
X208269691Y-103209041D01*
X207943972Y-103993459D01*
X207943230Y-104842815D01*
X208267580Y-105627800D01*
X208867641Y-106228909D01*
X209270902Y-106396358D01*
X209213972Y-106533459D01*
X209213235Y-107377390D01*
X209061391Y-107225281D01*
X208074979Y-106815687D01*
X207006907Y-106814755D01*
X206019781Y-107222627D01*
X205863235Y-107378900D01*
X205863970Y-106537185D01*
X205805850Y-106396524D01*
X206206400Y-106231020D01*
X206807509Y-105630959D01*
X207133228Y-104846541D01*
X207133970Y-103997185D01*
X207033649Y-103754389D01*
X208969538Y-101818500D01*
X210466934Y-101818500D01*
X210772332Y-101945313D01*
X211201784Y-101945687D01*
X211509600Y-101818500D01*
X220880462Y-101818500D01*
X219585481Y-103113481D01*
X219379005Y-103422494D01*
X219306500Y-103787000D01*
X219306500Y-104916934D01*
X219179687Y-105222332D01*
X219179313Y-105651784D01*
X219343311Y-106048689D01*
X219646714Y-106352622D01*
X220043332Y-106517313D01*
X220472784Y-106517687D01*
X220626976Y-106453976D01*
X220593972Y-106533459D01*
X220593230Y-107382815D01*
X220899571Y-108124214D01*
X220618514Y-108240344D01*
X220200412Y-108657717D01*
X219973858Y-109203319D01*
X219973343Y-109794089D01*
X220198944Y-110340086D01*
X220616317Y-110758188D01*
X221161919Y-110984742D01*
X221752689Y-110985257D01*
X222298686Y-110759656D01*
X222716788Y-110342283D01*
X222943342Y-109796681D01*
X222943857Y-109205911D01*
X222898091Y-109095149D01*
X223151415Y-109095370D01*
X223933819Y-108772086D01*
X223854287Y-108963621D01*
X223853355Y-110031693D01*
X224261227Y-111018819D01*
X225015809Y-111774719D01*
X226002221Y-112184313D01*
X227070293Y-112185245D01*
X228057419Y-111777373D01*
X228813319Y-111022791D01*
X229222913Y-110036379D01*
X229223845Y-108968307D01*
X229142245Y-108770821D01*
X229922059Y-109094628D01*
X230178897Y-109094852D01*
X230133858Y-109203319D01*
X230133343Y-109794089D01*
X230358944Y-110340086D01*
X230776317Y-110758188D01*
X231321919Y-110984742D01*
X231912689Y-110985257D01*
X232458686Y-110759656D01*
X232876788Y-110342283D01*
X233103342Y-109796681D01*
X233103857Y-109205911D01*
X232878256Y-108659914D01*
X232460883Y-108241812D01*
X232177031Y-108123946D01*
X232483228Y-107386541D01*
X232483970Y-106537185D01*
X232159620Y-105752200D01*
X231559559Y-105151091D01*
X231156298Y-104983642D01*
X231213228Y-104846541D01*
X231213970Y-103997185D01*
X230889620Y-103212200D01*
X230289559Y-102611091D01*
X229505141Y-102285372D01*
X228655785Y-102284630D01*
X227870800Y-102608980D01*
X227269691Y-103209041D01*
X226943972Y-103993459D01*
X226943230Y-104842815D01*
X227267580Y-105627800D01*
X227867641Y-106228909D01*
X228270902Y-106396358D01*
X228213972Y-106533459D01*
X228213235Y-107377390D01*
X228061391Y-107225281D01*
X227074979Y-106815687D01*
X226006907Y-106814755D01*
X225019781Y-107222627D01*
X224863235Y-107378900D01*
X224863970Y-106537185D01*
X224805850Y-106396524D01*
X225206400Y-106231020D01*
X225807509Y-105630959D01*
X226133228Y-104846541D01*
X226133970Y-103997185D01*
X225809620Y-103212200D01*
X225209559Y-102611091D01*
X225199234Y-102606804D01*
X227422071Y-100383968D01*
X227727689Y-100257689D01*
X228031622Y-99954286D01*
X228196313Y-99557668D01*
X228196687Y-99128216D01*
X228032689Y-98731311D01*
X227729286Y-98427378D01*
X227332668Y-98262687D01*
X227130527Y-98262511D01*
X230978069Y-94414969D01*
X231283689Y-94288689D01*
X231587622Y-93985286D01*
X231752313Y-93588668D01*
X231752687Y-93159216D01*
X231588689Y-92762311D01*
X231474808Y-92648231D01*
X232870519Y-91252520D01*
X233076995Y-90943506D01*
X233102257Y-90816506D01*
X233149500Y-90579000D01*
X233149500Y-88547000D01*
X233076995Y-88182494D01*
X232870519Y-87873481D01*
X231848430Y-86851392D01*
X232108332Y-86959313D01*
X232537784Y-86959687D01*
X232934689Y-86795689D01*
X233238622Y-86492286D01*
X233403313Y-86095668D01*
X233403687Y-85666216D01*
X233276500Y-85358400D01*
X233276500Y-82337066D01*
X233403313Y-82031668D01*
X233403687Y-81602216D01*
X233239689Y-81205311D01*
X232936286Y-80901378D01*
X232539668Y-80736687D01*
X232517393Y-80736668D01*
X232627931Y-80574890D01*
X232678940Y-80323000D01*
X232678940Y-77223000D01*
X232634662Y-76987683D01*
X232495590Y-76771559D01*
X232484000Y-76763640D01*
X232484000Y-76526038D01*
X232502069Y-76507969D01*
X232807689Y-76381689D01*
X233111622Y-76078286D01*
X233276313Y-75681668D01*
X233276687Y-75252216D01*
X233112689Y-74855311D01*
X232809286Y-74551378D01*
X232501691Y-74423653D01*
X232481500Y-74403462D01*
X232481500Y-71885540D01*
X232625431Y-71674890D01*
X232676440Y-71423000D01*
X232676440Y-68323000D01*
X232632162Y-68087683D01*
X232493090Y-67871559D01*
X232280890Y-67726569D01*
X232029000Y-67675560D01*
X231029000Y-67675560D01*
X230793683Y-67719838D01*
X230577559Y-67858910D01*
X230432569Y-68071110D01*
X230381560Y-68323000D01*
X230381560Y-71423000D01*
X230425838Y-71658317D01*
X230564910Y-71874441D01*
X230576500Y-71882360D01*
X230576500Y-74798000D01*
X230649005Y-75162506D01*
X230852208Y-75466621D01*
X230651505Y-75766994D01*
X230579000Y-76131500D01*
X230579000Y-76760460D01*
X230435069Y-76971110D01*
X230384060Y-77223000D01*
X230384060Y-80323000D01*
X230428338Y-80558317D01*
X230567410Y-80774441D01*
X230779610Y-80919431D01*
X231031500Y-80970440D01*
X231643059Y-80970440D01*
X231409378Y-81203714D01*
X231244687Y-81600332D01*
X231244313Y-82029784D01*
X231371500Y-82337600D01*
X231371500Y-83921793D01*
X231118159Y-83836446D01*
X230217605Y-84737000D01*
X231118159Y-85637554D01*
X231278193Y-85583641D01*
X231244687Y-85664332D01*
X231244313Y-86093784D01*
X231399386Y-86469088D01*
X231351954Y-86437395D01*
X231340068Y-86408629D01*
X230908643Y-85976449D01*
X230887806Y-85967797D01*
X230938554Y-85817159D01*
X230038000Y-84916605D01*
X229137446Y-85817159D01*
X229188035Y-85967327D01*
X229169629Y-85974932D01*
X228767677Y-86376182D01*
X228398818Y-86006677D01*
X228798551Y-85607643D01*
X228807203Y-85586806D01*
X228957841Y-85637554D01*
X229858395Y-84737000D01*
X228957841Y-83836446D01*
X228807673Y-83887035D01*
X228800068Y-83868629D01*
X228588650Y-83656841D01*
X229137446Y-83656841D01*
X230038000Y-84557395D01*
X230938554Y-83656841D01*
X230852148Y-83400357D01*
X230278664Y-83190542D01*
X229668540Y-83216161D01*
X229223852Y-83400357D01*
X229137446Y-83656841D01*
X228588650Y-83656841D01*
X228368643Y-83436449D01*
X227804670Y-83202267D01*
X227194009Y-83201735D01*
X226629629Y-83434932D01*
X226197449Y-83866357D01*
X225963267Y-84430330D01*
X225962735Y-85040991D01*
X226195932Y-85605371D01*
X226597182Y-86007323D01*
X226229045Y-86374816D01*
X226117494Y-86397005D01*
X225808480Y-86603481D01*
X224894500Y-87517462D01*
X224894500Y-68323000D01*
X226383560Y-68323000D01*
X226383560Y-71423000D01*
X226427838Y-71658317D01*
X226566910Y-71874441D01*
X226578500Y-71882360D01*
X226578500Y-76760460D01*
X226434569Y-76971110D01*
X226383560Y-77223000D01*
X226383560Y-80323000D01*
X226427838Y-80558317D01*
X226566910Y-80774441D01*
X226578500Y-80782360D01*
X226578500Y-81341000D01*
X226651005Y-81705506D01*
X226826036Y-81967458D01*
X226963311Y-82299689D01*
X227266714Y-82603622D01*
X227663332Y-82768313D01*
X228092784Y-82768687D01*
X228489689Y-82604689D01*
X228793622Y-82301286D01*
X228958313Y-81904668D01*
X228958687Y-81475216D01*
X228794689Y-81078311D01*
X228491286Y-80774378D01*
X228491162Y-80774326D01*
X228627431Y-80574890D01*
X228678440Y-80323000D01*
X228678440Y-77223000D01*
X228634162Y-76987683D01*
X228495090Y-76771559D01*
X228483500Y-76763640D01*
X228483500Y-71885540D01*
X228627431Y-71674890D01*
X228678440Y-71423000D01*
X228678440Y-68323000D01*
X228634162Y-68087683D01*
X228495090Y-67871559D01*
X228282890Y-67726569D01*
X228031000Y-67675560D01*
X227031000Y-67675560D01*
X226795683Y-67719838D01*
X226579559Y-67858910D01*
X226434569Y-68071110D01*
X226383560Y-68323000D01*
X224894500Y-68323000D01*
X224894500Y-62972697D01*
X224923708Y-62972697D01*
X225179694Y-63592229D01*
X225653278Y-64066640D01*
X226272362Y-64323707D01*
X226942697Y-64324292D01*
X227562229Y-64068306D01*
X227879137Y-63751950D01*
X228193278Y-64066640D01*
X228812362Y-64323707D01*
X229482697Y-64324292D01*
X230102229Y-64068306D01*
X230343252Y-63827703D01*
X230679902Y-63827703D01*
X230784687Y-64099745D01*
X231412526Y-64334619D01*
X232082456Y-64311349D01*
X232593313Y-64099745D01*
X232698098Y-63827703D01*
X231689000Y-62818605D01*
X230679902Y-63827703D01*
X230343252Y-63827703D01*
X230576640Y-63594722D01*
X230592949Y-63555446D01*
X231509395Y-62639000D01*
X231868605Y-62639000D01*
X232877703Y-63648098D01*
X233149745Y-63543313D01*
X233384619Y-62915474D01*
X233361349Y-62245544D01*
X233149745Y-61734687D01*
X232877703Y-61629902D01*
X231868605Y-62639000D01*
X231509395Y-62639000D01*
X230593896Y-61723501D01*
X230578306Y-61685771D01*
X230343243Y-61450297D01*
X230679902Y-61450297D01*
X231689000Y-62459395D01*
X232698098Y-61450297D01*
X232593313Y-61178255D01*
X231965474Y-60943381D01*
X231295544Y-60966651D01*
X230784687Y-61178255D01*
X230679902Y-61450297D01*
X230343243Y-61450297D01*
X230104722Y-61211360D01*
X229485638Y-60954293D01*
X228815303Y-60953708D01*
X228195771Y-61209694D01*
X227878863Y-61526050D01*
X227564722Y-61211360D01*
X226945638Y-60954293D01*
X226275303Y-60953708D01*
X225655771Y-61209694D01*
X225181360Y-61683278D01*
X224924293Y-62302362D01*
X224923708Y-62972697D01*
X224894500Y-62972697D01*
X224894500Y-57178000D01*
X224821995Y-56813494D01*
X224731060Y-56677400D01*
X224615520Y-56504481D01*
X220932519Y-52821481D01*
X220919373Y-52812697D01*
X224923708Y-52812697D01*
X225179694Y-53432229D01*
X225653278Y-53906640D01*
X226272362Y-54163707D01*
X226942697Y-54164292D01*
X227562229Y-53908306D01*
X227879137Y-53591950D01*
X228193278Y-53906640D01*
X228812362Y-54163707D01*
X229482697Y-54164292D01*
X230102229Y-53908306D01*
X230343252Y-53667703D01*
X230679902Y-53667703D01*
X230784687Y-53939745D01*
X231412526Y-54174619D01*
X232082456Y-54151349D01*
X232593313Y-53939745D01*
X232698098Y-53667703D01*
X231689000Y-52658605D01*
X230679902Y-53667703D01*
X230343252Y-53667703D01*
X230576640Y-53434722D01*
X230592949Y-53395446D01*
X231509395Y-52479000D01*
X231868605Y-52479000D01*
X232877703Y-53488098D01*
X233149745Y-53383313D01*
X233384619Y-52755474D01*
X233361349Y-52085544D01*
X233149745Y-51574687D01*
X232877703Y-51469902D01*
X231868605Y-52479000D01*
X231509395Y-52479000D01*
X230593896Y-51563501D01*
X230578306Y-51525771D01*
X230343243Y-51290297D01*
X230679902Y-51290297D01*
X231689000Y-52299395D01*
X232698098Y-51290297D01*
X232593313Y-51018255D01*
X231965474Y-50783381D01*
X231295544Y-50806651D01*
X230784687Y-51018255D01*
X230679902Y-51290297D01*
X230343243Y-51290297D01*
X230104722Y-51051360D01*
X229485638Y-50794293D01*
X228815303Y-50793708D01*
X228195771Y-51049694D01*
X227878863Y-51366050D01*
X227564722Y-51051360D01*
X226945638Y-50794293D01*
X226275303Y-50793708D01*
X225655771Y-51049694D01*
X225181360Y-51523278D01*
X224924293Y-52142362D01*
X224923708Y-52812697D01*
X220919373Y-52812697D01*
X220623506Y-52615005D01*
X220259000Y-52542500D01*
X212779538Y-52542500D01*
X212448500Y-52211462D01*
X212448500Y-50206600D01*
X212485311Y-50295689D01*
X212788714Y-50599622D01*
X213185332Y-50764313D01*
X213614784Y-50764687D01*
X213922600Y-50637500D01*
X217846000Y-50637500D01*
X218210506Y-50564995D01*
X218519519Y-50358519D01*
X221907341Y-46970697D01*
X224923708Y-46970697D01*
X225179694Y-47590229D01*
X225653278Y-48064640D01*
X226272362Y-48321707D01*
X226942697Y-48322292D01*
X227562229Y-48066306D01*
X227879137Y-47749950D01*
X228193278Y-48064640D01*
X228812362Y-48321707D01*
X229482697Y-48322292D01*
X230102229Y-48066306D01*
X230343252Y-47825703D01*
X230679902Y-47825703D01*
X230784687Y-48097745D01*
X231412526Y-48332619D01*
X232082456Y-48309349D01*
X232593313Y-48097745D01*
X232698098Y-47825703D01*
X231689000Y-46816605D01*
X230679902Y-47825703D01*
X230343252Y-47825703D01*
X230576640Y-47592722D01*
X230592949Y-47553446D01*
X231509395Y-46637000D01*
X231868605Y-46637000D01*
X232877703Y-47646098D01*
X233149745Y-47541313D01*
X233384619Y-46913474D01*
X233361349Y-46243544D01*
X233149745Y-45732687D01*
X232877703Y-45627902D01*
X231868605Y-46637000D01*
X231509395Y-46637000D01*
X230593896Y-45721501D01*
X230578306Y-45683771D01*
X230343243Y-45448297D01*
X230679902Y-45448297D01*
X231689000Y-46457395D01*
X232698098Y-45448297D01*
X232593313Y-45176255D01*
X231965474Y-44941381D01*
X231295544Y-44964651D01*
X230784687Y-45176255D01*
X230679902Y-45448297D01*
X230343243Y-45448297D01*
X230104722Y-45209360D01*
X229485638Y-44952293D01*
X228815303Y-44951708D01*
X228195771Y-45207694D01*
X227878863Y-45524050D01*
X227564722Y-45209360D01*
X226945638Y-44952293D01*
X226275303Y-44951708D01*
X225655771Y-45207694D01*
X225181360Y-45681278D01*
X224924293Y-46300362D01*
X224923708Y-46970697D01*
X221907341Y-46970697D01*
X229822519Y-39055519D01*
X230028995Y-38746506D01*
X230101500Y-38382000D01*
X230101500Y-37906607D01*
X230102229Y-37906306D01*
X230343252Y-37665703D01*
X230679902Y-37665703D01*
X230784687Y-37937745D01*
X231412526Y-38172619D01*
X232082456Y-38149349D01*
X232593313Y-37937745D01*
X232698098Y-37665703D01*
X231689000Y-36656605D01*
X230679902Y-37665703D01*
X230343252Y-37665703D01*
X230576640Y-37432722D01*
X230592949Y-37393446D01*
X231509395Y-36477000D01*
X231868605Y-36477000D01*
X232877703Y-37486098D01*
X233149745Y-37381313D01*
X233384619Y-36753474D01*
X233361349Y-36083544D01*
X233149745Y-35572687D01*
X232877703Y-35467902D01*
X231868605Y-36477000D01*
X231509395Y-36477000D01*
X230593896Y-35561501D01*
X230578306Y-35523771D01*
X230343243Y-35288297D01*
X230679902Y-35288297D01*
X231689000Y-36297395D01*
X232698098Y-35288297D01*
X232593313Y-35016255D01*
X231965474Y-34781381D01*
X231295544Y-34804651D01*
X230784687Y-35016255D01*
X230679902Y-35288297D01*
X230343243Y-35288297D01*
X230104722Y-35049360D01*
X229485638Y-34792293D01*
X228815303Y-34791708D01*
X228195771Y-35047694D01*
X227878863Y-35364050D01*
X227564722Y-35049360D01*
X226945638Y-34792293D01*
X226275303Y-34791708D01*
X225655771Y-35047694D01*
X225181360Y-35521278D01*
X224924293Y-36140362D01*
X224923708Y-36810697D01*
X225179694Y-37430229D01*
X225653278Y-37904640D01*
X226272362Y-38161707D01*
X226942697Y-38162292D01*
X227562229Y-37906306D01*
X227879137Y-37589950D01*
X228193278Y-37904640D01*
X228196500Y-37905978D01*
X228196500Y-37987462D01*
X217451462Y-48732500D01*
X213922066Y-48732500D01*
X213616668Y-48605687D01*
X213187216Y-48605313D01*
X212790311Y-48769311D01*
X212486378Y-49072714D01*
X212448500Y-49163934D01*
X212448500Y-44581201D01*
X213140809Y-45274719D01*
X214127221Y-45684313D01*
X215195293Y-45685245D01*
X216182419Y-45277373D01*
X216938319Y-44522791D01*
X217347913Y-43536379D01*
X217348845Y-42468307D01*
X217267245Y-42270821D01*
X218047059Y-42594628D01*
X218303897Y-42594852D01*
X218258858Y-42703319D01*
X218258343Y-43294089D01*
X218483944Y-43840086D01*
X218901317Y-44258188D01*
X219446919Y-44484742D01*
X220037689Y-44485257D01*
X220583686Y-44259656D01*
X221001788Y-43842283D01*
X221228342Y-43296681D01*
X221228857Y-42705911D01*
X221003256Y-42159914D01*
X220585883Y-41741812D01*
X220302031Y-41623946D01*
X220608228Y-40886541D01*
X220608970Y-40037185D01*
X220284620Y-39252200D01*
X219684559Y-38651091D01*
X219281298Y-38483642D01*
X219338228Y-38346541D01*
X219338970Y-37497185D01*
X219014620Y-36712200D01*
X218414559Y-36111091D01*
X217630141Y-35785372D01*
X216780785Y-35784630D01*
X215995800Y-36108980D01*
X215394691Y-36709041D01*
X215068972Y-37493459D01*
X215068230Y-38342815D01*
X215392580Y-39127800D01*
X215992641Y-39728909D01*
X216395902Y-39896358D01*
X216338972Y-40033459D01*
X216338235Y-40877390D01*
X216186391Y-40725281D01*
X215199979Y-40315687D01*
X214131907Y-40314755D01*
X213144781Y-40722627D01*
X212988235Y-40878900D01*
X212988970Y-40037185D01*
X212930850Y-39896524D01*
X213331400Y-39731020D01*
X213932509Y-39130959D01*
X214258228Y-38346541D01*
X214258970Y-37497185D01*
X213934620Y-36712200D01*
X213334559Y-36111091D01*
X212550141Y-35785372D01*
X211700785Y-35784630D01*
X211442139Y-35891501D01*
X210465119Y-34914481D01*
X210156106Y-34708005D01*
X209791600Y-34635500D01*
X205462839Y-34635500D01*
X205535000Y-34272726D01*
X205535000Y-33827274D01*
X205461924Y-33459898D01*
X205253823Y-33148451D01*
X204942376Y-32940350D01*
X204575000Y-32867274D01*
X204207624Y-32940350D01*
X203896177Y-33148451D01*
X203688076Y-33459898D01*
X203615000Y-33827274D01*
X203615000Y-34272726D01*
X203687161Y-34635500D01*
X200612839Y-34635500D01*
X200685000Y-34272726D01*
X200685000Y-33827274D01*
X200611924Y-33459898D01*
X200403823Y-33148451D01*
X200092376Y-32940350D01*
X199725000Y-32867274D01*
X199357624Y-32940350D01*
X199046177Y-33148451D01*
X198838076Y-33459898D01*
X198765000Y-33827274D01*
X198765000Y-34272726D01*
X198837161Y-34635500D01*
X187620000Y-34635500D01*
X187255494Y-34708005D01*
X186946481Y-34914481D01*
X186075895Y-35785067D01*
X185575785Y-35784630D01*
X184790800Y-36108980D01*
X184189691Y-36709041D01*
X183863972Y-37493459D01*
X183863230Y-38342815D01*
X183921350Y-38483476D01*
X183520800Y-38648980D01*
X182919691Y-39249041D01*
X182593972Y-40033459D01*
X182593230Y-40882815D01*
X182899571Y-41624214D01*
X182618514Y-41740344D01*
X182200412Y-42157717D01*
X181973858Y-42703319D01*
X181973343Y-43294089D01*
X182198944Y-43840086D01*
X182616317Y-44258188D01*
X183161919Y-44484742D01*
X183752689Y-44485257D01*
X184298686Y-44259656D01*
X184716788Y-43842283D01*
X184943342Y-43296681D01*
X184943857Y-42705911D01*
X184898091Y-42595149D01*
X185151415Y-42595370D01*
X185933819Y-42272086D01*
X185854287Y-42463621D01*
X185853355Y-43531693D01*
X186261227Y-44518819D01*
X187015809Y-45274719D01*
X188002221Y-45684313D01*
X189070293Y-45685245D01*
X190057419Y-45277373D01*
X190813319Y-44522791D01*
X191222913Y-43536379D01*
X191223845Y-42468307D01*
X191142245Y-42270821D01*
X191922059Y-42594628D01*
X192178897Y-42594852D01*
X192133858Y-42703319D01*
X192133343Y-43294089D01*
X192358944Y-43840086D01*
X192776317Y-44258188D01*
X193321919Y-44484742D01*
X193912689Y-44485257D01*
X194458686Y-44259656D01*
X194876788Y-43842283D01*
X195103342Y-43296681D01*
X195103857Y-42705911D01*
X194878256Y-42159914D01*
X194460883Y-41741812D01*
X194177031Y-41623946D01*
X194483228Y-40886541D01*
X194483970Y-40037185D01*
X194159620Y-39252200D01*
X193559559Y-38651091D01*
X193156298Y-38483642D01*
X193213228Y-38346541D01*
X193213970Y-37497185D01*
X192889620Y-36712200D01*
X192718219Y-36540500D01*
X209397062Y-36540500D01*
X210094905Y-37238343D01*
X209988972Y-37493459D01*
X209988230Y-38342815D01*
X210046350Y-38483476D01*
X209645800Y-38648980D01*
X209044691Y-39249041D01*
X208718972Y-40033459D01*
X208718230Y-40882815D01*
X209024571Y-41624214D01*
X208743514Y-41740344D01*
X208325412Y-42157717D01*
X208098858Y-42703319D01*
X208098343Y-43294089D01*
X208323944Y-43840086D01*
X208741317Y-44258188D01*
X209286919Y-44484742D01*
X209877689Y-44485257D01*
X210423686Y-44259656D01*
X210543500Y-44140051D01*
X210543500Y-52606000D01*
X210616005Y-52970506D01*
X210822481Y-53279519D01*
X211711481Y-54168519D01*
X212020494Y-54374995D01*
X212385000Y-54447500D01*
X213387461Y-54447500D01*
X212903049Y-54931912D01*
X212550141Y-54785372D01*
X211700785Y-54784630D01*
X211442139Y-54891501D01*
X210388119Y-53837481D01*
X210079106Y-53631005D01*
X209714600Y-53558500D01*
X188255000Y-53558500D01*
X187890494Y-53631005D01*
X187581480Y-53837481D01*
X186572430Y-54846532D01*
X186425141Y-54785372D01*
X185575785Y-54784630D01*
X185317139Y-54891501D01*
X184263119Y-53837481D01*
X183954106Y-53631005D01*
X183589600Y-53558500D01*
X168443000Y-53558500D01*
X168078494Y-53631005D01*
X167769481Y-53837481D01*
X166822117Y-54784845D01*
X166575785Y-54784630D01*
X166317139Y-54891501D01*
X165263119Y-53837481D01*
X164954106Y-53631005D01*
X164589600Y-53558500D01*
X149901000Y-53558500D01*
X149536494Y-53631005D01*
X149227481Y-53837481D01*
X148279717Y-54785245D01*
X147575785Y-54784630D01*
X147317139Y-54891501D01*
X146263119Y-53837481D01*
X145954106Y-53631005D01*
X145589600Y-53558500D01*
X130978000Y-53558500D01*
X130613494Y-53631005D01*
X130304481Y-53837481D01*
X129356650Y-54785312D01*
X128575785Y-54784630D01*
X128317139Y-54891501D01*
X127136119Y-53710481D01*
X126827106Y-53504005D01*
X126462600Y-53431500D01*
X112309000Y-53431500D01*
X111944494Y-53504005D01*
X111635481Y-53710481D01*
X110520849Y-54825113D01*
X110425141Y-54785372D01*
X109575785Y-54784630D01*
X109317139Y-54891501D01*
X108136119Y-53710481D01*
X107827106Y-53504005D01*
X107462600Y-53431500D01*
X85766000Y-53431500D01*
X85401494Y-53504005D01*
X85092481Y-53710481D01*
X84017837Y-54785125D01*
X83450785Y-54784630D01*
X82665800Y-55108980D01*
X82064691Y-55709041D01*
X81738972Y-56493459D01*
X81738230Y-57342815D01*
X81796350Y-57483476D01*
X81395800Y-57648980D01*
X80794691Y-58249041D01*
X80468972Y-59033459D01*
X80468230Y-59882815D01*
X80774571Y-60624214D01*
X80493514Y-60740344D01*
X80075412Y-61157717D01*
X79848858Y-61703319D01*
X79848343Y-62294089D01*
X80073944Y-62840086D01*
X80491317Y-63258188D01*
X81036919Y-63484742D01*
X81627689Y-63485257D01*
X82173686Y-63259656D01*
X82273500Y-63160016D01*
X82273500Y-72785462D01*
X70462500Y-84596462D01*
X70462500Y-45370137D01*
X70427362Y-45193486D01*
X70394375Y-45016389D01*
X70391149Y-45011431D01*
X70389995Y-45005631D01*
X70289934Y-44855879D01*
X70191682Y-44704881D01*
X60353256Y-34623531D01*
X60353562Y-34272703D01*
X60123965Y-33717036D01*
X59699200Y-33291529D01*
X59665408Y-33277497D01*
X59725396Y-33095001D01*
X58842000Y-32211605D01*
X57958604Y-33095001D01*
X58010178Y-33251902D01*
X57962042Y-33284066D01*
X57811044Y-33382318D01*
X57807698Y-33387195D01*
X57802781Y-33390481D01*
X57702719Y-33540234D01*
X57629555Y-33646892D01*
X57561529Y-33714800D01*
X57330963Y-34270065D01*
X57330438Y-34871297D01*
X57560035Y-35426964D01*
X57974698Y-35842351D01*
X57561529Y-36254800D01*
X57330963Y-36810065D01*
X57330438Y-37411297D01*
X57560035Y-37966964D01*
X57974698Y-38382351D01*
X57561529Y-38794800D01*
X57330963Y-39350065D01*
X57330438Y-39951297D01*
X57560035Y-40506964D01*
X57974698Y-40922351D01*
X57561529Y-41334800D01*
X57330963Y-41890065D01*
X57330438Y-42491297D01*
X57560035Y-43046964D01*
X57974698Y-43462351D01*
X57561529Y-43874800D01*
X57330963Y-44430065D01*
X57330438Y-45031297D01*
X57560035Y-45586964D01*
X57974698Y-46002351D01*
X57561529Y-46414800D01*
X57330963Y-46970065D01*
X57330438Y-47571297D01*
X57560035Y-48126964D01*
X57974698Y-48542351D01*
X57561529Y-48954800D01*
X57330963Y-49510065D01*
X57330438Y-50111297D01*
X57560035Y-50666964D01*
X57974698Y-51082351D01*
X57561529Y-51494800D01*
X57330963Y-52050065D01*
X57330438Y-52651297D01*
X57560035Y-53206964D01*
X57974698Y-53622351D01*
X57561529Y-54034800D01*
X57330963Y-54590065D01*
X57330438Y-55191297D01*
X57560035Y-55746964D01*
X57974698Y-56162351D01*
X57561529Y-56574800D01*
X57330963Y-57130065D01*
X57330438Y-57731297D01*
X57560035Y-58286964D01*
X57974698Y-58702351D01*
X57561529Y-59114800D01*
X57330963Y-59670065D01*
X57330438Y-60271297D01*
X57560035Y-60826964D01*
X57984800Y-61252471D01*
X58540065Y-61483037D01*
X59141297Y-61483562D01*
X59696964Y-61253965D01*
X60107997Y-60843649D01*
X60404519Y-60645519D01*
X61801519Y-59248519D01*
X61953500Y-59021063D01*
X61953500Y-87898462D01*
X60581481Y-89270481D01*
X60375005Y-89579494D01*
X60302500Y-89944000D01*
X60302500Y-97564000D01*
X60375005Y-97928506D01*
X60581481Y-98237519D01*
X61953500Y-99609538D01*
X61953500Y-104041000D01*
X62026005Y-104405506D01*
X62232481Y-104714519D01*
X67439481Y-109921519D01*
X67748494Y-110127995D01*
X68113000Y-110200500D01*
X73552972Y-110200500D01*
X73510687Y-110302332D01*
X73510313Y-110731784D01*
X73674311Y-111128689D01*
X73977714Y-111432622D01*
X74285309Y-111560347D01*
X74932481Y-112207519D01*
X75241494Y-112413995D01*
X75511459Y-112467695D01*
X75269691Y-112709041D01*
X74943972Y-113493459D01*
X74943230Y-114342815D01*
X75267580Y-115127800D01*
X75867641Y-115728909D01*
X76270902Y-115896358D01*
X76213972Y-116033459D01*
X76213235Y-116877390D01*
X76061391Y-116725281D01*
X75074979Y-116315687D01*
X74006907Y-116314755D01*
X73019781Y-116722627D01*
X72863235Y-116878900D01*
X72863970Y-116037185D01*
X72805850Y-115896524D01*
X73206400Y-115731020D01*
X73807509Y-115130959D01*
X74133228Y-114346541D01*
X74133970Y-113497185D01*
X73809620Y-112712200D01*
X73209559Y-112111091D01*
X72425141Y-111785372D01*
X71575785Y-111784630D01*
X70790800Y-112108980D01*
X70189691Y-112709041D01*
X69863972Y-113493459D01*
X69863230Y-114342815D01*
X69921350Y-114483476D01*
X69520800Y-114648980D01*
X68919691Y-115249041D01*
X68593972Y-116033459D01*
X68593230Y-116882815D01*
X68899571Y-117624214D01*
X68618514Y-117740344D01*
X68200412Y-118157717D01*
X67973858Y-118703319D01*
X67973343Y-119294089D01*
X68198944Y-119840086D01*
X68616317Y-120258188D01*
X69161919Y-120484742D01*
X69752689Y-120485257D01*
X70298686Y-120259656D01*
X70716788Y-119842283D01*
X70943342Y-119296681D01*
X70943857Y-118705911D01*
X70898091Y-118595149D01*
X71151415Y-118595370D01*
X71933819Y-118272086D01*
X71854287Y-118463621D01*
X71853355Y-119531693D01*
X72261227Y-120518819D01*
X73015809Y-121274719D01*
X74002221Y-121684313D01*
X75070293Y-121685245D01*
X76057419Y-121277373D01*
X76813319Y-120522791D01*
X77222913Y-119536379D01*
X77223845Y-118468307D01*
X77142245Y-118270821D01*
X77922059Y-118594628D01*
X78178897Y-118594852D01*
X78133858Y-118703319D01*
X78133343Y-119294089D01*
X78358944Y-119840086D01*
X78776317Y-120258188D01*
X79321919Y-120484742D01*
X79912689Y-120485257D01*
X80458686Y-120259656D01*
X80876788Y-119842283D01*
X81103342Y-119296681D01*
X81103857Y-118705911D01*
X80878256Y-118159914D01*
X80460883Y-117741812D01*
X80177031Y-117623946D01*
X80483228Y-116886541D01*
X80483970Y-116037185D01*
X80159620Y-115252200D01*
X79559559Y-114651091D01*
X79156298Y-114483642D01*
X79213228Y-114346541D01*
X79213970Y-113497185D01*
X78889620Y-112712200D01*
X78664313Y-112486500D01*
X88218062Y-112486500D01*
X88969905Y-113238344D01*
X88863972Y-113493459D01*
X88863230Y-114342815D01*
X88921350Y-114483476D01*
X88520800Y-114648980D01*
X87919691Y-115249041D01*
X87593972Y-116033459D01*
X87593230Y-116882815D01*
X87899571Y-117624214D01*
X87618514Y-117740344D01*
X87200412Y-118157717D01*
X86973858Y-118703319D01*
X86973343Y-119294089D01*
X87198944Y-119840086D01*
X87616317Y-120258188D01*
X88161919Y-120484742D01*
X88752689Y-120485257D01*
X89298686Y-120259656D01*
X89716788Y-119842283D01*
X89943342Y-119296681D01*
X89943857Y-118705911D01*
X89898091Y-118595149D01*
X90151415Y-118595370D01*
X90933819Y-118272086D01*
X90854287Y-118463621D01*
X90853355Y-119531693D01*
X91261227Y-120518819D01*
X92015809Y-121274719D01*
X93002221Y-121684313D01*
X94070293Y-121685245D01*
X95057419Y-121277373D01*
X95813319Y-120522791D01*
X96222913Y-119536379D01*
X96223845Y-118468307D01*
X96142245Y-118270821D01*
X96922059Y-118594628D01*
X97178897Y-118594852D01*
X97133858Y-118703319D01*
X97133343Y-119294089D01*
X97358944Y-119840086D01*
X97776317Y-120258188D01*
X98321919Y-120484742D01*
X98912689Y-120485257D01*
X99458686Y-120259656D01*
X99876788Y-119842283D01*
X100103342Y-119296681D01*
X100103857Y-118705911D01*
X99878256Y-118159914D01*
X99460883Y-117741812D01*
X99177031Y-117623946D01*
X99483228Y-116886541D01*
X99483970Y-116037185D01*
X99159620Y-115252200D01*
X98559559Y-114651091D01*
X98156298Y-114483642D01*
X98213228Y-114346541D01*
X98213970Y-113497185D01*
X97889620Y-112712200D01*
X97664313Y-112486500D01*
X107218062Y-112486500D01*
X107969905Y-113238344D01*
X107863972Y-113493459D01*
X107863230Y-114342815D01*
X107921350Y-114483476D01*
X107520800Y-114648980D01*
X106919691Y-115249041D01*
X106593972Y-116033459D01*
X106593230Y-116882815D01*
X106899571Y-117624214D01*
X106618514Y-117740344D01*
X106200412Y-118157717D01*
X105973858Y-118703319D01*
X105973343Y-119294089D01*
X106198944Y-119840086D01*
X106616317Y-120258188D01*
X107161919Y-120484742D01*
X107752689Y-120485257D01*
X108298686Y-120259656D01*
X108716788Y-119842283D01*
X108943342Y-119296681D01*
X108943857Y-118705911D01*
X108898091Y-118595149D01*
X109151415Y-118595370D01*
X109933819Y-118272086D01*
X109854287Y-118463621D01*
X109853355Y-119531693D01*
X110261227Y-120518819D01*
X111015809Y-121274719D01*
X112002221Y-121684313D01*
X113070293Y-121685245D01*
X114057419Y-121277373D01*
X114813319Y-120522791D01*
X115222913Y-119536379D01*
X115223845Y-118468307D01*
X115142245Y-118270821D01*
X115922059Y-118594628D01*
X116178897Y-118594852D01*
X116133858Y-118703319D01*
X116133343Y-119294089D01*
X116358944Y-119840086D01*
X116776317Y-120258188D01*
X117321919Y-120484742D01*
X117912689Y-120485257D01*
X118458686Y-120259656D01*
X118876788Y-119842283D01*
X119103342Y-119296681D01*
X119103857Y-118705911D01*
X118878256Y-118159914D01*
X118460883Y-117741812D01*
X118177031Y-117623946D01*
X118483228Y-116886541D01*
X118483970Y-116037185D01*
X118159620Y-115252200D01*
X117559559Y-114651091D01*
X117156298Y-114483642D01*
X117213228Y-114346541D01*
X117213970Y-113497185D01*
X116889620Y-112712200D01*
X116664313Y-112486500D01*
X126218062Y-112486500D01*
X126969905Y-113238344D01*
X126863972Y-113493459D01*
X126863230Y-114342815D01*
X126921350Y-114483476D01*
X126520800Y-114648980D01*
X125919691Y-115249041D01*
X125593972Y-116033459D01*
X125593230Y-116882815D01*
X125899571Y-117624214D01*
X125618514Y-117740344D01*
X125200412Y-118157717D01*
X124973858Y-118703319D01*
X124973343Y-119294089D01*
X125198944Y-119840086D01*
X125616317Y-120258188D01*
X126161919Y-120484742D01*
X126752689Y-120485257D01*
X127298686Y-120259656D01*
X127716788Y-119842283D01*
X127943342Y-119296681D01*
X127943857Y-118705911D01*
X127898091Y-118595149D01*
X128151415Y-118595370D01*
X128933819Y-118272086D01*
X128854287Y-118463621D01*
X128853355Y-119531693D01*
X129261227Y-120518819D01*
X130015809Y-121274719D01*
X131002221Y-121684313D01*
X132070293Y-121685245D01*
X133057419Y-121277373D01*
X133813319Y-120522791D01*
X134222913Y-119536379D01*
X134223845Y-118468307D01*
X134142245Y-118270821D01*
X134922059Y-118594628D01*
X135178897Y-118594852D01*
X135133858Y-118703319D01*
X135133343Y-119294089D01*
X135358944Y-119840086D01*
X135776317Y-120258188D01*
X136321919Y-120484742D01*
X136912689Y-120485257D01*
X137458686Y-120259656D01*
X137876788Y-119842283D01*
X138103342Y-119296681D01*
X138103857Y-118705911D01*
X137878256Y-118159914D01*
X137460883Y-117741812D01*
X137177031Y-117623946D01*
X137483228Y-116886541D01*
X137483970Y-116037185D01*
X137159620Y-115252200D01*
X136559559Y-114651091D01*
X136156298Y-114483642D01*
X136213228Y-114346541D01*
X136213970Y-113497185D01*
X135889620Y-112712200D01*
X135410756Y-112232500D01*
X149714062Y-112232500D01*
X150719905Y-113238343D01*
X150613972Y-113493459D01*
X150613230Y-114342815D01*
X150671350Y-114483476D01*
X150270800Y-114648980D01*
X149669691Y-115249041D01*
X149343972Y-116033459D01*
X149343230Y-116882815D01*
X149649571Y-117624214D01*
X149368514Y-117740344D01*
X148950412Y-118157717D01*
X148723858Y-118703319D01*
X148723343Y-119294089D01*
X148948944Y-119840086D01*
X149366317Y-120258188D01*
X149911919Y-120484742D01*
X150502689Y-120485257D01*
X151048686Y-120259656D01*
X151466788Y-119842283D01*
X151693342Y-119296681D01*
X151693857Y-118705911D01*
X151648091Y-118595149D01*
X151901415Y-118595370D01*
X152683819Y-118272086D01*
X152604287Y-118463621D01*
X152603355Y-119531693D01*
X153011227Y-120518819D01*
X153765809Y-121274719D01*
X154752221Y-121684313D01*
X155820293Y-121685245D01*
X156807419Y-121277373D01*
X157563319Y-120522791D01*
X157972913Y-119536379D01*
X157973845Y-118468307D01*
X157892245Y-118270821D01*
X158672059Y-118594628D01*
X158928897Y-118594852D01*
X158883858Y-118703319D01*
X158883343Y-119294089D01*
X159108944Y-119840086D01*
X159526317Y-120258188D01*
X160071919Y-120484742D01*
X160662689Y-120485257D01*
X161208686Y-120259656D01*
X161626788Y-119842283D01*
X161853342Y-119296681D01*
X161853857Y-118705911D01*
X161628256Y-118159914D01*
X161210883Y-117741812D01*
X160927031Y-117623946D01*
X161233228Y-116886541D01*
X161233970Y-116037185D01*
X160909620Y-115252200D01*
X160309559Y-114651091D01*
X159906298Y-114483642D01*
X159963228Y-114346541D01*
X159963970Y-113497185D01*
X159639620Y-112712200D01*
X159287535Y-112359500D01*
X178338462Y-112359500D01*
X179217305Y-113238343D01*
X179111372Y-113493459D01*
X179110630Y-114342815D01*
X179168750Y-114483476D01*
X178768200Y-114648980D01*
X178167091Y-115249041D01*
X177841372Y-116033459D01*
X177840630Y-116882815D01*
X178146971Y-117624214D01*
X177865914Y-117740344D01*
X177447812Y-118157717D01*
X177221258Y-118703319D01*
X177220743Y-119294089D01*
X177446344Y-119840086D01*
X177863717Y-120258188D01*
X178409319Y-120484742D01*
X179000089Y-120485257D01*
X179546086Y-120259656D01*
X179555500Y-120250258D01*
X179555500Y-121059000D01*
X179628005Y-121423506D01*
X179834481Y-121732519D01*
X181358480Y-123256519D01*
X181667494Y-123462995D01*
X182032000Y-123535500D01*
X194097000Y-123535500D01*
X194461506Y-123462995D01*
X194688920Y-123311042D01*
X194083462Y-123916500D01*
X72190538Y-123916500D01*
X61318500Y-113044462D01*
X61318500Y-112074607D01*
X61319229Y-112074306D01*
X61560252Y-111833703D01*
X61896902Y-111833703D01*
X62001687Y-112105745D01*
X62629526Y-112340619D01*
X63299456Y-112317349D01*
X63810313Y-112105745D01*
X63915098Y-111833703D01*
X62906000Y-110824605D01*
X61896902Y-111833703D01*
X61560252Y-111833703D01*
X61793640Y-111600722D01*
X61809949Y-111561446D01*
X62726395Y-110645000D01*
X63085605Y-110645000D01*
X64094703Y-111654098D01*
X64366745Y-111549313D01*
X64601619Y-110921474D01*
X64578349Y-110251544D01*
X64366745Y-109740687D01*
X64094703Y-109635902D01*
X63085605Y-110645000D01*
X62726395Y-110645000D01*
X61810896Y-109729501D01*
X61795306Y-109691771D01*
X61560243Y-109456297D01*
X61896902Y-109456297D01*
X62906000Y-110465395D01*
X63915098Y-109456297D01*
X63810313Y-109184255D01*
X63182474Y-108949381D01*
X62512544Y-108972651D01*
X62001687Y-109184255D01*
X61896902Y-109456297D01*
X61560243Y-109456297D01*
X61321722Y-109217360D01*
X60702638Y-108960293D01*
X60032303Y-108959708D01*
X59412771Y-109215694D01*
X59095863Y-109532050D01*
X58781722Y-109217360D01*
X58162638Y-108960293D01*
X57492303Y-108959708D01*
X56872771Y-109215694D01*
X56398360Y-109689278D01*
X56141293Y-110308362D01*
X56140708Y-110978697D01*
X53685000Y-110978697D01*
X53685000Y-31796997D01*
X57319118Y-31796997D01*
X57345109Y-32397668D01*
X57524973Y-32831896D01*
X57778999Y-32915396D01*
X58662395Y-32032000D01*
X59021605Y-32032000D01*
X59905001Y-32915396D01*
X60159027Y-32831896D01*
X60364882Y-32267003D01*
X60338891Y-31666332D01*
X60159027Y-31232104D01*
X59905001Y-31148604D01*
X59021605Y-32032000D01*
X58662395Y-32032000D01*
X57778999Y-31148604D01*
X57524973Y-31232104D01*
X57319118Y-31796997D01*
X53685000Y-31796997D01*
X53685000Y-30685000D01*
X58114465Y-30685000D01*
X58042104Y-30714973D01*
G36*
X220298076Y-88557886D02*
X218823481Y-90032481D01*
X218617005Y-90341494D01*
X218544500Y-90706000D01*
X218544500Y-93500000D01*
X218617005Y-93864506D01*
X218823481Y-94173519D01*
X219090031Y-94440069D01*
X219095168Y-94452500D01*
X217478538Y-94452500D01*
X216741519Y-93715481D01*
X216432506Y-93509005D01*
X216068000Y-93436500D01*
X204397538Y-93436500D01*
X203127538Y-92166500D01*
X214396168Y-92166500D01*
X214517311Y-92459689D01*
X214820714Y-92763622D01*
X215217332Y-92928313D01*
X215646784Y-92928687D01*
X216043689Y-92764689D01*
X216148107Y-92660454D01*
X216487332Y-92801313D01*
X216916784Y-92801687D01*
X217313689Y-92637689D01*
X217617622Y-92334286D01*
X217782313Y-91937668D01*
X217782687Y-91508216D01*
X217655500Y-91200400D01*
X217655500Y-91087000D01*
X217582995Y-90722494D01*
X217376519Y-90413481D01*
X215446538Y-88483500D01*
X220118934Y-88483500D01*
X220298076Y-88557886D01*
X220298076Y-88557886D01*
G37*
X220298076Y-88557886D02*
X218823481Y-90032481D01*
X218617005Y-90341494D01*
X218544500Y-90706000D01*
X218544500Y-93500000D01*
X218617005Y-93864506D01*
X218823481Y-94173519D01*
X219090031Y-94440069D01*
X219095168Y-94452500D01*
X217478538Y-94452500D01*
X216741519Y-93715481D01*
X216432506Y-93509005D01*
X216068000Y-93436500D01*
X204397538Y-93436500D01*
X203127538Y-92166500D01*
X214396168Y-92166500D01*
X214517311Y-92459689D01*
X214820714Y-92763622D01*
X215217332Y-92928313D01*
X215646784Y-92928687D01*
X216043689Y-92764689D01*
X216148107Y-92660454D01*
X216487332Y-92801313D01*
X216916784Y-92801687D01*
X217313689Y-92637689D01*
X217617622Y-92334286D01*
X217782313Y-91937668D01*
X217782687Y-91508216D01*
X217655500Y-91200400D01*
X217655500Y-91087000D01*
X217582995Y-90722494D01*
X217376519Y-90413481D01*
X215446538Y-88483500D01*
X220118934Y-88483500D01*
X220298076Y-88557886D01*
M02*
