M48
;DRILL file {KiCad 4.0.2-stable} date 7/10/2016 3:51:09 PM
;FORMAT={2:4/ absolute / inch / suppress leading zeros}
FMAT,2
INCH,TZ
T1C0.020
T2C0.025
T3C0.026
T4C0.028
T5C0.030
T6C0.040
T7C0.043
T8C0.043
T9C0.059
T10C0.067
T11C0.161
%
G90
G05
M72
T1
X87206Y-48661
X89127Y-48661
T2
X24066Y-19711
X26916Y-36361
X26916Y-37511
X26966Y-36961
X29366Y-43511
X37966Y-35911
X43666Y-43011
X47866Y-34711
X51066Y-42511
X55266Y-33661
X61366Y-42411
X62866Y-33311
X64766Y-42411
X70466Y-32911
X71966Y-42211
X76716Y-46261
X77166Y-47511
X77716Y-45311
X77866Y-35911
X77916Y-34911
X78366Y-32261
X78666Y-18611
X79016Y-41711
X79016Y-44461
X79416Y-46811
X79566Y-47711
X81066Y-14711
X81066Y-17036
X81291Y-32486
X81916Y-19661
X82116Y-38861
X82366Y-38311
X82516Y-35361
X83066Y-39711
X84016Y-19561
X84116Y-41711
X84216Y-36711
X84366Y-38511
X84566Y-40711
X84816Y-36161
X85016Y-40911
X85316Y-36111
X85316Y-42161
X85716Y-40961
X85966Y-33011
X85966Y-36711
X86066Y-38261
X86266Y-33461
X86366Y-45661
X86516Y-37561
X86566Y-33961
X86666Y-37061
X86716Y-41511
X86866Y-34461
X86966Y-36561
X89266Y-37661
X89416Y-39111
X89716Y-32161
X89716Y-39661
X90816Y-36761
X91416Y-29711
X91466Y-32211
X91466Y-33811
X91516Y-39561
T5
X22766Y-43561
X22766Y-47561
X23766Y-43561
X23766Y-47561
X24766Y-43561
X24766Y-47561
X89216Y-14361
X89216Y-18361
X89216Y-20661
X89216Y-24661
X90216Y-14361
X90216Y-18361
X90216Y-20661
X90216Y-24661
X91216Y-14361
X91216Y-18361
X91216Y-20661
X91216Y-24661
T6
X89566Y-33361
X89566Y-34361
X89566Y-35361
X90566Y-33361
X90566Y-34361
X90566Y-35361
T7
X23166Y-23611
T8
X23166Y-12611
X23166Y-13611
X23166Y-14611
X23166Y-15611
X23166Y-16611
X23166Y-17611
X23166Y-18611
X23166Y-19611
X23166Y-20611
X23166Y-21611
X23166Y-22611
X29166Y-12611
X29166Y-13611
X29166Y-14611
X29166Y-15611
X29166Y-16611
X29166Y-17611
X29166Y-18611
X29166Y-19611
X29166Y-20611
X29166Y-21611
X29166Y-22611
X29166Y-23611
T9
X27846Y-45850
X28346Y-44850
X30346Y-44850
X30846Y-45850
X32521Y-15929
X32521Y-23409
X32521Y-30890
X32521Y-38370
X33021Y-14929
X33021Y-22409
X33021Y-29890
X33021Y-37370
X35021Y-14929
X35021Y-22409
X35021Y-29890
X35021Y-37370
X35326Y-45850
X35521Y-15929
X35521Y-23409
X35521Y-30890
X35521Y-38370
X35826Y-44850
X37826Y-44850
X38326Y-45850
X42807Y-15929
X42807Y-23409
X42807Y-30890
X42807Y-38370
X42807Y-45850
X43307Y-14929
X43307Y-22409
X43307Y-29890
X43307Y-37370
X43307Y-44850
X45307Y-14929
X45307Y-22409
X45307Y-29890
X45307Y-37370
X45307Y-44850
X45807Y-15929
X45807Y-23409
X45807Y-30890
X45807Y-38370
X45807Y-45850
X50287Y-15929
X50287Y-23409
X50287Y-30890
X50287Y-38370
X50287Y-45850
X50787Y-14929
X50787Y-22409
X50787Y-29890
X50787Y-37370
X50787Y-44850
X52787Y-14929
X52787Y-22409
X52787Y-29890
X52787Y-37370
X52787Y-44850
X53287Y-15929
X53287Y-23409
X53287Y-30890
X53287Y-38370
X53287Y-45850
X57767Y-15929
X57767Y-23409
X57767Y-30890
X57767Y-38370
X58267Y-14929
X58267Y-22409
X58267Y-29890
X58267Y-37370
X59637Y-45850
X60137Y-44850
X60267Y-14929
X60267Y-22409
X60267Y-29890
X60267Y-37370
X60767Y-15929
X60767Y-23409
X60767Y-30890
X60767Y-38370
X62137Y-44850
X62637Y-45850
X65247Y-15929
X65247Y-23409
X65247Y-30890
X65247Y-38370
X65747Y-14929
X65747Y-22409
X65747Y-29890
X65747Y-37370
X67747Y-14929
X67747Y-22409
X67747Y-29890
X67747Y-37370
X68247Y-15929
X68247Y-23409
X68247Y-30890
X68247Y-38370
X70857Y-45850
X71357Y-44850
X72728Y-15929
X72728Y-23409
X72728Y-30890
X72728Y-38370
X73228Y-14929
X73228Y-22409
X73228Y-29890
X73228Y-37370
X73357Y-44850
X73857Y-45850
X75228Y-14929
X75228Y-22409
X75228Y-29890
X75228Y-37370
X75728Y-15929
X75728Y-23409
X75728Y-30890
X75728Y-38370
X80208Y-42110
X80708Y-41110
X82708Y-41110
X83013Y-15929
X83013Y-23409
X83013Y-30890
X83208Y-42110
X83513Y-14929
X83513Y-22409
X83513Y-29890
X85513Y-14929
X85513Y-22409
X85513Y-29890
X86013Y-15929
X86013Y-23409
X86013Y-30890
X87688Y-42110
X88188Y-41110
X90188Y-41110
X90688Y-42110
T10
X27346Y-46850
X31346Y-46850
X32021Y-16929
X32021Y-24409
X32021Y-31890
X32021Y-39370
X34826Y-46850
X36021Y-16929
X36021Y-24409
X36021Y-31890
X36021Y-39370
X38826Y-46850
X42307Y-16929
X42307Y-24409
X42307Y-31890
X42307Y-39370
X42307Y-46850
X46307Y-16929
X46307Y-24409
X46307Y-31890
X46307Y-39370
X46307Y-46850
X49787Y-16929
X49787Y-24409
X49787Y-31890
X49787Y-39370
X49787Y-46850
X53787Y-16929
X53787Y-24409
X53787Y-31890
X53787Y-39370
X53787Y-46850
X57267Y-16929
X57267Y-24409
X57267Y-31890
X57267Y-39370
X59137Y-46850
X61267Y-16929
X61267Y-24409
X61267Y-31890
X61267Y-39370
X63137Y-46850
X64747Y-16929
X64747Y-24409
X64747Y-31890
X64747Y-39370
X68747Y-16929
X68747Y-24409
X68747Y-31890
X68747Y-39370
X70357Y-46850
X72228Y-16929
X72228Y-24409
X72228Y-31890
X72228Y-39370
X74357Y-46850
X76228Y-16929
X76228Y-24409
X76228Y-31890
X76228Y-39370
X79708Y-43110
X82513Y-16929
X82513Y-24409
X82513Y-31890
X83708Y-43110
X86513Y-16929
X86513Y-24409
X86513Y-31890
X87188Y-43110
X91188Y-43110
T11
X29346Y-46850
X34021Y-16929
X34021Y-24409
X34021Y-31890
X34021Y-39370
X36826Y-46850
X44307Y-16929
X44307Y-24409
X44307Y-31890
X44307Y-39370
X44307Y-46850
X51787Y-16929
X51787Y-24409
X51787Y-31890
X51787Y-39370
X51787Y-46850
X59267Y-16929
X59267Y-24409
X59267Y-31890
X59267Y-39370
X61137Y-46850
X66747Y-16929
X66747Y-24409
X66747Y-31890
X66747Y-39370
X72357Y-46850
X74228Y-16929
X74228Y-24409
X74228Y-31890
X74228Y-39370
X81708Y-43110
X84513Y-16929
X84513Y-24409
X84513Y-31890
X89188Y-43110
T3
X78632Y-13327G85X78632Y-13484
G05
X80541Y-13327G85X80541Y-13484
G05
T4
X78514Y-12165G85X78514Y-12362
G05
X80659Y-12165G85X80659Y-12362
G05
T0
M30
