M48
;DRILL file {KiCad 4.0.0-rc1-stable} date 12/27/2015 3:28:31 PM
;FORMAT={2:4/ absolute / inch / suppress leading zeros}
FMAT,2
INCH,TZ
T1C0.022
T2C0.025
T3C0.026
T4C0.028
T5C0.040
T6C0.059
T7C0.067
T8C0.161
%
G90
G05
M72
T1
X27258Y-27776
X29179Y-27776
T2
X23319Y-26169
X23543Y-14567
X25047Y-26709
X25197Y-30827
X25443Y-22825
X25502Y-26919
X25581Y-24134
X26348Y-32854
X26413Y-24197
X26417Y-22362
X26762Y-35522
X27047Y-22362
X27126Y-20906
X27569Y-22402
X27717Y-14567
X28012Y-20846
X28120Y-22382
X28232Y-22969
X30020Y-26476
X30138Y-24783
X42953Y-20827
X50276Y-20315
X58307Y-19882
X64902Y-19252
X73661Y-18937
X79724Y-18189
X89764Y-38484
X89980Y-30020
T5
X22575Y-30472
X22575Y-31472
X22575Y-32472
X23575Y-30472
X23575Y-31472
X23575Y-32472
T6
X27846Y-45850
X28346Y-44850
X30346Y-44850
X30846Y-45850
X32521Y-15929
X32521Y-23409
X32521Y-30890
X32521Y-38370
X33021Y-14929
X33021Y-22409
X33021Y-29890
X33021Y-37370
X35021Y-14929
X35021Y-22409
X35021Y-29890
X35021Y-37370
X35326Y-45850
X35521Y-15929
X35521Y-23409
X35521Y-30890
X35521Y-38370
X35826Y-44850
X37826Y-44850
X38326Y-45850
X42807Y-15929
X42807Y-23409
X42807Y-30890
X42807Y-38370
X42807Y-45850
X43307Y-14929
X43307Y-22409
X43307Y-29890
X43307Y-37370
X43307Y-44850
X45307Y-14929
X45307Y-22409
X45307Y-29890
X45307Y-37370
X45307Y-44850
X45807Y-15929
X45807Y-23409
X45807Y-30890
X45807Y-38370
X45807Y-45850
X50287Y-15929
X50287Y-23409
X50287Y-30890
X50287Y-38370
X50287Y-45850
X50787Y-14929
X50787Y-22409
X50787Y-29890
X50787Y-37370
X50787Y-44850
X52787Y-14929
X52787Y-22409
X52787Y-29890
X52787Y-37370
X52787Y-44850
X53287Y-15929
X53287Y-23409
X53287Y-30890
X53287Y-38370
X53287Y-45850
X57767Y-15929
X57767Y-23409
X57767Y-30890
X57767Y-38370
X58267Y-14929
X58267Y-22409
X58267Y-29890
X58267Y-37370
X59637Y-45850
X60137Y-44850
X60267Y-14929
X60267Y-22409
X60267Y-29890
X60267Y-37370
X60767Y-15929
X60767Y-23409
X60767Y-30890
X60767Y-38370
X62137Y-44850
X62637Y-45850
X65247Y-15929
X65247Y-23409
X65247Y-30890
X65247Y-38370
X65747Y-14929
X65747Y-22409
X65747Y-29890
X65747Y-37370
X67747Y-14929
X67747Y-22409
X67747Y-29890
X67747Y-37370
X68247Y-15929
X68247Y-23409
X68247Y-30890
X68247Y-38370
X70857Y-45850
X71357Y-44850
X72728Y-15929
X72728Y-23409
X72728Y-30890
X72728Y-38370
X73228Y-14929
X73228Y-22409
X73228Y-29890
X73228Y-37370
X73357Y-44850
X73857Y-45850
X75228Y-14929
X75228Y-22409
X75228Y-29890
X75228Y-37370
X75728Y-15929
X75728Y-23409
X75728Y-30890
X75728Y-38370
X80208Y-42110
X80708Y-41110
X82708Y-41110
X83013Y-15929
X83013Y-23409
X83013Y-30890
X83208Y-42110
X83513Y-14929
X83513Y-22409
X83513Y-29890
X85513Y-14929
X85513Y-22409
X85513Y-29890
X86013Y-15929
X86013Y-23409
X86013Y-30890
X87688Y-42110
X88188Y-41110
X90188Y-41110
X90688Y-42110
T7
X27346Y-46850
X31346Y-46850
X32021Y-16929
X32021Y-24409
X32021Y-31890
X32021Y-39370
X34826Y-46850
X36021Y-16929
X36021Y-24409
X36021Y-31890
X36021Y-39370
X38826Y-46850
X42307Y-16929
X42307Y-24409
X42307Y-31890
X42307Y-39370
X42307Y-46850
X46307Y-16929
X46307Y-24409
X46307Y-31890
X46307Y-39370
X46307Y-46850
X49787Y-16929
X49787Y-24409
X49787Y-31890
X49787Y-39370
X49787Y-46850
X53787Y-16929
X53787Y-24409
X53787Y-31890
X53787Y-39370
X53787Y-46850
X57267Y-16929
X57267Y-24409
X57267Y-31890
X57267Y-39370
X59137Y-46850
X61267Y-16929
X61267Y-24409
X61267Y-31890
X61267Y-39370
X63137Y-46850
X64747Y-16929
X64747Y-24409
X64747Y-31890
X64747Y-39370
X68747Y-16929
X68747Y-24409
X68747Y-31890
X68747Y-39370
X70357Y-46850
X72228Y-16929
X72228Y-24409
X72228Y-31890
X72228Y-39370
X74357Y-46850
X76228Y-16929
X76228Y-24409
X76228Y-31890
X76228Y-39370
X79708Y-43110
X82513Y-16929
X82513Y-24409
X82513Y-31890
X83708Y-43110
X86513Y-16929
X86513Y-24409
X86513Y-31890
X87188Y-43110
X91188Y-43110
T8
X29346Y-46850
X34021Y-16929
X34021Y-24409
X34021Y-31890
X34021Y-39370
X36826Y-46850
X44307Y-16929
X44307Y-24409
X44307Y-31890
X44307Y-39370
X44307Y-46850
X51787Y-16929
X51787Y-24409
X51787Y-31890
X51787Y-39370
X51787Y-46850
X59267Y-16929
X59267Y-24409
X59267Y-31890
X59267Y-39370
X61137Y-46850
X66747Y-16929
X66747Y-24409
X66747Y-31890
X66747Y-39370
X72357Y-46850
X74228Y-16929
X74228Y-24409
X74228Y-31890
X74228Y-39370
X81708Y-43110
X84513Y-16929
X84513Y-24409
X84513Y-31890
X89188Y-43110
T3
X24636Y-13642G85X24636Y-13799
G05
X26545Y-13642G85X26545Y-13799
G05
T4
X24518Y-12480G85X24518Y-12677
G05
X26663Y-12480G85X26663Y-12677
G05
T0
M30
