G04 #@! TF.FileFunction,Legend,Bot*
%FSLAX46Y46*%
G04 Gerber Fmt 4.6, Leading zero omitted, Abs format (unit mm)*
G04 Created by KiCad (PCBNEW 4.0.2-stable) date 7/10/2016 3:50:19 PM*
%MOMM*%
G01*
G04 APERTURE LIST*
%ADD10C,0.150000*%
%ADD11C,0.381000*%
%ADD12C,0.300000*%
%ADD13C,0.200660*%
%ADD14C,0.457200*%
%ADD15C,0.109220*%
%ADD16C,0.304800*%
G04 APERTURE END LIST*
D10*
D11*
X57572000Y-30762000D02*
X75352000Y-30762000D01*
X75352000Y-30762000D02*
X75352000Y-61242000D01*
X75352000Y-61242000D02*
X57572000Y-61242000D01*
X57572000Y-61242000D02*
X57572000Y-30762000D01*
X72812000Y-30762000D02*
X72812000Y-33302000D01*
X72812000Y-33302000D02*
X75352000Y-33302000D01*
D12*
X217973000Y-109356000D02*
X217973000Y-108232000D01*
X217973000Y-108232000D02*
X215941000Y-108232000D01*
X215941000Y-108232000D02*
X215941000Y-109356000D01*
X217973000Y-110437000D02*
X217973000Y-111534000D01*
X217973000Y-111534000D02*
X215941000Y-111534000D01*
X215941000Y-111534000D02*
X215941000Y-110437000D01*
D10*
X229367000Y-121349000D02*
X229367000Y-125849000D01*
X218517000Y-121349000D02*
X218517000Y-125849000D01*
X218517000Y-125849000D02*
X229367000Y-125849000D01*
X218517000Y-121349000D02*
X229367000Y-121349000D01*
D13*
X231031140Y-74323000D02*
G75*
G03X231031140Y-74323000I-1501140J0D01*
G01*
X231879500Y-77421800D02*
X231879500Y-77922180D01*
X231879500Y-77922180D02*
X231181000Y-77922180D01*
X231181000Y-77922180D02*
X231181000Y-77421800D01*
X227180500Y-77922180D02*
X227180500Y-77421800D01*
X227879000Y-77922180D02*
X227180500Y-77922180D01*
X227879000Y-77421800D02*
X227879000Y-77922180D01*
X227879000Y-71224200D02*
X227879000Y-70723820D01*
X227879000Y-70723820D02*
X227180500Y-70723820D01*
X227180500Y-70723820D02*
X227180500Y-71224200D01*
X231879500Y-71224200D02*
X231879500Y-70723820D01*
X231879500Y-70723820D02*
X231181000Y-70723820D01*
X231181000Y-70723820D02*
X231181000Y-71224200D01*
D11*
X226431200Y-77122080D02*
X226431200Y-71523920D01*
X232628800Y-77122080D02*
X232628800Y-71523920D01*
X232529740Y-77421800D02*
X232529740Y-71224200D01*
X232529740Y-71224200D02*
X226530260Y-71224200D01*
X226530260Y-71224200D02*
X226530260Y-77421800D01*
X226530260Y-77421800D02*
X232529740Y-77421800D01*
D12*
X217973000Y-114436000D02*
X217973000Y-113312000D01*
X217973000Y-113312000D02*
X215941000Y-113312000D01*
X215941000Y-113312000D02*
X215941000Y-114436000D01*
X217973000Y-115517000D02*
X217973000Y-116614000D01*
X217973000Y-116614000D02*
X215941000Y-116614000D01*
X215941000Y-116614000D02*
X215941000Y-115517000D01*
D14*
X64792857Y-36325810D02*
X64792857Y-37777238D01*
X67840857Y-37051524D02*
X64792857Y-37051524D01*
X66244286Y-38623905D02*
X66244286Y-39470572D01*
X67840857Y-39833429D02*
X67840857Y-38623905D01*
X64792857Y-38623905D01*
X64792857Y-39833429D01*
X66244286Y-40922000D02*
X66244286Y-41768667D01*
X67840857Y-42131524D02*
X67840857Y-40922000D01*
X64792857Y-40922000D01*
X64792857Y-42131524D01*
X67840857Y-43220095D02*
X64792857Y-43220095D01*
X67840857Y-44671523D01*
X64792857Y-44671523D01*
X67695714Y-45760095D02*
X67840857Y-46122952D01*
X67840857Y-46727714D01*
X67695714Y-46969618D01*
X67550571Y-47090571D01*
X67260286Y-47211523D01*
X66970000Y-47211523D01*
X66679714Y-47090571D01*
X66534571Y-46969618D01*
X66389429Y-46727714D01*
X66244286Y-46243904D01*
X66099143Y-46001999D01*
X65954000Y-45881047D01*
X65663714Y-45760095D01*
X65373429Y-45760095D01*
X65083143Y-45881047D01*
X64938000Y-46001999D01*
X64792857Y-46243904D01*
X64792857Y-46848666D01*
X64938000Y-47211523D01*
X66389429Y-48783904D02*
X67840857Y-48783904D01*
X64792857Y-47937238D02*
X66389429Y-48783904D01*
X64792857Y-49630571D01*
X65083143Y-50356286D02*
X64938000Y-50477238D01*
X64792857Y-50719143D01*
X64792857Y-51323905D01*
X64938000Y-51565809D01*
X65083143Y-51686762D01*
X65373429Y-51807714D01*
X65663714Y-51807714D01*
X66099143Y-51686762D01*
X67840857Y-50235333D01*
X67840857Y-51807714D01*
X67550571Y-52896286D02*
X67695714Y-53017238D01*
X67840857Y-52896286D01*
X67695714Y-52775334D01*
X67550571Y-52896286D01*
X67840857Y-52896286D01*
X64792857Y-54589619D02*
X64792857Y-54831524D01*
X64938000Y-55073429D01*
X65083143Y-55194381D01*
X65373429Y-55315334D01*
X65954000Y-55436286D01*
X66679714Y-55436286D01*
X67260286Y-55315334D01*
X67550571Y-55194381D01*
X67695714Y-55073429D01*
X67840857Y-54831524D01*
X67840857Y-54589619D01*
X67695714Y-54347715D01*
X67550571Y-54226762D01*
X67260286Y-54105810D01*
X66679714Y-53984858D01*
X65954000Y-53984858D01*
X65373429Y-54105810D01*
X65083143Y-54226762D01*
X64938000Y-54347715D01*
X64792857Y-54589619D01*
D15*
X225216777Y-123618897D02*
X224978500Y-123618897D01*
X225264432Y-123761862D02*
X225097638Y-123261482D01*
X224930845Y-123761862D01*
X224835535Y-123261482D02*
X224549603Y-123261482D01*
X224692569Y-123761862D02*
X224692569Y-123261482D01*
X224406638Y-123738035D02*
X224335155Y-123761862D01*
X224216017Y-123761862D01*
X224168361Y-123738035D01*
X224144534Y-123714207D01*
X224120706Y-123666552D01*
X224120706Y-123618897D01*
X224144534Y-123571241D01*
X224168361Y-123547414D01*
X224216017Y-123523586D01*
X224311327Y-123499759D01*
X224358982Y-123475931D01*
X224382810Y-123452103D01*
X224406638Y-123404448D01*
X224406638Y-123356793D01*
X224382810Y-123309138D01*
X224358982Y-123285310D01*
X224311327Y-123261482D01*
X224192189Y-123261482D01*
X224120706Y-123285310D01*
X223644154Y-123761862D02*
X223930086Y-123761862D01*
X223787120Y-123761862D02*
X223787120Y-123261482D01*
X223834775Y-123332965D01*
X223882430Y-123380620D01*
X223930086Y-123404448D01*
X223215257Y-123261482D02*
X223310568Y-123261482D01*
X223358223Y-123285310D01*
X223382051Y-123309138D01*
X223429706Y-123380620D01*
X223453534Y-123475931D01*
X223453534Y-123666552D01*
X223429706Y-123714207D01*
X223405878Y-123738035D01*
X223358223Y-123761862D01*
X223262913Y-123761862D01*
X223215257Y-123738035D01*
X223191430Y-123714207D01*
X223167602Y-123666552D01*
X223167602Y-123547414D01*
X223191430Y-123499759D01*
X223215257Y-123475931D01*
X223262913Y-123452103D01*
X223358223Y-123452103D01*
X223405878Y-123475931D01*
X223429706Y-123499759D01*
X223453534Y-123547414D01*
X222786361Y-123499759D02*
X222714878Y-123523586D01*
X222691050Y-123547414D01*
X222667222Y-123595069D01*
X222667222Y-123666552D01*
X222691050Y-123714207D01*
X222714878Y-123738035D01*
X222762533Y-123761862D01*
X222953154Y-123761862D01*
X222953154Y-123261482D01*
X222786361Y-123261482D01*
X222738705Y-123285310D01*
X222714878Y-123309138D01*
X222691050Y-123356793D01*
X222691050Y-123404448D01*
X222714878Y-123452103D01*
X222738705Y-123475931D01*
X222786361Y-123499759D01*
X222953154Y-123499759D01*
D16*
X228796343Y-69280757D02*
X228578629Y-69353329D01*
X228215772Y-69353329D01*
X228070629Y-69280757D01*
X227998058Y-69208186D01*
X227925486Y-69063043D01*
X227925486Y-68917900D01*
X227998058Y-68772757D01*
X228070629Y-68700186D01*
X228215772Y-68627614D01*
X228506058Y-68555043D01*
X228651200Y-68482471D01*
X228723772Y-68409900D01*
X228796343Y-68264757D01*
X228796343Y-68119614D01*
X228723772Y-67974471D01*
X228651200Y-67901900D01*
X228506058Y-67829329D01*
X228143200Y-67829329D01*
X227925486Y-67901900D01*
X226474057Y-69353329D02*
X227344914Y-69353329D01*
X226909486Y-69353329D02*
X226909486Y-67829329D01*
X227054629Y-68047043D01*
X227199771Y-68192186D01*
X227344914Y-68264757D01*
X225418829Y-69978471D02*
X223894829Y-69978471D01*
X223894829Y-70341328D01*
X223967400Y-70559043D01*
X224112543Y-70704185D01*
X224257686Y-70776757D01*
X224547971Y-70849328D01*
X224765686Y-70849328D01*
X225055971Y-70776757D01*
X225201114Y-70704185D01*
X225346257Y-70559043D01*
X225418829Y-70341328D01*
X225418829Y-69978471D01*
X223894829Y-71284757D02*
X223894829Y-72155614D01*
X225418829Y-71720185D02*
X223894829Y-71720185D01*
X225346257Y-72591043D02*
X225418829Y-72808757D01*
X225418829Y-73171614D01*
X225346257Y-73316757D01*
X225273686Y-73389328D01*
X225128543Y-73461900D01*
X224983400Y-73461900D01*
X224838257Y-73389328D01*
X224765686Y-73316757D01*
X224693114Y-73171614D01*
X224620543Y-72881328D01*
X224547971Y-72736186D01*
X224475400Y-72663614D01*
X224330257Y-72591043D01*
X224185114Y-72591043D01*
X224039971Y-72663614D01*
X223967400Y-72736186D01*
X223894829Y-72881328D01*
X223894829Y-73244186D01*
X223967400Y-73461900D01*
X225418829Y-74115043D02*
X223894829Y-74115043D01*
X224983400Y-74623043D01*
X223894829Y-75131043D01*
X225418829Y-75131043D01*
X224838257Y-75856757D02*
X224838257Y-77017900D01*
X223894829Y-78396757D02*
X223894829Y-78106471D01*
X223967400Y-77961328D01*
X224039971Y-77888757D01*
X224257686Y-77743614D01*
X224547971Y-77671043D01*
X225128543Y-77671043D01*
X225273686Y-77743614D01*
X225346257Y-77816186D01*
X225418829Y-77961328D01*
X225418829Y-78251614D01*
X225346257Y-78396757D01*
X225273686Y-78469328D01*
X225128543Y-78541900D01*
X224765686Y-78541900D01*
X224620543Y-78469328D01*
X224547971Y-78396757D01*
X224475400Y-78251614D01*
X224475400Y-77961328D01*
X224547971Y-77816186D01*
X224620543Y-77743614D01*
X224765686Y-77671043D01*
M02*
